<?xml version="1.0" encoding="UTF-8"?><svg id="Livello_2" xmlns="http://www.w3.org/2000/svg" viewBox="0 0 46.81 13.26"><defs><style>.cls-1{fill:#ff925b;}.cls-2{fill:#d54111;}</style></defs><g id="old"><g id="cane"><g><path class="cls-2" d="m38.24,9.88l.57-.21c.13-.05,3.16-1.19,2.58-3.6-.18-.73-1.38-1.96-7.46-1.96C22.38,4.11,2.12,8.61,1.92,8.65l-.61.14-.61-3.52.58-.11c.23-.05,23.34-4.56,36-4.56,5.65,0,8.44.87,8.77,2.73.41,2.33.05,4.33-1.08,5.93-1.85,2.63-5.07,3.22-5.21,3.24l-.49.08-1.04-2.71Z"/><path d="m37.27,1.2c4.63,0,7.89.6,8.18,2.23,1.28,7.25-5.79,8.48-5.79,8.48l-.64-1.68s3.67-1.33,2.95-4.31c-.43-1.78-3.63-2.42-8.05-2.42-11.75,0-32.14,4.56-32.14,4.56l-.4-2.32S24.52,1.2,37.27,1.2m0-1.2h0C24.55,0,2.1,4.38,1.15,4.57l-1.15.23.2,1.16.4,2.32.22,1.24,1.23-.27c.2-.05,20.39-4.53,31.87-4.53,6.33,0,6.84,1.35,6.88,1.5.46,1.89-2.09,2.86-2.2,2.9l-1.14.42.43,1.13.64,1.68.35.92.97-.17c.15-.03,3.61-.66,5.59-3.49,1.22-1.74,1.62-3.89,1.17-6.38-.39-2.23-3.28-3.22-9.36-3.22h0Z"/></g><g><path class="cls-1" d="m38.26,9.95l.48-.25c.07-.04.44-.21.9-.21.68,0,1.22.4,1.46,1.1.19.55.06.95-.09,1.18-.38.61-1.19.73-1.28.74l-.47.06-1-2.62Z"/><path d="m39.64,10.09c.33,0,.7.14.9.7.34.98-.88,1.13-.88,1.13l-.64-1.68s.29-.15.62-.15m0-1.2c-.58,0-1.04.21-1.17.28l-.96.49.38,1,.64,1.68.34.88.93-.12c.2-.02,1.2-.19,1.71-1.02.31-.49.36-1.1.15-1.7-.33-.94-1.09-1.5-2.03-1.5h0Z"/></g></g></g></svg>