<?xml version="1.0" encoding="UTF-8"?><svg id="Livello_2" xmlns="http://www.w3.org/2000/svg" viewBox="0 0 312.6 156.07"><defs><style>.cls-1{fill:#444fd2;}.cls-2{fill:none;opacity:0;}</style></defs><g id="END_mockup"><g id="starsBckg"><polygon class="cls-1" points="67.13 47.5 78.88 91.13 118.85 85.63 85.12 112.51 98.17 147.76 65.06 125.23 32.1 152.99 47.76 111.32 9.23 89.3 53.39 89.35 67.13 47.5"/><polygon class="cls-1" points="171.55 23.07 173.53 66.28 218.09 76.69 175.58 87.08 186.38 136.62 158.69 99.92 114.26 126.61 143.62 82.32 110.02 57.86 150.05 66.63 171.55 23.07"/><polygon class="cls-1" points="240.61 44.08 262.62 82.4 303.43 64.96 278.99 94.89 298.36 132.14 268.22 118.63 240.43 154.77 245.94 112.76 199.67 102.59 241.58 89.28 240.61 44.08"/><rect class="cls-2" width="312.6" height="156.07"/></g></g></svg>