<?xml version="1.0" encoding="UTF-8"?><svg id="Livello_2" xmlns="http://www.w3.org/2000/svg" viewBox="0 0 312.6 156.07"><defs><style>.cls-1{fill:none;opacity:0;}.cls-2{fill:#ffe000;stroke:#fff;stroke-miterlimit:10;stroke-width:3px;}</style></defs><g id="END_mockup"><g id="stars3"><polygon class="cls-2" points="67.13 34.43 78.88 78.05 118.85 72.56 85.12 99.44 98.17 134.69 65.06 112.15 32.1 139.91 47.76 98.25 9.23 76.23 53.39 76.28 67.13 34.43"/><polygon class="cls-2" points="171.55 9.99 173.53 53.21 218.09 63.62 175.58 74 186.38 123.55 158.69 86.85 114.26 113.53 143.62 69.24 110.02 44.79 150.05 53.56 171.55 9.99"/><polygon class="cls-2" points="240.61 31.01 262.62 69.32 303.43 51.88 278.99 81.81 298.36 119.07 268.22 105.55 240.43 141.69 245.94 99.69 199.67 89.51 241.58 76.2 240.61 31.01"/><rect class="cls-1" width="312.6" height="156.07"/></g></g></svg>