<?xml version="1.0" encoding="UTF-8"?><svg id="Livello_2" xmlns="http://www.w3.org/2000/svg" viewBox="0 0 140.1 183.76"><defs><style>.cls-1,.cls-2,.cls-3{fill:none;}.cls-4,.cls-2,.cls-5,.cls-6,.cls-7,.cls-8,.cls-9,.cls-10,.cls-11,.cls-3,.cls-12{stroke-miterlimit:10;}.cls-4,.cls-2,.cls-5,.cls-7,.cls-9,.cls-10,.cls-11,.cls-3,.cls-12{stroke:#000;}.cls-4,.cls-12{stroke-width:.75px;}.cls-2{stroke-width:3px;}.cls-5{fill:#8c6239;}.cls-5,.cls-6,.cls-7,.cls-8,.cls-9,.cls-10,.cls-11{stroke-width:1.2px;}.cls-6{fill:#adeaff;}.cls-6,.cls-8{stroke:#4d96ca;}.cls-7,.cls-8,.cls-13{fill:#68d1e7;}.cls-9,.cls-14{fill:#fff;}.cls-10{fill:#ffd1a5;}.cls-15{fill:#ff925b;}.cls-16{fill:#d54111;}.cls-17{fill:#d59f59;}.cls-3{stroke-width:1.2px;}.cls-12{fill:#ffbc61;}</style></defs><g id="export"><g id="oldFall"><g><path class="cls-2" d="M114.85,32.48c1.85-1.41,.3-5.32-1.58-5.91s-1.49,1.82,.35,4.08"/><g><path class="cls-2" d="M105.97,17.74l-.26,1.87s-3.86-.66-4.68,2.44c-1.8,6.78,36.12,18.66,36.12,18.66l-.78,2.34s-41.64-14.31-39.6-20.5c2.42-7.32,9.19-4.82,9.19-4.82Z"/><path class="cls-2" d="M105.97,17.74s-1.14-.49-1.31,.58c-.2,1.24,1.06,1.29,1.06,1.29l.26-1.87Z"/></g><polyline class="cls-2" points="74.34 75.07 107.41 37.36 111.26 39.97 77.2 77.92"/><path class="cls-2" d="M80.29,66.8l3.3,56.05-43.01,3.69s-12.3-71.9,39.7-59.75Z"/><path class="cls-2" d="M99.09,2.72l-32.6,8.1,2.33,27.03c-.68-.17-1.45-.22-2.26-.12-2.4,.29-4.22,1.75-4.06,3.27,.16,1.52,2.25,2.51,4.65,2.23,.77-.09,1.48-.3,2.08-.6l1.92,22.28-1.86,14.26,7.91-1.26,3.08-11.11,10.93-.75c10.21-30.16,7.88-63.33,7.88-63.33Z"/><path class="cls-2" d="M77.27,96.6l-2.38,47.17,5.96,15.2-14.47-12.98-2.12-34.34-3.13,33.75-15.19,14.18,6.23-15.81-4.66-24.35s-15.26-8.96-1.13-20.69l30.89-2.13Z"/><path class="cls-2" d="M70.9,63.91l-15.51,61.38-14.81,1.26s-7.41-59.65,15.28-63.58c9.43-1.63,15.03,.94,15.03,.94Z"/><polyline class="cls-2" points="62.02 66.55 47.11 30.64 41.44 33.94 59.9 75.19"/><g><path class="cls-2" d="M46.95,30.41c.82-3.44,5.09-5.84,2.62-6.42-1.91-.45-4.84,2.47-4.84,2.47-1.43-4.96,2.58-8.6,.84-9.09-3.02-.86-3.61,2.88-3.68,3.47,.32-3.49,1.32-6.12-.54-5.61-2.05,.56-2.24,2.91-2.22,3.97-.11-1.58-.39-2.44-1.58-1.84-.98,.5-1.2,3.02-.79,5.8-.26-1.33-.46-2.28-.79-2.17-1.1,.37-1.37,2.17-1.35,3.43,.06,3.07,1.49,8.06,6.98,10.67l.04,7.14,11.5-9.32-6.19-2.48Z"/><path class="cls-2" d="M41.64,20.87s.42-4.48,3.69-3.55c1.73,.49-2.27,4.13-.84,9.09"/><path class="cls-2" d="M38.92,19.66s-.48-3.77,2.19-4.49c2.95-.8-1.27,6.23,1.37,12.11"/><path class="cls-2" d="M36.94,25.16c-.89-3.5-.84-7.24,.38-7.86,2.84-1.45,.54,5.47,2.86,10.86"/><path class="cls-2" d="M42.66,30.42c.95-4.72,4.77-6.93,6.68-6.48,2.47,.58-1.8,2.97-2.62,6.42l6.19,2.48-11.5,9.32-.04-7.14c-5.49-2.61-6.92-7.6-6.98-10.67-.02-1.27,.25-3.06,1.35-3.43,.77-.26,.88,5.53,2.58,8.13"/></g><g><path class="cls-2" d="M108.37,29.37c.23,.11,.47-.09,.46-.36-.03-.92,1.24-1.44,1.92-1.75,.25-.12,.16-.83-.07-.99-2.49-1.76-4.11,.97-4.03,2.73l1.72,.37Z"/><path class="cls-2" d="M109.47,33.66s-5.67-2.69-1.5-5c1.34-.74,2.42-.68,3.17-.17,.33,.22,.38,1.18,0,1.26-1.22,.24-3,.78-1.43,1.63l-.24,2.27Z"/><path class="cls-2" d="M104.09,36.62l5.83-2.12s-3.6-2.86-.68-4.55c1.97-1.14,3.09-.67,3.68-.02,.23,.25,.24,1-.07,1.11-1.1,.39-3.02,1.5,.49,3.89,.4,.27,.71,.35,.71,.35l-1.58,8.69-8.38-7.35Z"/></g></g><path class="cls-7" d="M114.85,32.48c1.85-1.41,.3-5.32-1.58-5.91s-1.49,1.82,.35,4.08"/><g><g><path class="cls-16" d="M136.18,43.62c-7.05-2.42-42.09-14.82-39.97-21.25,1.62-4.91,5.18-5.64,7.16-5.64,1.58,0,2.76,.43,2.81,.45l.45,.17-.41,2.96-.61-.1s-.31-.05-.75-.05c-1.23,0-2.8,.36-3.25,2.05-1.2,4.53,21.27,13.41,35.72,17.94l.58,.18-1.16,3.49-.57-.2Z"/><path d="M103.36,17.32c1.49,0,2.61,.41,2.61,.41l-.26,1.87s-.35-.06-.85-.06c-1.18,0-3.25,.33-3.83,2.5-1.8,6.78,36.12,18.66,36.12,18.66l-.78,2.34s-41.64-14.31-39.6-20.5c1.44-4.35,4.41-5.23,6.59-5.23m0-1.2h0c-2.14,0-5.99,.79-7.73,6.05-1,3.03,3.97,6.07,5.84,7.21,3.25,1.99,7.91,4.29,13.86,6.83,10.08,4.32,20.54,7.92,20.65,7.96l1.15,.39,.38-1.15,.78-2.34,.39-1.16-1.17-.37c-22.02-6.91-36.04-14.47-35.32-17.21,.28-1.07,1.18-1.61,2.67-1.61,.38,0,.65,.04,.65,.04l1.21,.2,.17-1.22,.26-1.87,.13-.96-.9-.33c-.05-.02-1.34-.49-3.02-.49h0Z"/></g><g><path class="cls-15" d="M105.69,20.21c-.09,0-.85-.05-1.32-.62-.2-.25-.42-.69-.31-1.36,.12-.75,.63-1.2,1.36-1.2,.39,0,.72,.13,.78,.16l.42,.18-.39,2.86-.54-.02Z"/><path d="M105.42,17.63c.29,0,.55,.11,.55,.11l-.26,1.87s-1.26-.05-1.06-1.29c.09-.56,.45-.7,.77-.7m0-1.2c-1.02,0-1.78,.67-1.95,1.7-.15,.9,.16,1.49,.44,1.84,.62,.76,1.57,.84,1.76,.84l1.08,.04,.15-1.07,.26-1.87,.12-.91-.84-.36c-.11-.05-.52-.21-1.02-.21h0Z"/></g></g><ellipse class="cls-11" cx="67.81" cy="154.01" rx="3.24" ry="1.64" transform="translate(-89.03 214.96) rotate(-87.47)"/><ellipse class="cls-11" cx="60.6" cy="152.84" rx="3.24" ry="1.64" transform="translate(-94.76 206.65) rotate(-87.47)"/><ellipse class="cls-11" cx="52.54" cy="160.66" rx="3.24" ry="1.64" transform="translate(-110.29 206.07) rotate(-87.47)"/><ellipse class="cls-11" cx="74.34" cy="160.66" rx="3.24" ry="1.64" transform="translate(-89.43 227.85) rotate(-87.47)"/><polyline class="cls-9" points="74.34 75.07 107.41 37.36 111.26 39.97 77.2 77.92"/><g><path class="cls-14" d="M41.09,125.9c-.67-4.52-4.79-35.84,8.2-51.24,4.84-5.74,11.56-8.65,19.97-8.65,3.21,0,6.73,.43,10.45,1.27l3.24,55.02-41.87,3.6Z"/><path d="M69.26,66.62h0c3.04,0,6.36,.39,9.88,1.16l3.18,53.99-40.72,3.5c-.85-6.03-4.23-35.53,8.15-50.2,4.72-5.6,11.29-8.43,19.51-8.43m0-1.2c-39.14,0-28.68,61.13-28.68,61.13l43.01-3.69-3.3-56.05c-4.05-.95-7.71-1.38-11.02-1.38h0Z"/></g><g><path class="cls-10" d="M99.09,2.72l-32.6,8.1,2.33,27.03c-.68-.17-1.45-.22-2.26-.12-2.4,.29-4.22,1.75-4.06,3.27,.16,1.52,2.25,2.51,4.65,2.23,.77-.09,1.48-.3,2.08-.6l1.92,22.28-1.86,14.26,7.91-1.26,3.08-11.11,10.93-.75c10.21-30.16,7.88-63.33,7.88-63.33Z"/><g><path d="M77.55,14.35l.42-.55,2.55,1.94-2.97-1.39Zm2.7-2.02l.52-.42,1.48,2.55-2-2.13Z"/><path d="M80.94,11.01l-1.57,1.26,6.02,6.41-4.45-7.67h0Zm-3.09,1.96l-1.24,1.61,8.77,4.1-7.54-5.71h0Z"/></g><g><path d="M95.91,13.32l.2,.84-2.65,1.7,2.45-2.54Zm-2.96-1.76l.64,.52-1.83,2.67,1.18-3.19Z"/><path d="M92.67,10.57l-3.18,8.55,4.9-7.15-1.72-1.39h0Zm3.56,1.54l-6.74,7,7.29-4.68-.56-2.33h0Z"/></g><polygon class="cls-4" points="86.35 50.66 99.08 39.97 104.58 41.99 105.46 51.27 99.45 46.98 99.34 52.43 94.77 48.31 92.48 51.59 86.35 50.66"/><g><g><polygon points="64.42 32.23 70.86 32.23 64.74 34.09 64.42 32.23"/><path d="M66.82,32.83l-1.61,.49-.08-.49h1.69m8.07-1.2h-11.19l.56,3.23,10.63-3.23h0Z"/></g><polyline class="cls-8" points="95.18 43.58 88.86 44.44 87.94 20.53 94.43 20.12"/><ellipse class="cls-6" cx="94.81" cy="31.85" rx="5.32" ry="11.74" transform="translate(-.95 2.98) rotate(-1.79)"/><polyline class="cls-10" points="88.6 31.81 89.5 50.51 84.65 50.59"/><polyline class="cls-8" points="82.83 44 75.74 44.12 76.63 19.09 83.59 19.76"/><ellipse class="cls-6" cx="83.21" cy="31.88" rx="12.12" ry="5.49" transform="translate(48.8 114.07) rotate(-88.25)"/></g><g><g><path class="cls-17" d="M70.53,16.4c-.14,0-.31-.06-.47-.15-.3-.19-.42-.44-.42-.52,0,0,0,0,0,0,.01,0,.05,0,.09,0,.14,0,.31,.06,.47,.15,.3,.19,.42,.44,.42,.52,0,0,0,0,0,0-.01,0-.05,0-.09,0Z"/><path class="cls-17" d="M69.73,15.12c-.28,0-.51,.1-.63,.31-.21,.39,.07,.98,.64,1.33,.26,.16,.54,.24,.79,.24,.28,0,.51-.1,.63-.31,.21-.39-.07-.98-.64-1.33-.26-.16-.54-.24-.79-.24h0Z"/></g><g><path class="cls-17" d="M72.67,15.05c-.09,0-.23-.05-.35-.19-.18-.22-.19-.5-.08-.61,.01-.01,.05-.04,.12-.04,.09,0,.23,.05,.36,.2,.18,.22,.19,.5,.08,.61-.01,.01-.05,.04-.12,.04Z"/><path class="cls-17" d="M72.36,13.61c-.2,0-.38,.07-.53,.21-.36,.34-.35,.98,.03,1.43,.23,.27,.53,.41,.81,.41,.2,0,.38-.07,.53-.21,.36-.34,.35-.98-.03-1.43-.23-.27-.53-.41-.81-.41h0Z"/></g><g><path class="cls-17" d="M69.59,13.54c-.05-.03-.09-.22,0-.4,.08-.14,.19-.19,.24-.19,.07,.04,.11,.22,.01,.41-.08,.14-.19,.19-.24,.19-.01,0-.02,0-.02,0Z"/><path class="cls-17" d="M69.83,12.35c-.29,0-.59,.18-.76,.5-.25,.44-.16,.98,.2,1.2,.1,.06,.22,.09,.33,.09,.29,0,.59-.18,.76-.5,.25-.44,.16-.98-.2-1.2-.1-.06-.22-.09-.33-.09h0Z"/></g></g><polygon class="cls-4" points="84.54 50.31 69.29 41.51 64.02 44.21 65.33 53.93 71.97 48.92 73.3 53.5 77.37 48.85 79.21 52.29 84.56 50.87 84.54 50.31"/></g><path class="cls-9" d="M77.27,96.6l-31.67,2.17s-6.19-16.65,2.44-29.53c7.03-10.49,22.86-5.33,22.86-5.33l3.45,11.16,4.74-6.76-1.82,28.28Z"/><g><path d="M72.35,88.91l2.41-4.38,1.52,1.97-2.41,12.6-1.52-10.18Zm1.19-7.92l1.24-2.44,.95,1.72-1.14,2.08-1.05-1.36Z"/><path d="M74.8,79.82l.24,.44-.54,.98-.26-.33,.55-1.09m.04,5.79l.8,1.03-1.69,8.87-.97-6.5,1.87-3.4m-.09-8.35l-1.92,3.78,1.84,2.38,1.74-3.17-1.66-3h0Zm-.08,6.17l-2.95,5.36,2.08,13.87,3.12-16.32-2.25-2.91h0Z"/></g><g><path class="cls-5" d="M77.27,96.6l-2.38,47.17,5.96,15.2-14.47-12.98-2.12-34.34-3.13,33.75-15.19,14.18,6.23-15.81-4.66-24.35s-15.26-8.96-1.13-20.69l30.89-2.13Z"/><g><polygon points="52.62 144.23 60.9 141.14 60.54 145.11 47.46 157.32 52.62 144.23"/><path d="M60.22,142.03l-.25,2.79-10.97,10.24,4.09-10.37,7.13-2.67m1.37-1.79l-9.42,3.52-6.23,15.81,15.19-14.18,.47-5.15h0Z"/></g><g><polygon points="66.96 145.71 66.78 141.14 74.43 144.22 79.37 156.83 66.96 145.71"/><path d="M67.41,142.05l6.55,2.63,3.92,10.01-10.33-9.27-.14-3.38m-1.28-1.81l.24,5.74,14.47,12.98-5.96-15.2-8.75-3.52h0Z"/></g><g><polygon class="cls-12" points="78.6 101.31 74.42 101.44 74.25 99.06 78.17 98.77 78.6 101.31"/><polygon class="cls-12" points="72.06 101.86 68.04 101.97 67.81 99.31 72.04 99.04 72.06 101.86"/><polygon class="cls-12" points="65.55 102.09 61.53 102.38 61.46 99.82 65.53 99.54 65.55 102.09"/><polygon class="cls-12" points="59.02 102.51 55.34 102.56 55.07 99.99 58.94 99.69 59.02 102.51"/><polygon class="cls-12" points="52.84 102.77 49.02 102.8 48.95 100.24 52.67 99.94 52.84 102.77"/></g></g><path class="cls-9" d="M70.9,63.91l-15.51,61.38-14.81,1.26s-7.41-59.65,15.28-63.58c9.43-1.63,15.03,.94,15.03,.94Z"/><g><polyline class="cls-14" points="62.02 66.55 47.11 30.64 41.44 33.94 59.9 75.19"/><path d="M62.02,66.55c-5.11-10-11.05-25.18-15.46-35.68,0,0,.86,.29,.86,.29,0,0-5.67,3.29-5.67,3.29l.25-.76,9.23,20.63c2.8,6.03,6.46,14.7,8.68,20.87-6.11-11.29-13.61-29.18-19.01-41.01,0,0-.22-.49-.22-.49l.47-.27c.2-.13,6.3-3.65,6.26-3.64,0,0,.26,.63,.26,.63,4.34,10.59,10.85,25.4,14.35,36.14h0Z"/></g><g><path class="cls-13" d="M46.95,30.41c.82-3.44,5.09-5.84,2.62-6.42-1.91-.45-4.84,2.47-4.84,2.47-1.43-4.96,2.58-8.6,.84-9.09-3.02-.86-3.61,2.88-3.68,3.47,.32-3.49,1.32-6.12-.54-5.61-2.05,.56-2.24,2.91-2.22,3.97-.11-1.58-.39-2.44-1.58-1.84-.98,.5-1.2,3.02-.79,5.8-.26-1.33-.46-2.28-.79-2.17-1.1,.37-1.37,2.17-1.35,3.43,.06,3.07,1.49,8.06,6.98,10.67l.04,7.14,11.5-9.32-6.19-2.48Z"/><path class="cls-3" d="M41.64,20.87s.42-4.48,3.69-3.55c1.73,.49-2.27,4.13-.84,9.09"/><path class="cls-3" d="M38.92,19.66s-.48-3.77,2.19-4.49c2.95-.8-1.27,6.23,1.37,12.11"/><path class="cls-3" d="M36.94,25.16c-.89-3.5-.84-7.24,.38-7.86,2.84-1.45,.54,5.47,2.86,10.86"/><path class="cls-3" d="M42.66,30.42c.95-4.72,4.77-6.93,6.68-6.48,2.47,.58-1.8,2.97-2.62,6.42l6.19,2.48-11.5,9.32-.04-7.14c-5.49-2.61-6.92-7.6-6.98-10.67-.02-1.27,.25-3.06,1.35-3.43,.77-.26,.88,5.53,2.58,8.13"/></g><g><g><path class="cls-13" d="M108.5,30c-.11,0-.21-.02-.31-.06l-2.12-.46-.02-.46c-.05-1.05,.4-2.28,1.13-3.04,.55-.58,1.22-.88,1.94-.88,.62,0,1.26,.23,1.9,.68,.37,.26,.5,.83,.47,1.24-.05,.5-.33,.7-.49,.78l-.14,.06c-.51,.23-1.45,.66-1.44,1.13,0,.27-.09,.54-.28,.73-.17,.18-.4,.28-.65,.28Z"/><path d="M109.12,25.7c.47,0,.99,.17,1.55,.57,.23,.16,.32,.87,.07,.99-.68,.31-1.95,.83-1.92,1.75,0,.22-.14,.39-.33,.39-.04,0-.09,0-.13-.03l-1.72-.37c-.07-1.35,.89-3.29,2.47-3.29m0-1.2c-.89,0-1.71,.37-2.37,1.07-.85,.89-1.36,2.26-1.3,3.49l.04,.92,.9,.2,1.63,.36c.15,.05,.31,.08,.47,.08,.41,0,.79-.16,1.08-.46,.28-.29,.44-.69,.45-1.1,.17-.22,.83-.52,1.08-.63l.14-.06c.48-.22,.78-.68,.84-1.27,.05-.6-.15-1.38-.72-1.79-.74-.52-1.49-.79-2.24-.79h0Z"/></g><g><path class="cls-13" d="M109.21,34.21c-.34-.16-3.31-1.63-3.37-3.6-.03-.95,.59-1.78,1.84-2.47,.76-.42,1.48-.63,2.16-.63,.6,0,1.15,.16,1.63,.49,.46,.31,.6,1.03,.5,1.54-.09,.43-.36,.73-.72,.81-.8,.16-1.21,.32-1.42,.42,.04,.03,.09,.06,.16,.09l.35,.19-.37,3.52-.77-.36Z"/><path d="M109.84,28.11c.5,0,.94,.14,1.3,.38,.33,.22,.38,1.18,0,1.26-1.22,.24-3,.78-1.43,1.63l-.24,2.27s-5.67-2.69-1.5-5c.7-.39,1.33-.55,1.87-.55m0-1.2h0c-.78,0-1.61,.24-2.45,.7-1.82,1.01-2.17,2.19-2.15,3.01,.07,2.27,3.11,3.83,3.72,4.12l1.53,.73,.18-1.69,.24-2.27,.05-.49c.12-.03,.26-.06,.42-.09,.6-.12,1.06-.61,1.19-1.28,.14-.72-.07-1.69-.76-2.15-.57-.39-1.25-.59-1.97-.59h0Z"/></g><path class="cls-7" d="M104.09,36.62l5.83-2.12s-3.6-2.86-.68-4.55c1.97-1.14,3.09-.67,3.68-.02,.23,.25,.24,1-.07,1.11-1.1,.39-3.02,1.5,.49,3.89,.4,.27,.71,.35,.71,.35l-1.58,8.69-8.38-7.35Z"/></g><rect class="cls-1" width="140.1" height="183.76"/></g></g></svg>