<?xml version="1.0" encoding="UTF-8"?><svg id="Livello_2" xmlns="http://www.w3.org/2000/svg" xmlns:xlink="http://www.w3.org/1999/xlink" viewBox="0 0 140.1 183.76"><defs><style>.cls-1{fill:none;}.cls-2{clip-path:url(#clippath);}.cls-3{fill:#68d1e7;}.cls-4{fill:#fff;}.cls-5{fill:#ffbc61;}.cls-6{fill:#ffd1a5;}.cls-7{fill:#ff925b;}.cls-8{fill:#8c6239;}.cls-9{fill:#adeaff;}.cls-10{fill:#d54111;}.cls-11{fill:#d59f59;}.cls-12{fill:#4d96ca;}</style><clipPath id="clippath"><path class="cls-1" d="M75.91,113.02h0c.47-.29,.86-.68,1.24-1.07,.26-.26,.54-.56,.54-.93,0-.4-.31-.72-.62-.96-1.7-1.33-3.9-1.81-6.04-2.05-.08,0-.16-.02-.23,.01-.07,.03-.12,.09-.16,.14-.24,.33-.36,.73-.46,1.13-.17,.73-.27,1.49-.28,2.24-.01,.58,.08,1.12,.5,1.55,.32,.32,.76,.62,1.2,.75,.32,.09,.65,.06,.97,0,.49-.08,.98-.14,1.47-.2,.65-.09,1.3-.27,1.87-.62,0,0-.56,.35,0,0Z"/></clipPath></defs><g id="export"><g id="oldIdleL"><g id="shadow"><path d="M80.21,75.72c.06,3.19-.24,6.43,.52,9.52,.65,3.02,2.92,13.53,3.59,16.65,.86-.09,5.55-.54,6.52-.64l1.79-.18-.49-1.73-4.48-15.84c-.76-2.64-1.46-5.29-2.28-7.91-1.17-2.52-2.34-5.04-3.65-7.52,.19,2.8,.51,5.56,.83,8.32,.68,2.66,1.47,5.29,2.21,7.93l4.48,15.84,1.3-1.9-5.19,.51,1.61,1.18c-.49-2.29-2.87-13.31-3.31-15.34-.58-3.13-2.19-5.96-3.45-8.89h0Z"/><path d="M83.79,115.6c-.54-.56-.66-1.33-.36-2.14-.76,.09-1.35,.03-1.79-.19-.52-.25-.89-.7-1.03-1.25-.09-.35-.11-.73,.09-1.17-1.4-.23-1.81-.75-1.95-1.52-.13-.72,.09-1.42,.61-1.99,.87-.94,2.59-1.38,4.17-1.58l-5.66-7.05,14.61,1.81,.25,.99c.21,.81,1.92,8.05-1.83,11.28-2.67,2.29-4.48,3.38-5.75,3.38-.54,0-.99-.2-1.36-.58Zm6.07-6.62l-.87,1.51c.42-.38,.71-.9,.91-1.5h-.04Zm.04-.07l.02,.02s0-.03,.01-.04l-.03,.02Zm.13-5.66l-5.19-.64,4.11,5.12,1.25-.07c.2-1.52,.03-3.22-.17-4.41Z"/><path d="M41.74,121c-.27-1.49-6.38-36.66,10.08-52.47,7.3-7.02,17.88-9.05,31.42-6.04l1.1,.24,3.46,55.86-45.83,3.74-.24-1.34Zm39.75-55.81c-11.97-2.43-21.25-.58-27.59,5.5-13.58,13.04-10.36,41.88-9.42,48.44l40.15-3.28-3.14-50.66Z"/><path d="M72.28,62.13l-1.74-19.17c-.19,.04-.39,.06-.59,.09-3.27,.38-6.05-1.14-6.31-3.44-.26-2.3,2.1-4.39,5.38-4.76,.26-.03,.52-.05,.78-.05l-2.28-25.2L103.1,1.19l.13,1.75c.02,.32,2.23,32.17-7.96,60.8l-.33,.93-10.86,.71-3.06,10.47-10.84,1.64,2.11-15.37Zm9.5,.4l10.98-.72c8.28-23.95,7.85-49.97,7.56-56.88l-29.58,6.99,2.4,26.46-2.02-.47c-.53-.12-1.14-.15-1.75-.08-1.88,.21-2.77,1.16-2.74,1.45,.03,.29,1.11,1.01,2.99,.79,.58-.07,1.14-.22,1.62-.44l1.94-.9,2.13,23.47-1.61,11.73,4.98-.75,3.11-10.65Z"/><path d="M67.6,139.3l-.96-14.21-1.51,15.87-27.97,1.62,15.93-9.86-4.26-17.81c-1.76-1.12-6.85-4.83-7.29-10.28-.32-3.97,1.88-7.85,6.54-11.52l.37-.29,33.05-2.16-2.43,42.1,12.25,10.3-23.73-3.76Zm-2.2-32.87l2.99,.04,2.04,30.24,10.7,1.7-5.14-4.32,2.33-40.21-28.73,1.88c-3.57,2.91-5.27,5.81-5.05,8.63,.38,4.85,6.28,8.23,6.34,8.26l.57,.32,5.06,21.17-7.71,4.77,13.58-.79,3.01-31.68Z"/><path d="M41.73,120.93c-.31-2.37-7.33-58.17,16.53-62.1,9.76-1.61,15.63,.89,15.87,1l1.18,.52-16.11,60.61-17.29,1.39-.19-1.42Zm29.99-58.75c-2.05-.57-6.6-1.44-12.98-.39-10.75,1.77-14.03,17.4-14.9,30.19-.79,11.68,.27,23.2,.69,27.14l12.31-.99,14.87-55.95Z"/><polygon points="65.28 108.62 68.91 75.88 65.93 75.55 62.6 105.55 60.47 105.49 64.76 69.34 61.78 68.98 57.1 108.4 65.28 108.62"/><path d="M53.17,117.27c-.36-.68-.26-1.44,.24-2.13-.77-.16-1.33-.41-1.69-.75-.41-.39-.62-.91-.6-1.45,.01-.36,.1-.74,.41-1.1-1.27-.62-1.53-1.23-1.44-2,.08-.73,.48-1.34,1.14-1.74,1.06-.64,2.76-.61,4.29-.37l-3.17-6.78,13.42,1.73-.04,1.36c-.02,.65-.18,4.42-1.32,7.72l.83-.07-1,.54c-.73,1.91-1.83,3.61-3.45,4.34-2.56,1.16-4.38,1.73-5.63,1.73-.98,0-1.61-.35-1.97-1.04Zm4.2-12.64l3.06,6.56,.91,.22c.69-1.73,1.12-4.06,1.3-6.09l-5.27-.68Z"/></g><g><g><polyline class="cls-4" points="80.21 75.72 85.5 100.26 90.69 99.75 81.72 68.06"/><path d="M80.21,75.72c.66,7.24,3.21,17.47,4.7,24.67,0,0,.11,.52,.11,.52l.53-.05,5.19-.51,.71-.07-.2-.69c-1.48-5.25-5.29-18.69-6.74-23.76-.94-2.59-1.83-5.19-2.8-7.76,1.61,9.23,5.9,22.71,8.39,31.85,0,0,.52-.76,.52-.76l-5.19,.51,.65,.47c-1.61-7.22-3.49-17.51-5.88-24.42h0Z"/></g><g><path class="cls-3" d="M90.69,99.75s2.39,9.2-.77,11.92c-5.37,4.62-5.83,2.89-4.53,1.47,.91-1,2.25-2.31,2.25-2.31,0,0-5.28,2.02-5.58,.83-.19-.74,3.08-2.22,3.08-2.22,0,0-4.81,.26-4.91-.35-.28-1.61,4.38-2.09,6.35-1.91l-5.22-6.5,9.34-.92Z"/><path d="M84.44,114.98c-.48-.5-.28-1.38,.51-2.25,.16-.18,.34-.37,.52-.56-1.32,.37-2.77,.63-3.46,.27-.27-.14-.46-.37-.53-.65-.06-.22-.19-.77,1.17-1.7-2.86-.03-2.95-.55-3.02-.91-.08-.44,.05-.87,.38-1.22,.97-1.05,3.54-1.37,5.28-1.41l-5.11-6.37,10.95-1.08,.13,.5c.1,.39,2.44,9.59-.96,12.52-2.9,2.5-4.35,3.15-5.14,3.15-.36,0-.58-.14-.73-.3Zm-1.93-13.82l5.41,6.74-1.41-.13c-1.7-.16-4.87,.2-5.61,1,.74,.14,2.62,.15,4.2,.06l3.17-.17-2.89,1.31c-1.04,.47-2.07,1.07-2.52,1.46,.75,0,2.72-.47,4.56-1.17l2.68-1.02-2.04,2.01s-1.34,1.32-2.23,2.29c-.16,.17-.27,.33-.34,.46,.5-.17,1.67-.75,4.04-2.79,2.21-1.9,1.34-8.04,.7-10.81l-7.72,.76Z"/></g><g><ellipse cx="45.76" cy="145.6" rx="2.87" ry="2.28" transform="translate(-66.67 42.39) rotate(-30)"/><path d="M42.75,147.34c-.4-.69-.44-1.52-.12-2.34,.3-.77,.9-1.44,1.68-1.89,1.66-.96,3.65-.62,4.45,.76h0c.79,1.38,.09,3.28-1.57,4.23-.64,.37-1.32,.54-1.97,.54-1.04,0-1.99-.46-2.48-1.3Zm2.17-3.19c-.55,.32-.96,.78-1.17,1.3-.19,.47-.17,.93,.04,1.3,.46,.8,1.73,.95,2.81,.32,1.09-.63,1.59-1.79,1.13-2.6h0c-.46-.8-1.72-.95-2.81-.32Z"/></g><g><ellipse cx="60.38" cy="145.6" rx="2.59" ry="3.17" transform="translate(-95 172.12) rotate(-77.16)"/><path d="M59.67,148.71c-2.03-.46-3.36-2.23-2.96-3.94,.19-.85,.77-1.56,1.63-1.98,.82-.41,1.79-.51,2.75-.29,.96,.22,1.8,.73,2.36,1.45,.59,.75,.8,1.64,.61,2.49h0c-.33,1.43-1.76,2.38-3.4,2.38-.32,0-.65-.04-.98-.11Zm3.21-2.54c.11-.5-.02-1.02-.39-1.49-.39-.5-.98-.86-1.68-1.02-.69-.16-1.38-.09-1.95,.19-.53,.26-.88,.68-.99,1.17-.24,1.07,.68,2.19,2.06,2.51,1.38,.31,2.7-.3,2.94-1.37h0Z"/></g><g><ellipse cx="70.71" cy="143.99" rx="3.24" ry="2.36" transform="translate(-41.53 29.38) rotate(-18.25)"/><path d="M68.87,146.87c-.91-.29-1.55-.89-1.81-1.67-.26-.79-.1-1.65,.46-2.42,.52-.72,1.32-1.28,2.26-1.6,2.01-.66,4.06,.06,4.58,1.61,.51,1.55-.71,3.35-2.72,4.02-.51,.17-1.02,.25-1.52,.25-.43,0-.85-.06-1.24-.19Zm1.29-4.55c-.7,.23-1.29,.64-1.66,1.16-.33,.46-.43,.93-.3,1.35,.14,.41,.5,.73,1.04,.91,.6,.19,1.32,.17,2.02-.06,1.36-.45,2.26-1.59,1.96-2.5-.21-.65-1-1.03-1.92-1.03-.37,0-.75,.06-1.14,.19Z"/></g><g><ellipse cx="84.81" cy="145.75" rx="2.18" ry="2.63" transform="translate(-80.8 177.51) rotate(-70.66)"/><path d="M83.89,148.37c-1.68-.59-2.63-2.24-2.13-3.69,.25-.72,.82-1.27,1.59-1.56,.73-.27,1.58-.27,2.37,.01,1.68,.59,2.63,2.24,2.13,3.69h0c-.38,1.1-1.5,1.76-2.75,1.76-.4,0-.81-.07-1.22-.21Zm2.83-1.95c.29-.82-.34-1.79-1.39-2.16-.53-.19-1.08-.19-1.56-.02-.43,.16-.75,.46-.88,.83-.29,.82,.34,1.79,1.39,2.16,1.05,.37,2.15,0,2.44-.82h0Z"/></g><g><path class="cls-4" d="M85.59,116.67l-3.24-52.23c-3.72-.8-7.24-1.2-10.45-1.2-8.71,0-15.6,2.96-20.47,8.79-12.36,14.78-8.38,43.76-7.7,48.06l41.87-3.42Z"/><path d="M71.9,63.84c3.04,0,6.37,.37,9.88,1.1l3.17,51.19-40.72,3.32c-.85-5.74-4.11-32.97,7.66-47.03,4.76-5.69,11.49-8.58,20.01-8.58m0-1.2c-39.14,0-28.68,58.09-28.68,58.09l43.01-3.51-3.3-53.27c-4.05-.9-7.71-1.32-11.02-1.32h0Z"/></g><g><g><path class="cls-6" d="M101.73,3.06l-32.6,7.7,2.33,25.69c-.68-.16-1.45-.21-2.26-.11-2.4,.27-4.22,1.66-4.06,3.1,.16,1.44,2.25,2.39,4.65,2.12,.77-.09,1.48-.29,2.08-.57l1.92,21.18-1.86,13.55,7.91-1.2,3.08-10.56,10.93-.72c10.21-28.66,7.88-60.18,7.88-60.18Z"/><path d="M73.19,62.15l-1.84-20.32c-.47,.15-.98,.26-1.49,.32-2.78,.32-5.11-.85-5.32-2.64-.2-1.8,1.81-3.45,4.59-3.77,.56-.06,1.13-.07,1.66,0l-2.3-25.44L102.28,2.31l.05,.7c.02,.32,2.22,31.98-7.91,60.43l-.13,.37-10.9,.71-3.07,10.53-9.08,1.38,1.96-14.28Zm9.28,1.23l10.95-.72c9.07-25.76,8.02-54.07,7.76-58.86l-31.4,7.42,2.36,26-.81-.19c-.63-.15-1.34-.18-2.06-.1-2,.23-3.65,1.37-3.53,2.44,.12,1.07,1.98,1.81,3.99,1.59,.68-.08,1.33-.26,1.9-.52l.77-.36,2,22.03v.07s-1.75,12.83-1.75,12.83l6.73-1.02,3.1-10.6Z"/></g><g><path d="M82.97,15.32l-2.76-1.23,.39-.48,2.37,1.71Zm1.86-1.18l-1.92-1.94,.5-.38,1.42,2.33Z"/><path d="M83.58,10.93l-1.57,1.2,6.02,6.09-4.45-7.29h0Zm-3.09,1.86l-1.24,1.53,8.77,3.9-7.54-5.43h0Z"/></g><g><path d="M96.22,15.44l2.33-2.3,.19,.76-2.52,1.54Zm-1.8-1.01l1.16-2.96,.63,.48-1.78,2.48Z"/><path d="M95.31,10.51l-3.18,8.12,4.9-6.8-1.72-1.32h0Zm3.56,1.47l-6.74,6.66,7.29-4.45-.56-2.21h0Z"/></g><g><polygon points="87.18 48.28 69.98 45.66 65.91 49.87 70.31 58.1 74.92 51.35 77.65 54.98 79.97 49.43 82.82 51.88 87.38 48.78 87.18 48.28"/><path d="M65.45,49.8l4.4-4.54,17.6,2.69,.39,.98-5.05,3.43-2.67-2.3-2.37,5.68-2.82-3.74-4.66,6.83-4.82-9.02Zm12.1,4.44l2.26-5.42,3.02,2.59,4.08-2.77-16.8-2.58-3.75,3.87,3.98,7.45,4.55-6.67,2.66,3.53Z"/></g><g><polygon points="88.99 48.61 104.39 43.31 108.92 46.96 106.8 55.56 102.5 49.71 100.66 54.55 97.66 49.33 94.46 51.5 88.99 48.61"/><path d="M102.61,50.49l-1.87,4.94-3.19-5.56-3.05,2.07-6.44-3.4,16.41-5.65,4.88,3.93-2.38,9.61-4.36-5.94Zm1.71-6.76l-14.38,4.95,4.51,2.38,3.35-2.27,2.81,4.89,1.8-4.74,4.23,5.76,1.88-7.59-4.19-3.37Z"/></g><g><g><polygon points="73.29 31.13 67.06 31.13 67.37 32.84 73.29 31.13"/><path d="M67.78,31.73h1.28s-1.21,.35-1.21,.35l-.06-.35m-1.44-1.2l.56,3.07,10.63-3.07h-11.19Z"/></g><g><polyline class="cls-3" points="97.82 41.89 91.5 42.7 90.57 19.98 97.07 19.59"/><polygon class="cls-12" points="90.93 43.38 97.9 42.49 97.74 41.3 92.07 42.03 91.2 20.54 97.1 20.19 97.03 18.99 89.95 19.41 90.93 43.38"/></g><g><ellipse class="cls-9" cx="97.44" cy="30.74" rx="5.32" ry="11.16" transform="translate(-.99 3.32) rotate(-1.94)"/><path class="cls-12" d="M91.53,30.94c-.22-6.59,2.2-11.84,5.52-11.95,3.34-.11,6.09,4.96,6.31,11.55h0c.22,6.59-2.2,11.84-5.52,11.95-.04,0-.07,0-.11,0-3.27,0-5.98-5.03-6.21-11.55Zm10.63-.36c-.19-5.72-2.55-10.48-5.07-10.39-2.56,.09-4.55,4.99-4.36,10.71,.19,5.67,2.48,10.39,5,10.39,.02,0,.05,0,.07,0,2.56-.09,4.55-4.99,4.36-10.71h0Z"/></g><g><polyline class="cls-6" points="91.24 30.7 92.14 48.47 87.29 48.55"/><polygon points="87.3 49.15 92.77 49.06 91.84 30.67 90.64 30.73 91.51 47.88 87.28 47.95 87.3 49.15"/></g><g><polyline class="cls-3" points="85.46 42.28 78.38 42.4 79.26 18.61 86.23 19.25"/><polygon class="cls-12" points="77.75 43.01 85.47 42.88 85.45 41.68 79 41.79 79.84 19.27 86.17 19.85 86.28 18.65 78.69 17.96 77.75 43.01"/></g><g><ellipse class="cls-9" cx="85.84" cy="30.76" rx="11.52" ry="5.49" transform="translate(52.26 115.55) rotate(-88.11)"/><path class="cls-12" d="M85.44,42.88c-3.41-.11-5.91-5.52-5.69-12.32,.1-3.16,.79-6.13,1.94-8.35,1.22-2.36,2.85-3.64,4.55-3.57,3.41,.11,5.91,5.52,5.69,12.32-.22,6.72-3.02,11.92-6.38,11.92-.04,0-.07,0-.11,0Zm-2.68-20.11c-1.07,2.06-1.71,4.85-1.81,7.83-.2,5.92,1.88,10.99,4.53,11.08,.02,0,.05,0,.07,0,2.62,0,4.99-4.89,5.18-10.76,.2-5.92-1.88-10.99-4.53-11.08-.02,0-.04,0-.06,0-1.18,0-2.41,1.06-3.38,2.92Z"/></g></g><g><g><path class="cls-11" d="M73.17,16.02c.08,0,.12-.02,.13-.02-.03-.01-.14-.24-.44-.42-.16-.09-.34-.15-.48-.15-.08,0-.12,.02-.13,.02,.03,.01,.14,.24,.44,.42,.16,.09,.34,.15,.48,.15h0Z"/><path class="cls-11" d="M72.37,14.83c.24,0,.52,.08,.79,.23,.57,.33,.85,.9,.64,1.26-.11,.2-.35,.3-.63,.3-.24,0-.52-.08-.79-.23-.57-.33-.85-.9-.64-1.26,.11-.2,.35-.3,.63-.3h0Z"/></g><g><path class="cls-11" d="M75.3,14.74c.06,0,.1-.01,.13-.04,.06-.05,.06-.13,.06-.18,0-.11-.05-.24-.14-.33-.12-.14-.27-.19-.36-.19-.06,0-.1,.01-.13,.04-.06,.05-.06,.13-.06,.18,0,.11,.05,.24,.14,.33,.12,.14,.27,.19,.36,.19Z"/><path class="cls-11" d="M74.99,13.4c.29,0,.59,.13,.81,.39,.38,.43,.39,1.04,.03,1.36-.15,.13-.34,.19-.53,.19-.29,0-.59-.13-.81-.39-.38-.43-.39-1.04-.03-1.36,.15-.13,.34-.19,.53-.19h0Z"/></g><g><path class="cls-11" d="M72.25,13.31c.07,0,.18-.06,.24-.18,.09-.15,.06-.3,.01-.32,0,0,0,0-.01,0-.1,0-.19,.06-.26,.17-.05,.08-.07,.17-.05,.24l.07,.09Z"/><path class="cls-11" d="M72.47,12.21c.12,0,.23,.03,.33,.09,.36,.21,.45,.72,.2,1.14-.18,.3-.47,.47-.76,.47-.12,0-.23-.03-.33-.09-.36-.21-.45-.72-.2-1.14,.18-.3,.47-.47,.76-.47h0Z"/></g></g></g><g><path class="cls-4" d="M79.91,92.27l-31.67,2.06s-6.19-15.83,2.44-28.06c7.03-9.97,22.86-5.07,22.86-5.07l3.45,10.61,4.74-6.42-1.82,26.88Z"/><path d="M47.68,94.55c-.06-.16-6.21-16.27,2.51-28.63,7.2-10.2,22.87-5.5,23.53-5.3l.3,.09,3.18,9.79,5.27-7.14-1.99,29.45-32.64,2.13-.16-.41Zm33.31-27.15l-4.21,5.71-3.71-11.41c-2.17-.59-15.72-3.84-21.9,4.92-7.58,10.75-3.39,24.55-2.52,27.09l30.7-2,1.64-24.31Z"/></g><g><path d="M76.51,94.63l-1.52-9.66,2.4-4.16,1.52,1.87-2.4,11.95Zm.71-15.93l-1.04-1.28,1.23-2.3,.95,1.62-1.13,1.96Z"/><path d="M77.44,76.36l.23,.39-.52,.9-.24-.29,.53-1m.04,5.51l.79,.97-1.69,8.39-.97-6.14,1.86-3.22m-.09-7.97l-1.92,3.6,1.84,2.26,1.74-3.01-1.66-2.85h0Zm-.08,5.86l-2.95,5.1,2.08,13.18,3.12-15.51-2.25-2.76h0Z"/></g><g><g><path class="cls-8" d="M79.91,92.27l-2.38,41.15,8.7,7.31-17.21-2.73-2.12-31.44-3.13,32.96-20.78,1.2,11.82-7.31-4.66-19.47s-15.26-8.52-1.13-19.66l30.89-2.02Z"/><path d="M68.45,138.52l-1.66-24.54-2.48,26.12-23.66,1.37,13.47-8.33-4.5-18.8c-1.23-.74-6.75-4.35-7.18-9.78-.29-3.65,1.8-7.27,6.2-10.74l.15-.12,31.76-2.08-2.4,41.53,10.12,8.51-19.82-3.14Zm-2.15-32.01l1.2,.02,2.09,30.96,14.61,2.32-7.27-6.12,2.36-40.78-30.03,1.96c-3.97,3.17-5.85,6.4-5.6,9.58,.42,5.34,6.73,8.93,6.8,8.97l.23,.13,4.82,20.15-10.18,6.29,17.9-1.03,3.08-32.45Z"/></g><g><polygon points="63.21 138.97 63.57 135.16 54.94 134.04 45.31 140 63.21 138.97"/><path d="M55.07,134.67l7.85,1.02-.26,2.71-15.02,.87,7.43-4.6m-.27-1.24l-11.82,7.31,20.78-1.2,.47-4.89-9.42-1.22h0Z"/></g><g><polygon points="77.34 134.05 69.41 135.04 69.58 137.49 84.19 139.8 77.34 134.05"/><path d="M77.16,134.68l4.99,4.2-12-1.9-.09-1.41,7.11-.89m.37-1.26l-8.75,1.09,.24,3.49,17.21,2.73-8.7-7.31h0Z"/></g><g><g><polygon class="cls-5" points="81.24 96.75 77.05 96.87 76.88 94.61 80.81 94.33 81.24 96.75"/><path d="M76.48,94.26l4.63-.33,.57,3.18-4.98,.15-.22-3Zm4.01,.47l-3.21,.23,.11,1.53,3.39-.1-.3-1.66Z"/></g><g><polygon class="cls-5" points="74.7 97.27 70.68 97.37 70.45 94.85 74.68 94.59 74.7 97.27"/><path d="M70.04,94.5l5.01-.31,.03,3.44-4.75,.12-.29-3.26Zm4.27,.49l-3.45,.21,.16,1.79,3.31-.09-.02-1.91Z"/></g><g><polygon class="cls-5" points="68.19 97.49 64.17 97.77 64.1 95.34 68.17 95.07 68.19 97.49"/><path d="M63.71,94.99l4.83-.32,.02,3.17-4.76,.33-.09-3.18Zm4.09,.48l-3.32,.22,.05,1.68,3.28-.23v-1.67Z"/></g><g><polygon class="cls-5" points="61.65 97.89 57.98 97.93 57.71 95.49 61.58 95.21 61.65 97.89"/><path d="M57.29,95.15l4.65-.34,.1,3.45-4.39,.05-.36-3.17Zm3.92,.47l-3.09,.22,.19,1.72,2.95-.03-.05-1.91Z"/></g><g><polygon class="cls-5" points="55.48 98.13 51.66 98.17 51.58 95.74 55.3 95.45 55.48 98.13"/><path d="M51.2,95.39l4.45-.35,.23,3.46-4.59,.04-.09-3.15Zm3.75,.46l-2.98,.23,.05,1.71,3.06-.03-.13-1.91Z"/></g></g></g><g><path class="cls-4" d="M73.53,61.2l-15.51,58.34-14.81,1.19s-7.41-56.69,15.28-60.42c9.43-1.55,15.03,.89,15.03,.89Z"/><path d="M42.63,120.81c-.02-.14-1.85-14.4-.87-28.93,1.33-19.74,6.93-30.56,16.65-32.16,9.5-1.57,15.13,.83,15.37,.93l.47,.21-15.64,58.83-.11,.41-15.8,1.27-.07-.57Zm30.19-59.24c-1.53-.52-6.63-1.92-14.21-.67-20.67,3.4-15.54,53.27-14.85,59.18l13.81-1.11,15.26-57.4Z"/></g><g><polyline class="cls-4" points="64.23 73.4 72.44 99.83 66.9 102.47 58.36 70.26"/><path d="M64.23,73.4c1.45,7.9,5.32,18.82,7.64,26.6,0,0,.32-.72,.32-.72l-5.55,2.64,.84,.39-4.27-16.1c-1.3-5.34-3.1-10.75-4.85-15.95,1.63,9.49,5.49,22.92,7.96,32.35,0,0,.19,.7,.19,.7,.19-.08,5.84-2.79,6.2-2.95,0,0,.47-.22,.47-.22l-.15-.5c-2.52-7.77-5.48-18.88-8.79-26.25h0Z"/></g><g><g><g><g><path class="cls-10" d="M74.61,148.96l-.09-.62c-2.13-14.92-3.87-38.85,.52-39.55,.15-.02,.29-.04,.43-.04,2.12,0,2.95,2.86,2.96,2.88l.16,.59,2.78-.82-.05-.49c0-.07-.74-7.03-7.6-7.03-.34,0-.69,.02-1.05,.05-.57,.05-1.07,.35-1.5,.88-4.57,5.66-.36,42.34-.18,43.9l.07,.58,3.55-.33Z"/><path d="M73.73,104.48c6.39,0,7,6.49,7,6.49l-1.72,.51s-.92-3.32-3.54-3.32c-.17,0-.34,.01-.53,.04-6.6,1.06-1.01,40.23-1.01,40.23l-2.34,.22s-5.06-43.51,1.14-44.11c.35-.03,.68-.05,1-.05m0-1.2c-.36,0-.73,.02-1.11,.06-.5,.05-1.24,.28-1.91,1.1-4.64,5.75-.77,40.41-.31,44.34l.14,1.17,1.17-.11,2.34-.22,1.25-.12-.18-1.25c-.01-.1-1.4-9.85-1.96-19.62-.33-5.7-.32-10.27,.03-13.58,.56-5.3,1.8-5.65,1.94-5.67,.12-.02,.23-.03,.34-.03,1.66,0,2.37,2.42,2.38,2.44l.33,1.18,1.17-.35,1.72-.51,.95-.28-.09-.98c-.25-2.62-2.28-7.58-8.2-7.58h0Z"/></g><g><path class="cls-7" d="M81.35,111.41l-.02-.47c-.03-.76-.48-1.57-1.39-1.57-.13,0-.28,.02-.42,.06-.63,.17-.92,.53-1.06,.81-.33,.67-.04,1.39,0,1.47l.21,.5,2.69-.79Z"/><path d="M79.94,109.97c.74,0,.79,1,.79,1l-1.72,.51s-.49-1.16,.67-1.47c.1-.03,.19-.04,.27-.04m0-1.2c-.19,0-.38,.03-.58,.08-.85,.23-1.25,.74-1.45,1.13-.44,.89-.1,1.79-.02,1.97l.42,.99,1.03-.3,1.72-.51,.9-.27-.04-.94c-.05-1.07-.75-2.15-1.99-2.15h0Z"/></g></g><g><g><path class="cls-3" d="M80.41,108.97c.18,0,.33-.04,.47-.11,1.16-.63,1.77-1.58,1.73-2.67-.05-1.42-1.17-2.69-2.2-3.17l-.42-.19-1.38,1.68c-.21,.2-.31,.48-.28,.76,.04,.33,.24,.61,.55,.76,.37,.18,.29,1.28,.26,1.74v.15c-.03,.22,.06,.44,.22,.62,.28,.3,.72,.43,1.05,.43Z"/><path d="M80.16,103.56c1.52,.7,3.07,3.34,.43,4.77-.05,.03-.11,.04-.18,.04-.29,0-.7-.19-.68-.41,.05-.74,.2-2.09-.59-2.47-.23-.11-.29-.4-.09-.56l1.11-1.36m-.34-1.48l-.59,.72-1.06,1.29c-.33,.32-.49,.78-.44,1.24,.06,.5,.35,.93,.79,1.18,.09,.27,.04,.94,.02,1.21v.15c-.04,.39,.1,.77,.38,1.07,.35,.38,.93,.62,1.49,.62,.28,0,.53-.06,.75-.18,1.84-1,2.07-2.45,2.05-3.22-.06-1.68-1.33-3.13-2.55-3.69l-.84-.39h0Z"/></g><g><path class="cls-3" d="M78.27,108.41c.2,0,.38-.04,.54-.13,1.05-.6,1.63-1.81,1.63-3.41,0-2.56-1.37-2.94-2.19-2.94-1.59,0-3.47,1.44-3.68,1.6l-.65,.51,2.83,1.9s.4-.28,.43-.3c-.02,.24-.08,.67-.3,1.38-.08,.27-.03,.55,.15,.79,.26,.35,.77,.59,1.24,.59Z"/><path d="M78.24,102.53c.88,0,1.59,.55,1.59,2.34,0,1.52-.55,2.44-1.32,2.88-.06,.04-.15,.05-.24,.05-.39,0-.91-.3-.82-.61,.28-.94,.58-2.28-.04-2.28-.16,0-.38,.09-.68,.3l-1.8-1.21s1.88-1.48,3.31-1.48m0-1.2c-1.79,0-3.83,1.55-4.05,1.73l-1.3,1.02,1.37,.92,1.8,1.21,.35,.24c-.03,.12-.07,.26-.11,.41-.14,.45-.05,.93,.25,1.32,.37,.5,1.06,.83,1.72,.83,.31,0,.59-.07,.83-.21,.72-.41,1.93-1.47,1.93-3.93,0-3.29-2.14-3.54-2.79-3.54h0Z"/></g><g><path class="cls-3" d="M74.93,97.94l-.91,6.1s4.08-1.93,4.15,1.4c.05,2.24-.87,3.03-1.69,3.27-.31,.09-.95-.22-.9-.55,.18-1.14-.43-3.31-4.06-1.25-.42,.24-.81,.57-.98,1.02-.68,1.79,4.51,1.6,5.66,1.29,.26-.07,.73,.33,.88,.56,.43,.64-.05,2.75-5.1,1.56-5.69-1.33-2.04-5.18-2.04-5.18l-5.08-4.03,10.07-4.19Z"/><path d="M71.84,111.92c-2-.47-3.19-1.31-3.55-2.5-.37-1.25,.32-2.5,.8-3.17l-5.4-4.28,11.99-4.99-.92,6.15c.85-.25,2.06-.43,2.95,.12,.47,.29,1.03,.9,1.06,2.19,.05,2.21-.79,3.19-1.55,3.62,.18,.16,.31,.32,.36,.39,.27,.41,.36,1.11-.08,1.75-.39,.56-1.19,1.11-2.87,1.11-.74,0-1.66-.11-2.78-.37Zm-1.62-2.83c-.35-.38-.43-.87-.24-1.38,.2-.53,.62-.97,1.24-1.33,1.78-1.01,3.15-1.2,4.07-.57,.78,.54,.97,1.51,.9,2.25,.05,.03,.11,.05,.12,.06,1.08-.31,1.28-1.63,1.25-2.68-.02-.9-.37-1.12-.49-1.19-.75-.46-2.32,.09-2.81,.32l-1.02,.48,.92-6.16-8.14,3.39,4.79,3.8-.45,.48c-.36,.38-1.22,1.57-.94,2.51,.28,.93,1.61,1.42,2.67,1.67,2.65,.62,4,.28,4.38-.24,.14-.19,.11-.36,.08-.41-.06-.09-.23-.23-.33-.29-1.03,.23-4.92,.5-6.03-.73Zm4.77-1.02c.07-.43-.02-1.01-.38-1.26-.49-.34-1.5-.11-2.79,.62-.26,.15-.59,.39-.71,.71-.04,.1-.02,.11,0,.15,.46,.51,2.67,.62,4.08,.49-.17-.21-.24-.46-.2-.7Z"/></g></g></g><g class="cls-2"><g><g><path class="cls-3" d="M80.41,108.97c.18,0,.33-.04,.47-.11,1.16-.63,1.77-1.58,1.73-2.67-.05-1.42-1.17-2.69-2.2-3.17l-.42-.19-1.38,1.68c-.21,.2-.31,.48-.28,.76,.04,.33,.24,.61,.55,.76,.37,.18,.29,1.28,.26,1.74v.15c-.03,.22,.06,.44,.22,.62,.28,.3,.72,.43,1.05,.43Z"/><path d="M80.16,103.56c1.52,.7,3.07,3.34,.43,4.77-.05,.03-.11,.04-.18,.04-.29,0-.7-.19-.68-.41,.05-.74,.2-2.09-.59-2.47-.23-.11-.29-.4-.09-.56l1.11-1.36m-.34-1.48l-.59,.72-1.06,1.29c-.33,.32-.49,.78-.44,1.24,.06,.5,.35,.93,.79,1.18,.09,.27,.04,.94,.02,1.21v.15c-.04,.39,.1,.77,.38,1.07,.35,.38,.93,.62,1.49,.62,.28,0,.53-.06,.75-.18,1.84-1,2.07-2.45,2.05-3.22-.06-1.68-1.33-3.13-2.55-3.69l-.84-.39h0Z"/></g><g><path class="cls-3" d="M78.27,108.41c.2,0,.38-.04,.54-.13,1.05-.6,1.63-1.81,1.63-3.41,0-2.56-1.37-2.94-2.19-2.94-1.59,0-3.47,1.44-3.68,1.6l-.65,.51,2.83,1.9s.4-.28,.43-.3c-.02,.24-.08,.67-.3,1.38-.08,.27-.03,.55,.15,.79,.26,.35,.77,.59,1.24,.59Z"/><path d="M78.24,102.53c.88,0,1.59,.55,1.59,2.34,0,1.52-.55,2.44-1.32,2.88-.06,.04-.15,.05-.24,.05-.39,0-.91-.3-.82-.61,.28-.94,.58-2.28-.04-2.28-.16,0-.38,.09-.68,.3l-1.8-1.21s1.88-1.48,3.31-1.48m0-1.2c-1.79,0-3.83,1.55-4.05,1.73l-1.3,1.02,1.37,.92,1.8,1.21,.35,.24c-.03,.12-.07,.26-.11,.41-.14,.45-.05,.93,.25,1.32,.37,.5,1.06,.83,1.72,.83,.31,0,.59-.07,.83-.21,.72-.41,1.93-1.47,1.93-3.93,0-3.29-2.14-3.54-2.79-3.54h0Z"/></g><g><path class="cls-3" d="M74.93,97.94l-.91,6.1s4.08-1.93,4.15,1.4c.05,2.24-.87,3.03-1.69,3.27-.31,.09-.95-.22-.9-.55,.18-1.14-.43-3.31-4.06-1.25-.42,.24-.81,.57-.98,1.02-.68,1.79,4.51,1.6,5.66,1.29,.26-.07,.73,.33,.88,.56,.43,.64-.05,2.75-5.1,1.56-5.69-1.33-2.04-5.18-2.04-5.18l-5.08-4.03,10.07-4.19Z"/><path d="M71.84,111.92c-2-.47-3.19-1.31-3.55-2.5-.37-1.25,.32-2.5,.8-3.17l-5.4-4.28,11.99-4.99-.92,6.15c.85-.25,2.06-.43,2.95,.12,.47,.29,1.03,.9,1.06,2.19,.05,2.21-.79,3.19-1.55,3.62,.18,.16,.31,.32,.36,.39,.27,.41,.36,1.11-.08,1.75-.39,.56-1.19,1.11-2.87,1.11-.74,0-1.66-.11-2.78-.37Zm-1.62-2.83c-.35-.38-.43-.87-.24-1.38,.2-.53,.62-.97,1.24-1.33,1.78-1.01,3.15-1.2,4.07-.57,.78,.54,.97,1.51,.9,2.25,.05,.03,.11,.05,.12,.06,1.08-.31,1.28-1.63,1.25-2.68-.02-.9-.37-1.12-.49-1.19-.75-.46-2.32,.09-2.81,.32l-1.02,.48,.92-6.16-8.14,3.39,4.79,3.8-.45,.48c-.36,.38-1.22,1.57-.94,2.51,.28,.93,1.61,1.42,2.67,1.67,2.65,.62,4,.28,4.38-.24,.14-.19,.11-.36,.08-.41-.06-.09-.23-.23-.33-.29-1.03,.23-4.92,.5-6.03-.73Zm4.77-1.02c.07-.43-.02-1.01-.38-1.26-.49-.34-1.5-.11-2.79,.62-.26,.15-.59,.39-.71,.71-.04,.1-.02,.11,0,.15,.46,.51,2.67,.62,4.08,.49-.17-.21-.24-.46-.2-.7Z"/></g></g><g><g><path class="cls-10" d="M74.61,148.96l-.09-.62c-2.13-14.92-3.87-38.85,.52-39.55,.15-.02,.29-.04,.43-.04,2.12,0,2.95,2.86,2.96,2.88l.16,.59,2.78-.82-.05-.49c0-.07-.74-7.03-7.6-7.03-.34,0-.69,.02-1.05,.05-.57,.05-1.07,.35-1.5,.88-4.57,5.66-.36,42.34-.18,43.9l.07,.58,3.55-.33Z"/><path d="M73.73,104.48c6.39,0,7,6.49,7,6.49l-1.72,.51s-.92-3.32-3.54-3.32c-.17,0-.34,.01-.53,.04-6.6,1.06-1.01,40.23-1.01,40.23l-2.34,.22s-5.06-43.51,1.14-44.11c.35-.03,.68-.05,1-.05m0-1.2c-.36,0-.73,.02-1.11,.06-.5,.05-1.24,.28-1.91,1.1-4.64,5.75-.77,40.41-.31,44.34l.14,1.17,1.17-.11,2.34-.22,1.25-.12-.18-1.25c-.01-.1-1.4-9.85-1.96-19.62-.33-5.7-.32-10.27,.03-13.58,.56-5.3,1.8-5.65,1.94-5.67,.12-.02,.23-.03,.34-.03,1.66,0,2.37,2.42,2.38,2.44l.33,1.18,1.17-.35,1.72-.51,.95-.28-.09-.98c-.25-2.62-2.28-7.58-8.2-7.58h0Z"/></g><g><path class="cls-7" d="M81.35,111.41l-.02-.47c-.03-.76-.48-1.57-1.39-1.57-.13,0-.28,.02-.42,.06-.63,.17-.92,.53-1.06,.81-.33,.67-.04,1.39,0,1.47l.21,.5,2.69-.79Z"/><path d="M79.94,109.97c.74,0,.79,1,.79,1l-1.72,.51s-.49-1.16,.67-1.47c.1-.03,.19-.04,.27-.04m0-1.2c-.19,0-.38,.03-.58,.08-.85,.23-1.25,.74-1.45,1.13-.44,.89-.1,1.79-.02,1.97l.42,.99,1.03-.3,1.72-.51,.9-.27-.04-.94c-.05-1.07-.75-2.15-1.99-2.15h0Z"/></g></g></g></g><g><path class="cls-3" d="M69.17,114.25s0-4.65,1.56-6.67"/><path d="M69.77,114.25s.02-4.47,1.44-6.31l-.95-.73c-1.66,2.16-1.68,6.84-1.68,7.04h1.2Z"/></g></g><rect class="cls-1" width="140.1" height="183.76"/></g></g></svg>