<?xml version="1.0" encoding="UTF-8"?><svg id="Livello_2" xmlns="http://www.w3.org/2000/svg" viewBox="0 0 140.1 183.76"><defs><style>.cls-1{fill:none;}.cls-2{fill:#68d1e7;}.cls-3{fill:#fff;}.cls-4{fill:#ffbc61;}.cls-5{fill:#ffd1a5;}.cls-6{fill:#ff925b;}.cls-7{fill:#8c6239;}.cls-8{fill:#adeaff;}.cls-9{fill:#d54111;}.cls-10{fill:#d59f59;}.cls-11{fill:#4d96ca;}</style></defs><g id="export"><g id="oldIdleR"><g id="shadow"><path d="M93.25,148.07l-.17-1.46c-.01-.1-1.11-9.65-1.65-19.75-1-18.75,.68-23.15,2.03-24.82,.73-.9,1.55-1.16,2.11-1.21,2.6-.25,4.79,.33,6.49,1.74,2.76,2.28,3.13,5.9,3.15,6.05l.12,1.23-4.37,1.29-.41-1.47c-.03-.09-.73-2.47-2.38-2.2-.03,0-2.76,.95-1.72,18.93,.56,9.75,1.94,19.51,1.96,19.61l.22,1.56-5.37,.5Zm3.43-44.29c-.26,0-.53,.01-.82,.04-.55,.32-.97,1.61-1.26,3.67,.86-2.17,2-2.8,3.09-2.98,.81-.13,1.53-.05,2.16,.16-.78-.53-1.81-.89-3.18-.89Z"/><path d="M92.15,106.05l-12.08-30.47,2.55-1.01-1.4-3,2.72-1.27,15.04,32.21-6.82,3.55Zm-7.68-27.51l9.24,23.31,1.32-.69-10.57-22.62Z"/><path d="M94.83,111.37c-.55,0-1.15-.07-1.78-.22-2.02-.49-3.22-1.46-3.58-2.88-.39-1.56,.45-3.1,1.26-4.15l-5.81-4.61,14.87-6.19-.92,6.12c1.4-.68,2.61-.81,3.59-.37,.33,.15,.71,.39,1.04,.79l.27,.12c1.31,.6,2.67,2.15,2.73,3.95,.03,.84-.22,2.42-2.2,3.49-.73,.4-1.63,.2-2.21-.17-.11-.07-.21-.15-.3-.24-.15,.04-.3,.06-.45,.07-.49,.47-1.03,.72-1.45,.84-.21,.06-.43,.08-.64,.07,.07,.53-.08,1.09-.43,1.6-.67,.96-2.09,1.76-3.98,1.76Zm-2.3-4.47c-.13,.27-.19,.5-.15,.64,.03,.11,.26,.32,.76,.51,0,0-.01-.01-.02-.02-.3-.33-.5-.71-.59-1.13Zm3.13-.82c.23,.03,.52,.03,.76-.04,.22-.06,.44-.07,.65-.05,0-.09,0-.17,.02-.26,.02-.13,.03-.24,.04-.34-.26,.07-.68,.23-1.31,.59-.06,.03-.11,.06-.15,.09Zm4.49-2.72l.91,.54c.06-.12,.11-.25,.14-.37l.2-.71-.12-.73c-.02-.13-.05-.22-.07-.27-.23,0-.84,.15-1.83,.79l-.25,.16-.13,.02c.28,.19,.63,.54,.87,1.1l.29-.53Zm-9.37-3.03l3.72,2.95c.22-.12,.51-.28,.84-.43l.7-4.71-5.26,2.19Z"/><path d="M42.19,122.16l-.24-1.34c-.27-1.49-6.38-36.66,10.08-52.47,7.31-7.02,17.88-9.05,31.42-6.04l1.1,.24,3.46,55.86-45.83,3.74Zm29.96-58.19c-7.45,0-13.49,2.19-18.03,6.54-13.58,13.04-10.36,41.88-9.42,48.44l40.15-3.28-3.14-50.66c-3.41-.69-6.59-1.04-9.56-1.04Z"/><path d="M70.38,77.32l2.11-15.37-1.74-19.17c-.19,.04-.39,.06-.58,.09-1.43,.16-2.83-.03-3.96-.54-1.36-.62-2.22-1.67-2.35-2.9-.26-2.3,2.1-4.39,5.38-4.76,.26-.03,.52-.05,.78-.05l-2.28-25.2L103.31,1.01l.13,1.75c.02,.32,2.23,32.17-7.96,60.8l-.33,.93-10.86,.71-3.06,10.47-10.84,1.64Zm3-38.78l2.13,23.47-1.61,11.73,4.98-.75,3.11-10.65,10.98-.72c8.28-23.95,7.85-49.97,7.56-56.88l-29.58,6.99,2.4,26.46-2.02-.47c-.53-.12-1.14-.15-1.75-.08-1.88,.21-2.77,1.16-2.74,1.45,.01,.09,.19,.31,.62,.5,.63,.28,1.49,.39,2.38,.29,.58-.07,1.14-.22,1.62-.44l1.94-.9Z"/><path d="M91.53,142.88l-23.73-3.76-.96-14.21-1.51,15.86-27.97,1.62,15.94-9.86-4.26-17.81c-1.76-1.12-6.85-4.83-7.29-10.28-.32-3.97,1.88-7.85,6.54-11.52l.37-.29,33.05-2.16-2.43,42.1,12.25,10.3Zm-41.74-47.31c-3.57,2.91-5.27,5.81-5.05,8.63,.38,4.85,6.28,8.23,6.34,8.26l.57,.32,.15,.64,4.91,20.53-7.71,4.77,13.58-.79,3.01-31.68,2.99,.04,2.04,30.24,10.7,1.7-5.14-4.32,2.32-40.21-28.73,1.88Z"/><path d="M42.13,122.16l-.19-1.42c-.31-2.37-7.33-58.17,16.53-62.1,9.76-1.61,15.63,.89,15.87,1l1.18,.52-16.11,60.61-17.29,1.39Zm22.68-61.04c-1.72,0-3.68,.13-5.85,.49-10.75,1.77-14.03,17.4-14.9,30.19-.79,11.68,.27,23.2,.69,27.14l12.31-.99,14.87-55.95c-1.35-.38-3.79-.88-7.12-.88Z"/><polygon points="65.49 108.43 57.31 108.22 61.99 68.8 64.97 69.15 60.68 105.31 62.81 105.36 66.14 75.37 69.12 75.7 65.49 108.43"/><path d="M55.35,118.13c-.98,0-1.61-.35-1.97-1.04-.36-.68-.26-1.44,.24-2.13-.77-.16-1.33-.41-1.69-.75-.41-.39-.62-.91-.6-1.45,.01-.36,.1-.74,.41-1.1-1.27-.62-1.53-1.23-1.44-2,.08-.73,.49-1.34,1.14-1.74,1.06-.64,2.75-.6,4.29-.37l-3.17-6.78,13.42,1.73-.04,1.36c-.02,.65-.18,4.42-1.32,7.72l.84-.07-1.01,.54c-.73,1.91-1.83,3.61-3.45,4.34-2.56,1.16-4.38,1.73-5.63,1.73Zm5.29-7.13l.91,.22c.69-1.73,1.12-4.06,1.3-6.09l-5.27-.68,3.06,6.56Z"/></g><g><g><path class="cls-9" d="M93.97,146.51c-.18-1.56-4.38-38.24,.18-43.9,.43-.53,.93-.83,1.5-.88,.37-.04,.72-.05,1.05-.05,6.86,0,7.59,6.96,7.6,7.03l.05,.49-2.78,.82-.16-.59s-.83-2.89-2.96-2.89c-.14,0-.28,.01-.43,.04-2.33,.37-4.52,11.44-.52,39.55l.09,.62-3.55,.33-.07-.58Z"/><path d="M96.71,102.27c6.39,0,7,6.49,7,6.49l-1.72,.51s-.92-3.32-3.54-3.32c-.17,0-.34,.01-.53,.04-6.6,1.06-1.01,40.23-1.01,40.23l-2.34,.22s-5.06-43.51,1.14-44.11c.35-.03,.68-.05,1-.05m0-1.2h0c-.36,0-.74,.02-1.11,.06-.5,.05-1.24,.28-1.91,1.1-4.64,5.75-.77,40.41-.31,44.34l.14,1.17,1.17-.11,2.34-.22,1.25-.12-.18-1.25c-.01-.1-1.4-9.87-1.96-19.63-.33-5.69-.32-10.26,.04-13.57,.56-5.3,1.8-5.65,1.94-5.67,.12-.02,.23-.03,.34-.03,1.66,0,2.37,2.42,2.38,2.45l.33,1.16,1.16-.34,1.72-.51,.95-.28-.09-.98c-.25-2.62-2.28-7.58-8.2-7.58h0Z"/></g><g><path class="cls-6" d="M101.44,109.5c-.03-.08-.32-.81,0-1.47,.14-.28,.43-.64,1.06-.81,.14-.04,.29-.06,.42-.06,.9,0,1.35,.81,1.39,1.57l.02,.47-2.69,.79-.21-.5Z"/><path d="M102.93,107.76c.74,0,.79,1,.79,1l-1.72,.51s-.49-1.16,.67-1.47c.1-.03,.19-.04,.27-.04m0-1.2c-.19,0-.38,.03-.58,.08-.85,.23-1.25,.74-1.45,1.13-.44,.89-.1,1.79-.02,1.97l.42,.99,1.03-.3,1.72-.51,.9-.27-.04-.94c-.05-1.07-.75-2.15-1.99-2.15h0Z"/></g></g><g><ellipse cx="45.97" cy="145.42" rx="2.87" ry="2.28" transform="translate(-66.55 42.47) rotate(-30)"/><path d="M45.44,148.46c-1.04,0-1.99-.46-2.48-1.3-.4-.69-.44-1.52-.12-2.34,.3-.77,.9-1.44,1.68-1.89,.78-.45,1.66-.64,2.48-.51,.87,.13,1.57,.58,1.97,1.27,.79,1.38,.09,3.28-1.57,4.23-.64,.37-1.32,.54-1.97,.54Zm1.06-4.89c-.46,0-.94,.13-1.38,.39-.55,.32-.96,.78-1.17,1.3-.19,.47-.17,.93,.04,1.3,.46,.8,1.73,.95,2.81,.32,1.09-.63,1.59-1.79,1.13-2.6-.21-.37-.6-.61-1.1-.68-.11-.02-.22-.02-.33-.02Z"/></g><g><ellipse cx="60.59" cy="145.42" rx="2.59" ry="3.17" transform="translate(-94.66 172.18) rotate(-77.16)"/><path d="M60.87,148.64c-.33,0-.66-.04-.99-.11-2.02-.46-3.35-2.23-2.96-3.94,.39-1.71,2.35-2.73,4.38-2.27,2.02,.46,3.35,2.23,2.96,3.94h0c-.19,.85-.77,1.56-1.63,1.98-.53,.27-1.14,.4-1.76,.4Zm-.56-5.24c-1.09,0-2.02,.57-2.22,1.45-.24,1.07,.68,2.19,2.06,2.51,.69,.16,1.38,.09,1.95-.19,.53-.26,.88-.68,.99-1.17h0c.24-1.07-.68-2.19-2.06-2.51-.24-.06-.49-.08-.72-.08Z"/></g><g><ellipse cx="70.92" cy="143.81" rx="3.24" ry="2.36" transform="translate(-41.46 29.44) rotate(-18.25)"/><path d="M70.34,146.87c-1.45,0-2.69-.7-3.07-1.86-.51-1.55,.71-3.35,2.72-4.02,2.01-.66,4.07,.06,4.58,1.61,.51,1.55-.71,3.35-2.72,4.02-.51,.17-1.02,.25-1.5,.25Zm1.16-4.92c-.37,0-.75,.06-1.14,.19-1.36,.45-2.26,1.59-1.96,2.5,.3,.91,1.7,1.29,3.06,.85,1.36-.45,2.26-1.59,1.96-2.5h0c-.21-.65-1-1.03-1.92-1.03Z"/></g><g><ellipse cx="85.02" cy="145.56" rx="2.18" ry="2.63" transform="translate(-80.48 177.59) rotate(-70.66)"/><path d="M85.32,148.39c-.4,0-.81-.07-1.22-.21-1.68-.59-2.63-2.25-2.13-3.69,.51-1.44,2.29-2.14,3.97-1.55,1.68,.59,2.63,2.24,2.13,3.69-.38,1.1-1.5,1.76-2.75,1.76Zm-.61-4.46c-.75,0-1.39,.36-1.6,.96-.29,.82,.34,1.79,1.39,2.16,1.05,.37,2.15,0,2.44-.82h0c.29-.82-.34-1.79-1.39-2.16-.28-.1-.56-.14-.83-.14Z"/></g><g><polyline class="cls-3" points="82.57 70.93 97 101.83 92.93 103.95 81.46 75.02"/><path d="M82.57,70.93c5.15,8.71,10.79,21.94,15.22,31.17-.06,.01-4.34,2.27-4.58,2.38,0,0-.59,.31-.59,.31l-.24-.62c-3.34-8.53-8.38-20.46-10.91-29.15,4.09,8.02,8.64,20.24,12.03,28.71,0,0-.83-.31-.83-.31l4.07-2.12-.27,.79c-4.17-9.15-10.58-21.79-13.89-31.16h0Z"/></g><g><g><path class="cls-2" d="M103.4,106.76c-.32,0-.77-.13-1.05-.43-.17-.18-.25-.4-.23-.62v-.15c.04-.47,.12-1.56-.25-1.74-.31-.15-.51-.43-.55-.76-.03-.29,.07-.57,.28-.76l1.38-1.68,.42,.19c1.03,.47,2.15,1.75,2.2,3.17,.04,1.1-.58,2.04-1.73,2.67-.13,.07-.29,.11-.47,.11Z"/><path d="M103.15,101.35c1.52,.7,3.07,3.34,.43,4.77-.05,.03-.11,.04-.18,.04-.29,0-.7-.19-.68-.41,.05-.74,.2-2.09-.59-2.47-.23-.11-.29-.4-.09-.56l1.11-1.36m-.34-1.48l-.59,.72-1.06,1.29c-.33,.32-.49,.78-.44,1.24,.06,.5,.35,.93,.79,1.18,.09,.27,.04,.94,.02,1.21v.15c-.04,.39,.1,.77,.38,1.07,.35,.38,.93,.62,1.48,.62,.28,0,.53-.06,.75-.18,1.84-1,2.07-2.45,2.05-3.22-.06-1.68-1.33-3.13-2.55-3.69l-.84-.39h0Z"/></g><g><path class="cls-2" d="M101.26,106.2c-.47,0-.99-.25-1.24-.59-.18-.24-.23-.52-.15-.79,.21-.71,.28-1.14,.3-1.38-.03,.02-.43,.3-.43,.3l-2.83-1.9,.65-.51c.21-.16,2.09-1.6,3.68-1.6,.82,0,2.19,.38,2.19,2.94,0,1.59-.57,2.8-1.63,3.41-.15,.09-.33,.13-.54,.13Z"/><path d="M101.23,100.32c.88,0,1.59,.55,1.59,2.34,0,1.52-.55,2.44-1.32,2.88-.06,.04-.15,.05-.24,.05-.39,0-.91-.3-.82-.61,.28-.94,.58-2.28-.04-2.28-.16,0-.38,.09-.68,.3l-1.8-1.21s1.88-1.48,3.31-1.48m0-1.2h0c-1.8,0-3.83,1.55-4.05,1.73l-1.3,1.02,1.37,.92,1.8,1.21,.35,.24c-.03,.12-.07,.26-.11,.41-.14,.45-.05,.93,.25,1.32,.37,.5,1.06,.83,1.72,.83,.31,0,.59-.07,.83-.21,.72-.41,1.93-1.47,1.93-3.93,0-3.29-2.14-3.54-2.79-3.54h0Z"/></g><g><path class="cls-2" d="M97.91,95.73l-.91,6.1s4.08-1.93,4.15,1.4c.05,2.24-.87,3.03-1.69,3.27-.31,.09-.95-.22-.9-.55,.18-1.14,.13-3.33-3.5-1.28-.42,.24-.81,.57-.98,1.02-.68,1.79,1.57,2.11,2.72,1.79,.26-.07,.73,.33,.88,.56,.43,.64-1.23,2.39-4.29,1.65-5.41-1.31-.48-5.74-.48-5.74l-5.08-4.03,10.07-4.19Z"/><path d="M94.84,110.48c-.49,0-1.02-.06-1.58-.2-1.67-.4-2.65-1.15-2.92-2.22-.39-1.56,.91-3.23,1.68-4.06l-5.35-4.24,11.99-4.99-.92,6.15c.85-.25,2.06-.43,2.95,.12,.47,.29,1.03,.9,1.06,2.19,.06,2.8-1.3,3.62-2.12,3.86-.45,.13-1-.08-1.31-.36-.27-.24-.4-.55-.35-.86,.11-.68,.03-1.2-.19-1.35-.26-.18-1.04-.1-2.42,.69-.26,.15-.59,.39-.71,.71-.18,.48-.03,.65,.03,.71,.34,.38,1.34,.46,1.98,.29,.69-.19,1.4,.6,1.54,.8,.26,.39,.22,.91-.12,1.4-.53,.76-1.67,1.37-3.22,1.37Zm-5.83-10.39l4.84,3.84-.53,.48c-.56,.51-2.11,2.22-1.82,3.37,.15,.6,.84,1.06,2.04,1.35,1.79,.43,2.82-.1,3.18-.35,.27-.19,.38-.36,.42-.45-.08-.08-.2-.18-.28-.22-.83,.2-2.31,.18-3.08-.67-.26-.29-.65-.93-.26-1.94,.2-.53,.62-.97,1.24-1.33,1.7-.96,2.91-1.17,3.69-.63,.61,.42,.86,1.23,.72,2.34,.05,.03,.12,.05,.16,.05,1.03-.3,1.23-1.62,1.21-2.67-.02-.9-.37-1.12-.49-1.19-.75-.46-2.32,.09-2.81,.32l-1.02,.48,.92-6.16-8.14,3.39Z"/></g></g><g><path class="cls-3" d="M43.93,119.91c-.67-4.3-4.66-33.28,7.7-48.06,4.88-5.83,11.77-8.79,20.47-8.79,3.21,0,6.73,.41,10.45,1.2l3.24,52.23-41.87,3.42Z"/><path d="M72.11,63.66h0c3.04,0,6.36,.37,9.88,1.1l3.17,51.19-40.72,3.32c-.85-5.74-4.11-32.97,7.66-47.03,4.76-5.69,11.49-8.58,20.01-8.58m0-1.2c-39.14,0-28.68,58.09-28.68,58.09l43.01-3.51-3.3-53.27c-4.05-.9-7.71-1.32-11.02-1.32h0Z"/></g><g><g><path class="cls-5" d="M101.94,2.87l-32.6,7.7,2.33,25.69c-.68-.16-1.45-.21-2.26-.11-2.4,.27-4.22,1.66-4.06,3.1,.16,1.44,2.25,2.39,4.65,2.12,.77-.09,1.48-.29,2.08-.57l1.92,21.18-1.86,13.55,7.91-1.2,3.08-10.56,10.93-.72c10.21-28.66,7.88-60.18,7.88-60.18Z"/><path d="M71.44,76.25l1.96-14.28-1.84-20.32c-.47,.15-.98,.26-1.49,.32-1.27,.14-2.51-.02-3.48-.46-1.08-.49-1.73-1.26-1.83-2.18-.2-1.8,1.81-3.45,4.59-3.77,.56-.06,1.13-.07,1.66,0l-2.3-25.44L102.49,2.13l.05,.7c.02,.32,2.22,31.98-7.91,60.43l-.13,.37-10.9,.71-3.07,10.53-9.08,1.38Zm1.16-36.35l2,22.1-1.76,12.83,6.73-1.02,3.1-10.6,10.95-.72c9.07-25.77,8.02-54.07,7.76-58.86l-31.4,7.42,2.36,26-.81-.19c-.63-.15-1.34-.18-2.06-.1-2,.23-3.65,1.37-3.53,2.44,.07,.65,.74,1.04,1.14,1.22,.78,.35,1.79,.49,2.85,.36,.68-.08,1.33-.26,1.9-.52l.77-.36Z"/></g><g><path d="M80.42,13.91l.39-.48,2.37,1.71-2.76-1.23Zm2.7-1.9l.5-.38,1.42,2.33-1.92-1.94Z"/><path d="M83.79,10.74l-1.57,1.2,6.02,6.09-4.45-7.29h0Zm-3.09,1.86l-1.24,1.53,8.77,3.9-7.54-5.43h0Z"/></g><g><path d="M98.76,12.96l.19,.76-2.52,1.54,2.33-2.3Zm-2.97-1.67l.63,.48-1.78,2.48,1.16-2.96Z"/><path d="M95.52,10.33l-3.18,8.12,4.9-6.8-1.72-1.32h0Zm3.56,1.47l-6.74,6.66,7.29-4.45-.56-2.21h0Z"/></g><g><polygon points="87.39 48.1 70.19 45.47 66.12 49.68 70.52 57.92 75.13 51.17 77.86 54.8 80.18 49.25 83.03 51.69 87.59 48.59 87.39 48.1"/><path d="M70.48,58.64l-4.82-9.02,4.4-4.54,17.6,2.69,.39,.98-5.05,3.43-2.67-2.3-2.37,5.68-2.82-3.74-4.66,6.83Zm-3.9-8.89l3.98,7.45,4.55-6.67,2.66,3.53,2.26-5.42,3.02,2.59,4.08-2.77v-.02s-16.8-2.57-16.8-2.57l-3.75,3.87Z"/></g><g><polygon points="89.2 48.42 104.6 43.12 109.13 46.78 107.01 55.38 102.71 49.53 100.88 54.37 97.87 49.14 94.68 51.31 89.2 48.42"/><path d="M107.18,56.24l-4.36-5.94-1.87,4.94-3.19-5.56-3.05,2.07-6.44-3.4,16.41-5.65,4.88,3.93-2.38,9.61Zm-4.57-7.49l4.23,5.76,1.88-7.59-4.18-3.37-14.38,4.95,4.51,2.38,3.35-2.27,2.81,4.89,1.8-4.74Z"/></g><g><g><polygon points="67.27 30.94 73.5 30.94 67.58 32.65 67.27 30.94"/><path d="M69.27,31.54l-1.21,.35-.06-.35h1.28m8.47-1.2h-11.19l.56,3.07,10.63-3.07h0Z"/></g><g><polyline class="cls-2" points="98.03 41.71 91.71 42.52 90.78 19.79 97.28 19.41"/><polygon class="cls-11" points="91.14 43.2 90.16 19.23 97.24 18.81 97.31 20 91.41 20.35 92.28 41.84 97.96 41.11 98.11 42.3 91.14 43.2"/></g><g><ellipse class="cls-8" cx="97.65" cy="30.56" rx="5.32" ry="11.16" transform="translate(-.98 3.33) rotate(-1.94)"/><path class="cls-11" d="M97.94,42.31c-3.27,0-5.98-5.03-6.21-11.55-.1-3.07,.37-5.98,1.34-8.2,1.03-2.36,2.51-3.7,4.18-3.75,1.67-.05,3.23,1.17,4.42,3.46,1.12,2.15,1.79,5.02,1.89,8.09h0c.1,3.07-.37,5.98-1.34,8.2-1.03,2.36-2.51,3.7-4.18,3.75-.04,0-.07,0-.11,0Zm-.58-22.3s-.04,0-.06,0c-1.16,.04-2.3,1.15-3.12,3.03-.9,2.06-1.34,4.79-1.24,7.68,.19,5.72,2.55,10.45,5.07,10.39,1.16-.04,2.29-1.15,3.12-3.03,.9-2.06,1.34-4.79,1.24-7.68h0c-.1-2.89-.72-5.58-1.76-7.58-.93-1.79-2.11-2.82-3.25-2.82Z"/></g><g><polyline class="cls-5" points="91.45 30.52 92.35 48.29 87.5 48.36"/><polygon points="87.51 48.96 87.49 47.76 91.72 47.7 90.85 30.55 92.05 30.49 92.98 48.88 87.51 48.96"/></g><g><polyline class="cls-2" points="85.67 42.1 78.59 42.22 79.47 18.43 86.44 19.06"/><polygon class="cls-11" points="77.96 42.83 78.9 17.77 86.49 18.47 86.38 19.66 80.05 19.08 79.21 41.61 85.66 41.5 85.68 42.7 77.96 42.83"/></g><g><ellipse class="cls-8" cx="86.05" cy="30.58" rx="11.52" ry="5.49" transform="translate(52.65 115.58) rotate(-88.11)"/><path class="cls-11" d="M85.76,42.7s-.07,0-.11,0c-3.41-.11-5.91-5.52-5.69-12.32,.23-6.79,3.06-12.03,6.49-11.92,3.41,.11,5.91,5.52,5.69,12.32h0c-.22,6.72-3.02,11.92-6.38,11.92Zm.58-23.04c-2.62,0-4.99,4.89-5.18,10.76-.2,5.92,1.88,10.99,4.53,11.08,2.65,.06,5.06-4.84,5.25-10.76,.2-5.92-1.88-10.99-4.53-11.08-.02,0-.05,0-.07,0Z"/></g></g><g><g><path class="cls-10" d="M73.38,15.84c-.15,0-.32-.05-.48-.15-.26-.15-.38-.35-.41-.44,0,0,.06,0,.09,0,.15,0,.32,.05,.48,.15,.26,.15,.38,.35,.41,.44,0,0-.06,0-.09,0Z"/><path class="cls-10" d="M72.58,14.65c-.28,0-.51,.1-.63,.3-.21,.37,.07,.93,.64,1.26,.26,.15,.54,.23,.79,.23,.28,0,.51-.1,.63-.3,.21-.37-.07-.93-.64-1.26-.26-.15-.54-.23-.79-.23h0Z"/></g><g><path class="cls-10" d="M75.51,14.56c-.1,0-.24-.05-.36-.19-.09-.1-.14-.22-.14-.34,0-.04,0-.13,.06-.18,.03-.03,.08-.04,.14-.04,.1,0,.24,.05,.36,.19,.09,.1,.14,.22,.14,.34,0,.05,0,.13-.06,.18-.03,.03-.08,.04-.13,.04Z"/><path class="cls-10" d="M75.2,13.22c-.2,0-.38,.06-.53,.19-.36,.32-.35,.93,.03,1.36,.23,.25,.53,.39,.81,.39,.2,0,.38-.06,.53-.19,.36-.32,.35-.93-.03-1.36-.23-.25-.53-.39-.81-.39h0Z"/></g><g><path class="cls-10" d="M72.46,13.13s-.03,0-.03,0c-.05-.15-.03-.24,.01-.32,.07-.12,.17-.18,.24-.18,.08,.03,.1,.18,.02,.33-.07,.12-.17,.18-.24,.18Z"/><path class="cls-10" d="M72.68,12.02c-.29,0-.59,.17-.76,.47-.25,.42-.16,.93,.2,1.14,.1,.06,.22,.09,.33,.09,.29,0,.59-.17,.76-.47,.25-.42,.16-.93-.2-1.14-.1-.06-.22-.09-.33-.09h0Z"/></g></g></g><g><path class="cls-3" d="M80.12,92.08l-31.67,2.06s-6.19-15.83,2.44-28.06c7.03-9.97,22.86-5.07,22.86-5.07l3.45,10.61,4.74-6.42-1.82,26.88Z"/><path d="M48.05,94.78l-.16-.41c-.06-.16-6.21-16.27,2.51-28.63,2.99-4.24,8.02-6.5,14.55-6.53h.13c4.81,0,8.68,1.18,8.85,1.23l.3,.09,3.18,9.79,5.27-7.14-1.99,29.45-32.64,2.13Zm17.06-34.34c-4.73,0-10.34,1.19-13.73,6-7.58,10.75-3.39,24.55-2.52,27.09l30.7-2,1.64-24.31-4.21,5.71-3.71-11.41c-.98-.27-4.28-1.07-8.17-1.07Z"/></g><g><path d="M75.2,84.79l2.4-4.16,1.52,1.87-2.4,11.95-1.52-9.66Zm1.2-7.55l1.23-2.3,.95,1.62-1.13,1.96-1.04-1.28Z"/><path d="M77.65,76.17l.23,.39-.52,.9-.24-.29,.53-1m.04,5.51l.79,.97-1.69,8.39-.97-6.14,1.86-3.22m-.09-7.97l-1.92,3.6,1.84,2.26,1.74-3.01-1.66-2.85h0Zm-.08,5.86l-2.95,5.1,2.08,13.18,3.12-15.51-2.25-2.76h0Z"/></g><g><g><path class="cls-7" d="M80.12,92.08l-2.38,41.15,8.7,7.31-17.21-2.73-2.12-31.44-3.13,32.96-20.78,1.2,11.82-7.31-4.66-19.47s-15.26-8.52-1.13-19.66l30.89-2.02Z"/><path d="M88.47,141.48l-19.82-3.14-1.66-24.54-2.48,26.12-23.66,1.37,13.47-8.33-4.5-18.8c-1.23-.74-6.75-4.35-7.18-9.78-.29-3.65,1.8-7.27,6.2-10.74l.15-.12,31.76-2.08-2.4,41.53,10.12,8.51Zm-39.02-46.79c-3.97,3.17-5.85,6.4-5.6,9.58,.42,5.34,6.73,8.93,6.8,8.97l.23,.13,4.82,20.15-10.18,6.29,17.9-1.03,3.08-32.45,1.2,.02,2.09,30.96,14.61,2.32-7.27-6.12,2.36-40.78-30.03,1.96Z"/></g><g><polygon points="55.15 133.86 63.78 134.98 63.42 138.78 45.52 139.81 55.15 133.86"/><path d="M55.28,134.48l7.85,1.02-.26,2.71-15.02,.87,7.43-4.6m-.27-1.24l-11.82,7.31,20.78-1.2,.47-4.89-9.42-1.22h0Z"/></g><g><polygon points="69.79 137.3 69.62 134.85 77.55 133.87 84.4 139.62 69.79 137.3"/><path d="M77.37,134.49l4.99,4.2-12-1.9-.09-1.41,7.11-.89m.37-1.26l-8.75,1.09,.24,3.49,17.21,2.73-8.7-7.31h0Z"/></g><g><g><polygon class="cls-4" points="81.45 96.57 77.26 96.69 77.1 94.43 81.02 94.15 81.45 96.57"/><path d="M76.92,97.08l-.22-3,4.63-.33,.57,3.18-4.98,.15Zm.58-2.3l.11,1.53,3.39-.1-.3-1.66-3.21,.23Z"/></g><g><polygon class="cls-4" points="74.91 97.08 70.89 97.19 70.66 94.67 74.89 94.41 74.91 97.08"/><path d="M70.54,97.57l-.29-3.26,5.01-.31,.03,3.44-4.75,.12Zm.52-2.56l.16,1.79,3.31-.09-.02-1.91-3.45,.21Z"/></g><g><polygon class="cls-4" points="68.4 97.3 64.38 97.58 64.31 95.15 68.38 94.88 68.4 97.3"/><path d="M64.01,97.98l-.09-3.18,4.83-.32,.02,3.17-4.76,.33Zm.68-2.48l.05,1.68,3.28-.23v-1.67s-3.33,.22-3.33,.22Z"/></g><g><polygon class="cls-4" points="61.86 97.71 58.19 97.75 57.92 95.31 61.79 95.03 61.86 97.71"/><path d="M57.86,98.13l-.36-3.17,4.65-.34,.1,3.45-4.39,.05Zm.48-2.47l.19,1.72,2.95-.03-.05-1.91-3.09,.22Z"/></g><g><polygon class="cls-4" points="55.69 97.95 51.87 97.98 51.8 95.55 55.51 95.26 55.69 97.95"/><path d="M51.5,98.36l-.09-3.15,4.45-.35,.23,3.46-4.59,.04Zm.68-2.46l.05,1.71,3.06-.03-.13-1.91-2.98,.23Z"/></g></g></g><g><path class="cls-3" d="M73.75,61.02l-15.51,58.34-14.81,1.19s-7.41-56.69,15.28-60.42c9.43-1.55,15.03,.89,15.03,.89Z"/><path d="M42.91,121.19l-.07-.57c-.02-.14-1.85-14.4-.87-28.93,1.33-19.74,6.93-30.56,16.65-32.16,9.5-1.56,15.13,.83,15.37,.93l.47,.21-15.75,59.24-15.8,1.27Zm21.9-60.98c-1.77,0-3.78,.14-6,.5-20.68,3.4-15.54,53.27-14.86,59.18l13.81-1.11,15.26-57.4c-1.08-.37-3.95-1.18-8.22-1.18Z"/></g><g><polyline class="cls-3" points="67.63 75.53 64.15 106.9 58.99 106.76 63.48 68.98"/><path d="M67.63,75.53c-.11,3.27-.31,6.6-.48,9.87-.47,4.03-1.93,17.33-2.4,21.56,0,0-.06,.55-.06,.55-.85-.02-5.52-.15-6.36-.17,1.44-11.18,2.87-27.45,5.16-38.37-.16,5.5-.9,13.43-1.65,18.96,0,0-2.24,18.89-2.24,18.89,0,0-.58-.67-.58-.67l5.15,.14-.61,.53c.48-4.32,1.95-17.46,2.38-21.57,.55-3.23,1.09-6.52,1.69-9.73h0Z"/></g><g><path class="cls-2" d="M64.43,103.82s-.27,9.49-4.07,11.21c-6.45,2.93-6.41,1.13-4.76,.14,1.16-.7,2.81-1.59,2.81-1.59,0,0-5.63,.45-5.59-.77,.03-.76,3.58-1.27,3.58-1.27,0,0-4.68-1.11-4.62-1.72,.18-1.63,4.79-.77,6.63-.05l-3.35-7.17,9.36,1.21Z"/><path d="M55.38,117.23c-.75,0-1.05-.28-1.2-.56-.32-.62,.12-1.41,1.12-2.01,.21-.13,.43-.26,.65-.39-1.37-.02-2.84-.18-3.4-.71-.22-.21-.33-.48-.32-.77,0-.23,.03-.79,1.6-1.31-2.74-.84-2.68-1.36-2.64-1.73,.05-.45,.29-.81,.71-1.06,1.2-.73,3.71-.33,5.4,.11l-3.23-6.92,10.98,1.42-.02,.54c-.01,.4-.33,9.89-4.42,11.74-2.77,1.26-4.33,1.65-5.24,1.65Zm5.85-4.48l-2.53,1.36s-1.65,.89-2.78,1.57c-.2,.12-.35,.25-.46,.35,.52-.02,1.81-.25,4.66-1.54,2.65-1.2,3.53-7.29,3.69-10.14l-7.73-1,3.52,7.54-1.4-.55c-1.59-.63-4.73-1.17-5.67-.62,.67,.34,2.47,.88,4.01,1.24l3.09,.73-3.14,.45c-1.14,.16-2.29,.45-2.83,.69,.76,.24,2.74,.31,4.71,.15l2.86-.23Z"/></g><rect class="cls-1" width="140.1" height="183.76"/></g></g></svg>