<?xml version="1.0" encoding="UTF-8"?><svg id="Livello_2" xmlns="http://www.w3.org/2000/svg" xmlns:xlink="http://www.w3.org/1999/xlink" viewBox="0 0 140.1 183.76"><defs><style>.cls-1,.cls-2{fill:none;}.cls-3{fill:#68d1e7;}.cls-4{fill:#fff;}.cls-5{fill:#ffbc61;}.cls-6{fill:#ffd1a5;}.cls-7{fill:#ff925b;}.cls-8{fill:#8c6239;}.cls-9{fill:#adeaff;}.cls-10{fill:#d54111;}.cls-11{fill:#d59f59;}.cls-12{fill:#4d96ca;}.cls-13{clip-path:url(#clippath-1);}.cls-14{clip-path:url(#clippath-2);}.cls-2{clip-path:url(#clippath);}</style><clipPath id="clippath"><rect class="cls-1" x="44.71" y="96.37" width="19.52" height="52.97"/></clipPath><clipPath id="clippath-1"><path class="cls-2" d="M57.53,112.48c-.32,.32-.76,.62-1.2,.75-.32,.09-.65,.06-.97,0-.49-.08-.98-.14-1.47-.2-.65-.09-1.3-.27-1.87-.62,.08,.05,.13,.08,.17,.1,.08,.05,.13,.08,0,0-.07-.05-.17-.1-.17-.1-.47-.29-.86-.68-1.24-1.07-.26-.26-.54-.56-.54-.93,0-.4,.31-.72,.62-.96,1.7-1.33,3.9-1.81,6.04-2.05,.08,0,.16-.02,.23,.01,.07,.03,.12,.09,.16,.14,.24,.33,.36,.73,.46,1.13,.17,.73,.27,1.49,.28,2.24,.01,.58-.08,1.12-.5,1.55Z"/></clipPath><clipPath id="clippath-2"><path class="cls-1" d="M52.02,112.41h0c-.47-.29-.86-.68-1.24-1.07-.26-.26-.54-.56-.54-.93,0-.4,.31-.72,.62-.96,1.7-1.33,3.9-1.81,6.04-2.05,.08,0,.16-.02,.23,.01,.07,.03,.12,.09,.16,.14,.24,.33,.36,.73,.46,1.13,.17,.73,.27,1.49,.28,2.24,.01,.58-.08,1.12-.5,1.55-.32,.32-.76,.62-1.2,.75-.32,.09-.65,.06-.97,0-.49-.08-.98-.14-1.47-.2-.65-.09-1.3-.27-1.87-.62,0,0,.56,.35,0,0Z"/></clipPath></defs><g id="export"><g id="oldIdleL"><g id="shadow"><path d="M47.72,75.11c-.06,3.19,.24,6.43-.52,9.52-.65,3.02-2.92,13.53-3.59,16.65-.86-.09-5.55-.54-6.52-.64,0,0-1.79-.18-1.79-.18,0,0,.49-1.73,.49-1.73l4.48-15.84c.76-2.64,1.46-5.29,2.28-7.91,1.17-2.52,2.34-5.04,3.65-7.52-.19,2.8-.51,5.56-.83,8.32-.68,2.66-1.47,5.29-2.21,7.93l-4.48,15.84-1.3-1.9,5.19,.51-1.61,1.18c.49-2.29,2.87-13.31,3.31-15.34,.58-3.13,2.19-5.96,3.45-8.89h0Z"/><path d="M42.78,115.58c-1.27,0-3.08-1.08-5.75-3.38-3.75-3.23-2.04-10.46-1.83-11.28l.25-.99,14.61-1.81-5.66,7.05c1.58,.19,3.3,.63,4.17,1.58,.52,.56,.73,1.27,.61,1.99-.14,.77-.55,1.28-1.95,1.52,.19,.43,.17,.82,.09,1.17-.14,.55-.51,1-1.03,1.25-.44,.22-1.04,.28-1.79,.19,.3,.81,.18,1.58-.36,2.14-.37,.38-.82,.58-1.36,.58Zm-4.75-7.2c.2,.6,.5,1.13,.91,1.5l-.87-1.51h-.04Zm-.03-.08s0,.03,.01,.04l.02-.02-.03-.02Zm-.26-1.24l1.25,.07,4.11-5.12-5.19,.64c-.2,1.19-.36,2.89-.17,4.41Z"/><path d="M85.94,121.73l-45.83-3.74,3.46-55.86,1.1-.24c13.55-3.01,24.12-.98,31.42,6.04,16.46,15.81,10.35,50.98,10.08,52.47l-.24,1.34Zm-42.65-6.49l40.15,3.28c.94-6.56,4.16-35.4-9.42-48.44-6.34-6.09-15.62-7.94-27.59-5.5l-3.14,50.66Z"/><path d="M57.76,76.89l-10.84-1.64-3.06-10.47-10.86-.71-.33-.93C22.47,34.51,24.68,2.66,24.7,2.34l.13-1.75L60.41,8.99l-2.28,25.2c.26,0,.52,.02,.78,.05,3.28,.37,5.64,2.47,5.38,4.76-.26,2.3-3.04,3.81-6.31,3.44-.2-.02-.39-.05-.59-.09l-1.74,19.17,2.11,15.37Zm-8.49-4.32l4.98,.75-1.61-11.73,2.13-23.47,1.94,.9c.48,.22,1.03,.37,1.62,.44,1.88,.21,2.96-.51,2.99-.79,.03-.29-.86-1.23-2.74-1.45-.61-.07-1.22-.04-1.75,.08l-2.02,.47,2.4-26.46L27.6,4.32c-.29,6.91-.72,32.93,7.56,56.88l10.98,.72,3.11,10.65Z"/><path d="M36.61,142.45l12.25-10.3-2.43-42.1,33.05,2.16,.37,.29c4.66,3.67,6.86,7.55,6.54,11.52-.43,5.45-5.53,9.15-7.29,10.28l-4.26,17.81,15.93,9.86-27.97-1.62-1.51-15.87-.96,14.21-23.73,3.76Zm28.94-4.95l13.58,.79-7.71-4.77,5.06-21.17,.57-.32c.06-.03,5.96-3.41,6.34-8.26,.22-2.81-1.48-5.71-5.05-8.63l-28.73-1.88,2.33,40.21-5.14,4.32,10.7-1.7,2.04-30.24,2.99-.04,3.01,31.68Z"/><path d="M86.01,121.74l-17.29-1.39-16.11-60.61,1.18-.52c.25-.11,6.11-2.6,15.87-1,23.85,3.93,16.84,59.72,16.53,62.1l-.19,1.42Zm-14.93-4.21l12.31,.99c.43-3.93,1.48-15.46,.69-27.14-.86-12.8-4.15-28.42-14.9-30.19-6.37-1.05-10.93-.18-12.98,.39l14.87,55.95Z"/><polygon points="62.65 108.01 59.02 75.27 62 74.94 65.33 104.94 67.46 104.88 63.17 68.73 66.15 68.38 70.83 107.79 62.65 108.01"/><path d="M72.79,117.71c-1.25,0-3.07-.57-5.63-1.73-1.63-.74-2.72-2.43-3.45-4.34l-1-.54,.83,.07c-1.15-3.3-1.3-7.07-1.32-7.72l-.04-1.36,13.42-1.73-3.17,6.78c1.53-.24,3.22-.27,4.29,.37,.65,.39,1.06,1.01,1.14,1.74,.09,.78-.17,1.38-1.44,2,.31,.36,.4,.73,.41,1.1,.02,.55-.19,1.06-.6,1.45-.35,.34-.92,.59-1.69,.75,.5,.69,.6,1.45,.24,2.13-.37,.69-1,1.04-1.97,1.04Zm-7.5-13c.17,2.03,.61,4.36,1.3,6.09l.91-.22,3.06-6.56-5.27,.68Z"/></g><g><polyline class="cls-4" points="47.72 75.11 42.43 99.65 37.24 99.14 46.21 67.45"/><path d="M47.72,75.11c-.66,7.24-3.21,17.47-4.7,24.67,0,0-.11,.52-.11,.52,0,0-.53-.05-.53-.05,0,0-5.19-.51-5.19-.51l-.71-.07,.2-.69c1.48-5.25,5.29-18.69,6.74-23.76,.94-2.59,1.83-5.19,2.8-7.76-1.61,9.23-5.9,22.71-8.39,31.85,0,0-.52-.76-.52-.76l5.19,.51-.65,.47c1.61-7.22,3.49-17.51,5.88-24.42h0Z"/></g><g><path class="cls-3" d="M37.24,99.14s-2.39,9.2,.77,11.92c5.37,4.62,5.83,2.89,4.53,1.47-.91-1-2.25-2.31-2.25-2.31,0,0,5.28,2.02,5.58,.83,.19-.74-3.08-2.22-3.08-2.22,0,0,4.81,.26,4.91-.35,.28-1.61-4.38-2.09-6.35-1.91l5.22-6.5-9.34-.92Z"/><path d="M42.76,114.67c-.79,0-2.24-.66-5.14-3.15-3.4-2.93-1.06-12.13-.96-12.52l.13-.5,10.95,1.08-5.11,6.37c1.74,.04,4.32,.36,5.28,1.41,.33,.36,.46,.78,.38,1.22-.06,.36-.16,.88-3.02,.91,1.36,.93,1.23,1.48,1.17,1.7-.07,.28-.26,.51-.53,.65-.69,.36-2.14,.09-3.46-.27,.18,.19,.36,.38,.52,.56,.79,.87,.99,1.75,.51,2.25-.16,.16-.38,.3-.73,.3Zm-5.06-14.87c-.64,2.78-1.51,8.91,.7,10.81,2.37,2.04,3.54,2.62,4.04,2.79-.07-.13-.18-.29-.34-.46-.89-.97-2.22-2.28-2.23-2.29l-2.04-2.01,2.68,1.02c1.85,.71,3.81,1.17,4.56,1.17-.45-.38-1.48-.98-2.52-1.46l-2.89-1.31,3.17,.17c1.58,.08,3.46,.07,4.2-.06-.74-.79-3.91-1.16-5.61-1l-1.41,.13,5.41-6.74-7.72-.76Z"/></g><g><ellipse cx="82.17" cy="145" rx="2.28" ry="2.87" transform="translate(-84.49 143.66) rotate(-60)"/><path d="M82.7,148.04c-.65,0-1.34-.18-1.97-.54-1.66-.96-2.36-2.86-1.57-4.23h0c.8-1.38,2.79-1.72,4.45-.76,.78,.45,1.38,1.12,1.68,1.89,.32,.82,.28,1.65-.12,2.34-.49,.85-1.44,1.3-2.48,1.3Zm-2.5-4.18h0c-.46,.8,.04,1.97,1.13,2.6,1.09,.63,2.35,.48,2.81-.32,.21-.37,.23-.83,.04-1.3-.21-.52-.62-.98-1.17-1.3-1.09-.63-2.35-.48-2.81,.32Z"/></g><g><ellipse cx="67.55" cy="145" rx="3.17" ry="2.59" transform="translate(-30.53 18.63) rotate(-12.84)"/><path d="M67.28,148.21c-1.65,0-3.08-.95-3.4-2.38h0c-.19-.85,.02-1.74,.61-2.49,.56-.72,1.4-1.23,2.36-1.45,.96-.22,1.94-.12,2.75,.29,.86,.42,1.43,1.13,1.63,1.98,.39,1.71-.94,3.48-2.96,3.94-.33,.08-.66,.11-.98,.11Zm-2.23-2.65c.24,1.07,1.57,1.68,2.94,1.37,1.38-.31,2.3-1.44,2.06-2.51-.11-.49-.47-.91-.99-1.17-.57-.28-1.26-.35-1.95-.19-.69,.16-1.29,.52-1.68,1.02-.36,.46-.5,.99-.39,1.49h0Z"/></g><g><ellipse cx="57.22" cy="143.38" rx="2.36" ry="3.24" transform="translate(-96.87 152.83) rotate(-71.75)"/><path d="M57.81,146.45c-.5,0-1.02-.08-1.52-.25-2.01-.66-3.23-2.47-2.72-4.02,.51-1.55,2.56-2.27,4.58-1.61,.94,.31,1.74,.88,2.26,1.6,.56,.78,.72,1.64,.46,2.42-.26,.79-.9,1.38-1.81,1.67-.39,.13-.81,.19-1.24,.19Zm-1.18-4.93c-.93,0-1.71,.38-1.92,1.03-.3,.91,.6,2.05,1.96,2.5,.7,.23,1.42,.25,2.02,.06,.53-.17,.9-.49,1.04-.91,.14-.41,.03-.89-.3-1.35-.37-.51-.96-.92-1.66-1.16-.39-.13-.77-.19-1.14-.19Z"/></g><g><ellipse cx="43.12" cy="145.14" rx="2.63" ry="2.18" transform="translate(-45.63 22.47) rotate(-19.34)"/><path d="M42.82,147.97c-1.25,0-2.37-.66-2.75-1.76h0c-.51-1.44,.45-3.1,2.13-3.69,.8-.28,1.64-.28,2.37-.01,.78,.29,1.34,.84,1.59,1.56,.51,1.44-.45,3.1-2.13,3.69-.41,.14-.82,.21-1.22,.21Zm-1.62-2.16c.29,.82,1.38,1.19,2.44,.82,1.06-.37,1.68-1.34,1.39-2.16-.13-.38-.44-.67-.88-.83-.47-.18-1.03-.17-1.56,.02-1.06,.37-1.68,1.34-1.39,2.16h0Z"/></g><g><path class="cls-4" d="M42.34,116.07l3.24-52.23c3.72-.8,7.24-1.2,10.45-1.2,8.71,0,15.6,2.96,20.47,8.79,12.36,14.78,8.38,43.76,7.7,48.06l-41.87-3.42Z"/><path d="M56.03,63.23c8.52,0,15.25,2.89,20.01,8.58,11.76,14.06,8.5,41.3,7.66,47.03l-40.72-3.32,3.17-51.19c3.52-.73,6.84-1.1,9.88-1.1m0-1.2c-3.31,0-6.97,.41-11.02,1.32l-3.3,53.27,43.01,3.51s10.46-58.09-28.68-58.09h0Z"/></g><g><g><path class="cls-6" d="M26.2,2.45l32.6,7.7-2.33,25.69c.68-.16,1.45-.21,2.26-.11,2.4,.27,4.22,1.66,4.06,3.1-.16,1.44-2.25,2.39-4.65,2.12-.77-.09-1.48-.29-2.08-.57l-1.92,21.18,1.86,13.55-7.91-1.2-3.08-10.56-10.93-.72C23.87,33.97,26.2,2.45,26.2,2.45Z"/><path d="M56.7,75.82l-9.08-1.38-3.07-10.53-10.9-.71-.13-.37C23.38,34.38,25.58,2.72,25.6,2.4l.05-.7,33.79,7.98-2.3,25.44c.54-.06,1.1-.05,1.66,0,2.78,.32,4.79,1.97,4.59,3.77-.2,1.8-2.54,2.96-5.32,2.64-.51-.06-1.02-.17-1.49-.32l-1.84,20.32,1.96,14.28Zm-8.14-2.45l6.73,1.02-1.76-12.83v-.07s2-22.03,2-22.03l.77,.36c.56,.26,1.22,.44,1.9,.52,2,.23,3.87-.51,3.99-1.59,.12-1.07-1.53-2.21-3.53-2.44-.72-.08-1.43-.05-2.06,.1l-.81,.19,2.36-26L26.76,3.2c-.26,4.79-1.31,33.1,7.76,58.86l10.95,.72,3.1,10.6Z"/></g><g><path d="M47.33,13l.39,.48-2.76,1.23,2.37-1.71Zm-2.82-1.8l.5,.38-1.92,1.94,1.42-2.33Z"/><path d="M44.35,10.32l-4.45,7.29,6.02-6.09-1.57-1.2h0Zm3.09,1.86l-7.54,5.43,8.77-3.9-1.24-1.53h0Z"/></g><g><path d="M29.19,13.3l.19-.76,2.33,2.3-2.52-1.54Zm2.53-1.95l.63-.48,1.16,2.96-1.78-2.48Z"/><path d="M32.62,9.91l-1.72,1.32,4.9,6.8-3.18-8.12h0Zm-3.56,1.47l-.56,2.21,7.29,4.45-6.74-6.66h0Z"/></g><g><polygon points="40.75 47.67 57.95 45.05 62.02 49.26 57.62 57.49 53.01 50.74 50.28 54.38 47.96 48.82 45.11 51.27 40.55 48.17 40.75 47.67"/><path d="M57.66,58.21l-4.66-6.83-2.82,3.74-2.37-5.68-2.67,2.3-5.05-3.43,.39-.98,17.6-2.69,4.4,4.54-4.82,9.02Zm-4.63-8.12l4.55,6.67,3.98-7.45-3.75-3.87-16.8,2.58,4.08,2.77,3.02-2.59,2.26,5.42,2.66-3.53Z"/></g><g><polygon points="38.94 48 23.54 42.7 19.01 46.35 21.13 54.95 25.43 49.11 27.27 53.95 30.27 48.72 33.46 50.89 38.94 48"/><path d="M20.96,55.82l-2.38-9.61,4.88-3.93,16.41,5.65-6.44,3.4-3.05-2.07-3.19,5.56-1.87-4.94-4.36,5.94Zm-1.53-9.33l1.88,7.59,4.23-5.76,1.8,4.74,2.81-4.89,3.35,2.27,4.51-2.38-14.38-4.95-4.19,3.37Z"/></g><g><g><polygon points="54.64 30.52 60.87 30.52 60.56 32.23 54.64 30.52"/><path d="M60.15,31.12l-.06,.35-1.21-.35h1.28m1.44-1.2h-11.19l10.63,3.07,.56-3.07h0Z"/></g><g><polyline class="cls-3" points="30.11 41.28 36.43 42.1 37.36 19.37 30.86 18.98"/><polygon class="cls-12" points="37 42.77 30.03 41.88 30.19 40.69 35.86 41.42 36.73 19.93 30.83 19.58 30.9 18.38 37.98 18.8 37 42.77"/></g><g><ellipse class="cls-9" cx="30.49" cy="30.13" rx="11.16" ry="5.32" transform="translate(-.66 59.58) rotate(-88.06)"/><path class="cls-12" d="M30.2,41.88s-.07,0-.11,0c-3.32-.11-5.74-5.36-5.52-11.95h0c.22-6.59,2.97-11.66,6.31-11.55,3.32,.11,5.74,5.36,5.52,11.95-.22,6.52-2.94,11.55-6.21,11.55Zm-4.43-11.91c-.19,5.72,1.8,10.62,4.36,10.71,.02,0,.05,0,.07,0,2.53,0,4.81-4.72,5-10.39,.19-5.72-1.8-10.62-4.36-10.71-2.53-.08-4.88,4.67-5.07,10.39h0Z"/></g><g><polyline class="cls-6" points="36.69 30.09 35.79 47.86 40.64 47.94"/><polygon points="40.63 48.54 35.16 48.46 36.09 30.06 37.29 30.12 36.42 47.27 40.65 47.34 40.63 48.54"/></g><g><polyline class="cls-3" points="42.47 41.67 49.55 41.8 48.67 18 41.7 18.64"/><polygon class="cls-12" points="50.18 42.41 42.46 42.27 42.48 41.07 48.93 41.18 48.09 18.66 41.76 19.24 41.65 18.04 49.24 17.35 50.18 42.41"/></g><g><ellipse class="cls-9" cx="42.09" cy="30.16" rx="5.49" ry="11.52" transform="translate(-.97 1.41) rotate(-1.89)"/><path class="cls-12" d="M42.38,42.27c-3.37,0-6.16-5.19-6.38-11.92-.23-6.79,2.27-12.2,5.69-12.32,1.7-.07,3.33,1.21,4.55,3.57,1.15,2.22,1.84,5.18,1.94,8.35,.23,6.79-2.27,12.2-5.69,12.32-.04,0-.07,0-.11,0Zm-.59-23.04s-.04,0-.06,0c-2.65,.09-4.73,5.16-4.53,11.08,.19,5.87,2.56,10.76,5.18,10.76,.02,0,.05,0,.07,0,2.65-.09,4.73-5.16,4.53-11.08-.1-2.99-.74-5.77-1.81-7.83-.96-1.86-2.19-2.92-3.38-2.92Z"/></g></g><g><g><path class="cls-11" d="M54.76,15.42c-.08,0-.12-.02-.13-.02,.03-.01,.14-.24,.44-.42,.16-.09,.34-.15,.48-.15,.08,0,.12,.02,.13,.02-.03,.01-.14,.24-.44,.42-.16,.09-.34,.15-.48,.15h0Z"/><path class="cls-11" d="M55.56,14.23c-.24,0-.52,.08-.79,.23-.57,.33-.85,.9-.64,1.26,.11,.2,.35,.3,.63,.3,.24,0,.52-.08,.79-.23,.57-.33,.85-.9,.64-1.26-.11-.2-.35-.3-.63-.3h0Z"/></g><g><path class="cls-11" d="M52.63,14.14c-.06,0-.1-.01-.13-.04-.06-.05-.06-.13-.06-.18,0-.11,.05-.24,.14-.33,.12-.14,.27-.19,.36-.19,.06,0,.1,.01,.13,.04,.06,.05,.06,.13,.06,.18,0,.11-.05,.24-.14,.33-.12,.14-.27,.19-.36,.19Z"/><path class="cls-11" d="M52.94,12.79c-.29,0-.59,.13-.81,.39-.38,.43-.39,1.04-.03,1.36,.15,.13,.34,.19,.53,.19,.29,0,.59-.13,.81-.39,.38-.43,.39-1.04,.03-1.36-.15-.13-.34-.19-.53-.19h0Z"/></g><g><path class="cls-11" d="M55.68,12.71c-.07,0-.18-.06-.24-.18-.09-.15-.06-.3-.01-.32,0,0,0,0,.01,0,.1,0,.19,.06,.26,.17,.05,.08,.07,.17,.05,.24l-.07,.09Z"/><path class="cls-11" d="M55.46,11.6c-.12,0-.23,.03-.33,.09-.36,.21-.45,.72-.2,1.14,.18,.3,.47,.47,.76,.47,.12,0,.23-.03,.33-.09,.36-.21,.45-.72,.2-1.14-.18-.3-.47-.47-.76-.47h0Z"/></g></g></g><g><path class="cls-4" d="M48.02,91.66l31.67,2.06s6.19-15.83-2.44-28.06c-7.03-9.97-22.86-5.07-22.86-5.07l-3.45,10.61-4.74-6.42,1.82,26.88Z"/><path d="M80.09,94.35l-32.64-2.13-1.99-29.45,5.27,7.14,3.18-9.79,.3-.09c.66-.21,16.33-4.91,23.53,5.3,8.71,12.36,2.57,28.46,2.51,28.63l-.16,.41Zm-31.51-3.26l30.7,2c.87-2.54,5.06-16.34-2.52-27.09-6.18-8.76-19.73-5.51-21.9-4.92l-3.71,11.41-4.21-5.71,1.64,24.31Z"/></g><g><path d="M49.01,82.07l1.52-1.87,2.4,4.16-1.52,9.66-2.4-11.95Zm.56-5.93l.95-1.62,1.23,2.3-1.04,1.28-1.13-1.96Z"/><path d="M50.49,75.75l.53,1-.24,.29-.52-.9,.23-.39m-.04,5.51l1.86,3.22-.97,6.14-1.69-8.39,.79-.97m.09-7.97l-1.66,2.85,1.74,3.01,1.84-2.26-1.92-3.6h0Zm.08,5.86l-2.25,2.76,3.12,15.51,2.08-13.18-2.95-5.1h0Z"/></g><g><g><path class="cls-8" d="M48.02,91.66l2.38,41.15-8.7,7.31,17.21-2.73,2.12-31.44,3.13,32.96,20.78,1.2-11.82-7.31,4.66-19.47s15.26-8.52,1.13-19.66l-30.89-2.02Z"/><path d="M39.67,141.06l10.12-8.51-2.4-41.53,31.76,2.08,.15,.12c4.41,3.48,6.49,7.09,6.2,10.74-.43,5.43-5.95,9.04-7.18,9.78l-4.5,18.8,13.47,8.33-23.66-1.37-2.48-26.12-1.66,24.54-19.82,3.14Zm25.05-2.7l17.9,1.03-10.18-6.29,4.82-20.15,.23-.13c.06-.04,6.38-3.63,6.8-8.97,.25-3.19-1.63-6.41-5.6-9.58l-30.03-1.96,2.36,40.78-7.27,6.12,14.61-2.32,2.09-30.96,1.2-.02,3.08,32.45Z"/></g><g><polygon points="64.72 138.36 64.36 134.55 72.99 133.44 82.62 139.39 64.72 138.36"/><path d="M72.86,134.06l7.43,4.6-15.02-.87-.26-2.71,7.85-1.02m.27-1.24l-9.42,1.22,.47,4.89,20.78,1.2-11.82-7.31h0Z"/></g><g><polygon points="50.59 133.44 58.52 134.43 58.35 136.88 43.74 139.2 50.59 133.44"/><path d="M50.77,134.07l7.11,.89-.09,1.41-12,1.9,4.99-4.2m-.37-1.26l-8.7,7.31,17.21-2.73,.24-3.49-8.75-1.09h0Z"/></g><g><g><polygon class="cls-5" points="46.69 96.14 50.88 96.27 51.04 94 47.12 93.73 46.69 96.14"/><path d="M51.22,96.65l-4.98-.15,.57-3.18,4.63,.33-.22,3Zm-4.09-.87l3.39,.1,.11-1.53-3.21-.23-.3,1.66Z"/></g><g><polygon class="cls-5" points="53.23 96.66 57.25 96.77 57.48 94.24 53.25 93.98 53.23 96.66"/><path d="M57.6,97.15l-4.75-.12,.03-3.44,5.01,.31-.29,3.26Zm-3.99-.86l3.31,.09,.16-1.79-3.45-.21-.02,1.91Z"/></g><g><polygon class="cls-5" points="59.74 96.88 63.76 97.16 63.83 94.73 59.76 94.46 59.74 96.88"/><path d="M64.13,97.56l-4.76-.33,.02-3.17,4.83,.32-.09,3.18Zm-4.01-1.03l3.28,.23,.05-1.68-3.32-.22v1.67Z"/></g><g><polygon class="cls-5" points="66.28 97.29 69.95 97.33 70.22 94.89 66.35 94.6 66.28 97.29"/><path d="M70.28,97.71l-4.39-.05,.1-3.45,4.65,.34-.36,3.17Zm-3.62-.79l2.95,.03,.19-1.72-3.09-.22-.05,1.91Z"/></g><g><polygon class="cls-5" points="72.45 97.53 76.27 97.56 76.35 95.13 72.63 94.84 72.45 97.53"/><path d="M76.64,97.94l-4.59-.04,.23-3.46,4.45,.35-.09,3.15Zm-3.79-.78l3.06,.03,.05-1.71-2.98-.23-.13,1.91Z"/></g></g></g><g><path class="cls-4" d="M54.39,60.6l15.51,58.34,14.81,1.19s7.41-56.69-15.28-60.42c-9.43-1.55-15.03,.89-15.03,.89Z"/><path d="M85.23,120.77l-15.8-1.27-.11-.41-15.64-58.83,.47-.21c.24-.1,5.87-2.5,15.37-.93,9.72,1.6,15.33,12.42,16.65,32.16,.98,14.53-.85,28.79-.87,28.93l-.07,.57Zm-14.86-2.4l13.81,1.11c.68-5.91,5.82-55.78-14.85-59.18-7.59-1.25-12.68,.15-14.21,.67l15.26,57.4Z"/></g><g><polyline class="cls-4" points="63.7 72.79 55.49 99.22 61.03 101.86 69.57 69.66"/><path d="M63.7,72.79c-1.45,7.9-5.32,18.82-7.64,26.6,0,0-.32-.72-.32-.72l5.55,2.64-.84,.39,4.27-16.1c1.3-5.34,3.1-10.75,4.85-15.95-1.63,9.49-5.49,22.92-7.96,32.35,0,0-.19,.7-.19,.7-.19-.08-5.84-2.79-6.2-2.95,0,0-.47-.22-.47-.22l.15-.5c2.52-7.77,5.48-18.88,8.79-26.25h0Z"/></g><g><g class="cls-13"><g><g><path class="cls-10" d="M53.32,148.36l.09-.62c2.13-14.92,3.87-38.85-.52-39.55-.15-.02-.29-.04-.43-.04-2.12,0-2.95,2.86-2.96,2.88l-.16,.59-2.78-.82,.05-.49c0-.07,.74-7.03,7.6-7.03,.34,0,.69,.02,1.05,.05,.57,.05,1.07,.35,1.5,.88,4.57,5.66,.36,42.34,.18,43.9l-.07,.58-3.55-.33Z"/><path d="M54.2,103.88c.32,0,.65,.02,1,.05,6.2,.6,1.14,44.11,1.14,44.11l-2.34-.22s5.59-39.17-1.01-40.23c-.18-.03-.36-.04-.53-.04-2.62,0-3.54,3.32-3.54,3.32l-1.72-.51s.61-6.49,7-6.49m0-1.2c-5.92,0-7.95,4.96-8.2,7.58l-.09,.98,.95,.28,1.72,.51,1.17,.35,.33-1.18s.72-2.44,2.38-2.44c.11,0,.22,0,.34,.03,.14,.02,1.38,.37,1.94,5.67,.35,3.32,.36,7.89,.03,13.58-.56,9.76-1.94,19.52-1.96,19.62l-.18,1.25,1.25,.12,2.34,.22,1.17,.11,.14-1.17c.46-3.93,4.33-38.59-.31-44.34-.66-.82-1.4-1.05-1.91-1.1-.38-.04-.75-.06-1.11-.06h0Z"/></g><g><path class="cls-7" d="M46.58,110.81l.02-.47c.03-.76,.48-1.57,1.39-1.57,.13,0,.28,.02,.42,.06,.63,.17,.92,.53,1.06,.81,.33,.67,.04,1.39,0,1.47l-.21,.5-2.69-.79Z"/><path d="M47.99,109.36c.08,0,.17,.01,.27,.04,1.16,.31,.67,1.47,.67,1.47l-1.72-.51s.04-1,.79-1m0-1.2h0c-1.24,0-1.94,1.08-1.99,2.15l-.04,.94,.9,.27,1.72,.51,1.03,.3,.42-.99c.07-.17,.41-1.08-.02-1.97-.19-.39-.6-.9-1.45-1.13-.19-.05-.39-.08-.58-.08h0Z"/></g></g><g><g><path class="cls-3" d="M47.52,108.36c-.18,0-.33-.04-.47-.11-1.16-.63-1.77-1.58-1.73-2.67,.05-1.42,1.17-2.69,2.2-3.17l.42-.19,1.38,1.68c.21,.2,.31,.48,.28,.76-.04,.33-.24,.61-.55,.76-.37,.18-.29,1.28-.26,1.74v.15c.03,.22-.06,.44-.22,.62-.28,.3-.72,.43-1.05,.43Z"/><path d="M47.77,102.96l1.11,1.36c.2,.16,.14,.45-.09,.56-.79,.38-.64,1.74-.59,2.47,.01,.22-.4,.41-.68,.41-.07,0-.13-.01-.18-.04-2.63-1.43-1.08-4.07,.43-4.77m.34-1.48l-.84,.39c-1.23,.56-2.5,2.01-2.55,3.69-.03,.77,.21,2.22,2.05,3.22,.22,.12,.48,.18,.75,.18,.55,0,1.13-.24,1.49-.62,.28-.3,.42-.68,.39-1.07v-.15c-.03-.27-.08-.95,0-1.21,.44-.25,.73-.68,.79-1.18,.05-.46-.11-.91-.44-1.24l-1.06-1.29-.59-.72h0Z"/></g><g><path class="cls-3" d="M49.66,107.8c-.2,0-.38-.04-.54-.13-1.05-.6-1.63-1.81-1.63-3.41,0-2.56,1.38-2.94,2.19-2.94,1.59,0,3.47,1.44,3.68,1.6l.65,.51-2.83,1.9s-.4-.28-.43-.3c.02,.24,.08,.67,.3,1.38,.08,.27,.03,.55-.15,.79-.26,.35-.77,.59-1.24,.59Z"/><path d="M49.69,101.92c1.43,0,3.31,1.48,3.31,1.48l-1.8,1.21c-.3-.21-.52-.3-.68-.3-.62,0-.32,1.34-.04,2.28,.09,.31-.44,.61-.82,.61-.09,0-.17-.02-.24-.05-.78-.45-1.33-1.37-1.32-2.88,0-1.79,.71-2.34,1.59-2.34m0-1.2c-.65,0-2.78,.26-2.79,3.54,0,2.45,1.21,3.51,1.93,3.93,.25,.14,.53,.21,.83,.21,.66,0,1.35-.33,1.72-.83,.29-.39,.38-.88,.25-1.32-.05-.15-.08-.28-.11-.41l.35-.24,1.8-1.21,1.37-.92-1.3-1.02c-.23-.18-2.26-1.73-4.05-1.73h0Z"/></g><g><path class="cls-3" d="M53,97.34l.91,6.1s-4.08-1.93-4.15,1.4c-.05,2.24,.87,3.03,1.69,3.27,.31,.09,.95-.22,.9-.55-.18-1.14,.43-3.31,4.06-1.25,.42,.24,.81,.57,.98,1.02,.68,1.79-4.51,1.6-5.66,1.29-.26-.07-.73,.33-.88,.56-.43,.64,.05,2.75,5.1,1.56,5.69-1.33,2.04-5.18,2.04-5.18l5.08-4.03-10.07-4.19Z"/><path d="M53.31,111.69c-1.68,0-2.48-.55-2.87-1.11-.44-.64-.36-1.34-.08-1.75,.05-.08,.18-.23,.36-.39-.76-.43-1.6-1.4-1.55-3.62,.03-1.28,.59-1.9,1.06-2.19,.89-.55,2.1-.36,2.95-.12l-.92-6.15,11.99,4.99-5.4,4.28c.48,.67,1.18,1.92,.8,3.17-.36,1.19-1.55,2.03-3.55,2.5-1.12,.26-2.04,.37-2.78,.37Zm-1.63-2.47c-.1,.05-.27,.2-.33,.29-.03,.04-.05,.22,.08,.41,.38,.52,1.73,.86,4.38,.24,1.06-.25,2.39-.74,2.67-1.67,.28-.94-.58-2.13-.94-2.51l-.45-.48,4.79-3.8-8.14-3.39,.92,6.16-1.02-.48c-.49-.23-2.06-.78-2.81-.32-.12,.07-.47,.29-.49,1.19-.02,1.05,.18,2.37,1.25,2.68,.01,0,.07-.03,.12-.06-.07-.74,.13-1.71,.9-2.25,.92-.63,2.28-.44,4.07,.57,.62,.35,1.04,.8,1.24,1.33,.19,.51,.11,1-.24,1.38-1.11,1.23-5,.95-6.03,.73Zm1.07-1.05c1.41,.13,3.62,.02,4.08-.49,.03-.03,.04-.05,0-.15-.12-.32-.46-.56-.71-.71-1.29-.73-2.31-.96-2.79-.62-.36,.25-.45,.83-.38,1.26,.04,.24-.03,.49-.2,.7Z"/></g></g></g><g class="cls-14"><g><g><path class="cls-3" d="M47.52,108.36c-.18,0-.33-.04-.47-.11-1.16-.63-1.77-1.58-1.73-2.67,.05-1.42,1.17-2.69,2.2-3.17l.42-.19,1.38,1.68c.21,.2,.31,.48,.28,.76-.04,.33-.24,.61-.55,.76-.37,.18-.29,1.28-.26,1.74v.15c.03,.22-.06,.44-.22,.62-.28,.3-.72,.43-1.05,.43Z"/><path d="M47.77,102.96l1.11,1.36c.2,.16,.14,.45-.09,.56-.79,.38-.64,1.74-.59,2.47,.01,.22-.4,.41-.68,.41-.07,0-.13-.01-.18-.04-2.63-1.43-1.08-4.07,.43-4.77m.34-1.48l-.84,.39c-1.23,.56-2.5,2.01-2.55,3.69-.03,.77,.21,2.22,2.05,3.22,.22,.12,.48,.18,.75,.18,.55,0,1.13-.24,1.49-.62,.28-.3,.42-.68,.39-1.07v-.15c-.03-.27-.08-.95,0-1.21,.44-.25,.73-.68,.79-1.18,.05-.46-.11-.91-.44-1.24l-1.06-1.29-.59-.72h0Z"/></g><g><path class="cls-3" d="M49.66,107.8c-.2,0-.38-.04-.54-.13-1.05-.6-1.63-1.81-1.63-3.41,0-2.56,1.38-2.94,2.19-2.94,1.59,0,3.47,1.44,3.68,1.6l.65,.51-2.83,1.9s-.4-.28-.43-.3c.02,.24,.08,.67,.3,1.38,.08,.27,.03,.55-.15,.79-.26,.35-.77,.59-1.24,.59Z"/><path d="M49.69,101.92c1.43,0,3.31,1.48,3.31,1.48l-1.8,1.21c-.3-.21-.52-.3-.68-.3-.62,0-.32,1.34-.04,2.28,.09,.31-.44,.61-.82,.61-.09,0-.17-.02-.24-.05-.78-.45-1.33-1.37-1.32-2.88,0-1.79,.71-2.34,1.59-2.34m0-1.2c-.65,0-2.78,.26-2.79,3.54,0,2.45,1.21,3.51,1.93,3.93,.25,.14,.53,.21,.83,.21,.66,0,1.35-.33,1.72-.83,.29-.39,.38-.88,.25-1.32-.05-.15-.08-.28-.11-.41l.35-.24,1.8-1.21,1.37-.92-1.3-1.02c-.23-.18-2.26-1.73-4.05-1.73h0Z"/></g><g><path class="cls-3" d="M53,97.34l.91,6.1s-4.08-1.93-4.15,1.4c-.05,2.24,.87,3.03,1.69,3.27,.31,.09,.95-.22,.9-.55-.18-1.14,.43-3.31,4.06-1.25,.42,.24,.81,.57,.98,1.02,.68,1.79-4.51,1.6-5.66,1.29-.26-.07-.73,.33-.88,.56-.43,.64,.05,2.75,5.1,1.56,5.69-1.33,2.04-5.18,2.04-5.18l5.08-4.03-10.07-4.19Z"/><path d="M53.31,111.69c-1.68,0-2.48-.55-2.87-1.11-.44-.64-.36-1.34-.08-1.75,.05-.08,.18-.23,.36-.39-.76-.43-1.6-1.4-1.55-3.62,.03-1.28,.59-1.9,1.06-2.19,.89-.55,2.1-.36,2.95-.12l-.92-6.15,11.99,4.99-5.4,4.28c.48,.67,1.18,1.92,.8,3.17-.36,1.19-1.55,2.03-3.55,2.5-1.12,.26-2.04,.37-2.78,.37Zm-1.63-2.47c-.1,.05-.27,.2-.33,.29-.03,.04-.05,.22,.08,.41,.38,.52,1.73,.86,4.38,.24,1.06-.25,2.39-.74,2.67-1.67,.28-.94-.58-2.13-.94-2.51l-.45-.48,4.79-3.8-8.14-3.39,.92,6.16-1.02-.48c-.49-.23-2.06-.78-2.81-.32-.12,.07-.47,.29-.49,1.19-.02,1.05,.18,2.37,1.25,2.68,.01,0,.07-.03,.12-.06-.07-.74,.13-1.71,.9-2.25,.92-.63,2.28-.44,4.07,.57,.62,.35,1.04,.8,1.24,1.33,.19,.51,.11,1-.24,1.38-1.11,1.23-5,.95-6.03,.73Zm1.07-1.05c1.41,.13,3.62,.02,4.08-.49,.03-.03,.04-.05,0-.15-.12-.32-.46-.56-.71-.71-1.29-.73-2.31-.96-2.79-.62-.36,.25-.45,.83-.38,1.26,.04,.24-.03,.49-.2,.7Z"/></g></g><g><g><path class="cls-10" d="M53.32,148.36l.09-.62c2.13-14.92,3.87-38.85-.52-39.55-.15-.02-.29-.04-.43-.04-2.12,0-2.95,2.86-2.96,2.88l-.16,.59-2.78-.82,.05-.49c0-.07,.74-7.03,7.6-7.03,.34,0,.69,.02,1.05,.05,.57,.05,1.07,.35,1.5,.88,4.57,5.66,.36,42.34,.18,43.9l-.07,.58-3.55-.33Z"/><path d="M54.2,103.88c.32,0,.65,.02,1,.05,6.2,.6,1.14,44.11,1.14,44.11l-2.34-.22s5.59-39.17-1.01-40.23c-.18-.03-.36-.04-.53-.04-2.62,0-3.54,3.32-3.54,3.32l-1.72-.51s.61-6.49,7-6.49m0-1.2c-5.92,0-7.95,4.96-8.2,7.58l-.09,.98,.95,.28,1.72,.51,1.17,.35,.33-1.18s.72-2.44,2.38-2.44c.11,0,.22,0,.34,.03,.14,.02,1.38,.37,1.94,5.67,.35,3.32,.36,7.89,.03,13.58-.56,9.76-1.94,19.52-1.96,19.62l-.18,1.25,1.25,.12,2.34,.22,1.17,.11,.14-1.17c.46-3.93,4.33-38.59-.31-44.34-.66-.82-1.4-1.05-1.91-1.1-.38-.04-.75-.06-1.11-.06h0Z"/></g><g><path class="cls-7" d="M46.58,110.81l.02-.47c.03-.76,.48-1.57,1.39-1.57,.13,0,.28,.02,.42,.06,.63,.17,.92,.53,1.06,.81,.33,.67,.04,1.39,0,1.47l-.21,.5-2.69-.79Z"/><path d="M47.99,109.36c.08,0,.17,.01,.27,.04,1.16,.31,.67,1.47,.67,1.47l-1.72-.51s.04-1,.79-1m0-1.2h0c-1.24,0-1.94,1.08-1.99,2.15l-.04,.94,.9,.27,1.72,.51,1.03,.3,.42-.99c.07-.17,.41-1.08-.02-1.97-.19-.39-.6-.9-1.45-1.13-.19-.05-.39-.08-.58-.08h0Z"/></g></g></g></g><g><path class="cls-3" d="M58.76,113.64s0-4.65-1.56-6.67"/><path d="M58.16,113.64s-.02-4.47-1.44-6.31l.95-.73c1.66,2.16,1.68,6.84,1.68,7.04h-1.2Z"/></g><rect class="cls-1" width="140.1" height="183.76"/></g></g></svg>