<?xml version="1.0" encoding="UTF-8"?><svg id="Livello_2" xmlns="http://www.w3.org/2000/svg" viewBox="0 0 140.1 183.76"><defs><style>.cls-1{fill:none;}.cls-2{fill:#68d1e7;}.cls-3{fill:#fff;}.cls-4{fill:#ffe100;}.cls-5{fill:#ffbc61;}.cls-6{fill:#ffd1a5;}.cls-7{fill:#ff4842;}.cls-8{fill:#ff925b;}.cls-9{fill:#ff9000;}.cls-10{fill:#a32a27;}.cls-11{fill:#8c6239;}.cls-12{fill:#adeaff;}.cls-13{fill:#d54111;}.cls-14{fill:#d59f59;}.cls-15{fill:#4d96ca;}</style></defs><g id="export"><g id="oldJump2"><g id="shadow"><path d="M42.32,122.1l-.24-1.34c-.27-1.49-6.38-36.66,10.08-52.47,7.31-7.02,17.88-9.05,31.42-6.04l1.1,.24,3.46,55.86-45.83,3.74Zm29.96-58.19c-7.45,0-13.49,2.19-18.03,6.54-13.58,13.04-10.36,41.88-9.42,48.44l40.15-3.28-3.14-50.66c-3.41-.69-6.59-1.04-9.56-1.04Z"/><polygon points="87.87 99.81 86.33 97.23 98.48 89.96 85.6 70.68 93.45 89.03 84.91 97.08 82.85 94.9 89.87 88.28 81.62 68.99 81.59 59.28 102.73 90.91 87.87 99.81"/><path d="M70.51,77.26l2.11-15.37-1.74-19.17c-.19,.04-.39,.06-.58,.09-3.27,.37-6.05-1.14-6.31-3.44-.26-2.3,2.1-4.39,5.38-4.76,.26-.03,.52-.05,.78-.05l-2.28-25.2L103.43,.95l.13,1.75c.02,.32,2.23,32.17-7.96,60.8l-.33,.93-10.86,.71-3.06,10.47-10.84,1.64Zm3-38.78l2.13,23.47-1.61,11.73,4.98-.75,3.11-10.65,10.98-.72c8.28-23.95,7.85-49.97,7.56-56.88l-29.58,6.99,2.4,26.46-2.02-.47c-.53-.12-1.14-.15-1.75-.08-1.88,.21-2.77,1.16-2.74,1.45,.03,.29,1.11,1.01,2.99,.79,.58-.07,1.14-.22,1.62-.44l1.94-.9Z"/><path d="M89.19,142.47l-14.92-2.4,2.69,2.29-21.49-2.65-2.99-25.5c-2.36-1.17-9.09-4.98-9.84-10.73-.48-3.64,1.47-7.21,5.79-10.62l.37-.29,33.05-2.16-2.44,42.18,9.79,9.87Zm-31.02-5.45l9.22,1.14-4.54-3.86,2.88-28.12,2.99,.05,2.04,30.24,9.82,1.58-4.25-4.29,2.32-40.13-28.73,1.88c-3.18,2.61-4.63,5.15-4.32,7.58,.56,4.27,6.58,7.76,8.86,8.74l.79,.34,2.92,24.84Zm7.83-3.99l1.61,1.38-.7-10.34-.92,8.97Z"/><path d="M42.25,122.1l-.18-1.41c-.31-2.37-7.33-58.17,16.53-62.1,9.76-1.61,15.63,.89,15.87,1l1.17,.51-15.52,60.61-17.86,1.39Zm22.68-61.04c-1.72,0-3.68,.13-5.85,.49-10.75,1.77-14.03,17.4-14.9,30.19-.79,11.69,.27,23.21,.69,27.14l12.86-1,14.33-55.94c-1.35-.38-3.79-.88-7.14-.88Z"/><polygon points="81.5 143.44 68.7 143.07 69.07 138.35 81.87 138.67 81.5 143.44"/><path d="M67.87,153.19l-.05-1.47c0-.12-.45-12.65-.13-25.8,.64-27.09,3.82-30.44,4.86-31.54,.88-.93,1.8-1.14,2.42-1.15,3.14-.06,5.7,.84,7.6,2.67,3.09,2.98,3.19,7.35,3.2,7.53l.02,1.23-4.88,1.04-.29-1.5c-.03-.13-.74-3.45-3.11-3.24-.16,.01-3.81,.59-4.29,24.85-.25,12.75,.52,25.59,.53,25.72l.1,1.57-5.96,.09Zm7.37-56.97c-.07,0-.15,0-.22,0-.03,0-.13,.04-.3,.22-1.11,1.17-1.95,4.3-2.58,8.63,1.4-5.74,3.34-6.95,5.1-7.09,2.16-.18,3.68,.84,4.7,2.14-.89-1.9-2.77-3.89-6.7-3.89Z"/><polygon points="70.56 143.06 57.73 142.95 58.54 138 70.93 138.41 70.56 143.06"/><g><path d="M83.98,108.2c-.88,0-2.12-.32-3.18-1.81-.48-.67-.39-1.6-.1-2.21,.3-.63,.87-1.02,1.51-1.06h.15c.23-.02,.73-.04,.99-.11,.25-.49,.69-.84,1.23-.97,.54-.13,1.09,0,1.52,.33l2.38,1.51-.35,1.1c-.44,1.37-1.82,2.9-3.6,3.18-.16,.02-.34,.04-.55,.04Zm-.74-3.55h0s0,0,0,0Zm2.85-.43s0,0,0,0c0,0,0,0,0,0Z"/><path d="M84.7,105.89c-2.03,0-3.09-.98-3.56-1.62-.6-.8-.42-1.9,0-2.58,.43-.69,1.15-1.04,1.89-.91,.07,.01,.13,.02,.2,.03l2.02-3.96,1.46,1.46c.7,.7,2.92,3.15,2.15,5.36-.29,.84-1.1,1.89-3.31,2.16-.3,.04-.58,.05-.84,.05Z"/><path d="M83.7,104.33c-2.65,0-3.62-1.54-3.92-2.27-.33-.77-.09-1.66,.29-2.21,.38-.56,.96-.86,1.58-.84,.13,0,.24,0,.34,0-.1-.25-.31-.65-.74-1.23-.12-.16-.22-.24-.22-.24l-1.19-.81,.79-1.19,5.74-9.33,7.91,14.03-6.54-.19c.16,.76,.17,1.61-.19,2.38-.33,.7-1.06,1.59-2.74,1.82-.4,.06-.77,.08-1.11,.08Zm1.08-3.77c-.12,.22-.31,.5-.62,.75,.09,0,.17-.02,.23-.03,.35-.05,.45-.14,.45-.14,.04-.1,.01-.32-.06-.58Zm-.5-3.62l4.76,.14-2.8-4.96-2.48,4.04c.15,.2,.33,.47,.52,.79Z"/></g></g><g><g><path class="cls-7" d="M69.81,151.67c-10.27,7.61,1.62,23.95,1.62,23.95,0,0,11.75-16.48,.73-23.98"/><path class="cls-10" d="M71.44,176.64l-.49-.67c-.12-.17-12.12-16.91-1.49-24.78l.71,.96c-8.49,6.29-.83,19.2,1.26,22.39,1.48-2.31,5.79-9.71,4.67-15.96-.48-2.68-1.92-4.85-4.27-6.45l.68-.99c2.63,1.79,4.24,4.23,4.78,7.23,1.42,7.97-5.08,17.2-5.36,17.59l-.48,.68Z"/></g><g><path class="cls-4" d="M69.81,151.67c-4.09,3.59,1.17,13.87,1.17,13.87,0,0,5.78-8.79,1.18-13.9l-2.35,.04Z"/><path class="cls-9" d="M70.92,166.73l-.47-.92c-.22-.44-5.43-10.74-1.04-14.59l.17-.15,2.85-.04,.18,.2c4.86,5.39-.88,14.26-1.12,14.63l-.57,.86Zm-.87-14.46c-2.73,2.72-.15,9.42,.99,11.98,1.26-2.3,3.96-8.24,.85-12.01l-1.84,.03Z"/></g></g><g><ellipse cx="75.02" cy="142.71" rx="2.63" ry="1.55" transform="translate(-81.32 103.33) rotate(-48.13)"/><path d="M74,145.52c-.43,0-.83-.13-1.13-.4-.47-.42-.64-1.1-.49-1.87,.14-.67,.51-1.37,1.05-1.97,1.21-1.35,2.86-1.78,3.75-.97,.9,.8,.65,2.49-.56,3.84-.8,.89-1.78,1.38-2.62,1.38Zm2.04-4.42c-.43,0-1.11,.29-1.72,.98-.39,.44-.67,.95-.76,1.41-.07,.34-.03,.61,.11,.74h0c.29,.26,1.23,.04,2.06-.88,.83-.92,.94-1.89,.65-2.14-.07-.07-.19-.1-.34-.1Z"/></g><g><ellipse cx="58.6" cy="142.71" rx="2.63" ry="1.55" transform="translate(-86.79 91.1) rotate(-48.13)"/><path d="M57.57,145.52c-.43,0-.83-.13-1.13-.4-.47-.42-.64-1.1-.49-1.87,.13-.67,.51-1.37,1.04-1.97,1.21-1.35,2.86-1.78,3.75-.97,.9,.8,.65,2.49-.56,3.84-.8,.89-1.78,1.38-2.62,1.38Zm2.04-4.42c-.43,0-1.11,.29-1.72,.98-.39,.44-.67,.95-.76,1.41-.07,.34-.03,.61,.11,.74h0c.29,.26,1.23,.04,2.06-.88,.83-.92,.94-1.89,.65-2.14-.07-.07-.19-.1-.34-.1Z"/></g><g><path class="cls-3" d="M44.06,119.85c-.67-4.3-4.66-33.28,7.7-48.06,4.88-5.83,11.77-8.79,20.47-8.79,3.21,0,6.73,.41,10.45,1.2l3.24,52.23-41.87,3.42Z"/><path d="M72.24,63.6h0c3.04,0,6.36,.37,9.88,1.1l3.17,51.19-40.72,3.32c-.85-5.74-4.11-32.97,7.66-47.03,4.76-5.69,11.49-8.58,20.01-8.58m0-1.2c-39.14,0-28.68,58.09-28.68,58.09l43.01-3.51-3.3-53.27c-4.05-.9-7.71-1.32-11.02-1.32h0Z"/></g><g><polyline class="cls-3" points="87.1 98.52 100.6 90.43 83.1 64.24 83.12 68.68 91.66 88.66 83.88 95.99"/><polygon points="87.35 98.95 86.84 98.09 99.9 90.27 83.61 65.9 83.61 68.58 92.26 88.78 84.22 96.36 83.53 95.63 91.07 88.53 82.62 68.68 82.6 62.59 101.31 90.59 87.35 98.95"/></g><g><g><path class="cls-6" d="M102.06,2.82l-32.6,7.7,2.33,25.69c-.68-.16-1.45-.21-2.26-.11-2.4,.27-4.22,1.66-4.06,3.1,.16,1.44,2.25,2.39,4.65,2.12,.77-.09,1.48-.29,2.08-.57l1.92,21.18-1.86,13.55,7.91-1.2,3.08-10.56,10.93-.72c10.21-28.66,7.88-60.18,7.88-60.18Z"/><path d="M71.56,76.19l1.96-14.28-1.84-20.32c-.47,.15-.98,.26-1.49,.32-2.78,.32-5.11-.85-5.32-2.64-.2-1.8,1.81-3.45,4.59-3.77,.56-.06,1.13-.07,1.66,0l-2.3-25.44L102.61,2.07l.05,.7c.02,.32,2.22,31.98-7.91,60.43l-.13,.37-10.9,.72-3.07,10.53-9.08,1.38Zm1.16-36.35l2,22.1-1.76,12.83,6.73-1.02,3.1-10.6,10.95-.72c9.07-25.77,8.02-54.07,7.76-58.86l-31.4,7.42,2.36,26-.81-.19c-.63-.15-1.34-.18-2.06-.1-2,.23-3.65,1.37-3.53,2.44s1.98,1.81,3.99,1.59c.68-.08,1.33-.26,1.9-.52l.77-.36Z"/></g><g><path d="M80.54,13.85l.39-.48,2.37,1.71-2.76-1.23Zm2.7-1.9l.5-.38,1.42,2.33-1.92-1.94Z"/><path d="M83.91,10.69l-1.57,1.2,6.02,6.09-4.45-7.29h0Zm-3.09,1.86l-1.24,1.53,8.77,3.9-7.54-5.43h0Z"/></g><g><path d="M98.88,12.91l.19,.76-2.52,1.54,2.33-2.3Zm-2.97-1.67l.63,.48-1.78,2.48,1.16-2.96Z"/><path d="M95.65,10.28l-3.18,8.12,4.9-6.8-1.72-1.32h0Zm3.56,1.47l-6.74,6.66,7.29-4.45-.56-2.21h0Z"/></g><g><polygon points="87.53 48.12 72.61 53.17 71.5 58.56 79.1 63.78 79.36 55.97 83.34 57.93 82.4 52.14 85.87 53.02 87.93 48.38 87.53 48.12"/><path d="M79.45,64.48l-8.37-5.75,1.2-5.84,15.29-5.17,.82,.53-2.31,5.22-3.23-.82,.97,5.95-4.11-2.03-.26,7.92Zm-7.53-6.09l6.83,4.69,.26-7.71,3.85,1.9-.92-5.64,3.72,.95,1.79-4.04-14.5,4.91-1.02,4.94Z"/></g><g><polygon points="89.32 48.37 101.93 53.22 102.65 58.68 98.16 64.24 97.79 57.2 94.27 59.24 94.76 54.05 91.18 53.81 89.32 48.37"/><path d="M97.83,65.24l-.38-7.4-3.62,2.1,.52-5.54-3.44-.23-2.19-6.44,13.56,5.21,.77,5.85-5.22,6.44Zm.3-8.67l.35,6.68,3.78-4.67-.67-5.09-11.65-4.48,1.52,4.45,3.71,.24-.45,4.86,3.42-1.98Z"/></g><g><g><polygon points="67.39 30.89 73.63 30.89 67.71 32.6 67.39 30.89"/><path d="M69.39,31.49l-1.21,.35-.06-.35h1.28m8.47-1.2h-11.19l.56,3.07,10.63-3.07h0Z"/></g><g><polyline class="cls-2" points="98.16 41.65 91.83 42.47 90.91 19.74 97.4 19.35"/><polygon class="cls-15" points="91.26 43.14 90.28 19.17 97.36 18.75 97.44 19.95 91.53 20.3 92.41 41.79 98.08 41.06 98.23 42.25 91.26 43.14"/></g><g><ellipse class="cls-12" cx="97.78" cy="30.5" rx="5.32" ry="11.16" transform="translate(-.98 3.33) rotate(-1.94)"/><path class="cls-15" d="M98.07,42.25c-1.62,0-3.15-1.23-4.31-3.46-1.12-2.15-1.79-5.02-1.89-8.09-.22-6.59,2.2-11.84,5.52-11.95,3.32-.12,6.09,4.96,6.31,11.55h0c.22,6.59-2.2,11.84-5.52,11.95-.04,0-.07,0-.11,0Zm-.58-22.3s-.05,0-.07,0c-2.56,.09-4.55,4.99-4.36,10.71,.1,2.89,.72,5.58,1.76,7.58,.95,1.83,2.16,2.84,3.32,2.81,2.56-.09,4.55-4.99,4.36-10.71h0c-.19-5.67-2.48-10.39-5-10.39Z"/></g><g><polyline class="cls-6" points="91.57 30.46 92.47 48.23 87.62 48.31"/><polygon points="87.63 48.91 87.61 47.71 91.84 47.64 90.98 30.49 92.17 30.43 93.1 48.82 87.63 48.91"/></g><g><polyline class="cls-2" points="85.8 42.04 78.71 42.16 79.6 18.37 86.56 19.01"/><polygon class="cls-15" points="78.09 42.78 79.02 17.72 86.61 18.41 86.5 19.61 80.17 19.03 79.33 41.55 85.79 41.44 85.81 42.64 78.09 42.78"/></g><g><ellipse class="cls-12" cx="86.18" cy="30.53" rx="11.52" ry="5.49" transform="translate(52.82 115.65) rotate(-88.11)"/><path class="cls-15" d="M85.89,42.64s-.07,0-.11,0c-1.71-.06-3.24-1.43-4.3-3.86-1-2.29-1.49-5.29-1.39-8.46s.79-6.13,1.94-8.35c1.22-2.36,2.83-3.63,4.55-3.57,3.41,.11,5.91,5.52,5.69,12.32l-.6-.02,.6,.02c-.22,6.72-3.02,11.92-6.38,11.92Zm.59-23.04c-1.18,0-2.41,1.06-3.38,2.92-1.07,2.06-1.71,4.85-1.81,7.83-.1,2.99,.36,5.81,1.29,7.94,.85,1.96,2.04,3.1,3.24,3.14,2.64,.06,5.06-4.84,5.25-10.76,.2-5.92-1.88-10.99-4.53-11.08-.02,0-.04,0-.06,0Z"/></g></g><g><g><path class="cls-14" d="M73.5,15.79c-.15,0-.32-.05-.48-.15-.26-.15-.38-.35-.41-.44,0,0,.06,0,.09,0,.15,0,.32,.05,.48,.15,.26,.15,.38,.35,.41,.44,0,0-.06,0-.09,0Z"/><path class="cls-14" d="M72.7,14.6c-.28,0-.51,.1-.63,.3-.21,.37,.07,.93,.64,1.26,.26,.15,.54,.23,.79,.23,.28,0,.51-.1,.63-.3,.21-.37-.07-.93-.64-1.26-.26-.15-.54-.23-.79-.23h0Z"/></g><g><path class="cls-14" d="M75.64,14.5c-.1,0-.24-.05-.36-.19-.09-.1-.14-.22-.14-.34,0-.05,0-.13,.06-.18,.03-.03,.08-.04,.13-.04,.1,0,.24,.05,.36,.19,.09,.1,.14,.22,.14,.34,0,.05,0,.13-.06,.18-.03,.03-.08,.04-.13,.04Z"/><path class="cls-14" d="M75.33,13.16c-.2,0-.38,.06-.53,.19-.36,.32-.35,.93,.03,1.36,.23,.25,.53,.39,.81,.39,.2,0,.38-.06,.53-.19,.36-.32,.35-.93-.03-1.36-.23-.25-.53-.39-.81-.39h0Z"/></g><g><path class="cls-14" d="M72.58,13.08s-.03,0-.03,0c-.05-.15-.03-.24,.01-.32,.07-.12,.17-.18,.24-.18,.08,.03,.11,.18,.02,.33-.07,.12-.17,.18-.24,.18Z"/><path class="cls-14" d="M72.81,11.97c-.29,0-.59,.17-.76,.47-.25,.42-.16,.93,.2,1.14,.1,.06,.22,.09,.33,.09,.29,0,.59-.17,.76-.47,.25-.42,.16-.93-.2-1.14-.1-.06-.22-.09-.33-.09h0Z"/></g></g></g><g><path class="cls-3" d="M80.24,92.03l-31.67,2.06s-6.19-15.83,2.44-28.06c7.03-9.97,22.86-5.07,22.86-5.07l3.45,10.61,4.74-6.42-1.82,26.88Z"/><path d="M48.17,94.72l-.16-.41c-.06-.16-6.21-16.27,2.51-28.63,2.99-4.24,8.02-6.5,14.55-6.53,4.83,0,8.81,1.18,8.98,1.23l.3,.09,3.18,9.79,5.27-7.14-1.99,29.45-32.64,2.13Zm17.06-34.34c-4.73,0-10.34,1.19-13.73,6-7.58,10.75-3.39,24.55-2.52,27.09l30.7-2,1.64-24.31-4.21,5.71-3.71-11.41c-.98-.27-4.28-1.07-8.17-1.07Z"/></g><g><path d="M75.32,84.73l2.4-4.16,1.52,1.87-2.4,11.95-1.52-9.66Zm1.2-7.54l1.23-2.3,.95,1.62-1.13,1.96-1.04-1.28Z"/><path d="M77.77,76.12l.23,.39-.52,.9-.24-.29,.53-1m.04,5.51l.79,.97-1.69,8.39-.97-6.14,1.86-3.22m-.09-7.97l-1.92,3.6,1.84,2.26,1.74-3.01-1.66-2.85h0Zm-.08,5.86l-2.95,5.1,2.08,13.18,3.12-15.51-2.25-2.76h0Z"/></g><g><g><path class="cls-11" d="M80.24,92.03l-2.38,41.15,7.02,7.08-15.54-2.5-2.12-31.44-2.8,27.33,7.75,6.6-15.36-1.89-2.95-25.15s-18.64-8.02-4.52-19.17l30.89-2.02Z"/><path d="M86.61,141.15l-15.37-2.47,2.85,2.42-17.81-2.2-2.97-25.28c-1.66-.77-9.03-4.51-9.79-10.25-.43-3.3,1.4-6.59,5.46-9.79l.15-.12,31.76-2.08-2.4,41.56,8.13,8.2Zm-29.25-3.32l12.9,1.59-1.3-1.11-.18-.03v-.13s-4.98-4.23-4.98-4.23l2.83-27.65,1.2,.02,2.09,30.96,13.25,2.13-5.91-5.96,2.36-40.74-30.03,1.96c-3.6,2.88-5.23,5.76-4.86,8.58,.74,5.66,9.31,9.41,9.39,9.45l.32,.14,2.94,25.03Zm7.7-4.42l3.6,3.06-1.55-23.05-2.04,19.99Z"/></g><g><polyline points="72.27 138.23 72.18 133.89 77.86 133.18"/><polygon points="71.67 138.24 71.57 133.36 77.79 132.59 77.94 133.78 72.79 134.42 72.87 138.22 71.67 138.24"/></g><g><g><polygon class="cls-5" points="81.57 96.51 77.39 96.64 77.22 94.37 81.14 94.09 81.57 96.51"/><path d="M77.04,97.02l-.22-3,4.63-.33,.57,3.18-4.98,.15Zm.58-2.3l.11,1.53,3.39-.1-.3-1.66-3.21,.23Z"/></g><g><polygon class="cls-5" points="75.04 97.03 71.01 97.14 70.78 94.61 75.01 94.35 75.04 97.03"/><path d="M70.67,97.52l-.29-3.26,5.01-.31,.03,3.44-4.75,.12Zm.52-2.56l.16,1.79,3.31-.09-.02-1.92-3.45,.21Z"/></g><g><polygon class="cls-5" points="68.52 97.25 64.5 97.53 64.43 95.1 68.5 94.83 68.52 97.25"/><path d="M64.14,97.93l-.09-3.18,4.83-.32,.02,3.17-4.76,.33Zm.68-2.48l.05,1.68,3.28-.23v-1.67s-3.33,.22-3.33,.22Z"/></g><g><polygon class="cls-5" points="61.99 97.66 58.32 97.7 58.04 95.26 61.91 94.97 61.99 97.66"/><path d="M57.98,98.08l-.36-3.17,4.65-.34,.1,3.45-4.39,.05Zm.48-2.47l.19,1.72,2.95-.03-.05-1.91-3.09,.22Z"/></g><g><polygon class="cls-5" points="55.81 97.9 51.99 97.93 51.92 95.5 55.64 95.21 55.81 97.9"/><path d="M51.63,98.3l-.09-3.15,4.45-.35,.23,3.46-4.59,.04Zm.68-2.46l.05,1.71,3.06-.03-.13-1.91-2.98,.23Z"/></g></g></g><g><path class="cls-3" d="M73.87,60.97l-14.94,58.34-15.37,1.19s-7.41-56.69,15.28-60.42c9.43-1.55,15.03,.89,15.03,.89Z"/><path d="M43.03,121.14l-.07-.56c-.02-.14-1.85-14.4-.87-28.93,1.33-19.74,6.93-30.56,16.65-32.16,9.5-1.56,15.13,.83,15.37,.93l.47,.2-15.17,59.25-16.37,1.27Zm21.9-60.98c-1.77,0-3.78,.14-6,.5-20.68,3.4-15.54,53.28-14.85,59.19l14.37-1.12,14.7-57.4c-1.08-.37-3.94-1.18-8.22-1.18Z"/></g><g><path class="cls-2" d="M80.21,98.52c-2.21,.6-2.07,4.63-.51,5.81s2.01-1.09,1.05-3.75"/><path d="M80.45,105.25c-.3,0-.68-.11-1.12-.45-1.07-.82-1.64-2.71-1.3-4.4,.25-1.29,.99-2.18,2.02-2.46l.31,1.16c-.79,.21-1.06,1.05-1.16,1.53-.24,1.21,.15,2.69,.85,3.22,.27,.21,.39,.2,.4,.2,.19-.13,.42-1.34-.27-3.27l1.13-.41c.64,1.78,.85,3.91-.15,4.65-.15,.11-.39,.23-.7,.23Z"/></g><g><g><polygon class="cls-13" points="69.67 142.2 69.9 139.27 80.9 139.55 80.67 142.51 69.67 142.2"/><path d="M70.45,139.88l9.8,.25-.14,1.76-9.8-.28,.14-1.73m-1.11-1.23l-.09,1.14-.14,1.73-.1,1.26,1.26,.04,9.8,.28,1.14,.03,.09-1.14,.14-1.76,.1-1.26-1.26-.03-9.8-.25-1.14-.03h0Z"/></g><g><g><path class="cls-13" d="M68.72,151.69c-.07-2.04-1.73-50.13,4.48-56.69,.54-.57,1.14-.86,1.78-.87h.27c9.35,0,9.6,9.22,9.61,9.32v.49s-3.25,.69-3.25,.69l-.12-.6c-.03-.16-.82-3.98-3.77-3.98-.1,0-.2,0-.3,.01-5.59,.46-5.78,31.84-4.58,51.52l.04,.63-4.13,.07-.02-.59Z"/><path d="M75.25,94.72c8.87,0,9.01,8.73,9.01,8.73l-2.18,.46s-.86-4.46-4.36-4.46c-.11,0-.23,0-.35,.01-8.26,.67-5.13,52.15-5.13,52.15l-2.92,.05s-2.05-56.8,5.67-56.94c.09,0,.17,0,.26,0m0-1.2h0c-.09,0-.19,0-.28,0-.81,.02-1.55,.37-2.21,1.06-6.27,6.63-4.83,51.98-4.64,57.13l.04,1.18,1.18-.02,2.92-.05,1.25-.02-.08-1.25c0-.13-.78-12.98-.53-25.74,.46-23.62,3.88-25.09,4.56-25.14,.09,0,.17-.01,.25-.01,2.45,0,3.17,3.46,3.18,3.49l.24,1.19,1.19-.25,2.18-.46,.97-.21-.02-.99c0-.1-.27-9.91-10.2-9.91h0Z"/></g><g><path class="cls-8" d="M81.5,104.1c-.03-.1-.3-.96,.14-1.7,.18-.3,.55-.69,1.29-.83,.13-.02,.25-.03,.36-.03,.41,0,.78,.15,1.05,.43,.53,.55,.52,1.41,.51,1.51l-.02,.47-3.16,.67-.17-.51Z"/><path d="M83.29,102.14c1.01,0,.96,1.31,.96,1.31l-2.18,.46s-.49-1.48,.97-1.75c.09-.02,.17-.02,.25-.02m0-1.2c-.15,0-.31,.01-.47,.04-.96,.18-1.46,.7-1.7,1.12-.56,.94-.26,1.99-.19,2.19l.34,1.02,1.05-.22,2.18-.46,.92-.2,.03-.94c0-.2,0-1.23-.68-1.94-.39-.4-.9-.61-1.48-.61h0Z"/></g></g><g><polygon class="cls-13" points="58.78 142.06 59.3 138.93 69.96 139.28 69.73 142.16 58.78 142.06"/><path d="M59.8,139.54l9.51,.31-.13,1.69-9.69-.08,.32-1.92m-1.01-1.23l-.17,1.04-.32,1.92-.23,1.38h1.4s9.69,.09,9.69,.09h1.12s.09-1.11,.09-1.11l.13-1.69,.1-1.25-1.25-.04-9.51-.31-1.05-.03h0Z"/></g><g><path class="cls-8" d="M58.78,142.06l.5-3.07,.46-.04s.11-.01,.28-.01c.3,0,.74,.03,1.13,.19,.6,.24,.94,.72,.94,1.31,0,1.2-1.4,1.63-2.6,1.63h-.71Z"/><path d="M60.03,139.54c.46,0,1.47,.09,1.47,.9,0,1.02-1.88,1.03-2,1.03h0l.32-1.92s.09,0,.23,0m0-1.2h0c-.2,0-.34,.01-.34,.01l-.92,.09-.16,.91-.32,1.92-.23,1.38h1.4c1.96,.01,3.22-.86,3.22-2.22,0-.54-.19-1.01-.56-1.38-.59-.59-1.47-.72-2.11-.72h0Z"/></g></g><g><path class="cls-2" d="M78.53,100.22c.4,1.53-2.5,3.23-3.66,2.7s1.62-3.48,3.66-2.7Z"/><path d="M75.38,103.62c-.27,0-.53-.05-.76-.15-.45-.2-.84-.74-.49-1.58,.57-1.35,2.8-2.92,4.61-2.23l.29,.11,.08,.3c.21,.81-.17,1.7-1.06,2.45-.72,.61-1.78,1.1-2.67,1.1Zm-.16-1.21c.43,.09,1.36-.21,2.06-.81,.36-.3,.59-.62,.66-.9-.52-.05-1.13,.16-1.72,.58-.62,.44-.92,.91-1,1.13Z"/></g><g><polygon points="77.86 133.18 84.89 140.26 73.03 138.35 72.95 133.81 77.86 133.18"/><path d="M86.61,141.15l-14.17-2.28-.1-5.58,5.74-.73,8.53,8.6Zm-12.99-3.31l9.54,1.54-5.52-5.56-4.09,.52,.06,3.5Z"/></g><g><ellipse cx="83.59" cy="145.66" rx="2.63" ry="1.55" transform="translate(-80.67 110.7) rotate(-48.13)"/><path d="M82.58,148.47c-.44,0-.84-.14-1.14-.41h0c-.9-.8-.65-2.49,.56-3.84,.54-.6,1.19-1.05,1.84-1.25,.75-.24,1.45-.14,1.91,.28s.64,1.1,.49,1.87c-.13,.67-.51,1.37-1.04,1.97-.54,.6-1.19,1.05-1.84,1.25-.27,.08-.52,.13-.77,.13Zm-.34-1.3c.14,.12,.42,.14,.75,.03,.44-.14,.92-.47,1.31-.91s.67-.95,.76-1.4c.07-.34,.03-.61-.11-.74-.14-.12-.42-.14-.75-.03-.44,.14-.92,.47-1.31,.91-.83,.92-.94,1.88-.65,2.14h0Z"/></g><g><ellipse cx="67.85" cy="144.92" rx="2.63" ry="1.55" transform="translate(-85.36 98.73) rotate(-48.13)"/><path d="M66.83,147.74c-.44,0-.84-.14-1.14-.41-.9-.8-.65-2.49,.56-3.84,.54-.6,1.19-1.05,1.84-1.25,.75-.24,1.44-.14,1.91,.28,.9,.8,.65,2.49-.56,3.84-.54,.6-1.19,1.05-1.84,1.25-.27,.08-.52,.13-.77,.13Zm2.03-4.43c-.12,0-.26,.02-.41,.07-.44,.14-.92,.47-1.31,.91-.83,.92-.94,1.89-.65,2.14h0c.14,.12,.42,.13,.74,.03,.44-.14,.92-.47,1.31-.91,.83-.92,.94-1.89,.65-2.14-.08-.07-.19-.1-.34-.1Z"/></g><g><polygon points="64.43 133.67 72.18 140.26 56.82 138.37 56.5 134.84 64.43 133.67"/><path d="M74.09,141.1l-17.82-2.2-.42-4.58,8.76-1.29,9.48,8.07Zm-16.72-3.27l12.89,1.59-6.02-5.12-7.1,1.05,.23,2.48Z"/></g><g><g><path class="cls-2" d="M83.98,107.3c-.65,0-1.61-.25-2.45-1.44-.27-.37-.2-.93-.02-1.3,.16-.33,.43-.53,.74-.55h.15c.47-.03,1.57-.08,1.7-.47,.13-.39,.49-.66,.9-.66,.21,0,.42,.08,.58,.21l1.83,1.16-.14,.44c-.4,1.25-1.77,2.6-3.29,2.6h0Z"/><path d="M85,103.48c.08,0,.15,.03,.22,.09l1.48,.94c-.33,1.03-1.48,2.18-2.72,2.18-.66,0-1.36-.33-1.96-1.18-.16-.22,0-.89,.27-.9,.74-.04,2.1-.05,2.38-.88,.05-.16,.19-.25,.33-.25m0-1.2c-.62,0-1.18,.38-1.43,.96-.25,.12-.93,.15-1.2,.16h-.15c-.53,.03-1,.37-1.25,.89-.26,.54-.34,1.33,.07,1.91,.99,1.4,2.15,1.69,2.94,1.69,1.81,0,3.39-1.53,3.86-3.01l.28-.88-.78-.5-1.41-.9c-.27-.21-.59-.33-.93-.33h0Z"/></g><g><path class="cls-2" d="M84.7,104.99c-1.58,0-2.42-.68-2.84-1.26-.31-.42-.23-1.05-.02-1.46,.2-.4,.52-.62,.89-.62h.15c.5,.1,.93,.15,1.25,.15,0,0,.11,0,.15,0-.02-.03-.35-.39-.35-.39l1.55-3.04,.58,.58c.26,.26,2.56,2.63,1.94,4.43-.3,.87-1.16,1.39-2.57,1.56-.26,.03-.5,.05-.73,.05Z"/><path d="M85.64,99.37s4.39,4.4-.28,4.97c-.23,.03-.45,.04-.66,.04-1.14,0-1.91-.41-2.36-1.01-.23-.3,.02-1.12,.38-1.12,.01,0,.03,0,.04,0,.43,.08,.93,.14,1.36,.14,.79,0,1.3-.23,.53-1.09l.99-1.94m-.32-2.02l-.75,1.47-.99,1.94-.19,.38c-.13-.02-.27-.04-.42-.07l-.1-.02h-.15c-.59,0-1.12,.35-1.42,.95-.3,.59-.39,1.46,.08,2.08,.72,.97,1.9,1.5,3.32,1.5,.26,0,.53-.02,.81-.05,2.06-.25,2.8-1.21,3.07-1.96,.72-2.09-1.61-4.57-2.08-5.05l-1.17-1.17h0Z"/></g><g><path class="cls-2" d="M91.66,98.65l-6.16-.18s2.41,3.82-.9,4.29c-2.22,.31-3.11-.5-3.45-1.29-.13-.3,.11-.97,.44-.96,1.16,.04,3.33-.27,.85-3.63-.28-.39-.55-.56-.55-.56l4.41-7.17,5.36,9.5Z"/><path d="M83.69,103.43c-2.03,0-2.8-1.04-3.09-1.72-.18-.43-.04-1,.2-1.35,.2-.3,.51-.47,.81-.45,.69,.03,1.19-.11,1.32-.35,.15-.28-.03-1.04-.97-2.32-.21-.29-.4-.43-.4-.43l-.46-.33,.29-.48,4.94-8.03,6.38,11.31-6.21-.18c.35,.81,.68,1.99,.23,2.94-.23,.5-.77,1.13-2.05,1.31-.36,.05-.69,.07-.99,.07Zm-1.94-2.31c-.02,.06-.04,.13-.03,.17,.42,.99,1.76,1.03,2.8,.89,.89-.13,1.07-.5,1.13-.63,.37-.8-.36-2.29-.65-2.75l-.6-.95,6.23,.18-4.33-7.68-3.61,5.88c.08,.09,.17,.19,.26,.31,1.16,1.58,1.51,2.75,1.07,3.59-.35,.65-1.14,1.03-2.24,.99Z"/></g></g><g><polyline class="cls-3" points="69.54 68.07 55.81 89.72 68.52 97.25 66.48 101.88 46.05 90.33 62.36 70.82"/><path d="M69.54,68.07c-4.17,7.31-8.71,14.83-13.3,21.92,0,0-.17-.7-.17-.7l12.71,7.53s.38,.23,.38,.23c-.27,.62-2.18,4.94-2.45,5.54,0,0-.48-.27-.48-.27l-20.43-11.55-.52-.3,.39-.46c4.57-5.63,11.72-13.81,16.69-19.19-4.44,5.89-11.18,14.32-15.93,19.84,0,0-.14-.76-.14-.76l20.43,11.55-.7,.23,2.05-4.63,.2,.63-12.71-7.53-.44-.26,.28-.44c4.45-7.18,9.31-14.48,14.15-21.38h0Z"/></g><g><g><path class="cls-2" d="M77.4,98.21c-.43,0-.64-.22-.73-.35l-.08-.12c-.27-.39-.82-1.21-1.23-1.21l-.07,.02-.22,.02c-.3,0-.57-.13-.75-.36-.16-.2-.22-.45-.19-.7l.04-2.17,.45-.11c.26-.06,.54-.09,.83-.09,.96,0,2.34,.38,3.06,1.47,.37,.57,.7,1.53,.1,2.91-.19,.44-.77,.7-1.22,.7Z"/><path d="M75.46,93.73c1.61,0,3.63,1.15,2.61,3.55-.08,.18-.42,.34-.67,.34-.1,0-.19-.03-.24-.09-.39-.56-1.03-1.59-1.8-1.59-.06,0-.13,0-.19,.02-.03,0-.06,.01-.09,.01-.21,0-.39-.17-.33-.39l.03-1.76c.21-.05,.44-.08,.69-.08m0-1.2c-.34,0-.67,.04-.97,.11l-.9,.22v.93s-.04,1.67-.04,1.67c-.05,.4,.06,.8,.31,1.11,.29,.37,.74,.58,1.22,.58,.08,0,.16,0,.24-.02,.23,.15,.62,.71,.77,.94l.08,.12c.27,.39,.72,.61,1.23,.61,.66,0,1.48-.37,1.77-1.07,.54-1.27,.49-2.51-.16-3.48-.85-1.28-2.39-1.74-3.56-1.74h0Z"/></g><g><path class="cls-2" d="M75.28,99.13c-.44,0-.79-.21-.93-.57-.27-.69-.49-1.07-.63-1.27-.01,.03-.15,.5-.15,.5l-3.4,.27,.19-.8c.1-.41,1.03-4.01,3.16-4.01,.77,0,1.53,.48,2.28,1.42,.99,1.25,1.29,2.55,.84,3.68-.2,.51-.85,.79-1.36,.79Z"/><path d="M73.52,93.85c.52,0,1.13,.33,1.81,1.19,.94,1.19,1.08,2.25,.75,3.08-.09,.23-.49,.41-.8,.41-.18,0-.32-.06-.38-.19-.32-.8-.81-1.84-1.26-1.84-.2,0-.38,.21-.54,.73l-2.17,.17s.85-3.55,2.57-3.55m0-1.2c-2.54,0-3.56,3.73-3.74,4.47l-.39,1.61,1.65-.13,2.17-.17,.42-.03c.05,.11,.1,.24,.16,.39,.23,.58,.8,.95,1.49,.95s1.61-.4,1.91-1.16c.31-.77,.6-2.36-.93-4.28-.87-1.09-1.79-1.64-2.75-1.64h0Z"/></g><g><path class="cls-2" d="M67.18,92.65l3.07,5.35s2-4.05,4.12-1.48c1.43,1.73,1.2,2.91,.7,3.61-.19,.27-.89,.42-1.05,.13-.57-1.01-1.97-2.7-3.54,1.17-.18,.44-.19,.76-.19,.76h-8.41s5.29-9.54,5.29-9.54Z"/><path d="M70.3,102.79h-9.43s6.3-11.36,6.3-11.36l3.09,5.39c.51-.72,1.34-1.62,2.38-1.74,.54-.06,1.37,.07,2.19,1.06,1.79,2.16,1.22,3.65,.73,4.34-.27,.38-.83,.55-1.25,.54-.36-.02-.65-.18-.81-.46-.34-.6-.73-.94-.99-.94-.32,.02-.87,.57-1.47,2.04-.13,.33-.15,.56-.15,.57l-.04,.56h-.56Zm-7.39-1.2h6.9c.03-.11,.08-.24,.13-.38,.74-1.81,1.56-2.73,2.5-2.79,.74-.05,1.43,.43,2.02,1.39,.06-.01,.13-.04,.16-.06,.62-.88-.04-2.04-.71-2.85-.57-.69-.99-.65-1.12-.63-.88,.1-1.76,1.51-2,1.99l-.5,1.01-3.1-5.4-4.28,7.71Z"/></g></g><rect class="cls-1" width="140.1" height="183.76"/></g></g></svg>