<?xml version="1.0" encoding="UTF-8"?><svg id="Livello_2" xmlns="http://www.w3.org/2000/svg" viewBox="0 0 140.1 183.76"><defs><style>.cls-1{fill:none;}.cls-2{fill:#68d1e7;}.cls-3{fill:#fff;}.cls-4{fill:#ffe100;}.cls-5{fill:#ffbc61;}.cls-6{fill:#ffd1a5;}.cls-7{fill:#ff4842;}.cls-8{fill:#ff925b;}.cls-9{fill:#ff9000;}.cls-10{fill:#a32a27;}.cls-11{fill:#8c6239;}.cls-12{fill:#adeaff;}.cls-13{fill:#d54111;}.cls-14{fill:#d59f59;}.cls-15{fill:#4d96ca;}</style></defs><g id="export"><g id="oldRun1"><g id="shadow"><path d="M80.09,76.24c3.08,2.09,6.37,3.91,9.07,6.45,3.29,3.09,14.22,13.35,17.69,16.6,0,0,1.1,1.03,1.1,1.03l-1.04,1.09c-.8,.84-3.99,4.18-4.73,4.96,.03,.09-11.56-12.42-12.04-12.89-.92-1.06-3.25-3.36-4.1-4.41,0,0-1.17-1.65-1.17-1.65-1.57-2.19-3.1-4.43-4.59-6.69,2.16,1.64,4.28,3.32,6.36,5.04,.96,.75,2.22,1.8,2.95,2.74,1.77,1.89,11.71,12.54,13.69,14.67,0,0-2.18-.01-2.18-.01,0,0,3.63-3.81,3.63-3.81l.06,2.13-12.86-12.07c-1.05-.99-3.8-3.57-4.83-4.52-2.7-2.53-4.73-5.7-7.01-8.64h0Z"/><path d="M77.6,124.72l-50.51-15.56,.45-1.44c.09-.29,2.31-7.26,7.1-15.33,6.4-10.78,14.38-18.3,23.07-21.76,10.31-4.11,21.71-2.75,33.89,4.04l1.06,.59-15.06,49.46Zm-46.7-17.52l44.7,13.77,13.47-44.25c-10.94-5.82-21.11-6.93-30.25-3.3-16.99,6.76-25.82,28.06-27.93,33.78Z"/><path d="M84.66,86.51l-10.9-1.4,7.95-13.92,8.08-16.83s-.03,0-.04,0c-1.9-.32-3.41-1.23-4.12-2.5-.49-.86-.56-1.83-.21-2.73,.82-2.06,3.74-3.23,6.8-2.71,.32,.05,.64,.13,.94,.22l10.05-23.93,36.31,1.75-.85,1.99c-.12,.29-12.66,29.17-35.54,52.83l-.57,.59-11.06-2.23-6.83,8.88Zm-6.07-3.8l4.74,.61,6.92-8.99,11.29,2.27c18.72-19.57,30.28-42.56,33.47-49.36l-29.85-1.44-10.49,24.99-1.49-.91c-.39-.24-.89-.42-1.46-.51-1.84-.32-3.32,.38-3.5,.86-.01,.03-.02,.06,.03,.15,.2,.36,.92,.83,2.01,1.01,.56,.1,1.14,.1,1.69,.02l2.78-.4-10.38,21.61-5.75,10.08Z"/><path d="M86.18,142.17h-26.85l17.16-20.98-12.95-8.02-17.12,11.61-23.03-7.32-19.88,.74,21.21-13.71,13.14,6.24,2.7-2.38c-1.58-1.24-3.63-3.39-3.45-6.12,.22-3.36,3.54-6.2,10.16-8.69l.41-.15,30.54,6.6,16.15,22.91-16.34,11.28,8.14,7.99Zm-20.52-3h13.18l-5.49-5.39,16.84-11.62-13.73-19.48-28.53-6.17c-6.61,2.55-7.73,4.79-7.81,5.91-.13,1.97,2.63,3.92,3.61,4.45l1.9,1.02-7.26,6.39-13.42-6.37-10.64,6.88,9.5-.35,22.14,7.04,17.53-11.89,17.51,10.84-15.32,18.73Z"/><path d="M43.35,120.19l-16.21-11.48,.44-1.1c.19-.46,4.64-11.44,11.96-22.3,10.04-14.89,20.19-21.86,30.14-20.71,9.73,1.13,14.29,5.03,14.48,5.2l1.11,.97-41.92,49.41Zm-12.53-12.55l12.02,8.51,38.11-44.93c-1.8-1.09-5.62-2.94-11.62-3.64-19.27-2.24-35.6,33.33-38.51,40.06Z"/><path d="M88.19,111.13c-3.96,0-4.68-1.47-4.74-2.36-.06-.8,.3-2.21,3.41-2.58,.84-.1,1.08-.22,1.09-.22-.13,.07-.42,.35-.48,.81-.05,.45,.16,.79,.27,.88l1.3-2.71c1.02,.51,1.56,1.39,1.4,2.29-.05,.28-.15,.52-.29,.73,.4-.09,.6-.2,.67-.26-.05,.04-.14,.2-.14,.42,0,.21,.1,.33,.13,.35l1.03-2.83c1.27,.5,2.01,1.66,1.81,2.84-.16,.94-1.02,2.53-4.93,2.64-.18,0-.35,0-.51,0Z"/><path d="M104.25,112.63c-.83,0-1.8-.15-2.89-.46-3.26-.93-3.84-2.43-3.75-3.53,.1-1.27,1.22-2.28,2.73-2.46l.29,2.44c.17,.13,.6,.4,1.56,.67,.82,.23,1.45,.32,1.88,.34l.69-1.75c2.79,1.1,2.61,2.62,2.41,3.22-.34,1.01-1.38,1.53-2.91,1.53Z"/><path d="M108.52,119.74s-.06,0-.09,0l-1.37-.02-.38-4.61,1.38-.21s3.09-.53,3.19-2.48c0-.09-.11-.23-.19-.31-3.49-3.56-27.15-4.12-41.25-3.64l-1.75,.06,.67-5.52h1.32c7.11-.08,42.87-.14,47.83,5.4,.79,.88,.87,1.77,.8,2.36-.84,7.11-6.96,8.97-10.17,8.97Zm2.25-11.28c1.54,.64,2.11,1.22,2.44,1.56,.92,.94,1.08,1.92,1.04,2.57-.05,.92-.33,1.7-.75,2.35,1.07-.94,1.95-2.36,2.21-4.51-.34-.73-2.12-1.39-4.94-1.96Z"/><path d="M69.88,76.01c2.09,1.92,4.48,3.65,6.12,5.93,2,2.8,8.66,12.04,10.77,14.98,0,0,1.11,1.54,1.11,1.54-2.03,.83-8,3.28-10.05,4.12-.12-.15-7.34-12.69-7.69-13.24-.57-1.07-2.12-3.49-2.62-4.55,0,0-.64-1.65-.64-1.65-.87-2.19-1.69-4.42-2.47-6.67,1.95,2.21,3.84,4.53,5.68,6.83,.66,.94,2.01,3.51,2.65,4.53,0,0,7.03,12.11,7.03,12.11l-1.87-.63,7.09-2.91s-.65,2.26-.65,2.26c-1.46-2.03-8.5-11.81-9.8-13.62-.33-.47-1.14-1.59-1.5-2.02-1.17-2.27-2.19-4.62-3.16-7.03h0Z"/><path d="M80.34,105.49l-9.38-6.68,18.38-4.97,.57,10.09-9.57,1.56Zm-2.47-5.44l3.2,2.28,5.69-.93-.21-3.7-8.68,2.35Z"/><path d="M88.25,109.19c-.14,0-.28,0-.43,0h0c-2.47-.06-6.95-.52-9.18-2.98-.86-.95-1.27-2.1-1.18-3.33,.07-.94,.52-1.78,1.3-2.42,2.95-2.41,10.22-1.5,10.53-1.46,2.52,.33,5.57,3.45,5.36,6.32-.11,1.46-1.1,3.87-6.4,3.87Zm-2.36-7.4c-2.24,0-4.39,.31-5.23,.99-.2,.16-.21,.26-.21,.31-.03,.4,.1,.75,.41,1.1,1.05,1.15,3.74,1.92,7.03,1.99h0c2.19,.04,3.71-.39,3.77-1.09,.09-1.15-1.68-2.98-2.75-3.11-.95-.12-1.99-.19-3.02-.19Z"/><path d="M110.16,106.47l-8.88-.6-7.46-4.3,16.54-5.66-.2,10.57Zm-7.98-3.55l5.04,.34,.06-3.14-6.24,2.14,1.14,.66Z"/><path d="M106.75,110.86c-.6,0-1.26-.03-1.97-.1h0c-3.22-.31-5.51-1.44-6.43-3.16-.44-.82-.78-2.17,.13-3.88,.76-1.44,2.53-2.4,4.98-2.69,2.79-.34,6.61,.2,8.38,2.18,1.42,1.58,1.82,3.51,1.05,5.03-.63,1.25-2.22,2.61-6.13,2.61Zm-1.68-3.09c3.52,.34,4.89-.39,5.13-.88,.19-.38-.05-1.05-.61-1.67-.74-.83-3.24-1.51-5.78-1.2-1.55,.19-2.47,.7-2.69,1.12-.35,.66-.19,.94-.14,1.05,.34,.63,1.73,1.36,4.08,1.59h0Z"/></g><g><polyline class="cls-3" points="80.09 76.24 105.82 100.38 102.19 104.19 80.28 80.72"/><path d="M80.09,76.24c8.08,6.26,18.52,16.69,26.14,23.7,0,0,.44,.41,.44,.41-.1,.12-3.83,4-4.05,4.24,0,0-.44,.46-.44,.46l-.43-.46c-6.42-6.93-15.75-16.5-21.47-23.88,6.93,6.18,15.9,16.21,22.35,23.06,0,0-.87,0-.87,0l3.63-3.81,.02,.85c-7.52-7.19-18.52-16.88-25.32-24.58h0Z"/></g><g><ellipse cx="18.6" cy="102.44" rx="3.69" ry="2.18" transform="translate(-80.81 71.5) rotate(-62.42)"/><path d="M17.53,106.47c-.21,0-.42-.03-.63-.1h0c-.55-.18-.97-.58-1.22-1.15-.43-.98-.33-2.36,.28-3.71,.97-2.16,2.88-3.48,4.34-3,.55,.18,.97,.58,1.22,1.15,.43,.98,.33,2.36-.28,3.71-.84,1.86-2.37,3.1-3.71,3.1Zm-.25-1.24c.74,.24,2.11-.66,2.87-2.35,.46-1.02,.57-2.07,.28-2.73-.11-.26-.28-.43-.5-.5-.75-.24-2.11,.66-2.87,2.35-.46,1.02-.57,2.07-.28,2.73,.11,.26,.28,.43,.5,.5h0Z"/></g><g><ellipse cx="8.96" cy="109.4" rx="3.78" ry="2.05" transform="translate(-92.7 68.01) rotate(-63.17)"/><path d="M7.81,113.5c-.2,0-.39-.03-.58-.09h0c-.5-.16-.88-.53-1.12-1.06-.43-.98-.31-2.41,.34-3.83,1.01-2.24,2.83-3.58,4.25-3.12,.5,.16,.88,.53,1.12,1.06,.43,.98,.31,2.41-.34,3.83-.87,1.94-2.36,3.21-3.67,3.21Zm2.3-6.99c-.72,0-1.88,.97-2.57,2.5-.49,1.09-.62,2.21-.33,2.86,.1,.22,.22,.35,.39,.4h0c.69,.22,2.02-.79,2.78-2.47,.49-1.09,.62-2.21,.33-2.86-.1-.22-.22-.35-.39-.4-.06-.02-.13-.03-.21-.03Z"/></g><g><ellipse cx="65.92" cy="145.69" rx="3.94" ry="1.52" transform="translate(-3.69 1.73) rotate(-1.46)"/><path d="M65.69,147.82c-1.73,0-3.2-.41-3.88-1.08-.37-.36-.44-.73-.43-.98,.02-1.38,2.3-2.15,4.54-2.2,1.82-.02,3.39,.38,4.09,1.08,.37,.36,.44,.73,.43,.98-.02,1.38-2.3,2.15-4.54,2.2-.07,0-.15,0-.22,0Zm.45-3.06c-.06,0-.12,0-.19,0-2.2,.04-3.36,.77-3.37,1.01,0,0,.01,.05,.08,.11,.39,.39,1.62,.77,3.22,.73,2.2-.04,3.36-.77,3.37-1.01,0,0-.01-.05-.08-.11-.37-.37-1.52-.73-3.04-.73Z"/></g><g><ellipse cx="78.69" cy="145.24" rx="3.76" ry="1.41" transform="translate(-1.94 1.07) rotate(-.77)"/><path d="M78.58,147.25c-1.77,0-3.26-.42-3.89-1.11-.33-.36-.37-.71-.35-.95,.11-1.34,2.4-1.96,4.48-1.96,1.77,0,3.26,.42,3.89,1.11,.33,.36,.37,.71,.35,.95h0c-.11,1.34-2.4,1.96-4.48,1.96Zm.23-2.81c-2.09,0-3.21,.62-3.28,.86,.08,.19,1.1,.75,3.05,.75,2.05,0,3.16-.6,3.27-.85-.12-.23-1.13-.76-3.04-.76Z"/></g><g><path class="cls-3" d="M29.73,107.78c1.66-4.75,13.98-37.36,40.06-37.36,6.41,0,13.26,1.97,20.36,5.85l-13.95,45.82-46.47-14.31Z"/><path d="M69.8,69.81v1.2c6.18,0,12.78,1.87,19.64,5.55l-13.63,44.78-45.29-13.95c1.01-2.8,3.97-10.33,9.11-17.76,8.53-12.35,18.68-18.61,30.18-18.61v-1.2m0,0c-28.77,0-40.83,38.36-40.83,38.36l47.63,14.67,14.27-46.86c-7.84-4.37-14.85-6.16-21.07-6.16h0Z"/></g><g><g><path class="cls-6" d="M137.29,25.84l-33.11-1.59-10.23,24.35c-.53-.33-1.21-.58-1.99-.71-2.3-.39-4.61,.41-5.15,1.78-.54,1.38,.88,2.81,3.18,3.2,.74,.12,1.47,.13,2.15,.03l-9.11,18.98-6.86,12.02,7.82,1,6.87-8.93,11.18,2.25c22.96-23.74,35.24-52.38,35.24-52.38Z"/><path d="M84.26,85.55l-9.05-1.16,7.31-12.8,8.65-18.02c-.42,0-.85-.04-1.27-.11-1.61-.27-2.91-1.04-3.48-2.05-.35-.62-.41-1.32-.15-1.96,.65-1.65,3.2-2.6,5.81-2.15,.57,.1,1.11,.26,1.59,.47l10.14-24.14,34.39,1.65-.34,.79c-.12,.29-12.59,29.01-35.36,52.56l-.23,.24-11.13-2.24-6.86,8.91Zm-7.12-2.12l6.59,.85,6.89-8.95,11.22,2.26c20.37-21.16,32.38-46.41,34.54-51.17l-31.81-1.53-10.33,24.61-.6-.36c-.49-.3-1.1-.52-1.78-.63-2.21-.37-4.1,.43-4.49,1.41-.12,.3-.09,.61,.08,.93,.39,.69,1.4,1.25,2.64,1.46,.65,.11,1.33,.12,1.97,.03l1.11-.16-9.6,20-6.44,11.28Z"/></g><g><path d="M112.58,30.37l.66-.39,1.5,2.51-2.16-2.12Zm3.32-1.04l.69-.24,.18,2.72-.86-2.48Z"/><path d="M117.13,28.27l-2,.69,2.51,7.23-.51-7.92h0Zm-3.68,.9l-1.85,1.09,6.05,5.94-4.2-7.03h0Z"/></g><g><path d="M129.53,34.4l-.16,.61-2.44,.6,2.59-1.22Zm-1.76-2.4l.27,.5-2.26,1.46,1.99-1.96Z"/><path d="M127.92,31.02l-6.76,6.65,7.68-4.97-.92-1.68h0Zm2.51,2.3l-9.27,4.35,8.71-2.16,.56-2.19h0Z"/></g><g><polygon points="102.46 63.73 90.56 53.72 82.72 56.41 81.51 65.26 89.75 61.35 89.91 65.59 95.39 61.77 96.39 65.03 102.33 64.24 102.46 63.73"/><path d="M89.56,66.29l-.17-4.35-8.35,3.96,1.34-9.77,8.26-2.83,12.24,10.29-.25,.98-6.51,.87-.94-3.07-5.62,3.91Zm.54-5.52l.16,4.12,5.34-3.72,1.06,3.45,5.39-.75-11.55-9.72-7.42,2.54-1.09,7.94,8.12-3.86Z"/></g><g><polygon points="103.94 64.52 117.85 60.98 120.43 65.01 116.22 73.15 114.47 67.01 111.59 71.53 110.7 66.13 107.5 67.9 103.94 64.52"/><path d="M116.12,74.17l-1.78-6.25-2.96,4.64-.96-5.84-2.98,1.65-4.25-4.04,14.83-3.77,2.84,4.44-4.74,9.18Zm-1.52-8.06l1.72,6.03,3.68-7.11-2.32-3.62-13,3.31,2.87,2.73,3.43-1.9,.82,4.96,2.8-4.39Z"/></g><g><g><polygon points="92.04 44.15 92.57 42.5 98.13 44.15 92.04 44.15"/><path d="M92.96,43.25l1.03,.3h-1.13s.1-.3,.1-.3m-.78-1.48l-.97,2.99h11.06s-10.09-2.99-10.09-2.99h0Z"/></g><g><polyline class="cls-2" points="115.13 60.67 109.04 59.73 119.1 38.49 125.15 39.87"/><polygon class="cls-15" points="115.04 61.26 108.15 60.2 118.77 37.8 125.28 39.28 125.01 40.45 119.44 39.18 109.92 59.26 115.22 60.07 115.04 61.26"/></g><g><ellipse class="cls-12" cx="120.14" cy="50.27" rx="11.59" ry="4.92" transform="translate(18.98 132.29) rotate(-61.74)"/><path class="cls-15" d="M115.73,61.34c-.26,0-.51-.03-.75-.09-.85-.22-1.52-.8-1.93-1.69-1.07-2.3-.43-6.44,1.67-10.8,2.93-6.08,7.58-10.24,10.58-9.47,.85,.22,1.52,.8,1.93,1.69,1.07,2.3,.43,6.44-1.67,10.8h0c-2.69,5.59-6.84,9.56-9.83,9.56Zm8.79-20.95c-2.23,0-6.06,3.34-8.73,8.88-1.89,3.92-2.55,7.85-1.66,9.77,.26,.57,.64,.91,1.14,1.04,2.13,.55,6.33-2.87,9.2-8.83h0c1.89-3.92,2.55-7.85,1.66-9.77-.26-.57-.64-.91-1.14-1.04-.15-.04-.31-.06-.47-.06Z"/></g><g><polyline class="cls-6" points="114.56 48.58 106.84 65.23 102.43 64"/><polygon points="107.17 65.94 102.27 64.58 102.59 63.43 106.51 64.51 114.01 48.32 115.1 48.83 107.17 65.94"/></g><g><polyline class="cls-2" points="103.79 57.73 97.34 55.95 109.55 34.21 115.53 36.66"/><polygon class="cls-15" points="103.63 58.31 96.44 56.32 109.29 33.45 115.76 36.1 115.3 37.21 109.82 34.97 98.24 55.57 103.95 57.15 103.63 58.31"/></g><g><ellipse class="cls-12" cx="109.66" cy="47.19" rx="12.1" ry="5.03" transform="translate(12.29 116.27) rotate(-58.64)"/><path class="cls-15" d="M104.59,58.45c-.35,0-.68-.05-.98-.15-.83-.28-1.45-.91-1.81-1.83-.94-2.42,.03-6.82,2.48-11.2,3.43-6.15,8.45-10.19,11.45-9.18,.83,.28,1.45,.91,1.81,1.83,.94,2.42-.03,6.82-2.48,11.2h0c-3.07,5.52-7.44,9.33-10.47,9.33Zm10.12-21.32c-2.3,0-6.33,3.22-9.39,8.72-2.24,4.02-3.21,8.11-2.4,10.18,.23,.59,.58,.96,1.07,1.12,2.12,.72,6.66-2.58,10.02-8.62h0c2.24-4.02,3.21-8.11,2.4-10.18-.23-.59-.58-.96-1.07-1.12-.19-.06-.4-.1-.63-.1Z"/></g></g><g><g><path class="cls-14" d="M105.27,30.19c-.1,0-.26-.06-.39-.23-.11-.15-.14-.3-.13-.39,0-.03,.02-.08,.05-.1,.02,0,.05,0,.07,0,.15,0,.29,.06,.4,.21,.11,.15,.14,.3,.13,.39,0,.03-.02,.08-.05,.1l-.08,.02Z"/><path class="cls-14" d="M104.88,28.84c-.16,0-.32,.05-.44,.14-.37,.28-.38,.88-.03,1.34,.23,.3,.56,.46,.86,.46,.16,0,.32-.05,.44-.14,.37-.28,.38-.88,.03-1.34-.23-.3-.56-.46-.86-.46h0Z"/></g><g><path class="cls-14" d="M107.78,29.57c-.1,0-.17-.06-.2-.17-.06-.2,.08-.47,.28-.55,.04-.02,.08-.02,.11-.02,.1,0,.17,.06,.2,.17,.06,.21-.07,.47-.28,.55-.04,.02-.08,.02-.11,.02Z"/><path class="cls-14" d="M107.97,28.22c-.11,0-.23,.02-.34,.07-.48,.2-.76,.77-.63,1.26,.1,.38,.42,.61,.78,.61,.11,0,.23-.02,.34-.07,.48-.2,.76-.77,.63-1.26-.1-.38-.42-.61-.78-.61h0Z"/></g><g><path class="cls-14" d="M105.75,27.42c.03-.06,.09-.15,.2-.22,.11-.09,.23-.13,.3-.14-.04,.04-.1,.14-.23,.23-.1,.08-.2,.12-.28,.13Z"/><path class="cls-14" d="M106.29,26.45c-.22,0-.48,.09-.71,.26-.43,.32-.59,.82-.37,1.11,.1,.13,.27,.2,.46,.2,.22,0,.48-.09,.71-.26,.43-.32,.59-.82,.37-1.11-.1-.13-.27-.2-.46-.2h0Z"/></g></g></g><g><path class="cls-3" d="M77.34,101.32l-30.29-6.55s.23-16.27,12.9-25.27c10.32-7.33,23.21,1.43,23.21,1.43l-.81,10.72,6.85-4.67-11.87,24.34Z"/><path d="M77.67,102.01l-31.22-6.76v-.49c0-.17,.39-16.68,13.16-25.75,4.37-3.1,9.9-3.84,15.99-2.12,4.55,1.28,7.78,3.45,7.91,3.54l.29,.2-.74,9.82,7.69-5.24-13.07,26.8Zm-30-7.72l29.33,6.35,10.68-21.89-6.01,4.1,.87-11.6c-1.94-1.2-13.22-7.65-22.24-1.25-11.06,7.86-12.46,21.55-12.62,24.3Z"/></g><g><path d="M75.52,93.33l3.85-3.23,.68,2.04-6.72,10.33,2.2-9.15Zm3.97-6.65l2.03-1.81,.25,1.65-1.83,1.53-.46-1.37Z"/><path d="M81.1,86.05l.03,.22-.89,.75-.05-.16,.91-.81m-2.02,5.08l.31,.93-4.66,7.17,1.34-5.57,3.02-2.53m2.87-7.45l-3.15,2.81,.86,2.58,2.76-2.32-.47-3.07h0Zm-2.29,5.39l-4.67,3.92-3.06,12.73,8.78-13.49-1.05-3.15h0Z"/></g><g><g><path class="cls-11" d="M77.34,101.32l14.94,21.2-16.59,11.45,6.82,6.69h-20.02l16.24-19.85-15.23-9.43-17.32,11.75-22.58-7.18-14.69,.55,15.92-10.3,13.28,6.3,4.9-4.32s-12.59-6.73,4.79-13.25l29.54,6.39Z"/><path d="M83.97,141.27h-22.75l16.6-20.3-14.32-8.87-17.24,11.69-22.76-7.24-16.77,.62,18.04-11.66,13.22,6.28,3.99-3.52c-1.37-.9-4.18-3.1-3.99-6,.19-2.93,3.42-5.59,9.58-7.9l.17-.06,29.94,6.47,15.43,21.88-16.49,11.39,7.34,7.21Zm-20.22-1.2h17.28l-6.29-6.17,16.69-11.52-14.46-20.51-29.14-6.3c-5.49,2.09-8.48,4.43-8.64,6.79-.2,2.97,4.04,5.28,4.08,5.3l.76,.41-5.85,5.15-13.33-6.33-13.81,8.93,12.62-.47,22.4,7.12,17.4-11.8,16.14,10-15.87,19.4Z"/></g><g><g><polygon class="cls-5" points="78.27 106.09 74.32 105.09 75.02 102.95 78.78 103.74 78.27 106.09"/><path d="M78.55,106.55l-4.71-1.2,.93-2.84,4.46,.94-.68,3.1Zm-3.75-1.73l3.18,.81,.35-1.6-3.06-.64-.47,1.44Z"/></g><g><polygon class="cls-5" points="71.98 104.82 68.19 103.85 68.93 101.46 72.97 102.34 71.98 104.82"/><path d="M72.21,105.27l-4.49-1.16,.96-3.1,4.81,1.06-1.28,3.2Zm-3.54-1.69l3.09,.8,.7-1.76-3.27-.72-.53,1.69Z"/></g><g><polygon class="cls-5" points="65.83 103.29 61.98 102.47 62.83 100.21 66.73 101.05 65.83 103.29"/><path d="M66.06,103.72l-4.59-.97,1.12-2.97,4.65,1-1.19,2.95Zm-3.58-1.53l3.12,.66,.62-1.54-3.15-.68-.59,1.55Z"/></g><g><polygon class="cls-5" points="59.59 101.92 56.15 100.97 56.82 98.65 60.53 99.42 59.59 101.92"/><path d="M59.82,102.37l-4.13-1.13,.87-3.03,4.48,.94-1.22,3.23Zm-3.2-1.66l2.74,.75,.67-1.77-2.94-.61-.47,1.63Z"/></g><g><polygon class="cls-5" points="53.75 100.49 50.17 99.5 51.03 97.23 54.6 97.96 53.75 100.49"/><path d="M53.99,100.95l-4.31-1.2,1.11-2.95,4.3,.87-1.1,3.27Zm-3.32-1.7l2.84,.79,.6-1.79-2.84-.58-.6,1.58Z"/></g></g></g><g><path class="cls-3" d="M83.16,70.93l-40.07,47.24-14.12-10s17.98-44.69,40.53-42.08c9.37,1.09,13.66,4.84,13.66,4.84Z"/><path d="M43.19,118.98l-14.96-10.59,.18-.44c.05-.11,4.6-11.36,11.87-22.13,9.84-14.59,19.71-21.43,29.29-20.32,9.45,1.1,13.81,4.82,13.99,4.98l.44,.39-40.81,48.11Zm-13.49-11.02l13.28,9.4,39.31-46.34c-1.33-.94-5.52-3.48-12.87-4.34-20.68-2.41-37.79,36.67-39.73,41.27Z"/></g><polygon points="23.59 115.95 8.9 116.5 24.82 106.2 28.97 108.17 23.59 115.95"/><polygon points="62.49 140.67 82.51 140.67 75.69 133.97 65.52 136.96 62.49 140.67"/><g><path class="cls-2" d="M91.28,107.04c1.38,.54,1.59,2.46-2.63,2.59s-4.96-1.55-1.63-1.94,1.33-1.4,1.33-1.4"/><path d="M88.21,110.23c-2.36,0-3.79-.56-3.86-1.53-.04-.48,.26-1.34,2.61-1.62,.62-.07,.99-.16,1.2-.23-.02-.01-.05-.03-.07-.04l.54-1.07c.25,.12,1.05,.59,.92,1.33-.15,.83-1.32,1.08-2.45,1.21-.81,.1-1.22,.25-1.42,.36,.34,.18,1.21,.44,2.96,.39,2.28-.07,2.89-.67,2.93-.9,.03-.15-.15-.39-.5-.53l.44-1.12c.88,.34,1.38,1.09,1.25,1.85-.12,.67-.8,1.8-4.07,1.9-.16,0-.32,0-.47,0Z"/></g><g><path class="cls-2" d="M100.52,107.67c-1.54,.18-2.64,1.95,1.26,3.06s5.38-.29,2.43-1.45-.6-1.64-.6-1.64"/><path d="M104.26,111.73c-.74,0-1.64-.14-2.65-.43-2.67-.76-3.16-1.83-3.1-2.59,.07-.82,.88-1.51,1.93-1.64l.14,1.19c-.5,.06-.86,.33-.88,.54-.02,.28,.55,.87,2.23,1.34,1.72,.49,2.75,.41,3.13,.29-.14-.13-.44-.35-1.08-.6-.96-.38-1.93-.87-1.86-1.68,.07-.78,1.06-1.04,1.37-1.1l.24,1.18c-.07,.01-.14,.03-.21,.06,.16,.1,.44,.25,.9,.43,1.99,.78,2.03,1.65,1.88,2.09-.21,.61-.95,.92-2.05,.92Z"/></g><g><g><path class="cls-7" d="M49.65,103.66c-7.34-10.47-30.12,1.22-30.12,1.22,0,0,22.03,12.08,29.82,1.26"/><path class="cls-10" d="M39.06,111.22c-2.3,0-4.87-.36-7.68-1.08-6.48-1.67-12.07-4.71-12.13-4.74l-.99-.54,1.01-.52c.06-.03,5.83-2.97,12.44-4.58,8.91-2.17,15.29-.94,18.45,3.55l-.98,.69c-6.07-8.65-23.73-1.22-28.28,.89,4.44,2.19,21.54,9.84,27.98,.89l.97,.7c-2.26,3.15-5.93,4.75-10.78,4.75Z"/></g><g><path class="cls-4" d="M49.65,103.66c-3.48-4.18-18.17,1.07-18.17,1.07,0,0,12.64,5.87,17.87,1.4l.3-2.47Z"/><path class="cls-9" d="M43.73,108.41c-5.66,0-12.13-2.96-12.5-3.14l-1.33-.62,1.38-.49s3.76-1.34,7.87-2.13c5.68-1.09,9.37-.68,10.96,1.24l.17,.2-.36,2.96-.18,.15c-1.57,1.34-3.72,1.83-6.01,1.83Zm-10.55-3.62c3.35,1.32,11.66,4.11,15.6,1.03l.24-1.96c-2.58-2.55-11.23-.52-15.84,.93Z"/></g></g><g><g><path class="cls-13" d="M107.88,118.83l-.24-2.96,.55-.09s3.81-.64,3.95-3.32c0-.07,.01-.28-.27-.58-3.62-3.81-32.56-5.17-58.45-5.17-2.55,0-4.06,.02-4.06,.02h-.68s.45-3.68,.45-3.68h.53c.16,0,15.74,.1,31.74,.9,32.6,1.62,35.1,4.45,35.92,5.38,.45,.51,.5,1.01,.46,1.33-.96,8.08-9,8.17-9.34,8.17h-.57Z"/><path d="M49.65,103.66s68.32,.4,67.54,6.94c-.9,7.56-8.4,7.64-8.74,7.64,0,0-.01,0-.01,0l-.15-1.86s4.29-.67,4.46-3.88c.32-5.93-45.27-6.39-59.32-6.39-2.56,0-4.07,.02-4.07,.02l.3-2.47m-1.06-1.21l-.13,1.06-.3,2.47-.17,1.36h1.37s1.51-.03,4.06-.03c55.98,0,58.11,5.09,58.12,5.14-.12,2.18-3.42,2.74-3.45,2.74l-1.09,.18,.09,1.1,.15,1.86,.09,1.09h1.09s0,.01,0,.01c.4,0,8.94-.1,9.96-8.7,.05-.45,0-1.12-.61-1.8-2.38-2.7-13.93-4.47-36.34-5.59-16.02-.8-31.61-.9-31.77-.9h-1.07Z"/></g><g><path class="cls-8" d="M107.88,118.81l-.23-2.87,.48-.13s.28-.08,.6-.08c.93,0,1.54,.57,1.58,1.49,.03,.55-.19,.9-.38,1.1-.45,.48-1.16,.53-1.44,.53l-.62-.03Z"/><path d="M108.73,116.33c.4,0,.94,.15,.98,.92,.05,.94-.96,1-1.21,1-.04,0-.06,0-.06,0l-.15-1.86s.2-.05,.44-.05m0-1.2c-.38,0-.68,.08-.77,.1l-.95,.27,.08,.99,.15,1.86,.08,1.03,1.04,.07s.05,0,.13,0c.44,0,1.28-.09,1.87-.72,.27-.28,.58-.78,.54-1.54-.06-1.23-.94-2.05-2.18-2.05h0Z"/></g></g><g><polyline class="cls-3" points="69.88 76.01 85.55 97.8 78.47 100.7 64.41 76.47"/><path d="M69.88,76.01c5.3,5.71,11.48,15.1,16.16,21.44,0,0,.44,.62,.44,.62l-.7,.29s-7.09,2.91-7.09,2.91l-.48,.2s-.26-.45-.26-.45c-2.39-4.26-8.32-14-10.44-18.23-1.04-2.1-2.09-4.18-3.1-6.3,2.62,3.79,5.33,7.76,7.55,11.81,0,0,7.03,12.11,7.03,12.11,0,0-.75-.25-.75-.25,0,0,7.09-2.91,7.09-2.91,0,0-.26,.91-.26,.91-4.55-6.48-11.43-15.27-15.19-22.14h0Z"/></g><g><g><polygon class="cls-2" points="80.7 103.91 74.41 99.43 87.95 95.77 88.33 102.67 80.7 103.91"/><path d="M80.56,104.54l-7.52-5.36,15.47-4.18,.46,8.17-8.41,1.37Zm-4.76-4.86l5.05,3.6,6.85-1.12-.32-5.62-11.59,3.13Z"/></g><g><path class="cls-2" d="M87.86,107.68c-5.06-.12-9.12-1.75-8.9-4.7s7.06-2.89,10.15-2.49,7.91,7.41-1.24,7.19Z"/><path d="M88.25,108.29c-.13,0-.27,0-.41,0-3.96-.09-7.07-1.07-8.53-2.68-.7-.78-1.03-1.67-.95-2.66,.05-.7,.38-1.3,.98-1.78,2.12-1.73,7.37-1.58,9.84-1.26,2.06,.27,4.75,3.02,4.57,5.36-.09,1.15-.93,3.04-5.5,3.04Zm-2.37-7.39c-2.26,0-4.69,.29-5.79,1.19-.34,.27-.51,.58-.54,.94-.05,.66,.16,1.24,.64,1.77,1.23,1.35,4.09,2.21,7.67,2.29h0c1.69,.04,4.55-.16,4.68-1.92,.13-1.66-2.03-3.88-3.53-4.07-.87-.11-1.99-.19-3.15-.19Z"/></g><g><path class="cls-2" d="M88.79,102.96c1.61,1.08,2.43,2.95,1.6,4.55"/><path d="M88.79,102.96c1.73,.57,3.47,3.11,2.13,4.83,0,0-1.06-.55-1.06-.55,.46-1.64,.17-2.97-1.07-4.27h0Z"/></g><g><path class="cls-2" d="M86.2,103.42c.86,1.18,1.89,2.95,1.21,4.32"/><path d="M86.2,103.42c1.1,1.19,2.37,2.83,1.75,4.58,0,0-1.07-.53-1.07-.53,.77-1.13-.05-2.9-.67-4.05h0Z"/></g><g><path class="cls-2" d="M83.53,103.61c.76,1.04,1.87,2.49,1.19,3.85"/><path d="M83.53,103.61c1.05,1.04,2.35,2.49,1.73,4.12,0,0-1.07-.53-1.07-.53,.78-1.02-.1-2.55-.65-3.58h0Z"/></g></g><g><g><polygon class="cls-2" points="101.73 104.39 97.43 101.91 108.82 98.01 108.69 104.86 101.73 104.39"/><path d="M109.28,105.5l-7.73-.52-5.57-3.21,13.45-4.61-.16,8.34Zm-7.37-1.7l6.19,.42,.1-5.37-9.33,3.2,3.04,1.75Z"/></g><g><path class="cls-2" d="M104.92,109.27c-3.93-.38-6.55-2.14-5.12-4.84s8.84-2.54,10.92-.21,1.53,5.77-5.79,5.05Z"/><path d="M106.78,109.97c-.58,0-1.21-.03-1.92-.1h0c-2.87-.28-4.96-1.26-5.72-2.69-.34-.63-.59-1.67,.13-3.03,.62-1.17,2.15-1.96,4.29-2.22,2.65-.32,6.11,.22,7.6,1.89,1.18,1.32,1.52,2.83,.91,4.02-.51,1.02-1.86,2.12-5.3,2.12Zm-1.8-1.29c3.23,.32,5.42-.19,6.02-1.37,.37-.73,.09-1.76-.74-2.68-1.04-1.16-3.92-1.82-6.56-1.5-1.72,.21-2.95,.79-3.38,1.59-.39,.73-.43,1.35-.13,1.9,.56,1.05,2.35,1.82,4.78,2.06h0Z"/></g><g><path class="cls-2" d="M102.49,104.85c1.02,.86,1.52,2.94,.16,4"/><path d="M102.49,104.85c1.43,.78,2.05,3.4,.47,4.39,0,0-.62-.79-.62-.79,.98-.97,1-2.48,.15-3.61h0Z"/></g><g><path class="cls-2" d="M105.7,105.69c.72,.84,.89,2.35-.33,3.62"/><path d="M105.7,105.69c1.16,.9,1.13,2.99,.03,3.96,0,0-.72-.69-.72-.69,.83-.88,1.38-2.07,.69-3.27h0Z"/></g><g><path class="cls-2" d="M108.48,105.23c.81,.96,1.26,2.48-.34,4.06"/><path d="M108.48,105.23c1.39,1.07,1.26,3.26,0,4.42,0,0-.7-.71-.7-.71,1.14-.94,1.59-2.39,.69-3.71h0Z"/></g></g><rect class="cls-1" width="140.1" height="183.76"/></g></g></svg>