<?xml version="1.0" encoding="UTF-8"?><svg id="Livello_2" xmlns="http://www.w3.org/2000/svg" viewBox="0 0 140.1 183.76"><defs><style>.cls-1{fill:none;}.cls-2{fill:#68d1e7;}.cls-3{fill:#fff;}.cls-4{fill:#ffe100;}.cls-5{fill:#ffbc61;}.cls-6{fill:#ffd1a5;}.cls-7{fill:#ff925b;}.cls-8{fill:#a38f00;}.cls-9{fill:#8c6239;}.cls-10{fill:#adeaff;}.cls-11{fill:#d54111;}.cls-12{fill:#d59f59;}.cls-13{fill:#4d96ca;}</style></defs><g id="export"><g id="oldStop"><g id="shadow"><polygon points="56.81 94.25 38.12 69.97 40.49 68.14 56.95 89.51 58.16 88.1 38.17 64.99 40.44 63.03 62.13 88.1 56.81 94.25"/><path d="M15.42,126.56l-.53-1.07c-.69-1.41-16.83-34.68-4.93-52.48,5.28-7.89,15.17-11.42,29.43-10.5l.98,.06,19.39,53.62-44.34,10.36Zm19.66-61.19c-10.89,0-18.48,3.12-22.62,9.31-9.82,14.7,1.98,42.6,4.62,48.41l38.71-9.04-17.57-48.6c-1.08-.05-2.13-.08-3.15-.08Z"/><path d="M30.57,78.97l-2.27-14.96-7.28-18.54c-.23,.08-.47,.16-.71,.23-3.1,.83-6.1-.13-6.98-2.24-.36-.87-.32-1.83,.12-2.72,.65-1.32,2.15-2.41,4.01-2.91,.17-.05,.34-.09,.52-.12L8.53,13.68,41.38,.3l.54,1.44s.09,.24,.25,.7c1.85,5.21,10.98,32.57,9.23,59.37l-.07,1.13-10.53,2.28-.03,10.58-10.2,3.16Zm-8.06-37.9l8.73,22.33,1.77,11.68,4.76-1.48,.04-10.79,10.67-2.31c1.33-24.7-6.58-49.66-8.85-56.24L12.41,15.34l9.97,25.39-2.38-.18c-.57-.04-1.18,.02-1.77,.18-1.14,.31-1.87,.89-2.09,1.33-.08,.16-.05,.22-.04,.24,.19,.45,1.63,.98,3.43,.5,.54-.15,1.04-.37,1.43-.64l1.56-1.09Z"/><path d="M32.06,147.35l-8.89-29.85c-2.71-.79-11.01-3.67-12.94-9.57-1.08-3.28-.05-6.82,3.05-10.52l.33-.39,32.01-6.92,6.68,37.89,12.91-3.41-17.38,17.17-3.04-7.49-12.73,13.1ZM15.25,99.72c-2.15,2.7-2.88,5.14-2.18,7.27,1.46,4.45,8.9,7.16,11.65,7.82l.84,.2,7.92,26.57,6.48-6.67-5.65,1.37-.25-36.46,12.34,30.45,2.94-.71-2.28,2.35,1.84,4.54,6.18-6.11-5.19,1.37-6.7-38.03-27.95,6.04Zm21.91,15.74l.12,17.01,6.18-1.5-6.29-15.52Z"/><path d="M15.37,126.57l-.5-1.14c-.69-1.57-16.75-38.72-9.24-55.42,1.66-3.7,4.36-6.18,8.02-7.37,9.19-2.98,15.68-1.44,15.95-1.37l1.1,.27,1.96,61.06-17.28,3.96Zm9.36-62.75c-2.52,0-6.05,.34-10.16,1.67-2.86,.93-4.89,2.81-6.21,5.75-6.27,13.96,6.13,45.45,8.77,51.85l12.44-2.85-1.8-56.23c-.71-.09-1.74-.18-3.04-.18Z"/><path d="M65.35,99.28c-1.66,0-2.98-.73-3.61-2.01l2.69-1.33c.15,.31,.69,.34,.92,.34h0l-1.13-1.88c1.86-1.12,4.32-1.87,5.66-.64,.28,.26,1.15,1.24,.34,2.89-.85,1.73-3.09,2.63-4.88,2.63h0Z"/><path d="M78.68,148.03l-.69-1.3c-.06-.11-5.96-11.17-11.46-23.11-11.33-24.62-9.95-29.02-9.5-30.47,.38-1.23,1.12-1.82,1.66-2.1,2.8-1.43,5.49-1.75,8-.94,4.09,1.32,6.1,5.19,6.18,5.36l.56,1.1-3.93,3.08-.92-1.22c-.08-.11-2.16-2.77-4.22-1.54-.13,.08-3.17,2.21,7.08,24.22,5.38,11.56,11.71,22.75,11.77,22.86l.77,1.36-5.31,2.7Zm-14.75-55.35c-1.13,0-2.42,.29-3.86,1.04-.02,.01-.1,.09-.17,.33-.48,1.54,.14,4.72,1.47,8.88-1.26-5.77-.05-7.71,1.47-8.61,1.85-1.1,3.67-.86,5.16-.14-1-.81-2.36-1.48-4.07-1.48Z"/><path d="M62.92,101.29l-.08-3c-.08,0-.12,.02-.12,.02,.44-.17,1.14-1.28,1.06-1.69,0,.01,.02,.07,.07,.12l2.27-1.96c.78,.91,.88,2.22,.27,3.61-.6,1.37-1.94,2.86-3.46,2.9Z"/><path d="M70.14,92.89l-2.17-2.07c.51-.54,.41-.82,.37-.92-.17-.47-.86-.91-1.34-.96l.35-2.98c1.43,.17,3.2,1.23,3.81,2.92,.29,.79,.53,2.37-1.02,4Z"/><path d="M66.38,93.62c-.33,0-.64-.06-.91-.16-.76-.29-1.24-.93-1.26-1.68,0-.07,0-.14,0-.2l-4.27-1.22,1.15-1.71c.55-.82,2.53-3.47,4.84-3.15,.88,.12,2.07,.71,2.76,2.83,.81,2.48-.08,3.96-.69,4.63-.43,.47-1.04,.66-1.62,.66Z"/><path d="M60.86,95.7l-1.32-.54-10.26-3.83,12.24-10.47,1.07,6.45c.72-.3,1.55-.48,2.38-.27,.75,.18,1.76,.74,2.32,2.33,1.16,3.34-.44,4.86-1.18,5.36-.69,.47-1.61,.41-2.22,.15-.62-.27-1.03-.78-1.13-1.39-.02-.13-.05-.24-.07-.33-.22,.15-.57,.43-1.06,.97-.13,.15-.19,.26-.19,.26l-.56,1.32Zm-5.77-5.41l4.44,1.66c.17-.18,.4-.42,.67-.66l-.78-4.7-4.33,3.7Zm8.57-.19c.24,.07,.55,.21,.85,.47-.03-.08-.05-.16-.07-.22-.11-.33-.22-.42-.22-.42-.09-.02-.31,.05-.56,.17Z"/><path d="M22.3,67.35c3.19,1.58,6.27,3.31,9.36,5.04,5.34,3.98,19.81,14.68,25.36,18.78,0,0,1.53,1.13,1.53,1.13-1.5,1.27-4.79,3.99-6.31,5.27,0,0-.95-.69-.95-.69l-14.06-10.28c-1.95-1.54-5.25-3.57-6.93-5.27-2.11-2.03-4.21-4.09-6.24-6.22,3.9,2.03,8,3.78,11.43,6.5,2.25,1.65,15.04,11,17.58,12.85,0,0-1.85,.06-1.85,.06l3.94-3.29,.07,2.36c-5.6-4.15-19.95-14.76-25.38-18.76-2.55-2.44-5.11-4.89-7.55-7.47h0Z"/><path d="M46.78,98.95l7.64-14.18,3.32,5.63c.56-.54,1.27-1,2.12-1.11,.77-.1,1.91,.05,3,1.34,2.28,2.7,1.35,4.69,.84,5.43-.47,.68-1.34,.96-2.02,.94-.67-.03-1.24-.35-1.56-.89-.07-.11-.13-.21-.18-.28-.15,.22-.38,.61-.64,1.29-.07,.18-.09,.31-.09,.31l-.05,1.43-1.43-.03-10.96,.12Zm7.76-8.07l-2.7,5.02,4.74-.05c.09-.23,.22-.53,.39-.86l-2.42-4.1Zm8.18,3.72s0,0,0,0c0,0,0,0,0,0Zm-2.8-1.97c.23,0,.5,.03,.8,.14-.05-.07-.1-.13-.15-.18-.23-.27-.35-.31-.36-.31-.1,.02-.27,.15-.46,.36,.05,0,.1,0,.16,0Z"/></g><g><polyline class="cls-3" points="39.3 64.01 60.14 88.1 56.88 91.88 39.3 69.05"/><polygon points="56.85 92.83 38.83 69.42 39.78 68.69 56.91 90.93 59.35 88.1 38.85 64.41 39.76 63.62 60.94 88.1 56.85 92.83"/></g><g><ellipse cx="39.54" cy="143.1" rx="2.63" ry="1.06" transform="translate(-108.74 135.85) rotate(-71.76)"/><path d="M38.86,146.22c-.13,0-.24-.02-.33-.05-1.09-.36-1.06-2.11-.57-3.59s1.5-2.9,2.59-2.55c.3,.1,.81,.42,.88,1.5,.04,.61-.07,1.35-.31,2.09-.24,.74-.6,1.4-.99,1.87-.5,.58-.94,.73-1.27,.73Zm1.3-5.01c-.23,.13-.72,.69-1.06,1.75-.35,1.05-.28,1.79-.18,2.04,.23-.13,.72-.69,1.06-1.75,.35-1.05,.28-1.79,.18-2.04Z"/></g><g><ellipse cx="56.56" cy="137.2" rx="2.63" ry="1.06" transform="translate(-91.45 147.96) rotate(-71.76)"/><path d="M55.87,140.31c-.13,0-.24-.02-.33-.05h0c-.3-.1-.81-.42-.88-1.5-.04-.61,.07-1.35,.31-2.09,.24-.74,.6-1.4,.99-1.87,.69-.82,1.3-.78,1.6-.68,.3,.1,.81,.42,.88,1.5,.04,.61-.07,1.35-.31,2.09-.24,.74-.6,1.4-.99,1.87-.5,.58-.95,.73-1.27,.73Zm1.3-5.01c-.23,.13-.72,.69-1.06,1.75-.35,1.05-.28,1.8-.18,2.04,.23-.13,.72-.69,1.06-1.75,.35-1.05,.28-1.8,.18-2.04Z"/></g><g><ellipse cx="62.73" cy="130.67" rx="2.63" ry="1.06" transform="translate(-81.01 149.34) rotate(-71.76)"/><path d="M62.06,133.79c-.11,0-.23-.02-.34-.06h0c-.3-.1-.81-.42-.88-1.5-.04-.61,.07-1.35,.31-2.09,.24-.74,.6-1.4,.99-1.87,.69-.82,1.3-.78,1.6-.68,.3,.1,.81,.42,.88,1.5,.04,.61-.07,1.35-.31,2.09-.44,1.32-1.3,2.6-2.25,2.6Zm1.29-5.01c-.23,.13-.72,.69-1.06,1.75-.35,1.05-.28,1.79-.18,2.04,.23-.13,.72-.69,1.06-1.75,.35-1.05,.28-1.8,.18-2.04Z"/></g><g><path class="cls-3" d="M16.58,124.13c-1.83-3.92-15.1-33.53-5.2-49.43,4.23-6.79,12.2-10.24,23.69-10.24,1.22,0,2.5,.04,3.81,.12l18.11,50.11-40.41,9.44Z"/><path d="M35.07,63.87v1.2c1.09,0,2.22,.03,3.38,.09l17.75,49.1-39.28,9.17c-2.41-5.26-14.46-33.27-5.03-48.41,4.11-6.61,11.91-9.96,23.18-9.96v-1.2m0,0c-48.81,0-18.82,60.96-18.82,60.96l41.54-9.7-18.48-51.11c-1.48-.1-2.89-.14-4.24-.14h0Z"/></g><g><g><path class="cls-6" d="M40.52,2.27l-.77,.31L10.47,14.51l9.64,24.54c-.71-.05-1.49,.01-2.27,.22-2.3,.62-3.7,2.23-3.13,3.6,.57,1.37,2.9,1.98,5.21,1.37,.74-.2,1.38-.5,1.9-.86l7.95,20.23,2.03,13.4,7.48-2.32,.03-10.68,10.6-2.3c1.75-26.69-7.51-54.16-9.15-58.77-.16-.44-.24-.68-.24-.68Z"/><path d="M31.3,77.8l-2.13-14.02-7.66-19.51c-.44,.23-.93,.42-1.44,.56-2.62,.7-5.22-.05-5.91-1.72-.26-.63-.23-1.32,.1-1.98,.54-1.09,1.82-2,3.43-2.43,.51-.14,1.03-.22,1.54-.25L9.69,14.17,40.86,1.48l.22,.58s.09,.24,.25,.68c1.84,5.18,10.92,32.38,9.18,59.01l-.03,.45-10.57,2.29-.04,10.64-8.57,2.66Zm-9.21-35.34l8.26,21.07,1.93,12.71,6.39-1.98,.04-10.73,10.63-2.3c1.6-26.25-7.33-52.97-9.14-58.08-.01-.03-.02-.06-.03-.08L11.24,14.84l9.77,24.88-.95-.07c-.67-.05-1.39,.02-2.07,.2-1.26,.34-2.28,1.03-2.66,1.8-.17,.35-.19,.68-.07,.99,.4,.97,2.31,1.61,4.5,1.02,.64-.17,1.23-.44,1.71-.77l.62-.44Z"/></g><g><path d="M22.35,16.07l.22-.47,2.54,1.17-2.76-.7Zm2.15-2.25l.34-.39,1.82,1.8-2.16-1.41Z"/><path d="M24.81,12.55l-1.21,1.39,7.7,5.02-6.48-6.41h0Zm-2.53,2.26l-.78,1.67,9.79,2.49-9.01-4.15h0Z"/></g><g><path d="M40.21,12.49l.45,.78-2.26,2.04,1.81-2.83Zm-3.4-1.13l.81,.4-1.13,2.83,.32-3.23Z"/><path d="M36.3,10.43l-.82,8.33,2.9-7.3-2.08-1.03h0Zm3.94,.9l-4.76,7.43,5.94-5.38-1.18-2.06h0Z"/></g><g><polygon points="39.07 48.28 23.17 43.35 19.42 46.89 23.53 55.47 27.76 49.54 30.31 53.43 32.43 48.36 35.08 51.11 39.3 48.72 39.07 48.28"/><path d="M23.46,56.2l-4.5-9.4,4.11-3.88,16.26,5.04,.46,.9-4.78,2.71-2.45-2.55-2.17,5.2-2.64-4.03-4.29,6Zm-3.59-9.23l3.72,7.76,4.19-5.86,2.46,3.76,2.07-4.95,2.84,2.96,3.63-2.06-15.51-4.81-3.39,3.2Z"/></g><g><polygon points="40.92 48.26 50.93 38.69 56.45 40.64 58.96 49.14 52.54 45.12 53.43 50.1 48.39 46.25 46.84 49.22 40.92 48.26"/><path d="M53.97,50.99l-5.45-4.17-1.47,2.81-6.93-1.12,10.72-10.25,5.92,2.08,2.84,9.64-6.53-4.1,.91,5.1Zm-5.71-5.3l4.63,3.54-.86-4.87,6.29,3.94-2.17-7.37-5.12-1.8-9.3,8.89,4.9,.79,1.63-3.12Z"/></g><g><g><polygon points="14.26 34.53 20.48 33.61 15.06 36.16 14.26 34.53"/><path d="M16.54,34.8l-1.2,.57-.18-.36,1.38-.2m7.88-2.38l-11.07,1.64,1.43,2.89,9.64-4.53h0Z"/></g><g><polyline class="cls-2" points="47.74 40.46 41.72 42.17 34.31 20.29 40.62 18.97"/><polygon class="cls-13" points="41.33 42.91 33.53 19.84 40.5 18.38 40.75 19.56 35.1 20.74 42.1 41.44 47.58 39.88 47.9 41.03 41.33 42.91"/></g><g><ellipse class="cls-10" cx="44.18" cy="29.71" rx="5.23" ry="11.35" transform="translate(-7.61 17.35) rotate(-20.49)"/><path class="cls-13" d="M47.27,41.1c-3.11,0-6.9-4.31-8.86-10.25-1.45-4.38-1.51-8.51-.17-10.78,.56-.94,1.34-1.52,2.28-1.69,3.21-.59,7.35,3.89,9.44,10.19h0c1.45,4.38,1.51,8.51,.17,10.78-.56,.94-1.34,1.52-2.28,1.69-.19,.03-.38,.05-.58,.05Zm-6.18-21.57c-.12,0-.24,.01-.36,.03-.59,.11-1.08,.49-1.46,1.12-1.16,1.95-1.05,5.8,.27,9.79,2.03,6.13,5.82,9.8,8.09,9.39,.59-.11,1.08-.49,1.46-1.13,1.16-1.95,1.05-5.8-.27-9.79-1.93-5.82-5.44-9.42-7.73-9.42Z"/></g><g><polyline class="cls-6" points="38.03 30.58 44 47.67 39.22 48.45"/><polygon points="39.32 49.04 39.12 47.86 43.19 47.19 37.47 30.78 38.6 30.39 44.8 48.14 39.32 49.04"/></g><g><polyline class="cls-2" points="35.63 42.65 28.65 43.8 22.73 20.63 29.8 20.23"/><polygon class="cls-13" points="28.2 44.49 21.97 20.07 29.77 19.63 29.84 20.82 23.5 21.19 29.1 43.12 35.53 42.06 35.73 43.24 28.2 44.49"/></g><g><ellipse class="cls-10" cx="32.71" cy="31.44" rx="5.45" ry="11.62" transform="translate(-7.71 10.84) rotate(-16.85)"/><path class="cls-13" d="M35.32,43.26c-3.28,0-7.02-4.72-8.66-11.05-1.18-4.53-.95-8.74,.58-10.98,.65-.94,1.51-1.5,2.5-1.61,3.36-.39,7.34,4.46,9.04,11.03h0c1.18,4.53,.95,8.74-.58,10.98-.65,.94-1.51,1.5-2.5,1.61-.13,.01-.25,.02-.38,.02Zm-5.19-22.46c-.09,0-.17,0-.26,.01-.64,.07-1.2,.44-1.65,1.1-1.32,1.93-1.49,5.85-.41,10,1.51,5.8,5.07,10.45,7.75,10.14,.64-.07,1.2-.44,1.65-1.1,1.32-1.93,1.49-5.86,.41-10h0c-1.46-5.62-4.83-10.15-7.49-10.15Z"/></g></g><g><g><path class="cls-12" d="M15.94,19.01c-.1,0-.25-.01-.44-.09-.29-.1-.46-.25-.55-.35,.02,0,.05,0,.08,0,.09,0,.25,.02,.44,.09,.27,.1,.46,.25,.55,.35-.02,0-.05,0-.08,0Z"/><path class="cls-12" d="M15.03,17.97c-.37,0-.66,.14-.73,.39-.11,.39,.34,.89,.99,1.13,.23,.08,.45,.12,.65,.12,.37,0,.66-.14,.73-.39,.11-.39-.34-.89-.99-1.13-.23-.08-.45-.12-.65-.12h0Z"/></g><g><path class="cls-12" d="M17.74,17.45c-.13,0-.29-.06-.42-.15-.19-.14-.27-.3-.29-.4,.01-.08,.05-.1,.13-.1,.13,0,.29,.06,.42,.15,.19,.14,.27,.3,.29,.4-.01,.08-.05,.1-.13,.1Z"/><path class="cls-12" d="M17.17,16.2c-.25,0-.48,.09-.61,.28-.27,.37-.08,.95,.42,1.31,.25,.18,.52,.27,.77,.27s.48-.09,.62-.28c.27-.37,.08-.95-.42-1.31-.25-.18-.52-.27-.77-.27h0Z"/></g><g><path class="cls-12" d="M14.3,16.51c-.11-.04-.2-.2-.15-.35,.02-.08,.08-.14,.14-.14,.16,.05,.24,.21,.2,.36-.02,.08-.08,.14-.14,.14-.01,0-.03,0-.05,0Z"/><path class="cls-12" d="M14.29,15.41c-.33,0-.62,.22-.72,.58-.12,.45,.11,.93,.53,1.08,.08,.03,.17,.04,.25,.04,.33,0,.62-.22,.72-.58,.12-.45-.11-.93-.53-1.08-.08-.03-.17-.04-.25-.04h0Z"/></g></g></g><g><path class="cls-3" d="M44.41,91.88l-30.74,6.64s-10.64-14.42-5.6-27.54c4.11-10.68,21.17-8.26,21.17-8.26l6.44,9.77,2.86-6.92,5.88,26.3Z"/><path d="M13.41,99.19l-.23-.31c-.11-.15-2.73-3.73-4.77-8.99-2.71-7-3.03-13.62-.91-19.12,4.23-11,21.1-8.74,21.81-8.64l.27,.04,5.96,9.05,3.15-7.63,6.43,28.75-31.71,6.85Zm11.82-36.09c-5.16,0-13.92,1.09-16.61,8.1-4.46,11.61,3.82,24.49,5.3,26.65l29.76-6.43-5.33-23.86-2.56,6.21-6.91-10.48c-.54-.06-1.89-.19-3.65-.19Z"/></g><g><path d="M37.44,85.46l1.17-4.29,2.09,1.63,1.03,11.84-4.29-9.19Zm-.98-7.47l.54-2.32,1.45,1.48-.54,1.97-1.46-1.13Z"/><path d="M37.34,76.86l.45,.46-.21,.77-.44-.34,.2-.88m1.61,5.34l1.18,.92,.71,8.2-2.76-5.91,.87-3.2m-2.28-7.74l-.87,3.77,2.47,1.92,.86-3.17-2.46-2.51h0Zm1.6,5.69l-1.46,5.37,5.82,12.46-1.35-15.48-3.01-2.35h0Z"/></g><g><g><path class="cls-9" d="M44.41,91.88l6.69,37.96,9.05-2.39-11.78,11.64-12.75-31.45,.18,26.74,8.86-2.15-11.89,12.23-8.4-28.2s-20.73-5.03-9.94-17.9l29.98-6.48Z"/><path d="M32.48,145.62l-8.59-28.86c-1.89-.51-10.87-3.22-12.81-9.12-.97-2.97,0-6.22,2.89-9.66l.13-.16,30.79-6.66,6.69,37.93,10.59-2.8-14.02,13.85-3.05-7.52-12.62,12.99ZM14.75,98.91c-2.5,3.05-3.36,5.86-2.54,8.36,1.91,5.83,12.19,8.39,12.29,8.42l.33,.08,8.21,27.55,9.73-10.01-7.57,1.83-.21-30.63,10.87,26.81,.67-.16-.52,.53,2.57,6.34,9.54-9.43-7.5,1.98-6.7-37.99-29.17,6.31Zm21.48,11.86l.15,22.85,8.29-2.01-8.45-20.84Z"/></g><g><g><polygon class="cls-5" points="47.01 96.03 42.9 96.76 42.09 94.59 45.89 93.75 47.01 96.03"/><path d="M42.66,97.18l-1.07-2.86,4.51-1,1.47,2.99-4.91,.88Zm-.07-2.32l.55,1.47,3.31-.59-.77-1.57-3.09,.69Z"/></g><g><polygon class="cls-5" points="40.69 97.49 36.73 98.18 35.79 95.77 39.9 94.89 40.69 97.49"/><path d="M36.5,98.6l-1.22-3.11,4.88-1.04,1.01,3.33-4.67,.82Zm-.2-2.56l.67,1.71,3.23-.57-.57-1.86-3.34,.71Z"/></g><g><polygon class="cls-5" points="34.3 98.65 30.4 99.51 29.64 97.17 33.6 96.31 34.3 98.65"/><path d="M30.15,99.95l-1-3.06,4.7-1.02,.93,3.06-4.63,1.02Zm-.03-2.5l.53,1.62,3.17-.7-.49-1.62-3.21,.7Z"/></g><g><polygon class="cls-5" points="27.96 100 24.34 100.58 23.37 98.26 27.12 97.42 27.96 100"/><path d="M24.1,101l-1.25-3.01,4.52-1.01,1.08,3.33-4.35,.69Zm-.22-2.47l.68,1.64,2.9-.46-.6-1.84-2.98,.67Z"/></g><g><polygon class="cls-5" points="21.92 101.14 18.14 101.73 17.38 99.39 20.97 98.56 21.92 101.14"/><path d="M17.89,102.15l-.99-3.04,4.32-.99,1.21,3.32-4.54,.71Zm-.02-2.49l.54,1.65,3.01-.47-.67-1.84-2.87,.66Z"/></g></g></g><g><path class="cls-3" d="M29.23,62.72l1.88,58.69-14.87,3.41s-23.52-53.82-2.14-60.76c8.89-2.89,15.12-1.34,15.12-1.34Z"/><path d="M15.89,125.52l-.2-.46c-.04-.1-4.2-9.65-7.4-21.07-4.32-15.42-4.94-26.73-1.85-33.62,1.56-3.46,4.07-5.78,7.48-6.88,8.95-2.9,15.19-1.42,15.45-1.35l.44,.11,1.91,59.64-15.83,3.63Zm8.83-62.61c-2.6,0-6.22,.35-10.43,1.72-3.07,1-5.34,3.09-6.75,6.23-6.7,14.91,7.22,48.92,9.06,53.26l13.9-3.19-1.85-57.72c-.66-.11-2.02-.3-3.92-.3Z"/></g><polygon points="32.77 144.47 44.65 132.23 35.8 134.38 31.77 141.12 32.77 144.47"/><polygon points="51.1 129.84 60.14 127.45 48.37 139.09 47.08 135.92 51.1 129.84"/><g><polyline class="cls-4" points="27.76 142.22 25.03 137.88 25.11 141.92 19.82 139.93 22.87 143.93 19.82 145.51 26.2 146.37"/><polygon class="cls-8" points="26.15 146.75 18.6 145.73 22.3 143.81 18.74 139.13 24.73 141.38 24.63 136.54 28.08 142.02 27.45 142.42 25.44 139.22 25.5 142.47 20.91 140.74 23.44 144.06 21.05 145.3 26.25 146 26.15 146.75"/></g><g><polyline class="cls-4" points="74.55 145.06 71.82 140.72 71.9 144.76 66.61 142.77 69.66 146.77 66.61 148.35 72.99 149.21"/><polygon class="cls-8" points="72.94 149.58 65.38 148.56 69.09 146.64 65.52 141.96 71.52 144.21 71.42 139.37 74.87 144.86 74.23 145.26 72.23 142.06 72.29 145.31 67.7 143.58 70.22 146.9 67.84 148.13 73.04 148.84 72.94 149.58"/></g><g><ellipse cx="45.71" cy="136.57" rx="2.63" ry="1.06" transform="translate(-98.3 137.23) rotate(-71.76)"/><path d="M45.03,139.69c-.13,0-.24-.02-.33-.05-.3-.1-.81-.42-.88-1.5-.04-.61,.07-1.35,.31-2.09,.49-1.48,1.5-2.91,2.59-2.55,.3,.1,.81,.42,.89,1.5,.04,.61-.07,1.35-.31,2.09-.24,.74-.6,1.4-.99,1.87-.5,.58-.94,.73-1.27,.73Zm1.3-5.01c-.23,.13-.72,.69-1.06,1.75-.35,1.05-.28,1.8-.18,2.04,.23-.13,.72-.69,1.06-1.75,.35-1.05,.28-1.79,.18-2.04Z"/></g><g><g><path class="cls-2" d="M63.09,96.6c1.01,2.05,4.94,1.14,5.8-.62s-1.46-1.76-3.89-.31"/><path d="M65.35,98.38c-1.31,0-2.33-.55-2.8-1.51l1.08-.53c.36,.73,1.23,.84,1.73,.84h0c1.24,0,2.61-.67,2.99-1.46,.15-.31,.12-.42,.12-.43-.17-.17-1.4-.16-3.16,.9l-.62-1.03c1.63-.98,3.68-1.58,4.59-.74,.27,.25,.64,.81,.14,1.83-.59,1.21-2.34,2.13-4.07,2.13h0Z"/></g><g><g><path class="cls-11" d="M78.78,146.31c-.96-1.8-23.59-44.27-20.89-52.89,.23-.75,.64-1.27,1.22-1.57,1.65-.85,3.27-1.27,4.81-1.27,5.4,0,8.05,5.09,8.16,5.3l.22,.44-2.62,2.05-.37-.49s-1.72-2.23-3.8-2.23c-.54,0-1.08,.15-1.59,.46-4.82,2.87,8.8,31.14,18.52,48.29l.31,.55-3.68,1.87-.28-.52Z"/><path d="M63.91,91.17c5.09,0,7.62,4.98,7.62,4.98l-1.75,1.37s-1.86-2.47-4.28-2.47c-.61,0-1.25,.16-1.9,.54-7.12,4.23,18.31,49.1,18.31,49.1l-2.6,1.32s-26.8-50.12-19.93-53.64c1.69-.87,3.2-1.21,4.53-1.21m0-1.2c-1.64,0-3.35,.45-5.08,1.34-.72,.37-1.23,1.02-1.52,1.92-2.72,8.71,18.51,48.81,20.94,53.35l.55,1.04,1.05-.53,2.6-1.32,1.12-.57-.62-1.09c-.06-.11-6.4-11.32-11.79-22.89-9.97-21.42-7.54-24.24-6.95-24.59,.43-.25,.85-.38,1.29-.38,1.47,0,2.9,1.44,3.32,2l.74,.96,.96-.74,1.75-1.37,.78-.61-.45-.88c-.12-.23-2.93-5.63-8.69-5.63h0Z"/></g><g><path class="cls-7" d="M69.35,97.94c-.07-.07-.69-.73-.62-1.59,.03-.35,.19-.87,.79-1.31,.31-.23,.63-.35,.96-.35,1.02,0,1.54,1.09,1.59,1.21l.19,.43-2.55,1.99-.38-.39Z"/><path d="M70.48,95.29c.66,0,1.05,.86,1.05,.86l-1.75,1.37s-1.09-1.12,.1-2c.22-.16,.42-.23,.61-.23m0-1.2c-.46,0-.9,.16-1.32,.46-.79,.58-1,1.27-1.04,1.75-.09,1.09,.64,1.9,.79,2.05l.75,.77,.85-.66,1.75-1.37,.74-.58-.38-.86c-.32-.72-1.08-1.56-2.14-1.56h0Z"/></g></g><g><path class="cls-2" d="M64.97,95.76c1.03,1.2-.83,4-2.1,4.03s-.08-3.84,2.1-4.03Z"/><path d="M62.86,100.39c-.48,0-1.05-.31-1.1-1.2-.09-1.47,1.23-3.86,3.16-4.03l.31-.03,.2,.23c.55,.63,.59,1.6,.13,2.66-.49,1.12-1.6,2.33-2.66,2.36-.01,0-.02,0-.03,0Zm1.79-3.95c-.48,.19-.95,.64-1.29,1.28-.37,.67-.43,1.22-.4,1.45,.43-.11,1.12-.79,1.5-1.63,.19-.43,.26-.82,.2-1.1Z"/></g><g><g><path class="cls-2" d="M68.61,92.59c-.56,0-.97-.26-1.08-.67l-.04-.14c-.11-.46-.37-1.52-.78-1.58-.34-.05-.62-.25-.76-.55-.12-.26-.11-.56,.03-.81l.79-2.02,.46,.05c1.13,.13,2.59,1,3.07,2.33,.37,1.03,.08,2.12-.83,3.08-.26,.28-.66,.32-.88,.32Z"/><path d="M67.17,87.45c1.66,.2,3.94,2.23,1.88,4.4-.08,.09-.26,.13-.44,.13-.23,0-.46-.07-.49-.22-.18-.72-.45-2.05-1.32-2.17-.25-.03-.4-.29-.26-.51l.64-1.64m-.78-1.3l-.34,.86-.61,1.56c-.21,.41-.22,.89-.03,1.31,.21,.46,.62,.78,1.11,.88,.17,.22,.33,.89,.39,1.15l.04,.15c.17,.69,.82,1.13,1.66,1.13,.31,0,.89-.07,1.31-.5,1.44-1.52,1.22-2.97,.96-3.69-.57-1.58-2.23-2.57-3.57-2.73l-.92-.11h0Z"/></g><g><path class="cls-2" d="M66.38,92.72c-.72,0-1.26-.4-1.27-.96-.01-.74-.08-1.17-.14-1.41-.02,.03-.32,.42-.32,.42l-3.28-.94,.46-.69c.19-.28,1.92-2.78,3.71-2.78,.71,0,1.69,.39,2.29,2.24,.49,1.52,.32,2.84-.5,3.74-.21,.23-.55,.36-.96,.36Z"/><path d="M65.54,86.98c.66,0,1.28,.47,1.72,1.83,.47,1.44,.23,2.49-.37,3.15-.1,.11-.3,.17-.51,.17-.32,0-.66-.13-.67-.37-.02-.92-.14-2.18-.63-2.18-.17,0-.39,.15-.66,.51l-2.09-.6s1.69-2.51,3.21-2.51m0-1.2h0c-2.05,0-3.86,2.53-4.2,3.04l-.92,1.37,1.59,.45,2.09,.6,.41,.12c0,.13,.01,.27,.02,.42,.02,.9,.8,1.55,1.87,1.55,.57,0,1.07-.2,1.4-.56,.56-.62,1.38-2,.62-4.33-.71-2.19-1.95-2.65-2.87-2.65h0Z"/></g><g><path class="cls-2" d="M60.46,83.72l1.01,6.08s3.29-3.1,4.38,.05c.73,2.12,.11,3.15-.6,3.63-.27,.18-.98,.08-1.03-.24-.18-1.14-.9-3.21-3.72-.14-.32,.35-.45,.64-.45,.64l-7.88-2.94,8.29-7.09Z"/><path d="M60.37,94.5l-.53-.19-8.83-3.3,9.87-8.44,1.02,6.13c.73-.5,1.82-1.05,2.84-.8,.53,.13,1.26,.54,1.68,1.76,.92,2.65-.13,3.85-.83,4.32-.38,.26-.98,.23-1.36,.06-.33-.14-.55-.4-.6-.71-.11-.68-.34-1.15-.6-1.23-.3-.09-1.01,.23-2.09,1.4-.24,.26-.34,.48-.34,.48l-.23,.51Zm-7.03-3.9l6.46,2.41c.07-.1,.16-.2,.26-.31,1.32-1.44,2.41-2.01,3.32-1.74,.71,.21,1.19,.91,1.4,2.01,.06,0,.13,.01,.17,0,.89-.61,.68-1.92,.33-2.91-.3-.85-.7-.95-.83-.98-.86-.21-2.18,.8-2.57,1.17l-.82,.77-1.02-6.14-6.7,5.73Z"/></g></g><g><polyline class="cls-3" points="22.3 67.35 56.12 92.37 53.87 96.9 24.05 75.1"/><path d="M22.3,67.35c10.18,6.27,24.38,17.44,34.18,24.54,0,0,.4,.3,.4,.3-.38,.78-2.42,4.87-2.79,5.62-8.96-6.65-21.72-15.46-30.04-22.7,9.13,5.54,21.4,14.98,30.17,21.31,0,0-.89,.22-.89,.22l2.25-4.53,.18,.75c-9.7-7.33-24.44-17.57-33.46-25.51h0Z"/></g><g><g><path class="cls-2" d="M64.75,93.26c-.31,0-.56-.12-.72-.35l-.08-.12c-.27-.39-.83-1.2-1.24-1.2l-.07,.02-.23,.02c-.29,0-.56-.13-.74-.35-.16-.19-.22-.44-.19-.69v-2.17s.46-.12,.46-.12c.27-.07,.57-.1,.88-.1,1.26,0,2.45,.57,3.04,1.44,.37,.56,.7,1.52,.13,2.9-.18,.44-.78,.72-1.23,.72Z"/><path d="M62.81,88.8c1.6,0,3.6,1.13,2.61,3.51-.07,.18-.42,.35-.67,.35-.1,0-.19-.03-.23-.09-.39-.55-1.04-1.57-1.81-1.57-.07,0-.13,0-.2,.02-.03,0-.06,.01-.09,.01-.21,0-.38-.17-.33-.39v-1.76c.23-.06,.48-.09,.73-.09m0-1.2c-.36,0-.71,.04-1.03,.12l-.9,.23v.93s0,1.67,0,1.67c-.04,.4,.07,.79,.32,1.1,.29,.37,.74,.58,1.21,.58,.09,0,.18,0,.26-.02,.24,.15,.63,.71,.78,.93l.09,.12c.27,.38,.71,.6,1.21,.6,.65,0,1.49-.38,1.78-1.09,.67-1.63,.27-2.78-.19-3.46-.84-1.26-2.38-1.71-3.53-1.71h0Z"/></g><g><path class="cls-2" d="M62.64,94.2c-.44,0-.78-.21-.92-.56-.28-.69-.5-1.06-.64-1.26-.01,.03-.14,.5-.14,.5l-3.4,.31,.18-.81c.09-.41,.98-4.05,3.13-4.05,.76,0,1.52,.47,2.27,1.39,1.01,1.24,1.32,2.54,.88,3.67-.2,.52-.85,.8-1.36,.8Z"/><path d="M60.85,88.94c.52,0,1.12,.32,1.81,1.17,.96,1.18,1.11,2.24,.79,3.07-.09,.24-.49,.42-.8,.42-.17,0-.32-.05-.37-.18-.32-.79-.83-1.82-1.27-1.82-.2,0-.38,.21-.53,.73l-2.16,.2s.82-3.59,2.54-3.59m0-1.2c-2.56,0-3.54,3.76-3.71,4.52l-.37,1.61,1.65-.15,2.16-.2,.42-.04c.05,.11,.11,.24,.17,.39,.23,.57,.8,.93,1.48,.93,.73,0,1.62-.41,1.92-1.19,.3-.78,.57-2.36-.98-4.27-.87-1.07-1.79-1.61-2.74-1.61h0Z"/></g><g><path class="cls-2" d="M54.48,87.82l3.14,5.31s1.95-4.07,4.11-1.53c1.45,1.71,1.24,2.9,.75,3.6-.19,.27-.88,.43-1.05,.14-.58-1-2-2.67-3.52,1.21-.17,.45-.19,.76-.19,.76l-8.41,.1,5.17-9.6Z"/><path d="M48.3,98.03l6.16-11.43,3.16,5.35c.5-.73,1.32-1.63,2.36-1.77,.54-.07,1.37,.05,2.2,1.03,1.81,2.14,1.27,3.63,.78,4.33-.27,.38-.81,.57-1.24,.55-.36-.01-.66-.18-.81-.45-.35-.6-.74-.95-1-.93-.32,.02-.86,.58-1.44,2.06-.13,.33-.14,.57-.14,.57l-.03,.56h-.56s-9.43,.12-9.43,.12Zm6.21-8.99l-4.19,7.77,6.9-.08c.03-.12,.07-.25,.13-.39,.71-1.82,1.52-2.74,2.47-2.82,.74-.06,1.44,.41,2.03,1.37,.06-.01,.13-.04,.16-.06,.61-.89-.06-2.04-.74-2.84-.58-.69-.99-.64-1.13-.62-.87,.11-1.74,1.53-1.98,2.02l-.49,1.01-3.17-5.36Z"/></g></g></g><rect class="cls-1" width="140.1" height="183.76"/></g></g></svg>