<?xml version="1.0" encoding="UTF-8"?><svg id="Livello_2" xmlns="http://www.w3.org/2000/svg" viewBox="0 0 175.3 75.93"><defs><style>.cls-1{stroke-width:2px;}.cls-1,.cls-2{stroke-miterlimit:10;}.cls-1,.cls-2,.cls-3{fill:none;stroke:#68d1e7;}.cls-2,.cls-3{stroke-width:4px;}.cls-3{stroke-linejoin:bevel;}</style></defs><g id="movingDisappearingPlatforms"><g><g><path class="cls-3" d="M82.56,51.64c.97,10.51,.24,20.44,5.81,20.44s4.12-20.44,4.12-20.44"/><path class="cls-2" d="M78.24,66.75s-19.37,14.43-20.83,2.37c-1.45-12.06,20.83-2.37,20.83-2.37Z"/><path class="cls-2" d="M97.06,69.04s19.37-14.43,20.83-2.37c1.45,12.06-20.83,2.37-20.83,2.37Z"/></g><g><polyline class="cls-3" points="2 21.63 7.09 54.08 168.74 51.53 173.3 19.61"/><path class="cls-3" d="M86.98,41.15C41.61,40.04-4.81,32.36,2.83,18.59,10.47,4.82,50.29-2.13,124.66,4.59c74.44,6.72,50.39,27.49,13.99,33.19-16.1,2.52-28.82,3.93-51.66,3.37Z"/><ellipse class="cls-1" cx="87.65" cy="20.65" rx="61.61" ry="10.69" transform="translate(-.43 1.94) rotate(-1.26)"/></g></g></g></svg>