<?xml version="1.0" encoding="UTF-8"?><svg id="Livello_2" xmlns="http://www.w3.org/2000/svg" xmlns:xlink="http://www.w3.org/1999/xlink" viewBox="0 0 174.35 74.89"><defs><style>.cls-1,.cls-2,.cls-3{fill:none;}.cls-2{stroke-width:7.2px;}.cls-2,.cls-4,.cls-5,.cls-6{stroke:#000;}.cls-4{fill:url(#Nuovo_campione_pattern_4);}.cls-4,.cls-5,.cls-6{stroke-linejoin:bevel;stroke-width:3px;}.cls-5{fill:#dddafd;}.cls-6{fill:#8d8ba1;}.cls-3{stroke:#8d8ba1;stroke-miterlimit:10;stroke-width:2px;}</style><pattern id="Nuovo_campione_pattern_4" x="0" y="0" width="72" height="72" patternTransform="translate(16189.56 -6792.22) rotate(-45) scale(2.28)" patternUnits="userSpaceOnUse" viewBox="0 0 72 72"><g><rect class="cls-1" width="72" height="72"/><g><line class="cls-2" x1="71.75" y1="66" x2="144.25" y2="66"/><line class="cls-2" x1="71.75" y1="42" x2="144.25" y2="42"/><line class="cls-2" x1="71.75" y1="18" x2="144.25" y2="18"/><line class="cls-2" x1="71.75" y1="54" x2="144.25" y2="54"/><line class="cls-2" x1="71.75" y1="30" x2="144.25" y2="30"/><line class="cls-2" x1="71.75" y1="6" x2="144.25" y2="6"/></g><g><line class="cls-2" x1="-.25" y1="66" x2="72.25" y2="66"/><line class="cls-2" x1="-.25" y1="42" x2="72.25" y2="42"/><line class="cls-2" x1="-.25" y1="18" x2="72.25" y2="18"/><line class="cls-2" x1="-.25" y1="54" x2="72.25" y2="54"/><line class="cls-2" x1="-.25" y1="30" x2="72.25" y2="30"/><line class="cls-2" x1="-.25" y1="6" x2="72.25" y2="6"/></g><g><line class="cls-2" x1="-72.25" y1="66" x2=".25" y2="66"/><line class="cls-2" x1="-72.25" y1="42" x2=".25" y2="42"/><line class="cls-2" x1="-72.25" y1="18" x2=".25" y2="18"/><line class="cls-2" x1="-72.25" y1="54" x2=".25" y2="54"/><line class="cls-2" x1="-72.25" y1="30" x2=".25" y2="30"/><line class="cls-2" x1="-72.25" y1="6" x2=".25" y2="6"/></g></g></pattern></defs><g id="movingDisappearingPlatforms"><g id="movingDisappearing5ON"><rect class="cls-1" width="174.29" height="74.89"/><polygon class="cls-6" points="1.55 21.16 6.65 53.6 168.29 51.05 172.85 19.14 1.55 21.16"/><polygon class="cls-4" points="1.55 21.16 6.65 53.6 168.29 51.05 172.85 19.14 1.55 21.16"/><path class="cls-5" d="m86.54,40.67C41.16,39.57-5.26,31.88,2.38,18.12,10.02,4.35,49.84-2.6,124.21,4.11c74.44,6.72,50.39,27.49,13.99,33.19-16.1,2.52-28.82,3.93-51.66,3.37Z"/><ellipse class="cls-3" cx="87.2" cy="20.17" rx="61.61" ry="10.69" transform="translate(-.42 1.93) rotate(-1.26)"/></g></g></svg>