<?xml version="1.0" encoding="UTF-8"?><svg id="Livello_2" xmlns="http://www.w3.org/2000/svg" viewBox="0 0 51.27 68.87"><defs><style>.cls-1{fill:#ffe100;}.cls-2,.cls-3,.cls-4,.cls-5,.cls-6{stroke-linejoin:bevel;}.cls-2,.cls-3,.cls-4,.cls-5,.cls-7{stroke-width:3px;}.cls-2,.cls-3,.cls-6{fill:none;}.cls-2,.cls-4,.cls-6,.cls-7{stroke:#000;}.cls-3{stroke:#ffe100;}.cls-4{fill:#60a328;}.cls-5{fill:#b8b8cc;stroke:#5c5c66;}.cls-6{stroke-width:2px;}.cls-7{fill:#fb64ff;stroke-miterlimit:10;}</style></defs><g id="collectible"><g><g><polygon class="cls-4" points="7.75 17.03 .15 63.82 35.96 67.38 37.79 58.52 49.44 52.94 51.17 19.9 7.75 17.03"/><polyline class="cls-3" points="15.33 43.57 21.3 51.28 20.4 58.97"/><polyline class="cls-3" points="10.18 45.66 15.33 52.55 14.56 58.65"/><polyline class="cls-3" points="25.66 29.45 43.89 31.54 43.44 39.17"/><polyline class="cls-3" points="40.4 57.27 36.92 51.78 37.47 45.3"/><polyline class="cls-3" points="44.08 55.51 41.32 51.27 41.58 45.66"/><line class="cls-3" x1="33.04" y1="44.85" x2="30.6" y2="66.84"/><line class="cls-3" x1="28.6" y1="25.77" x2="50.59" y2="28.21"/><polygon class="cls-2" points="7.75 17.03 .15 63.82 35.96 67.38 37.79 58.52 49.44 52.94 51.17 19.9 7.75 17.03"/><polygon class="cls-5" points="26.61 46.97 44.42 47.58 44.61 38.53 28.61 37.47 26.61 46.97"/><circle class="cls-1" cx="14.54" cy="59.95" r="2.2"/><circle class="cls-1" cx="20.2" cy="60.53" r="2.2"/></g><g><polygon class="cls-7" points="5.16 65.08 3.18 29.42 29.96 3.51 30.28 40.77 5.16 65.08"/><polygon class="cls-2" points="5.16 65.08 3.18 29.42 29.96 3.51 30.28 40.77 5.16 65.08"/><polygon class="cls-6" points="5.16 65.08 9.21 37.3 29.96 3.51 22.83 41.69 5.16 65.08"/><polyline class="cls-6" points="3.18 29.42 9.21 37.3 22.83 41.69 30.28 40.77"/></g></g></g></svg>