<?xml version="1.0" encoding="UTF-8"?><svg id="Livello_2" xmlns="http://www.w3.org/2000/svg" viewBox="0 0 47.91 47.91"><defs><style>.cls-1{fill:#ffe000;}.cls-2{fill:#fff;}</style></defs><g id="accessibility_icons"><g id="ACC0"><g><path class="cls-1" d="m23.96,45.42c-11.83,0-21.46-9.63-21.46-21.46S12.13,2.5,23.96,2.5s21.46,9.63,21.46,21.46-9.63,21.46-21.46,21.46Z"/><path class="cls-2" d="m23.96,5c10.47,0,18.96,8.49,18.96,18.96s-8.49,18.96-18.96,18.96S5,34.43,5,23.96,13.49,5,23.96,5m0-5C10.75,0,0,10.75,0,23.96s10.75,23.96,23.96,23.96,23.96-10.75,23.96-23.96S37.17,0,23.96,0h0Z"/></g><g><path class="cls-1" d="m23.96,44.42c-11.28,0-20.46-9.18-20.46-20.46S12.68,3.5,23.96,3.5s20.46,9.18,20.46,20.46-9.18,20.46-20.46,20.46Z"/><path d="m23.96,5c10.47,0,18.96,8.49,18.96,18.96s-8.49,18.96-18.96,18.96S5,34.43,5,23.96,13.49,5,23.96,5m0-3C11.85,2,2,11.85,2,23.96s9.85,21.96,21.96,21.96,21.96-9.85,21.96-21.96S36.06,2,23.96,2h0Z"/></g></g></g></svg>