<?xml version="1.0" encoding="UTF-8"?><svg id="Livello_2" xmlns="http://www.w3.org/2000/svg" viewBox="0 0 44.91 47.08"><defs><style>.cls-1{fill:#fff;}.cls-2{fill:#ff4842;}</style></defs><g id="accessibility_icons"><g id="ACC1"><g><path class="cls-2" d="m21.28,43.62c-.77-.41-18.78-10.2-18.78-27.1C2.5,6.89,8.35,2.5,13.79,2.5c3.83,0,6.74,1.86,8.62,4.54,2.15-3,5.45-4.54,8.72-4.54,5.44,0,11.29,4.39,11.29,14.02,0,16.9-18.01,26.69-18.78,27.1l-1.18.63-1.18-.63Z"/><path class="cls-1" d="m31.12,5c4.38,0,8.79,3.69,8.79,11.52,0,15.59-17.46,24.89-17.46,24.89,0,0-17.46-9.3-17.46-24.89,0-7.83,4.4-11.52,8.79-11.52,4.34,0,8.67,3.62,8.67,10.43,0-6.81,4.32-10.43,8.67-10.43M31.12,0C28.08,0,24.96,1.14,22.47,3.33,20.06,1.2,16.97,0,13.79,0h0c-3.73,0-7.31,1.66-9.82,4.55C1.37,7.55,0,11.69,0,16.52c0,18.38,19.28,28.87,20.1,29.3l2.35,1.25,2.35-1.25c.82-.44,20.1-10.92,20.1-29.3,0-4.84-1.37-8.98-3.97-11.97C38.43,1.66,34.85,0,31.12,0h0Z"/></g><g><path class="cls-2" d="m21.75,42.74c-.19-.1-4.61-2.48-9.07-6.85C6.67,30.01,3.5,23.31,3.5,16.52,3.5,7.58,8.83,3.5,13.79,3.5c3.38,0,6.78,1.83,8.67,5.38,1.89-3.55,5.29-5.38,8.67-5.38,4.96,0,10.29,4.08,10.29,13.02,0,6.79-3.17,13.48-9.18,19.37-4.47,4.37-8.89,6.75-9.07,6.85l-.71.38-.71-.38Z"/><path d="m31.12,5c4.38,0,8.79,3.69,8.79,11.52,0,15.59-17.46,24.89-17.46,24.89,0,0-17.46-9.3-17.46-24.89,0-7.83,4.4-11.52,8.79-11.52,4.34,0,8.67,3.62,8.67,10.43,0-6.81,4.32-10.43,8.67-10.43m0-3c-3.06,0-6.03,1.32-8.16,3.63-.17.19-.34.38-.5.58-.16-.2-.33-.39-.5-.58-2.13-2.3-5.11-3.63-8.16-3.63h0c-3.2,0-6.15,1.37-8.3,3.86-2.28,2.63-3.48,6.32-3.48,10.66,0,7.2,3.33,14.27,9.63,20.44,4.62,4.52,9.22,7,9.42,7.1l1.41.75,1.41-.75c.19-.1,4.8-2.58,9.42-7.1,6.3-6.17,9.63-13.24,9.63-20.44,0-9.98-6.11-14.52-11.79-14.52h0Z"/></g></g></g></svg>