<?xml version="1.0" encoding="UTF-8"?><svg id="Livello_2" xmlns="http://www.w3.org/2000/svg" viewBox="0 0 32.74 56.71"><defs><style>.cls-1{fill:#fff;}.cls-2{fill:#93ff3e;}</style></defs><g id="accessibility_icons"><g id="ACC2"><g><polygon class="cls-2" points="2.89 28.35 16.37 5 29.85 28.35 16.37 51.7 2.89 28.35"/><path class="cls-1" d="m16.37,10l10.6,18.35-10.6,18.35L5.77,28.35l10.6-18.35m0-10l-4.33,7.5L1.44,25.85l-1.44,2.5,1.44,2.5,10.6,18.35,4.33,7.5,4.33-7.5,10.6-18.35,1.44-2.5-1.44-2.5L20.7,7.5,16.37,0h0Z"/></g><g><polygon class="cls-2" points="4.04 28.35 16.37 7 28.7 28.35 16.37 49.7 4.04 28.35"/><path d="m16.37,10l10.6,18.35-10.6,18.35L5.77,28.35l10.6-18.35m0-6l-2.6,4.5L3.18,26.85l-.87,1.5.87,1.5,10.6,18.35,2.6,4.5,2.6-4.5,10.6-18.35.87-1.5-.87-1.5-10.6-18.35-2.6-4.5h0Z"/></g></g></g></svg>