<?xml version="1.0" encoding="UTF-8"?><svg id="Livello_2" xmlns="http://www.w3.org/2000/svg" viewBox="0 0 49.5 48.31"><defs><style>.cls-1{fill:#fff;}.cls-2{fill:#c46dff;}</style></defs><g id="accessibility_icons"><g id="ACC3"><g><path class="cls-2" d="m24.75,45.81c-5.21,0-9.51-3.94-10.08-9-.67.14-1.35.21-2.03.21-4.4,0-8.28-2.82-9.64-7.01-.84-2.58-.62-5.32.61-7.74,1.06-2.07,2.75-3.68,4.84-4.63-1.13-1.99-1.56-4.29-1.19-6.59.42-2.67,1.86-5.02,4.05-6.62,1.74-1.27,3.8-1.94,5.95-1.94,2.86,0,5.58,1.22,7.49,3.3,1.91-2.08,4.63-3.3,7.49-3.3,2.15,0,4.21.67,5.95,1.94,2.19,1.59,3.63,3.94,4.05,6.62.36,2.3-.06,4.6-1.19,6.59,2.09.94,3.78,2.56,4.84,4.63,1.23,2.41,1.45,5.16.61,7.74-1.36,4.19-5.24,7.01-9.64,7.01-.68,0-1.37-.07-2.04-.21-.57,5.06-4.87,9-10.08,9Zm-.16-25.33c-.26,0-.52.04-.78.12-.64.21-1.16.65-1.46,1.25s-.36,1.28-.15,1.92c.34,1.04,1.3,1.74,2.39,1.74.26,0,.52-.04.78-.12,1.32-.43,2.04-1.85,1.61-3.16-.34-1.04-1.3-1.74-2.39-1.74Z"/><path class="cls-1" d="m17.26,5c2.36,0,4.69,1.09,6.19,3.15.69.94,1.1,2,1.3,3.07.2-1.08.62-2.13,1.3-3.07,1.49-2.06,3.82-3.15,6.19-3.15,1.56,0,3.13.47,4.48,1.46,3.41,2.48,4.17,7.26,1.69,10.67-.69.94-1.56,1.66-2.52,2.19.34-.04.69-.07,1.04-.07.76,0,1.53.11,2.29.36,4.01,1.3,6.21,5.61,4.9,9.63-1.05,3.23-4.04,5.28-7.26,5.28-.78,0-1.58-.12-2.36-.38-1.11-.36-2.06-.97-2.86-1.72.47.99.75,2.08.75,3.25,0,4.22-3.42,7.64-7.64,7.64h0c-4.22,0-7.64-3.42-7.64-7.64,0-1.17.28-2.26.75-3.25-.8.75-1.75,1.36-2.86,1.72-.78.25-1.58.38-2.36.38-3.22,0-6.21-2.05-7.26-5.28-1.3-4.01.89-8.32,4.9-9.63.76-.25,1.53-.36,2.29-.36.35,0,.69.02,1.04.07-.96-.53-1.83-1.24-2.52-2.19-2.48-3.41-1.72-8.19,1.69-10.67,1.36-.99,2.93-1.46,4.48-1.46m7.33,23c.51,0,1.03-.08,1.55-.25,2.63-.86,4.07-3.68,3.22-6.31-.69-2.12-2.65-3.46-4.76-3.46-.51,0-1.03.08-1.55.25-2.63.86-4.07,3.68-3.22,6.31.69,2.12,2.65,3.46,4.76,3.46M17.26,0C14.58,0,12.02.83,9.84,2.41c-2.73,1.98-4.53,4.91-5.05,8.25-.32,2.03-.15,4.05.48,5.94-1.62,1.16-2.95,2.7-3.88,4.53-1.53,3.01-1.8,6.43-.76,9.64,1.7,5.22,6.53,8.74,12.02,8.74.02,0,.04,0,.06,0,.6,1.9,1.66,3.64,3.11,5.09,2.39,2.39,5.56,3.7,8.94,3.7,3.38,0,6.55-1.31,8.94-3.7,1.45-1.45,2.51-3.19,3.11-5.09.02,0,.04,0,.06,0,5.49,0,10.32-3.51,12.02-8.74,1.74-5.35-.3-11.04-4.64-14.17.63-1.89.8-3.92.48-5.95-.53-3.33-2.32-6.26-5.05-8.25C37.49.84,34.93,0,32.24,0c-2.72,0-5.34.88-7.49,2.46C22.61.88,19.98,0,17.26,0h0Z"/></g><g><path class="cls-2" d="m24.75,44.81c-5.04,0-9.14-4.1-9.14-9.14,0-.05,0-.1,0-.15-.05.02-.1.03-.15.05-.92.3-1.87.45-2.83.45-3.97,0-7.46-2.54-8.69-6.32-.75-2.32-.56-4.8.55-6.97s3-3.79,5.32-4.54c.05-.02.1-.03.15-.05-.03-.04-.06-.08-.09-.12-2.96-4.08-2.06-9.8,2.02-12.77,1.57-1.14,3.43-1.75,5.37-1.75,2.92,0,5.69,1.41,7.4,3.77.03.04.06.08.09.13.03-.04.06-.08.09-.12,1.71-2.36,4.48-3.77,7.4-3.77,1.94,0,3.79.6,5.37,1.75,1.97,1.43,3.27,3.55,3.65,5.96s-.2,4.83-1.63,6.8c-.03.04-.06.08-.09.12.05.02.1.03.15.05,2.32.75,4.21,2.37,5.32,4.54s1.3,4.65.55,6.97c-1.23,3.78-4.72,6.32-8.69,6.32-.96,0-1.91-.15-2.83-.45-.05-.02-.1-.03-.15-.05,0,.05,0,.1,0,.16,0,5.04-4.1,9.14-9.14,9.14Zm-.16-25.33c-.37,0-.73.06-1.09.17-.89.29-1.62.91-2.04,1.74-.42.84-.5,1.79-.21,2.68.47,1.45,1.81,2.43,3.34,2.43.37,0,.73-.06,1.09-.17.89-.29,1.62-.91,2.04-1.74.43-.84.5-1.79.21-2.68-.47-1.45-1.81-2.43-3.34-2.43Z"/><path d="m17.26,5c2.36,0,4.69,1.09,6.19,3.15.69.94,1.1,2,1.3,3.07.2-1.08.62-2.13,1.3-3.07,1.49-2.06,3.82-3.15,6.19-3.15,1.56,0,3.13.47,4.48,1.46,3.41,2.48,4.17,7.26,1.69,10.67-.69.94-1.56,1.66-2.52,2.19.34-.04.69-.07,1.04-.07.76,0,1.53.11,2.29.36,4.01,1.3,6.21,5.61,4.9,9.63-1.05,3.23-4.04,5.28-7.26,5.28-.78,0-1.58-.12-2.36-.38-1.11-.36-2.06-.97-2.86-1.72.47.99.75,2.08.75,3.25,0,4.22-3.42,7.64-7.64,7.64h0c-4.22,0-7.64-3.42-7.64-7.64,0-1.17.28-2.26.75-3.25-.8.75-1.75,1.36-2.86,1.72-.78.25-1.58.38-2.36.38-3.22,0-6.21-2.05-7.26-5.28-1.3-4.01.89-8.32,4.9-9.63.76-.25,1.53-.36,2.29-.36.35,0,.69.02,1.04.07-.96-.53-1.83-1.24-2.52-2.19-2.48-3.41-1.72-8.19,1.69-10.67,1.36-.99,2.93-1.46,4.48-1.46m7.33,23c.51,0,1.03-.08,1.55-.25,2.63-.86,4.07-3.68,3.22-6.31-.69-2.12-2.65-3.46-4.76-3.46-.51,0-1.03.08-1.55.25-2.63.86-4.07,3.68-3.22,6.31.69,2.12,2.65,3.46,4.76,3.46M17.26,2c-2.26,0-4.42.7-6.25,2.03-2.3,1.67-3.81,4.14-4.25,6.94-.35,2.23,0,4.47,1,6.44-1.97,1.01-3.57,2.61-4.6,4.63-1.29,2.53-1.52,5.41-.64,8.12,1.43,4.4,5.49,7.35,10.12,7.35.54,0,1.08-.04,1.61-.12.35,2.19,1.38,4.2,2.98,5.8,2.01,2.01,4.68,3.12,7.52,3.12,2.84,0,5.51-1.11,7.52-3.12,1.6-1.6,2.62-3.61,2.98-5.8.53.08,1.07.12,1.61.12,4.62,0,8.69-2.96,10.12-7.35,1.63-5.02-.69-10.4-5.24-12.74,1-1.98,1.35-4.21,1-6.45-.44-2.81-1.96-5.27-4.25-6.94-1.83-1.33-3.99-2.03-6.25-2.03-2.82,0-5.51,1.13-7.49,3.08-1.98-1.95-4.67-3.08-7.49-3.08h0Zm7.33,23c-.87,0-1.64-.56-1.91-1.39-.34-1.05.24-2.19,1.29-2.53.2-.07.41-.1.62-.1.87,0,1.64.56,1.91,1.39.17.51.12,1.06-.12,1.53s-.66.83-1.17,1c-.2.07-.41.1-.62.1h0Z"/></g></g></g></svg>