<?xml version="1.0" encoding="UTF-8"?><svg id="Livello_2" xmlns="http://www.w3.org/2000/svg" viewBox="0 0 47.58 47.58"><defs><style>.cls-1{fill:#68d0e6;}.cls-2{fill:#fff;}</style></defs><g id="accessibility_icons"><g id="ACC4"><g><polygon class="cls-1" points="15.03 45.08 15.03 32.55 2.5 32.55 2.5 15.03 15.03 15.03 15.03 2.5 32.55 2.5 32.55 15.03 45.08 15.03 45.08 32.55 32.55 32.55 32.55 45.08 15.03 45.08"/><path class="cls-2" d="m30.05,5v12.53h12.53v12.53h-12.53v12.53h-12.53v-12.53H5v-12.53h12.53V5h12.53m5-5H12.53v12.53H0v22.53h12.53v12.53h22.53v-12.53h12.53V12.53h-12.53V0h0Z"/></g><g><polygon class="cls-1" points="16.03 44.08 16.03 31.55 3.5 31.55 3.5 16.03 16.03 16.03 16.03 3.5 31.55 3.5 31.55 16.03 44.08 16.03 44.08 31.55 31.55 31.55 31.55 44.08 16.03 44.08"/><path d="m30.05,5v12.53h12.53v12.53h-12.53v12.53h-12.53v-12.53H5v-12.53h12.53V5h12.53m3-3H14.53v12.53H2v18.53h12.53v12.53h18.53v-12.53h12.53V14.53h-12.53V2h0Z"/></g></g></g></svg>