<?xml version="1.0" encoding="UTF-8"?><svg id="Livello_2" xmlns="http://www.w3.org/2000/svg" viewBox="0 0 55.08 52.38"><defs><style>.cls-1{fill:#fff;}.cls-2{fill:#dcd9fc;}</style></defs><g id="accessibility_icons"><g id="ACC5"><g><polygon class="cls-2" points="27.54 40.61 13.84 47.81 16.46 32.56 5.37 21.75 20.69 19.53 27.54 5.65 34.39 19.53 49.7 21.75 38.62 32.56 41.24 47.81 27.54 40.61"/><path class="cls-1" d="m27.54,11.3l5.19,10.51,11.6,1.69-8.4,8.18,1.98,11.56-10.38-5.46-10.38,5.46,1.98-11.56-8.4-8.18,11.6-1.69,5.19-10.51m0-11.3l-4.48,9.08-4.03,8.16-9,1.31-10.03,1.46,7.25,7.07,6.51,6.35-1.54,8.97-1.71,9.99,8.97-4.71,8.05-4.23,8.05,4.23,8.97,4.71-1.71-9.99-1.54-8.97,6.51-6.35,7.25-7.07-10.03-1.46-9-1.31-4.03-8.16L27.54,0h0Z"/></g><g><polygon class="cls-2" points="27.54 39.48 15.17 45.98 17.53 32.21 7.52 22.45 21.35 20.44 27.54 7.91 33.72 20.44 47.56 22.45 37.55 32.21 39.91 45.98 27.54 39.48"/><path d="m27.54,11.3l5.19,10.51,11.6,1.69-8.4,8.18,1.98,11.56-10.38-5.46-10.38,5.46,1.98-11.56-8.4-8.18,11.6-1.69,5.19-10.51m0-6.78l-2.69,5.45-4.49,9.1-10.04,1.46-6.02.87,4.35,4.24,7.27,7.08-1.72,10-1.03,5.99,5.38-2.83,8.98-4.72,8.98,4.72,5.38,2.83-1.03-5.99-1.72-10,7.27-7.08,4.35-4.24-6.02-.87-10.04-1.46-4.49-9.1-2.69-5.45h0Z"/></g></g></g></svg>