<?xml version="1.0" encoding="UTF-8"?><svg id="Livello_2" xmlns="http://www.w3.org/2000/svg" viewBox="0 0 39.76 41.74"><defs><style>.cls-1{fill:#fff;}.cls-2{fill:#ff8f00;}</style></defs><g id="accessibility_icons"><g id="ACC6"><g><path class="cls-2" d="m9.94,39.24v-5.41c-4.27-1.11-7.44-5-7.44-9.62s3.27-8.64,7.66-9.68c-.15-.68-.22-1.38-.22-2.09,0-5.48,4.46-9.94,9.94-9.94s9.94,4.46,9.94,9.94c0,.71-.07,1.41-.22,2.09,4.39,1.03,7.66,4.98,7.66,9.68s-3.17,8.51-7.44,9.62v5.41H9.94Z"/><path class="cls-1" d="m19.88,5c4.11,0,7.44,3.33,7.44,7.44,0,1.68-.57,3.23-1.51,4.48.49-.1.99-.15,1.51-.15,4.11,0,7.44,3.33,7.44,7.44s-3.33,7.44-7.44,7.44c-1.72,0-3.29-.59-4.55-1.56v3.84h4.55v2.82h-14.88v-2.82h4.55v-3.84c-1.26.98-2.83,1.56-4.55,1.56-4.11,0-7.44-3.33-7.44-7.44s3.33-7.44,7.44-7.44c.52,0,1.02.05,1.51.15-.94-1.25-1.51-2.79-1.51-4.48,0-4.11,3.33-7.44,7.44-7.44m0-5C13.02,0,7.44,5.58,7.44,12.44c0,.12,0,.25,0,.37C3.07,14.74,0,19.12,0,24.2s3.06,9.46,7.44,11.39v6.14h24.88v-6.14c4.38-1.93,7.44-6.31,7.44-11.39s-3.07-9.46-7.44-11.39c0-.12,0-.25,0-.37,0-6.86-5.58-12.44-12.44-12.44h0Z"/></g><g><path class="cls-2" d="m10.94,38.24v-5.22c-4.22-.72-7.44-4.4-7.44-8.81s3.47-8.37,7.92-8.88c-.32-.92-.48-1.89-.48-2.88,0-4.93,4.01-8.94,8.94-8.94s8.94,4.01,8.94,8.94c0,.99-.16,1.96-.48,2.88,4.45.51,7.92,4.3,7.92,8.88s-3.22,8.1-7.44,8.81v5.22H10.94Z"/><path d="m19.88,5c4.11,0,7.44,3.33,7.44,7.44,0,1.68-.57,3.23-1.51,4.48.49-.1.99-.15,1.51-.15,4.11,0,7.44,3.33,7.44,7.44s-3.33,7.44-7.44,7.44c-1.72,0-3.29-.59-4.55-1.56v3.84h4.55v2.82h-14.88v-2.82h4.55v-3.84c-1.26.98-2.83,1.56-4.55,1.56-4.11,0-7.44-3.33-7.44-7.44s3.33-7.44,7.44-7.44c.52,0,1.02.05,1.51.15-.94-1.25-1.51-2.79-1.51-4.48,0-4.11,3.33-7.44,7.44-7.44m0-3c-5.76,0-10.44,4.68-10.44,10.44,0,.58.05,1.16.14,1.72-4.37,1.25-7.58,5.28-7.58,10.04s3.14,8.71,7.44,10v5.53h20.88v-5.53c4.3-1.29,7.44-5.29,7.44-10s-3.21-8.8-7.58-10.04c.09-.56.14-1.14.14-1.72,0-5.76-4.68-10.44-10.44-10.44h0Z"/></g></g></g></svg>