<?xml version="1.0" encoding="UTF-8"?><svg id="Livello_2" xmlns="http://www.w3.org/2000/svg" viewBox="0 0 43.77 50.54"><defs><style>.cls-1{fill:#fff;}.cls-2{fill:#ffd894;}</style></defs><g id="accessibility_icons"><g id="ACC7"><g><polygon class="cls-2" points="5 25.27 41.27 4.33 41.27 46.21 5 25.27"/><path class="cls-1" d="m38.77,8.66v33.22L10,25.27l28.77-16.61M43.77,0l-7.5,4.33L7.5,20.94,0,25.27l7.5,4.33,28.77,16.61,7.5,4.33V0h0Z"/></g><g><polygon class="cls-2" points="7 25.27 40.27 6.06 40.27 44.48 7 25.27"/><path d="m38.77,8.66v33.22L10,25.27l28.77-16.61m3-5.2l-4.5,2.6L8.5,22.67l-4.5,2.6,4.5,2.6,28.77,16.61,4.5,2.6V3.46h0Z"/></g></g></g></svg>