<?xml version="1.0" encoding="UTF-8"?><svg id="Livello_2" xmlns="http://www.w3.org/2000/svg" viewBox="0 0 33.65 56.61"><defs><style>.cls-1{fill:#fff;}.cls-2{fill:#5d862a;}</style></defs><g id="accessibility_icons"><g id="ACC8"><g><path class="cls-2" d="m6.89,54.11v-5.73c-1.63-.76-2.97-1.99-3.71-3.52-1.23-2.53-.74-5.52,1.36-8.2,7.4-9.44,9.86-17.85,9.88-17.93l2.58-9.01,2.25,9.09c.02.07,2.06,7.88,9.86,17.84,2.1,2.68,2.6,5.67,1.36,8.2-.74,1.53-2.08,2.76-3.71,3.52v5.73H6.89Z"/><path class="cls-1" d="m16.83,19.42s2.03,8.2,10.32,18.79c3.71,4.74-.15,8.52-4.16,8.52-1.13,0-2.28-.3-3.27-.97v3.05h4.55v2.82h-14.88v-2.82h4.55v-3.05c-.99.67-2.14.97-3.27.97-4.01,0-7.87-3.78-4.16-8.52,7.78-9.94,10.32-18.79,10.32-18.79m.35-19.42l-5.15,18.03c-.06.21-2.49,8.21-9.45,17.09-2.71,3.46-3.31,7.41-1.64,10.84.77,1.59,1.98,2.92,3.46,3.9v6.76h24.88v-6.76c1.48-.98,2.69-2.31,3.46-3.9,1.67-3.42,1.07-7.37-1.64-10.84-7.42-9.47-9.39-16.86-9.41-16.93L17.17,0h0Z"/></g><g><path class="cls-2" d="m7.89,53.11v-5.39c-1.68-.63-3.08-1.8-3.81-3.3-.62-1.28-1.29-3.91,1.25-7.14,7.52-9.6,10.03-18.19,10.06-18.27l1.55-5.4,1.35,5.46c.02.08,2.08,8.06,10.04,18.22,2.54,3.24,1.87,5.87,1.25,7.15-.73,1.5-2.13,2.67-3.81,3.29v5.39H7.89Z"/><path d="m16.83,19.42s2.03,8.2,10.32,18.79c3.71,4.74-.15,8.52-4.16,8.52-1.13,0-2.28-.3-3.27-.97v3.05h4.55v2.82h-14.88v-2.82h4.55v-3.05c-.99.67-2.14.97-3.27.97-4.01,0-7.87-3.78-4.16-8.52,7.78-9.94,10.32-18.79,10.32-18.79m.18-11.49l-3.06,10.66c-.03.11-2.52,8.48-9.8,17.77-2.22,2.84-2.74,6.02-1.42,8.73.76,1.57,2.06,2.82,3.66,3.63v5.9h20.88v-5.9c1.6-.81,2.9-2.07,3.66-3.63,1.32-2.71.8-5.89-1.42-8.73-7.73-9.86-9.75-17.59-9.77-17.66l-2.73-10.76h0Z"/></g></g></g></svg>