<?xml version="1.0" encoding="UTF-8"?><svg id="Livello_2" xmlns="http://www.w3.org/2000/svg" xmlns:xlink="http://www.w3.org/1999/xlink" viewBox="0 0 196.51 1080"><defs><style>.cls-1{fill:#5561d8;}.cls-2{clip-path:url(#clippath-1);}.cls-3{stroke:#000;stroke-width:2px;}.cls-3,.cls-4,.cls-5{fill:none;}.cls-3,.cls-5{stroke-miterlimit:10;}.cls-6{clip-path:url(#clippath);}.cls-5{stroke:#444fd3;stroke-width:6px;}</style><clipPath id="clippath"><rect class="cls-4" x="0" y="0" width="196.51" height="1080" transform="translate(196.51 1080) rotate(-180)"/></clipPath><clipPath id="clippath-1"><polygon class="cls-4" points="196.51 1234.61 70.57 1160.34 99.29 -150 356.5 -188.21 295.79 1276.69 196.51 1234.61"/></clipPath></defs><g id="wall"><g class="cls-6"><g><polygon class="cls-1" points="196.51 1234.61 70.57 1160.34 99.29 -150 356.5 -188.21 295.79 1276.69 196.51 1234.61"/><g class="cls-2"><g><polygon class="cls-5" points="-114.83 163.29 364.58 359.32 364.54 660.41 -67.46 437.99 -114.83 163.29"/><polygon class="cls-5" points="162.55 -84.26 159.05 406.12 767.35 575.42 549.01 -63.24 162.55 -84.26"/><polygon class="cls-5" points="169.25 756.64 38.37 717.97 -14.44 949.38 151.45 1024.21 169.25 756.64"/><path class="cls-5" d="M208.74,364.93c11.19-34.01-3.77-75.62-21.39-45.67-17.61,29.95,.94,107.81,21.39,45.67Z"/></g></g><polygon class="cls-3" points="196.51 1234.61 70.57 1160.34 99.29 -150 356.5 -188.21 295.79 1276.69 196.51 1234.61"/></g></g></g></svg>