<?xml version="1.0" encoding="UTF-8"?><svg id="Livello_2" xmlns="http://www.w3.org/2000/svg" xmlns:xlink="http://www.w3.org/1999/xlink" viewBox="0 0 196.51 1080"><defs><style>.cls-1{fill:#5561d8;}.cls-2{clip-path:url(#clippath-1);}.cls-3{stroke:#000;stroke-width:2px;}.cls-3,.cls-4,.cls-5{fill:none;}.cls-3,.cls-5{stroke-miterlimit:10;}.cls-6{clip-path:url(#clippath);}.cls-5{stroke:#444fd3;stroke-width:6px;}</style><clipPath id="clippath"><rect class="cls-4" width="196.51" height="1080"/></clipPath><clipPath id="clippath-1"><polygon class="cls-4" points="0 1234.61 125.94 1160.34 97.22 -150 -160 -188.21 -99.28 1276.69 0 1234.61"/></clipPath></defs><g id="wall"><g class="cls-6"><g><polygon class="cls-1" points="0 1234.61 125.94 1160.34 97.22 -150 -160 -188.21 -99.28 1276.69 0 1234.61"/><g class="cls-2"><g><polygon class="cls-5" points="-204.77 315.42 76.63 196.97 56.28 -156.08 -204.77 -220.91 -204.77 315.42"/><path class="cls-5" d="M-119.62,786.09c0,.11,278.75-77.06,278.75-77.06"/><polygon class="cls-5" points="-80.92 976.46 49.96 937.79 75.35 1144.94 -90.53 1219.77 -80.92 976.46"/><path class="cls-5" d="M-3.73,1045.25c-11.19-34.01,3.77-75.62,21.39-45.67,17.61,29.95-.94,107.81-21.39,45.67Z"/></g></g><polygon class="cls-3" points="0 1234.61 125.94 1160.34 97.22 -150 -160 -188.21 -99.28 1276.69 0 1234.61"/></g></g></g></svg>