<?xml version="1.0" encoding="UTF-8"?><svg id="background" xmlns="http://www.w3.org/2000/svg" xmlns:xlink="http://www.w3.org/1999/xlink" viewBox="0 0 1920 1080"><defs><style>.cls-1{fill:#9ea8f4;}.cls-2{clip-path:url(#clippath-1);}.cls-3{fill:#818eea;}.cls-4{stroke:#6f77eb;}.cls-4,.cls-5,.cls-6{fill:none;}.cls-4,.cls-6{stroke-miterlimit:10;stroke-width:6px;}.cls-7{clip-path:url(#clippath);}.cls-6{stroke:#444fd3;}.cls-8{fill:#6f77eb;}</style><clipPath id="clippath"><rect class="cls-5" width="1920" height="1080"/></clipPath><clipPath id="clippath-1"><rect class="cls-5" x="-164.67" y="837.12" width="2173.23" height="380.07"/></clipPath></defs><g class="cls-7"><g><rect class="cls-8" x="-77.49" y="-289.75" width="2081.53" height="1369.75"/><g><polygon class="cls-6" points="153.22 865.24 153.22 575.27 743.31 561.35 716.61 880.32 153.22 865.24"/><polygon class="cls-6" points="1239.32 -78.13 1262.52 906.62 1630.2 885.74 1678.92 -61.89 1239.32 -78.13"/><polygon class="cls-6" points="669.51 131.63 650.37 -22.64 944.41 -22.64 938.61 147.87 669.51 131.63"/><polygon class="cls-6" points="257.61 664.58 -294.5 678.5 -286.38 274.86 250.65 299.22 257.61 664.58"/><polygon class="cls-6" points="437.53 332.76 560.22 322.9 558.06 -268.9 413.15 -264.11 437.53 332.76"/><polygon class="cls-6" points="1716.12 88.97 1716.12 287.31 2161.52 262.95 2161.52 95.93 1716.12 88.97"/><polygon class="cls-6" points="872.28 855.58 872.28 344.07 1473.1 399.74 1497.46 906.62 872.28 855.58"/><path class="cls-6" d="M188.77,633.6c-12.28-17.66,4.14-39.28,23.48-23.72,19.34,15.55-1.04,56-23.48,23.72Z"/><path class="cls-6" d="M1426.68,476.61c-8.44-.63-22.68-13-17.94-24.96,4.74-11.97,17.6-15.05,28.43-7.18,10.83,7.87,10.07,15.84,7.45,23.25-1.69,4.79-8.8,9.58-17.94,8.89Z"/><polygon class="cls-6" points="2284.52 645.76 1816.5 687.52 1816.5 900.94 2289.16 900.94 2284.52 645.76"/><path class="cls-6" d="M1754.17,118.34c-13.04,13.04-2.33,27.05,7.39,31.22,9.72,4.17,24.11-4.18,21.78-20.61-2.33-16.44-20.22-19.55-29.17-10.6Z"/><path class="cls-6" d="M1389.19,518.49c-6.52,16.38-34.61,3.11-30.33-17.11,4.28-20.22,46.28-22.94,30.33,17.11Z"/><path class="cls-6" d="M894.04,122.41c-16.33,.32-23.33-27.68,0-32.74,23.33-5.06,19.83,18.67,15.55,24.89-4.28,6.22-15.55,7.85-15.55,7.85Z"/><line class="cls-6" x1="113.99" y1="-146.17" x2="128.16" y2="174.16"/><path class="cls-1" d="M125.21,197.08c-26.22,.39-37.46-33.79,0-39.96,37.46-6.17,31.84,22.78,24.97,30.38-6.87,7.59-24.97,9.58-24.97,9.58Z"/><line class="cls-6" x1="219.98" y1="167.59" x2="230.75" y2="-145.19"/><path class="cls-1" d="M219.55,187.14c-10.36-.63-27.83-13-22.02-24.96,5.82-11.97,21.6-15.05,34.9-7.18,13.29,7.87,12.35,15.84,9.14,23.25-2.08,4.79-10.8,9.58-22.02,8.89Z"/><line class="cls-6" x1="705.62" y1="560.6" x2="712.58" y2="411.16"/><path class="cls-1" d="M716.52,382.18c23.41-.34,33.44,29.31,0,34.66-33.44,5.35-28.43-19.77-22.3-26.35,6.13-6.59,22.3-8.31,22.3-8.31Z"/><line class="cls-6" x1="570.01" y1="564.71" x2="563.99" y2="415.21"/><path class="cls-1" d="M556.79,419.79c-24.04-5.54-27.1-37.48,8.44-34.4,35.53,3.08,24.29,26.75,16.41,31.75-7.88,5-24.84,2.65-24.84,2.65Z"/><line class="cls-6" x1="639.46" y1="403.54" x2="640.91" y2="564.56"/><path class="cls-1" d="M639.67,420.33c-10.76-.21-29.33-11.48-23.73-23.26,5.6-11.78,21.87-15.35,35.93-8.27,14.07,7.08,13.38,14.82,10.31,22.1-1.98,4.7-10.86,9.66-22.52,9.43Z"/><line class="cls-6" x1="1790.59" y1="414.12" x2="1791.69" y2="286.74"/><line class="cls-6" x1="1855.69" y1="409.83" x2="1850.83" y2="282.53"/><path class="cls-1" d="M1786.02,402.3c9.97-2.86,30.58,2.95,29.09,16.18-1.48,13.22-15.34,21.4-30.49,18.42-15.16-2.97-16.94-10.8-16.38-18.87,.36-5.21,6.98-12.63,17.78-15.73Z"/><path class="cls-1" d="M1853.38,430c-20.46,.3-29.23-26.36,0-31.18,29.23-4.81,24.84,17.78,19.48,23.7-5.36,5.93-19.48,7.47-19.48,7.47Z"/></g><g><rect class="cls-3" x="-260.41" y="837.21" width="2407.52" height="357.84"/><g class="cls-2"><g><line class="cls-4" x1="-164.67" y1="1154" x2="1037.15" y2="585.19"/><line class="cls-4" x1="-200.47" y1="958.18" x2="1107.2" y2="591.68"/><line class="cls-4" x1="413.15" y1="1131.85" x2="1055.83" y2="576.85"/><line class="cls-4" x1="904.83" y1="1119.03" x2="998.23" y2="574.89"/><line class="cls-4" x1="912.71" y1="585.19" x2="1286.23" y2="1102.71"/><line class="cls-4" x1="1077.63" y1="591.68" x2="1678.92" y2="1102.71"/><line class="cls-4" x1="939.08" y1="615.18" x2="2055.84" y2="1006.1"/><line class="cls-4" x1="-86.83" y1="869.59" x2="2122.21" y2="881.25"/><line class="cls-4" x1="-75.93" y1="950.02" x2="2083.29" y2="940.7"/><line class="cls-4" x1="2089.52" y1="1016.46" x2="-200.47" y2="1016.46"/></g></g></g></g></g></svg>