<?xml version="1.0" encoding="UTF-8"?><svg id="Livello_2" xmlns="http://www.w3.org/2000/svg" viewBox="0 0 51.78 110.65"><defs><style>.cls-1{fill:#c46dff;}.cls-1,.cls-2,.cls-3,.cls-4{stroke:#000;stroke-linejoin:bevel;}.cls-1,.cls-3,.cls-4{stroke-width:3px;}.cls-2{fill:#ececfc;stroke-width:2px;}.cls-3{fill:#7b45a3;}.cls-4{fill:#dbdbf2;}</style></defs><g id="buttons"><g><g><path class="cls-4" d="M50.25,17.05L1.52,14.59c-.42,13.58,7.52,20.7,15.44,23.97l-6.21,70.59h25.9l-3.05-69.29c8.44-2.87,17.31-12.17,16.64-22.8Z"/><path class="cls-2" d="M1.52,14.59s5.37,14.33,23.07,14.33c16.74,0,25.66-11.87,25.66-11.87L1.52,14.59Z"/><polygon class="cls-3" points="11.6 18.22 11.6 7.25 38.95 6.17 38.95 19.29 11.6 18.22"/><path class="cls-1" d="M11.88,7.69C14.63,3.38,23.06,.94,30.56,1.61c7.5,.67,10.01,4.05,7.4,6.24-2.61,2.18-12.07,4.16-16.31,3.96s-11.57-1.29-9.77-4.12Z"/></g><polygon class="cls-1" points="16.27 46.37 34.03 49.48 34.57 61.87 14.61 65.27 16.27 46.37"/></g></g></svg>