<?xml version="1.0" encoding="UTF-8"?><svg id="Livello_2" xmlns="http://www.w3.org/2000/svg" viewBox="0 0 51.78 100.23"><defs><style>.cls-1{fill:#ececfc;stroke-width:2px;}.cls-1,.cls-2,.cls-3{stroke:#000;stroke-linejoin:bevel;}.cls-2{fill:#dbdbf2;}.cls-2,.cls-3{stroke-width:3px;}.cls-3{fill:#68d1e7;}</style></defs><g id="buttons"><g><g><path class="cls-2" d="M50.25,6.63L1.52,4.17c-.42,13.58,7.52,20.7,15.44,23.97l-6.21,70.59h25.9l-3.05-69.29c8.44-2.87,17.31-12.17,16.64-22.8Z"/><path class="cls-1" d="M1.52,4.17s5.37,14.33,23.07,14.33c16.74,0,25.66-11.87,25.66-11.87L1.52,4.17Z"/><path class="cls-3" d="M11.85,5.91C15.1,1.96,23.77,.56,31.13,2.13c7.36,1.57,9.45,5.24,6.59,7.09-2.86,1.85-12.49,2.67-16.67,1.96s-11.33-2.68-9.2-5.27Z"/></g><polygon class="cls-3" points="16.27 35.96 34.03 39.06 34.57 51.45 14.61 54.85 16.27 35.96"/></g></g></svg>