<?xml version="1.0" encoding="UTF-8"?><svg id="Livello_2" xmlns="http://www.w3.org/2000/svg" xmlns:xlink="http://www.w3.org/1999/xlink" viewBox="0 0 1920 1080"><defs><style>.cls-1,.cls-2{fill:none;}.cls-2{stroke:#444fd3;stroke-miterlimit:10;stroke-width:6px;}.cls-3{clip-path:url(#clippath);}.cls-4{fill:#9ea8f4;}.cls-5{fill:#6f77eb;}</style><clipPath id="clippath"><rect class="cls-1" width="1920" height="1080"/></clipPath></defs><g id="background"><g class="cls-3"><g><rect class="cls-5" x="-137.02" y="-26.48" width="2081.53" height="1369.75"/><g><polygon class="cls-2" points="93.69 1128.52 93.69 838.54 683.78 824.62 657.08 1143.59 93.69 1128.52"/><polygon class="cls-2" points="1179.79 185.14 1202.99 1169.89 1570.68 1149.01 1619.39 201.38 1179.79 185.14"/><polygon class="cls-2" points="555.38 -869.96 578.58 114.79 946.27 93.91 994.98 -853.72 555.38 -869.96"/><polygon class="cls-2" points="609.98 394.9 590.85 240.64 884.88 240.64 879.08 411.14 609.98 394.9"/><polygon class="cls-2" points="198.08 927.85 -354.03 941.77 -345.91 538.13 191.12 562.49 198.08 927.85"/><polygon class="cls-2" points="378.01 596.03 500.69 586.17 498.53 -5.63 353.62 -.83 378.01 596.03"/><polygon class="cls-2" points="1656.59 352.24 1656.59 550.58 2101.99 526.22 2101.99 359.2 1656.59 352.24"/><polygon class="cls-2" points="420.78 122.82 420.78 -75.52 -24.62 -51.16 -24.62 115.87 420.78 122.82"/><polygon class="cls-2" points="812.75 1118.85 812.75 607.34 1413.57 663.02 1437.93 1169.89 812.75 1118.85"/><path class="cls-2" d="M129.25,896.87c-12.28-17.66,4.14-39.28,23.48-23.72s-1.04,56-23.48,23.72Z"/><path class="cls-2" d="M1367.16,739.89c-8.44-.63-22.68-13-17.94-24.96,4.74-11.97,17.6-15.05,28.43-7.18,10.83,7.87,10.07,15.84,7.45,23.25-1.69,4.79-8.8,9.58-17.94,8.89Z"/><path class="cls-2" d="M1619.04,70.45c-8.44-.63-22.68-13-17.94-24.96,4.74-11.97,17.6-15.05,28.43-7.18,10.83,7.87,10.07,15.84,7.45,23.25-1.69,4.79-8.8,9.58-17.94,8.89Z"/><polygon class="cls-2" points="2224.99 909.03 1756.97 950.79 1756.97 1164.21 2229.63 1164.21 2224.99 909.03"/><polygon class="cls-2" points="1563.11 90.43 1643.72 -377.59 2055.69 -377.59 2055.69 95.07 1563.11 90.43"/><path class="cls-2" d="M1694.64,381.61c-13.04,13.04-2.33,27.05,7.39,31.22,9.72,4.17,24.11-4.18,21.78-20.61-2.33-16.44-20.22-19.55-29.17-10.6Z"/><path class="cls-2" d="M377.05,39.98c-13.04,13.04-2.33,27.05,7.39,31.22,9.72,4.17,24.11-4.18,21.78-20.61-2.33-16.44-20.22-19.55-29.17-10.6Z"/><path class="cls-2" d="M1329.66,781.77c-6.52,16.38-34.61,3.11-30.33-17.11,4.28-20.22,46.28-22.94,30.33,17.11Z"/><path class="cls-2" d="M834.51,385.68c-16.33,.32-23.33-27.68,0-32.74,23.33-5.06,19.83,18.67,15.55,24.89-4.28,6.22-15.55,7.85-15.55,7.85Z"/><line class="cls-2" x1="54.47" y1="117.1" x2="68.64" y2="437.43"/><path class="cls-4" d="M65.68,460.35c-26.22,.39-37.46-33.79,0-39.96,37.46-6.17,31.84,22.78,24.97,30.38-6.87,7.59-24.97,9.58-24.97,9.58Z"/><line class="cls-2" x1="160.45" y1="430.86" x2="171.22" y2="118.09"/><path class="cls-4" d="M160.02,450.41c-10.36-.63-27.83-13-22.02-24.96,5.82-11.97,21.6-15.05,34.9-7.18,13.29,7.87,12.35,15.84,9.14,23.25-2.08,4.79-10.8,9.58-22.02,8.89Z"/><line class="cls-2" x1="646.09" y1="823.87" x2="653.05" y2="674.43"/><path class="cls-4" d="M656.99,645.46c23.41-.34,33.44,29.31,0,34.66-33.44,5.35-28.43-19.77-22.3-26.35,6.13-6.59,22.3-8.31,22.3-8.31Z"/><line class="cls-2" x1="510.48" y1="827.98" x2="504.46" y2="678.48"/><path class="cls-4" d="M497.26,683.06c-24.04-5.54-27.1-37.48,8.44-34.4,35.53,3.08,24.29,26.75,16.41,31.75-7.88,5-24.84,2.65-24.84,2.65Z"/><line class="cls-2" x1="579.93" y1="666.81" x2="581.38" y2="827.83"/><path class="cls-4" d="M580.14,683.6c-10.76-.21-29.33-11.48-23.73-23.26,5.6-11.78,21.87-15.35,35.93-8.27,14.07,7.08,13.38,14.82,10.31,22.1-1.98,4.7-10.86,9.66-22.52,9.43Z"/><line class="cls-2" x1="1731.07" y1="677.4" x2="1732.16" y2="550.01"/><line class="cls-2" x1="1796.16" y1="673.1" x2="1791.31" y2="545.8"/><path class="cls-4" d="M1726.49,665.57c9.97-2.86,30.58,2.95,29.09,16.18s-15.34,21.4-30.49,18.42c-15.16-2.97-16.94-10.8-16.38-18.87,.36-5.21,6.98-12.63,17.78-15.73Z"/><path class="cls-4" d="M1793.86,693.27c-20.46,.3-29.23-26.36,0-31.18,29.23-4.81,24.84,17.78,19.48,23.7-5.36,5.93-19.48,7.47-19.48,7.47Z"/></g></g></g></g></svg>