<?xml version="1.0" encoding="UTF-8"?><svg id="Livello_2" xmlns="http://www.w3.org/2000/svg" xmlns:xlink="http://www.w3.org/1999/xlink" viewBox="0 0 174.3 74.93"><defs><style>.cls-1,.cls-2{fill:#94ff3e;}.cls-1,.cls-2,.cls-3,.cls-4{stroke-width:3px;}.cls-1,.cls-2,.cls-3,.cls-4,.cls-5{stroke:#000;}.cls-1,.cls-3,.cls-4{stroke-linejoin:bevel;}.cls-2,.cls-6{stroke-miterlimit:10;}.cls-6{stroke:#60a328;stroke-width:2px;}.cls-6,.cls-7,.cls-5{fill:none;}.cls-3{fill:url(#Nuovo_campione_pattern_4);}.cls-4{fill:#60a328;}.cls-5{stroke-width:7.2px;}</style><pattern id="Nuovo_campione_pattern_4" x="0" y="0" width="72" height="72" patternTransform="translate(16189.51 -6792.24) rotate(-45) scale(2.28)" patternUnits="userSpaceOnUse" viewBox="0 0 72 72"><g><rect class="cls-7" width="72" height="72"/><g><line class="cls-5" x1="71.75" y1="66" x2="144.25" y2="66"/><line class="cls-5" x1="71.75" y1="42" x2="144.25" y2="42"/><line class="cls-5" x1="71.75" y1="18" x2="144.25" y2="18"/><line class="cls-5" x1="71.75" y1="54" x2="144.25" y2="54"/><line class="cls-5" x1="71.75" y1="30" x2="144.25" y2="30"/><line class="cls-5" x1="71.75" y1="6" x2="144.25" y2="6"/></g><g><line class="cls-5" x1="-.25" y1="66" x2="72.25" y2="66"/><line class="cls-5" x1="-.25" y1="42" x2="72.25" y2="42"/><line class="cls-5" x1="-.25" y1="18" x2="72.25" y2="18"/><line class="cls-5" x1="-.25" y1="54" x2="72.25" y2="54"/><line class="cls-5" x1="-.25" y1="30" x2="72.25" y2="30"/><line class="cls-5" x1="-.25" y1="6" x2="72.25" y2="6"/></g><g><line class="cls-5" x1="-72.25" y1="66" x2=".25" y2="66"/><line class="cls-5" x1="-72.25" y1="42" x2=".25" y2="42"/><line class="cls-5" x1="-72.25" y1="18" x2=".25" y2="18"/><line class="cls-5" x1="-72.25" y1="54" x2=".25" y2="54"/><line class="cls-5" x1="-72.25" y1="30" x2=".25" y2="30"/><line class="cls-5" x1="-72.25" y1="6" x2=".25" y2="6"/></g></g></pattern></defs><g id="movingDisappearingPlatforms"><g><g><path class="cls-1" d="M82.06,51.14c.97,10.51,.24,20.44,5.81,20.44s4.12-20.44,4.12-20.44"/><path class="cls-2" d="M77.74,66.25s-19.37,14.43-20.83,2.37c-1.45-12.06,20.83-2.37,20.83-2.37Z"/><path class="cls-2" d="M96.56,68.54s19.37-14.43,20.83-2.37c1.45,12.06-20.83,2.37-20.83,2.37Z"/></g><g><polygon class="cls-4" points="1.5 21.13 6.59 53.58 168.24 51.03 172.8 19.11 1.5 21.13"/><polygon class="cls-3" points="1.5 21.13 6.59 53.58 168.24 51.03 172.8 19.11 1.5 21.13"/><path class="cls-1" d="M86.48,40.65C41.11,39.54-5.31,31.86,2.33,18.09,9.97,4.32,49.79-2.63,124.16,4.09c74.44,6.72,50.39,27.49,13.99,33.19-16.1,2.52-28.82,3.93-51.66,3.37Z"/><ellipse class="cls-6" cx="87.15" cy="20.15" rx="61.61" ry="10.69" transform="translate(-.42 1.92) rotate(-1.26)"/></g></g></g></svg>