<?xml version="1.0" encoding="UTF-8"?><svg id="Livello_2" xmlns="http://www.w3.org/2000/svg" xmlns:xlink="http://www.w3.org/1999/xlink" viewBox="0 0 2512.48 406.59"><defs><style>.cls-1{clip-path:url(#clippath-20);}.cls-2{clip-path:url(#clippath-11);}.cls-3{clip-path:url(#clippath-16);}.cls-4{stroke:#6cafd3;stroke-miterlimit:10;stroke-width:5px;}.cls-4,.cls-5,.cls-6{fill:none;}.cls-7{clip-path:url(#clippath-2);}.cls-8{clip-path:url(#clippath-13);}.cls-9{clip-path:url(#clippath-25);}.cls-10{clip-path:url(#clippath-15);}.cls-11{clip-path:url(#clippath-6);}.cls-12{clip-path:url(#clippath-26);}.cls-13{fill:#4d89a5;}.cls-13,.cls-14{stroke-miterlimit:1;}.cls-13,.cls-14,.cls-15{stroke-width:3px;}.cls-13,.cls-14,.cls-15,.cls-6{stroke:#000;}.cls-16{clip-path:url(#clippath-7);}.cls-17{clip-path:url(#clippath-21);}.cls-18{clip-path:url(#clippath-1);}.cls-19{clip-path:url(#clippath-4);}.cls-20{clip-path:url(#clippath-12);}.cls-21{fill:#8bc5ea;}.cls-22{clip-path:url(#clippath-24);}.cls-23{clip-path:url(#clippath-22);}.cls-14{fill:url(#Nuovo_campione_pattern_3);}.cls-24{clip-path:url(#clippath-9);}.cls-25{clip-path:url(#clippath);}.cls-26{clip-path:url(#clippath-19);}.cls-27{clip-path:url(#clippath-3);}.cls-15{fill:url(#Nuovo_campione_pattern_4);stroke-linejoin:bevel;}.cls-28{clip-path:url(#clippath-8);}.cls-29{clip-path:url(#clippath-18);}.cls-30{clip-path:url(#clippath-14);}.cls-31{clip-path:url(#clippath-17);}.cls-32{clip-path:url(#clippath-5);}.cls-33{clip-path:url(#clippath-10);}.cls-34{clip-path:url(#clippath-23);}.cls-6{stroke-width:7.2px;}</style><pattern id="Nuovo_campione_pattern_4" x="0" y="0" width="72" height="72" patternTransform="translate(17688.78 -6883.52) rotate(-45) scale(2.28)" patternUnits="userSpaceOnUse" viewBox="0 0 72 72"><g><rect class="cls-5" width="72" height="72"/><g><line class="cls-6" x1="71.75" y1="66" x2="144.25" y2="66"/><line class="cls-6" x1="71.75" y1="42" x2="144.25" y2="42"/><line class="cls-6" x1="71.75" y1="18" x2="144.25" y2="18"/><line class="cls-6" x1="71.75" y1="54" x2="144.25" y2="54"/><line class="cls-6" x1="71.75" y1="30" x2="144.25" y2="30"/><line class="cls-6" x1="71.75" y1="6" x2="144.25" y2="6"/></g><g><line class="cls-6" x1="-.25" y1="66" x2="72.25" y2="66"/><line class="cls-6" x1="-.25" y1="42" x2="72.25" y2="42"/><line class="cls-6" x1="-.25" y1="18" x2="72.25" y2="18"/><line class="cls-6" x1="-.25" y1="54" x2="72.25" y2="54"/><line class="cls-6" x1="-.25" y1="30" x2="72.25" y2="30"/><line class="cls-6" x1="-.25" y1="6" x2="72.25" y2="6"/></g><g><line class="cls-6" x1="-72.25" y1="66" x2=".25" y2="66"/><line class="cls-6" x1="-72.25" y1="42" x2=".25" y2="42"/><line class="cls-6" x1="-72.25" y1="18" x2=".25" y2="18"/><line class="cls-6" x1="-72.25" y1="54" x2=".25" y2="54"/><line class="cls-6" x1="-72.25" y1="30" x2=".25" y2="30"/><line class="cls-6" x1="-72.25" y1="6" x2=".25" y2="6"/></g></g></pattern><clipPath id="clippath"><rect class="cls-5" x="642.14" y="532.53" width="1289.71" height="56.64"/></clipPath><clipPath id="clippath-1"><rect class="cls-5" x="-644.86" y="532.53" width="1289.71" height="56.64"/></clipPath><clipPath id="clippath-2"><rect class="cls-5" x="1285.64" y="476.53" width="1289.71" height="56.64"/></clipPath><clipPath id="clippath-3"><rect class="cls-5" x="-1.36" y="476.53" width="1289.71" height="56.64"/></clipPath><clipPath id="clippath-4"><rect class="cls-5" x="-1288.36" y="476.53" width="1289.71" height="56.64"/></clipPath><clipPath id="clippath-5"><rect class="cls-5" x="642.14" y="420.53" width="1289.71" height="56.64"/></clipPath><clipPath id="clippath-6"><rect class="cls-5" x="-644.86" y="420.53" width="1289.71" height="56.64"/></clipPath><clipPath id="clippath-7"><rect class="cls-5" x="1285.64" y="364.53" width="1289.71" height="56.64"/></clipPath><clipPath id="clippath-8"><rect class="cls-5" x="-1.36" y="364.53" width="1289.71" height="56.64"/></clipPath><clipPath id="clippath-9"><rect class="cls-5" x="-1288.36" y="364.53" width="1289.71" height="56.64"/></clipPath><clipPath id="clippath-10"><rect class="cls-5" x="642.14" y="308.53" width="1289.71" height="56.64"/></clipPath><clipPath id="clippath-11"><rect class="cls-5" x="-644.86" y="308.53" width="1289.71" height="56.64"/></clipPath><clipPath id="clippath-12"><rect class="cls-5" x="1285.64" y="252.53" width="1289.71" height="56.64"/></clipPath><clipPath id="clippath-13"><rect class="cls-5" x="-1.36" y="252.53" width="1289.71" height="56.64"/></clipPath><clipPath id="clippath-14"><rect class="cls-5" x="-1288.36" y="252.53" width="1289.71" height="56.64"/></clipPath><clipPath id="clippath-15"><rect class="cls-5" x="642.14" y="196.53" width="1289.71" height="56.64"/></clipPath><clipPath id="clippath-16"><rect class="cls-5" x="-644.86" y="196.53" width="1289.71" height="56.64"/></clipPath><clipPath id="clippath-17"><rect class="cls-5" x="1285.64" y="140.53" width="1289.71" height="56.64"/></clipPath><clipPath id="clippath-18"><rect class="cls-5" x="-1.36" y="140.53" width="1289.71" height="56.64"/></clipPath><clipPath id="clippath-19"><rect class="cls-5" x="-1288.36" y="140.53" width="1289.71" height="56.64"/></clipPath><clipPath id="clippath-20"><rect class="cls-5" x="642.14" y="84.53" width="1289.71" height="56.64"/></clipPath><clipPath id="clippath-21"><rect class="cls-5" x="-644.86" y="84.53" width="1289.71" height="56.64"/></clipPath><clipPath id="clippath-22"><rect class="cls-5" x="1285.64" y="28.53" width="1289.71" height="56.64"/></clipPath><clipPath id="clippath-23"><rect class="cls-5" x="-1.36" y="28.53" width="1289.71" height="56.64"/></clipPath><clipPath id="clippath-24"><rect class="cls-5" x="-1288.36" y="28.53" width="1289.71" height="56.64"/></clipPath><clipPath id="clippath-25"><rect class="cls-5" x="642.14" y="-27.47" width="1289.71" height="56.64"/></clipPath><clipPath id="clippath-26"><rect class="cls-5" x="-644.86" y="-27.47" width="1289.71" height="56.64"/></clipPath><pattern id="Nuovo_campione_pattern_3" x="0" y="0" width="1287" height="560" patternTransform="translate(-154.44 -26.28)" patternUnits="userSpaceOnUse" viewBox="0 0 1287 560"><g><rect class="cls-5" width="1287" height="560"/><rect class="cls-21" x="1224.66" y="543.26" width="1331.81" height="93.41"/><rect class="cls-21" x="-62.34" y="543.26" width="1331.81" height="93.41"/><g><rect class="cls-21" x="581.16" y="487.26" width="1331.81" height="93.41"/><g class="cls-25"><g><g><line class="cls-4" x1="770.1" y1="620.47" x2="1246.96" y2="-245.08"/><line class="cls-4" x1="860.38" y1="620.47" x2="1326.57" y2="-214.73"/><line class="cls-4" x1="1083.22" y1="620.47" x2="1347.18" y2="-214.73"/><polyline class="cls-4" points="1201.03 620.47 1259.17 -238.86 676.27 613.47"/><line class="cls-4" x1="1275.43" y1="620.47" x2="1305.67" y2="-232.63"/><polyline class="cls-4" points="1378.72 620.47 1286.82 -238.86 985.3 620.47"/><line class="cls-4" x1="1614.82" y1="613.47" x2="1259.17" y2="-238.86"/><line class="cls-4" x1="1720.26" y1="613.47" x2="1199.45" y2="-214.73"/></g><line class="cls-4" x1="588.2" y1="548.56" x2="2010.25" y2="537.73"/></g></g></g><g><rect class="cls-21" x="-705.84" y="487.26" width="1331.81" height="93.41"/><g class="cls-18"><g><g><line class="cls-4" x1="-426.62" y1="620.47" x2="39.57" y2="-214.73"/><line class="cls-4" x1="-203.78" y1="620.47" x2="60.18" y2="-214.73"/><line class="cls-4" x1="-11.57" y1="620.47" x2="18.67" y2="-232.63"/><polyline class="cls-4" points="91.72 620.47 -.18 -238.86 -301.7 620.47"/><line class="cls-4" x1="205.3" y1="620.47" x2="25.01" y2="-245.08"/><line class="cls-4" x1="327.82" y1="613.47" x2="-27.83" y2="-238.86"/><line class="cls-4" x1="433.26" y1="613.47" x2="-87.55" y2="-214.73"/><line class="cls-4" x1="524.41" y1="613.47" x2="40.87" y2="-232.63"/><line class="cls-4" x1="611.61" y1="613.47" x2="18.67" y2="-214.73"/></g><line class="cls-4" x1="-698.8" y1="548.56" x2="723.25" y2="537.73"/></g></g></g><g><rect class="cls-21" x="1224.66" y="431.26" width="1331.81" height="93.41"/><g class="cls-7"><g><line class="cls-4" x1="1231.68" y1="507.18" x2="2653.77" y2="509.63"/><line class="cls-4" x1="1231.7" y1="492.56" x2="2653.75" y2="481.73"/></g></g></g><g><rect class="cls-21" x="-62.34" y="431.26" width="1331.81" height="93.41"/><g class="cls-27"><g><g><line class="cls-4" x1="126.6" y1="564.47" x2="603.46" y2="-301.08"/><line class="cls-4" x1="216.88" y1="564.47" x2="683.07" y2="-270.73"/><line class="cls-4" x1="439.72" y1="564.47" x2="703.68" y2="-270.73"/><polyline class="cls-4" points="557.53 564.47 615.67 -294.86 32.77 557.47"/><line class="cls-4" x1="631.93" y1="564.47" x2="662.17" y2="-288.63"/><polyline class="cls-4" points="735.22 564.47 643.32 -294.86 341.8 564.47"/><line class="cls-4" x1="848.8" y1="564.47" x2="668.51" y2="-301.08"/><line class="cls-4" x1="971.32" y1="557.47" x2="615.67" y2="-294.86"/><line class="cls-4" x1="1076.76" y1="557.47" x2="555.95" y2="-270.73"/><line class="cls-4" x1="1167.91" y1="557.47" x2="684.37" y2="-288.63"/><line class="cls-4" x1="1255.11" y1="557.47" x2="662.17" y2="-270.73"/></g><line class="cls-4" x1="-55.32" y1="507.18" x2="1366.77" y2="509.63"/><line class="cls-4" x1="-55.3" y1="492.56" x2="1366.75" y2="481.73"/></g></g></g><g class="cls-19"><g><line class="cls-4" x1="-1342.32" y1="507.18" x2="79.77" y2="509.63"/><line class="cls-4" x1="-1342.3" y1="492.56" x2="79.75" y2="481.73"/></g></g><g><rect class="cls-21" x="581.16" y="375.26" width="1331.81" height="93.41"/><g class="cls-32"><g><g><line class="cls-4" x1="770.1" y1="508.47" x2="1246.96" y2="-357.08"/><line class="cls-4" x1="860.38" y1="508.47" x2="1326.57" y2="-326.73"/><line class="cls-4" x1="1083.22" y1="508.47" x2="1347.18" y2="-326.73"/><polyline class="cls-4" points="1201.03 508.47 1259.17 -350.86 676.27 501.47"/><line class="cls-4" x1="1275.43" y1="508.47" x2="1305.67" y2="-344.63"/><polyline class="cls-4" points="1378.72 508.47 1286.82 -350.86 985.3 508.47"/><line class="cls-4" x1="1614.82" y1="501.47" x2="1259.17" y2="-350.86"/><line class="cls-4" x1="1720.26" y1="501.47" x2="1199.45" y2="-326.73"/></g><line class="cls-4" x1="588.18" y1="451.18" x2="2010.27" y2="453.63"/><line class="cls-4" x1="588.2" y1="436.56" x2="2010.25" y2="425.73"/></g></g></g><g><rect class="cls-21" x="-705.84" y="375.26" width="1331.81" height="93.41"/><g class="cls-11"><g><g><line class="cls-4" x1="-426.62" y1="508.47" x2="39.57" y2="-326.73"/><line class="cls-4" x1="-203.78" y1="508.47" x2="60.18" y2="-326.73"/><line class="cls-4" x1="-11.57" y1="508.47" x2="18.67" y2="-344.63"/><polyline class="cls-4" points="91.72 508.47 -.18 -350.86 -301.7 508.47"/><line class="cls-4" x1="205.3" y1="508.47" x2="25.01" y2="-357.08"/><line class="cls-4" x1="327.82" y1="501.47" x2="-27.83" y2="-350.86"/><line class="cls-4" x1="433.26" y1="501.47" x2="-87.55" y2="-326.73"/><line class="cls-4" x1="524.41" y1="501.47" x2="40.87" y2="-344.63"/><line class="cls-4" x1="611.61" y1="501.47" x2="18.67" y2="-326.73"/></g><line class="cls-4" x1="-698.82" y1="451.18" x2="723.27" y2="453.63"/><line class="cls-4" x1="-698.8" y1="436.56" x2="723.25" y2="425.73"/></g></g></g><g><rect class="cls-21" x="1224.66" y="319.26" width="1331.81" height="93.41"/><g class="cls-16"><g><line class="cls-4" x1="1231.68" y1="395.18" x2="2653.77" y2="397.63"/><line class="cls-4" x1="1231.7" y1="380.56" x2="2653.75" y2="369.73"/></g></g></g><g><rect class="cls-21" x="-62.34" y="319.26" width="1331.81" height="93.41"/><g class="cls-28"><g><g><line class="cls-4" x1="126.6" y1="452.47" x2="603.46" y2="-413.08"/><line class="cls-4" x1="216.88" y1="452.47" x2="683.07" y2="-382.73"/><line class="cls-4" x1="439.72" y1="452.47" x2="703.68" y2="-382.73"/><polyline class="cls-4" points="557.53 452.47 615.67 -406.86 32.77 445.47"/><line class="cls-4" x1="631.93" y1="452.47" x2="662.17" y2="-400.63"/><polyline class="cls-4" points="735.22 452.47 643.32 -406.86 341.8 452.47"/><line class="cls-4" x1="848.8" y1="452.47" x2="668.51" y2="-413.08"/><line class="cls-4" x1="971.32" y1="445.47" x2="615.67" y2="-406.86"/><line class="cls-4" x1="1076.76" y1="445.47" x2="555.95" y2="-382.73"/><line class="cls-4" x1="1167.91" y1="445.47" x2="684.37" y2="-400.63"/><line class="cls-4" x1="1255.11" y1="445.47" x2="662.17" y2="-382.73"/></g><line class="cls-4" x1="-55.32" y1="395.18" x2="1366.77" y2="397.63"/><line class="cls-4" x1="-55.3" y1="380.56" x2="1366.75" y2="369.73"/></g></g></g><g class="cls-24"><g><line class="cls-4" x1="-1342.32" y1="395.18" x2="79.77" y2="397.63"/><line class="cls-4" x1="-1342.3" y1="380.56" x2="79.75" y2="369.73"/></g></g><g><rect class="cls-21" x="581.16" y="263.26" width="1331.81" height="93.41"/><g class="cls-33"><g><g><line class="cls-4" x1="770.1" y1="396.47" x2="1246.96" y2="-469.08"/><line class="cls-4" x1="860.38" y1="396.47" x2="1326.57" y2="-438.73"/><line class="cls-4" x1="1083.22" y1="396.47" x2="1347.18" y2="-438.73"/><polyline class="cls-4" points="1201.03 396.47 1259.17 -462.86 676.27 389.47"/><line class="cls-4" x1="1275.43" y1="396.47" x2="1305.67" y2="-456.63"/><polyline class="cls-4" points="1378.72 396.47 1286.82 -462.86 985.3 396.47"/><line class="cls-4" x1="1614.82" y1="389.47" x2="1259.17" y2="-462.86"/><line class="cls-4" x1="1720.26" y1="389.47" x2="1199.45" y2="-438.73"/></g><line class="cls-4" x1="588.18" y1="339.18" x2="2010.27" y2="341.63"/><line class="cls-4" x1="588.2" y1="324.56" x2="2010.25" y2="313.73"/></g></g></g><g><rect class="cls-21" x="-705.84" y="263.26" width="1331.81" height="93.41"/><g class="cls-2"><g><g><line class="cls-4" x1="-426.62" y1="396.47" x2="39.57" y2="-438.73"/><line class="cls-4" x1="-203.78" y1="396.47" x2="60.18" y2="-438.73"/><line class="cls-4" x1="-11.57" y1="396.47" x2="18.67" y2="-456.63"/><polyline class="cls-4" points="91.72 396.47 -.18 -462.86 -301.7 396.47"/><line class="cls-4" x1="205.3" y1="396.47" x2="25.01" y2="-469.08"/><line class="cls-4" x1="327.82" y1="389.47" x2="-27.83" y2="-462.86"/><line class="cls-4" x1="433.26" y1="389.47" x2="-87.55" y2="-438.73"/><line class="cls-4" x1="524.41" y1="389.47" x2="40.87" y2="-456.63"/><line class="cls-4" x1="611.61" y1="389.47" x2="18.67" y2="-438.73"/></g><line class="cls-4" x1="-698.82" y1="339.18" x2="723.27" y2="341.63"/><line class="cls-4" x1="-698.8" y1="324.56" x2="723.25" y2="313.73"/></g></g></g><g><rect class="cls-21" x="1224.66" y="207.26" width="1331.81" height="93.41"/><g class="cls-20"><g><line class="cls-4" x1="1231.68" y1="283.18" x2="2653.77" y2="285.63"/><line class="cls-4" x1="1231.7" y1="268.56" x2="2653.75" y2="257.73"/></g></g></g><g><rect class="cls-21" x="-62.34" y="207.26" width="1331.81" height="93.41"/><g class="cls-8"><g><g><line class="cls-4" x1="126.6" y1="340.47" x2="603.46" y2="-525.08"/><line class="cls-4" x1="216.88" y1="340.47" x2="683.07" y2="-494.73"/><line class="cls-4" x1="439.72" y1="340.47" x2="703.68" y2="-494.73"/><polyline class="cls-4" points="557.53 340.47 615.67 -518.86 32.77 333.47"/><line class="cls-4" x1="631.93" y1="340.47" x2="662.17" y2="-512.63"/><polyline class="cls-4" points="735.22 340.47 643.32 -518.86 341.8 340.47"/><line class="cls-4" x1="848.8" y1="340.47" x2="668.51" y2="-525.08"/><line class="cls-4" x1="971.32" y1="333.47" x2="615.67" y2="-518.86"/><line class="cls-4" x1="1076.76" y1="333.47" x2="555.95" y2="-494.73"/><line class="cls-4" x1="1167.91" y1="333.47" x2="684.37" y2="-512.63"/><line class="cls-4" x1="1255.11" y1="333.47" x2="662.17" y2="-494.73"/></g><line class="cls-4" x1="-55.32" y1="283.18" x2="1366.77" y2="285.63"/><line class="cls-4" x1="-55.3" y1="268.56" x2="1366.75" y2="257.73"/></g></g></g><g class="cls-30"><g><line class="cls-4" x1="-1342.32" y1="283.18" x2="79.77" y2="285.63"/><line class="cls-4" x1="-1342.3" y1="268.56" x2="79.75" y2="257.73"/></g></g><g><rect class="cls-21" x="581.16" y="151.26" width="1331.81" height="93.41"/><g class="cls-10"><g><g><line class="cls-4" x1="770.1" y1="284.47" x2="1246.96" y2="-581.08"/><line class="cls-4" x1="860.38" y1="284.47" x2="1326.57" y2="-550.73"/><line class="cls-4" x1="1083.22" y1="284.47" x2="1347.18" y2="-550.73"/><polyline class="cls-4" points="1201.03 284.47 1259.17 -574.86 676.27 277.47"/><line class="cls-4" x1="1275.43" y1="284.47" x2="1305.67" y2="-568.63"/><polyline class="cls-4" points="1378.72 284.47 1286.82 -574.86 985.3 284.47"/><line class="cls-4" x1="1614.82" y1="277.47" x2="1259.17" y2="-574.86"/><line class="cls-4" x1="1720.26" y1="277.47" x2="1199.45" y2="-550.73"/></g><line class="cls-4" x1="588.18" y1="227.18" x2="2010.27" y2="229.63"/><line class="cls-4" x1="588.2" y1="212.56" x2="2010.25" y2="201.73"/></g></g></g><g><rect class="cls-21" x="-705.84" y="151.26" width="1331.81" height="93.41"/><g class="cls-3"><g><g><line class="cls-4" x1="-426.62" y1="284.47" x2="39.57" y2="-550.73"/><line class="cls-4" x1="-203.78" y1="284.47" x2="60.18" y2="-550.73"/><line class="cls-4" x1="-11.57" y1="284.47" x2="18.67" y2="-568.63"/><polyline class="cls-4" points="91.72 284.47 -.18 -574.86 -301.7 284.47"/><line class="cls-4" x1="205.3" y1="284.47" x2="25.01" y2="-581.08"/><line class="cls-4" x1="327.82" y1="277.47" x2="-27.83" y2="-574.86"/><line class="cls-4" x1="433.26" y1="277.47" x2="-87.55" y2="-550.73"/><line class="cls-4" x1="524.41" y1="277.47" x2="40.87" y2="-568.63"/><line class="cls-4" x1="611.61" y1="277.47" x2="18.67" y2="-550.73"/></g><line class="cls-4" x1="-698.82" y1="227.18" x2="723.27" y2="229.63"/><line class="cls-4" x1="-698.8" y1="212.56" x2="723.25" y2="201.73"/></g></g></g><g><rect class="cls-21" x="1224.66" y="95.26" width="1331.81" height="93.41"/><g class="cls-31"><g><line class="cls-4" x1="1231.68" y1="171.18" x2="2653.77" y2="173.63"/><line class="cls-4" x1="1231.7" y1="156.56" x2="2653.75" y2="145.73"/></g></g></g><g><rect class="cls-21" x="-62.34" y="95.26" width="1331.81" height="93.41"/><g class="cls-29"><g><g><line class="cls-4" x1="126.6" y1="228.47" x2="603.46" y2="-637.08"/><line class="cls-4" x1="216.88" y1="228.47" x2="683.07" y2="-606.73"/><line class="cls-4" x1="439.72" y1="228.47" x2="703.68" y2="-606.73"/><polyline class="cls-4" points="557.53 228.47 615.67 -630.86 32.77 221.47"/><line class="cls-4" x1="631.93" y1="228.47" x2="662.17" y2="-624.63"/><polyline class="cls-4" points="735.22 228.47 643.32 -630.86 341.8 228.47"/><line class="cls-4" x1="848.8" y1="228.47" x2="668.51" y2="-637.08"/><line class="cls-4" x1="971.32" y1="221.47" x2="615.67" y2="-630.86"/><line class="cls-4" x1="1076.76" y1="221.47" x2="555.95" y2="-606.73"/><line class="cls-4" x1="1167.91" y1="221.47" x2="684.37" y2="-624.63"/><line class="cls-4" x1="1255.11" y1="221.47" x2="662.17" y2="-606.73"/></g><line class="cls-4" x1="-55.32" y1="171.18" x2="1366.77" y2="173.63"/><line class="cls-4" x1="-55.3" y1="156.56" x2="1366.75" y2="145.73"/></g></g></g><g class="cls-26"><g><line class="cls-4" x1="-1342.32" y1="171.18" x2="79.77" y2="173.63"/><line class="cls-4" x1="-1342.3" y1="156.56" x2="79.75" y2="145.73"/></g></g><g><rect class="cls-21" x="581.16" y="39.26" width="1331.81" height="93.41"/><g class="cls-1"><g><g><line class="cls-4" x1="770.1" y1="172.47" x2="1246.96" y2="-693.08"/><line class="cls-4" x1="860.38" y1="172.47" x2="1326.57" y2="-662.73"/><line class="cls-4" x1="1083.22" y1="172.47" x2="1347.18" y2="-662.73"/><polyline class="cls-4" points="1201.03 172.47 1259.17 -686.86 676.27 165.47"/><line class="cls-4" x1="1275.43" y1="172.47" x2="1305.67" y2="-680.63"/><polyline class="cls-4" points="1378.72 172.47 1286.82 -686.86 985.3 172.47"/><line class="cls-4" x1="1614.82" y1="165.47" x2="1259.17" y2="-686.86"/><line class="cls-4" x1="1720.26" y1="165.47" x2="1199.45" y2="-662.73"/></g><line class="cls-4" x1="588.18" y1="115.18" x2="2010.27" y2="117.63"/><line class="cls-4" x1="588.2" y1="100.56" x2="2010.25" y2="89.73"/></g></g></g><g><rect class="cls-21" x="-705.84" y="39.26" width="1331.81" height="93.41"/><g class="cls-17"><g><g><line class="cls-4" x1="-426.62" y1="172.47" x2="39.57" y2="-662.73"/><line class="cls-4" x1="-203.78" y1="172.47" x2="60.18" y2="-662.73"/><line class="cls-4" x1="-11.57" y1="172.47" x2="18.67" y2="-680.63"/><polyline class="cls-4" points="91.72 172.47 -.18 -686.86 -301.7 172.47"/><line class="cls-4" x1="205.3" y1="172.47" x2="25.01" y2="-693.08"/><line class="cls-4" x1="327.82" y1="165.47" x2="-27.83" y2="-686.86"/><line class="cls-4" x1="433.26" y1="165.47" x2="-87.55" y2="-662.73"/><line class="cls-4" x1="524.41" y1="165.47" x2="40.87" y2="-680.63"/><line class="cls-4" x1="611.61" y1="165.47" x2="18.67" y2="-662.73"/></g><line class="cls-4" x1="-698.82" y1="115.18" x2="723.27" y2="117.63"/><line class="cls-4" x1="-698.8" y1="100.56" x2="723.25" y2="89.73"/></g></g></g><g><rect class="cls-21" x="1224.66" y="-16.74" width="1331.81" height="93.41"/><g class="cls-23"><g><line class="cls-4" x1="1231.68" y1="59.18" x2="2653.77" y2="61.63"/><line class="cls-4" x1="1231.7" y1="44.56" x2="2653.75" y2="33.73"/></g></g></g><g><rect class="cls-21" x="-62.34" y="-16.74" width="1331.81" height="93.41"/><g class="cls-34"><g><g><line class="cls-4" x1="126.6" y1="116.47" x2="603.46" y2="-749.08"/><line class="cls-4" x1="216.88" y1="116.47" x2="683.07" y2="-718.73"/><line class="cls-4" x1="439.72" y1="116.47" x2="703.68" y2="-718.73"/><polyline class="cls-4" points="557.53 116.47 615.67 -742.86 32.77 109.47"/><line class="cls-4" x1="631.93" y1="116.47" x2="662.17" y2="-736.63"/><polyline class="cls-4" points="735.22 116.47 643.32 -742.86 341.8 116.47"/><line class="cls-4" x1="848.8" y1="116.47" x2="668.51" y2="-749.08"/><line class="cls-4" x1="971.32" y1="109.47" x2="615.67" y2="-742.86"/><line class="cls-4" x1="1076.76" y1="109.47" x2="555.95" y2="-718.73"/><line class="cls-4" x1="1167.91" y1="109.47" x2="684.37" y2="-736.63"/><line class="cls-4" x1="1255.11" y1="109.47" x2="662.17" y2="-718.73"/></g><line class="cls-4" x1="-55.32" y1="59.18" x2="1366.77" y2="61.63"/><line class="cls-4" x1="-55.3" y1="44.56" x2="1366.75" y2="33.73"/></g></g></g><g class="cls-22"><g><line class="cls-4" x1="-1342.32" y1="59.18" x2="79.77" y2="61.63"/><line class="cls-4" x1="-1342.3" y1="44.56" x2="79.75" y2="33.73"/></g></g><g><rect class="cls-21" x="581.16" y="-72.74" width="1331.81" height="93.41"/><g class="cls-9"><g><g><line class="cls-4" x1="770.1" y1="60.47" x2="1246.96" y2="-805.08"/><line class="cls-4" x1="860.38" y1="60.47" x2="1326.57" y2="-774.73"/><line class="cls-4" x1="1083.22" y1="60.47" x2="1347.18" y2="-774.73"/><polyline class="cls-4" points="1201.03 60.47 1259.17 -798.86 676.27 53.47"/><line class="cls-4" x1="1275.43" y1="60.47" x2="1305.67" y2="-792.63"/><polyline class="cls-4" points="1378.72 60.47 1286.82 -798.86 985.3 60.47"/><line class="cls-4" x1="1614.82" y1="53.47" x2="1259.17" y2="-798.86"/><line class="cls-4" x1="1720.26" y1="53.47" x2="1199.45" y2="-774.73"/></g><line class="cls-4" x1="588.18" y1="3.18" x2="2010.27" y2="5.63"/></g></g></g><g><rect class="cls-21" x="-705.84" y="-72.74" width="1331.81" height="93.41"/><g class="cls-12"><g><g><line class="cls-4" x1="-426.62" y1="60.47" x2="39.57" y2="-774.73"/><line class="cls-4" x1="-203.78" y1="60.47" x2="60.18" y2="-774.73"/><line class="cls-4" x1="-11.57" y1="60.47" x2="18.67" y2="-792.63"/><polyline class="cls-4" points="91.72 60.47 -.18 -798.86 -301.7 60.47"/><line class="cls-4" x1="205.3" y1="60.47" x2="25.01" y2="-805.08"/><line class="cls-4" x1="327.82" y1="53.47" x2="-27.83" y2="-798.86"/><line class="cls-4" x1="433.26" y1="53.47" x2="-87.55" y2="-774.73"/><line class="cls-4" x1="524.41" y1="53.47" x2="40.87" y2="-792.63"/><line class="cls-4" x1="611.61" y1="53.47" x2="18.67" y2="-774.73"/></g><line class="cls-4" x1="-698.82" y1="3.18" x2="723.27" y2="5.63"/></g></g></g></g></pattern></defs><g id="disappearingPlatforms"><polygon class="cls-15" points="2315.62 2.29 2511.05 1.5 2504.51 21.96 2326.39 25.14 2315.62 2.29"/></g><g id="platforms"><g><polygon class="cls-13" points="756.13 399.21 12.27 405.09 1.36 381.24 763.78 379.08 756.13 399.21"/><polygon class="cls-14" points="763.78 379.08 1.36 381.24 31.65 341.45 739.97 338.05 763.78 379.08"/></g></g></svg>