<?xml version="1.0" encoding="UTF-8"?><svg id="Livello_2" xmlns="http://www.w3.org/2000/svg" xmlns:xlink="http://www.w3.org/1999/xlink" viewBox="0 0 198.21 64.83"><defs><style>.cls-1{fill:#a35b00;}.cls-1,.cls-2,.cls-3{stroke-linejoin:bevel;stroke-width:3px;}.cls-1,.cls-2,.cls-3,.cls-4{stroke:#000;}.cls-5{stroke:#a35b00;stroke-miterlimit:10;stroke-width:2px;}.cls-5,.cls-6,.cls-4{fill:none;}.cls-2{fill:url(#Nuovo_campione_pattern_4);}.cls-3{fill:#ff9000;}.cls-4{stroke-width:7.2px;}</style><pattern id="Nuovo_campione_pattern_4" x="0" y="0" width="72" height="72" patternTransform="translate(15374.52 -6845.33) rotate(-45) scale(2.28)" patternUnits="userSpaceOnUse" viewBox="0 0 72 72"><g><rect class="cls-6" width="72" height="72"/><g><line class="cls-4" x1="71.75" y1="66" x2="144.25" y2="66"/><line class="cls-4" x1="71.75" y1="42" x2="144.25" y2="42"/><line class="cls-4" x1="71.75" y1="18" x2="144.25" y2="18"/><line class="cls-4" x1="71.75" y1="54" x2="144.25" y2="54"/><line class="cls-4" x1="71.75" y1="30" x2="144.25" y2="30"/><line class="cls-4" x1="71.75" y1="6" x2="144.25" y2="6"/></g><g><line class="cls-4" x1="-.25" y1="66" x2="72.25" y2="66"/><line class="cls-4" x1="-.25" y1="42" x2="72.25" y2="42"/><line class="cls-4" x1="-.25" y1="18" x2="72.25" y2="18"/><line class="cls-4" x1="-.25" y1="54" x2="72.25" y2="54"/><line class="cls-4" x1="-.25" y1="30" x2="72.25" y2="30"/><line class="cls-4" x1="-.25" y1="6" x2="72.25" y2="6"/></g><g><line class="cls-4" x1="-72.25" y1="66" x2=".25" y2="66"/><line class="cls-4" x1="-72.25" y1="42" x2=".25" y2="42"/><line class="cls-4" x1="-72.25" y1="18" x2=".25" y2="18"/><line class="cls-4" x1="-72.25" y1="54" x2=".25" y2="54"/><line class="cls-4" x1="-72.25" y1="30" x2=".25" y2="30"/><line class="cls-4" x1="-72.25" y1="6" x2=".25" y2="6"/></g></g></pattern></defs><g id="disappearingPlatforms"><g><g><polygon class="cls-3" points="196.79 39.69 1.36 40.49 23.96 1.5 168.54 3.39 196.79 39.69"/><polygon class="cls-1" points="1.36 40.49 196.79 39.69 190.25 60.16 12.12 63.33 1.36 40.49"/><polygon class="cls-2" points="1.36 40.49 196.79 39.69 190.25 60.16 12.12 63.33 1.36 40.49"/></g><polygon class="cls-5" points="25.76 29.44 31.7 11.01 160.41 10.51 171.45 30.29 25.76 29.44"/></g></g></svg>