<?xml version="1.0" encoding="UTF-8"?><svg id="Livello_2" xmlns="http://www.w3.org/2000/svg" viewBox="0 0 1657.1 337.27"><defs><style>.cls-1{fill:blue;}.cls-2{fill:#fff;}</style></defs><g id="logo_ref"><g><g><polygon class="cls-2" points="984.39 329.77 1010.1 259.13 913.76 329.77 789.85 329.77 815.56 259.13 719.22 329.77 601.91 329.77 550.7 249.25 440.88 329.77 400.78 329.77 426.49 259.13 330.15 329.77 206.24 329.77 236.75 245.97 166.11 245.97 51.81 329.77 10.71 329.77 128.01 7.5 1027.26 7.5 1074.6 81.93 1101.69 7.5 1646.39 7.5 1560.61 243.17 1442.5 329.77 984.39 329.77"/><path d="M1635.68,15l-81.34,223.47-114.3,83.8h-444.94l30.5-83.8-114.3,83.8h-110.74l30.5-83.8-114.3,83.8h-110.74l-53.3-83.8-114.3,83.8h-26.94l30.5-83.8-114.3,83.8h-110.74l30.5-83.8h-83.8l-114.3,83.8H21.42L133.26,15H1023.14l53.3,83.8,30.5-83.8h528.74m21.42-15h-560.67l-3.59,9.87-20.09,55.19-36.96-58.11-4.42-6.95H122.76l-3.59,9.87L7.33,317.14l-7.33,20.13H54.27l3.96-2.9,110.34-80.9h57.47l-23.17,63.67-7.33,20.13h137.07l3.96-2.9,74.43-54.57-13.59,37.34-7.33,20.13h53.27l3.96-2.9,101.38-74.32,44.7,70.28,4.42,6.95h123.88l3.96-2.9,74.43-54.57-13.59,37.34-7.33,20.13h137.07l3.96-2.9,74.43-54.57-13.59,37.34-7.33,20.13h471.27l3.96-2.9,114.3-83.8,3.67-2.69,1.56-4.28,81.34-223.47,7.33-20.13h0Z"/></g><g><path class="cls-1" d="M318.63,42.93H151.02l-61,167.6h0l-30.5,83.8,114.3-83.8h83.8l61-167.6Zm-152.4,111.73l20.33-55.87h55.87l-76.2,55.87Z"/><path class="cls-1" d="M513.16,42.93h-167.6l-61,167.6h0l-30.5,83.8,114.3-83.8h0l-30.5,83.8,114.3-83.8h0l61-167.6Zm-132.07,55.87h55.87l-76.2,55.87,20.33-55.87Z"/><path class="cls-1" d="M902.24,42.93h-167.6l-61,167.6h0l-30.5,83.8,114.3-83.8h0l-30.5,83.8,114.3-83.8h0l61-167.6Zm-132.07,55.87h55.87l-76.2,55.87,20.33-55.87Z"/><path class="cls-1" d="M616.2,294.33l30.5-83.8h-83.8l114.3-83.8,30.5-83.8h-167.6l-61,167.6h0l-30.5,83.8,114.3-83.8h0l53.3,83.8Zm-40.57-195.53h55.87l-76.2,55.87,20.33-55.87Z"/><path class="cls-1" d="M1035.77,210.53h0l30.5-83.8-53.3-83.8h-83.8l-61,167.6h0l-30.5,83.8h83.8l114.3-83.8Zm-71.07-111.73h55.87l-76.2,55.87,20.33-55.87Z"/><g><polygon class="cls-1" points="1341.04 210.53 1424.84 210.53 1394.34 294.33 1341.04 210.53 1310.54 294.33 1226.74 294.33 1341.04 210.53 1341.04 210.53"/><polygon class="cls-1" points="1371.54 126.73 1402.04 42.93 1485.84 42.93 1371.54 126.73 1371.54 126.73 1287.74 126.73 1318.24 42.93 1371.54 126.73"/></g><path class="cls-1" d="M1123.71,42.93l-61,167.6-30.5,83.8h167.6l30.5-83.8,61-167.6h-167.6Zm15.2,111.73l20.33-55.87h55.87l-76.2,55.87Z"/><polygon class="cls-1" points="1422.28 294.33 1452.78 210.53 1536.58 210.53 1422.28 294.33"/><polygon class="cls-1" points="1597.58 42.93 1513.78 42.93 1468.03 168.63 1551.83 168.63 1597.58 42.93"/><polygon class="cls-1" points="1455.34 126.73 1287.74 126.73 1257.24 210.53 1424.84 210.53 1455.34 126.73"/></g></g></g></svg>