<?xml version="1.0" encoding="UTF-8"?><svg id="Livello_2" xmlns="http://www.w3.org/2000/svg" xmlns:xlink="http://www.w3.org/1999/xlink" viewBox="0 0 104.16 179.9"><defs><style>.cls-1{fill:none;}.cls-2{clip-path:url(#clippath);}.cls-3{fill:#e2e2f2;}.cls-4{fill:#8a8a99;}.cls-5{fill:#b8b8cc;}.cls-6{fill:#94ff3e;}.cls-7{fill:#60a328;}.cls-8{clip-path:url(#clippath-1);}</style><clipPath id="clippath"><polyline class="cls-1" points="104.16 179.9 0 179.9 0 0 104.16 0 104.16 179.9"/></clipPath><clipPath id="clippath-1"><path class="cls-1" d="m69.85,69.35c-2.05,1.3-4.82,1.33-6.9.09-1.9-1.13-3.12-3.17-3.71-5.3-.59-2.13-.62-4.37-.61-6.58.01-2.4.06-4.81.59-7.15.28-1.26.84-2.64,2.05-3.1,1.33-.5,2.82.39,3.61,1.57.79,1.18,1.11,2.6,1.7,3.89,2.21,4.83,10.72,11.85,3.26,16.58-.83.53.24-.15,1.3-.83,1.57-.99,3.13-1.98-1.3.83"/></clipPath></defs><g id="lasers"><g id="laser2OFF"><g class="cls-2"><polygon class="cls-3" points="57.53 82.39 52.75 150.6 46.75 82.4 57.53 82.39"/><polygon points="57.53 82.39 56.03 82.28 52.58 131.56 48.39 83.9 57.53 83.89 57.53 82.39 56.03 82.28 57.53 82.39 57.53 80.89 46.75 80.9 45.25 82.53 51.26 150.73 54.25 150.7 59.02 82.49 57.53 80.89 57.53 82.39"/><path class="cls-6" d="m43.73,144.46c.03,4.73,6.63,11.59,14.09,5.65,7.46-5.94,8.11-16.83-3.23-17.35-6.33-.29-10.89,6.14-10.85,11.7Z"/><path d="m43.73,144.46h-1.5c0,1.12.29,2.23.76,3.3.71,1.6,1.86,3.1,3.38,4.25,1.52,1.14,3.43,1.92,5.57,1.92,2.18,0,4.53-.82,6.81-2.63,1.89-1.51,3.39-3.31,4.42-5.22,1.03-1.91,1.61-3.94,1.61-5.92,0-2.27-.8-4.5-2.55-6.13-1.74-1.63-4.3-2.6-7.58-2.75-.16,0-.32-.01-.48-.01-1.78,0-3.44.46-4.9,1.23-2.19,1.16-3.93,3-5.14,5.09-1.21,2.1-1.9,4.48-1.9,6.81v.1s0-.01,0-.01h1.5s1.5-.03,1.5-.03v-.05c0-2.31.96-4.93,2.59-6.89.81-.98,1.78-1.8,2.85-2.36,1.07-.56,2.23-.88,3.5-.88.11,0,.23,0,.35,0,2.79.13,4.58.92,5.67,1.94,1.09,1.03,1.59,2.34,1.6,3.94,0,1.38-.42,2.95-1.25,4.49-.83,1.54-2.07,3.04-3.65,4.3-1.86,1.47-3.5,1.98-4.94,1.98-.94,0-1.82-.22-2.62-.61-1.21-.58-2.26-1.56-2.98-2.65-.73-1.09-1.11-2.3-1.11-3.2h0s0-.01,0-.01l-1.5.02Z"/><path class="cls-5" d="m54.4,127.24c.66-.02,1.34-.05,2.03-.09,13.55-.81,14.8-7.96-5.78-6.44-18.18,1.34-13.6,6.16-.04,6.54l-.3-3.38h4.32l-.24,3.37Z"/><path d="m54.4,127.24l.03,1c.67-.02,1.36-.05,2.06-.09,3.24-.19,5.82-.74,7.67-1.48.92-.38,1.67-.8,2.24-1.31.28-.26.52-.54.7-.86.18-.32.29-.7.29-1.09,0-.37-.1-.73-.28-1.05-.31-.55-.8-.96-1.41-1.29-.91-.5-2.14-.88-3.74-1.15-1.61-.27-3.59-.42-6.01-.42-1.6,0-3.39.07-5.38.21-4.27.32-7.32.82-9.37,1.44-1.03.32-1.82.65-2.42,1.08-.3.21-.56.45-.77.75-.2.29-.34.67-.34,1.06,0,.45.18.86.42,1.17.43.55,1.01.91,1.74,1.25,1.1.5,2.56.9,4.37,1.21,1.81.31,3.95.51,6.38.58l1.12.03-.3-3.41h2.16l-.24,3.4,1.11-.03-.03-1,1,.07.31-4.44h-6.49l.39,4.46,1-.09.03-1c-3.56-.1-6.49-.52-8.45-1.07-.98-.27-1.71-.59-2.13-.86-.21-.13-.33-.26-.38-.31l-.02-.03h0s-.17.07-.17.07h.18v-.07s-.18.07-.18.07h.18-.21l.2.07v-.07s-.2,0-.2,0l.2.07-.07-.02.06.03h0s-.07-.03-.07-.03l.06.03s.03-.06.13-.14c.17-.15.53-.37,1.08-.59,1.65-.67,4.88-1.32,9.86-1.68,1.94-.14,3.69-.21,5.23-.21,3.55,0,6.08.35,7.63.84.77.24,1.29.52,1.56.74.13.11.2.2.23.25l.03.07-.04.13c-.07.14-.31.41-.75.69-.65.42-1.7.86-3.09,1.2-1.39.35-3.12.61-5.14.73-.68.04-1.35.07-2,.09l.03,1,1,.07-1-.07Z"/><path d="m54.45,128.74c.68-.02,1.37-.05,2.07-.09,3.28-.2,5.91-.74,7.83-1.52.96-.39,1.75-.83,2.39-1.4.32-.29.59-.61.81-.99.21-.38.36-.85.36-1.33,0-.46-.13-.91-.34-1.29-.38-.67-.94-1.12-1.6-1.49-.99-.55-2.26-.93-3.9-1.2-1.64-.27-3.66-.42-6.09-.42-1.62,0-3.42.07-5.42.22-4.29.32-7.36.82-9.48,1.46-1.06.33-1.89.67-2.57,1.14-.34.24-.64.51-.89.88-.25.36-.43.84-.43,1.34,0,.58.23,1.1.52,1.48.51.66,1.16,1.04,1.93,1.4,1.16.52,2.66.93,4.5,1.25,1.84.31,4,.52,6.44.59l.08-3c-3.53-.1-6.42-.51-8.32-1.05-.95-.26-1.65-.57-2-.8l-.19-.14-.05-.05h0s-.45.33-.45.33h.54c0-.2-.08-.34-.09-.34l-.45.34h.54-.6l.51.34s.09-.17.09-.34h-.6l.51.34-.09-.06.09.07h0s-.09-.07-.09-.07l.09.07s.23-.22.69-.42c.7-.32,1.89-.68,3.55-.99,1.66-.31,3.8-.58,6.45-.78,1.93-.14,3.66-.21,5.2-.21,3.51,0,6.01.35,7.48.82.73.23,1.2.49,1.39.65l.09.09.02.02.27-.17h-.31l.04.17.27-.17h-.31.36l-.35-.1v.1s.35,0,.35,0l-.35-.1.18.05-.17-.07v.02s.17.05.17.05l-.17-.07h0s-.17.25-.56.5c-.57.38-1.58.81-2.94,1.15-1.36.34-3.06.61-5.07.73-.68.04-1.34.07-1.99.09l.09,3h0Z"/><path class="cls-5" d="m55.21,116.91c.95-.03,1.92-.07,2.91-.13,19.42-1.15,21.22-11.41-8.28-9.23-26.05,1.93-19.49,8.83-.06,9.38l-.43-4.84h6.2l-.34,4.83Z"/><path d="m55.21,116.91l.03,1c.96-.03,1.94-.07,2.94-.13,4.61-.28,8.27-1.05,10.86-2.09,1.29-.53,2.32-1.11,3.08-1.8.38-.34.69-.71.92-1.13.23-.41.37-.88.37-1.36,0-.45-.12-.9-.34-1.29-.39-.69-1.02-1.23-1.85-1.69-1.24-.69-2.95-1.22-5.23-1.59-2.27-.38-5.1-.59-8.54-.59-2.29,0-4.84.1-7.68.31-6.1.45-10.44,1.17-13.34,2.05-1.45.44-2.54.92-3.35,1.48-.4.28-.74.59-.99.96-.25.37-.42.82-.41,1.28,0,.54.21,1.03.51,1.42.53.69,1.32,1.19,2.33,1.66,1.52.69,3.59,1.26,6.16,1.7,2.57.44,5.62.73,9.08.83l1.12.03-.43-4.87h4.03l-.34,4.86,1.11-.03-.03-1,1,.07.41-5.9h-8.36l.52,5.93,1-.09.03-1c-5.14-.14-9.35-.74-12.21-1.55-1.43-.4-2.52-.86-3.17-1.29-.33-.21-.54-.41-.65-.55-.11-.15-.1-.2-.11-.21,0-.01,0-.04.07-.15.12-.19.52-.54,1.25-.89,1.09-.53,2.86-1.09,5.33-1.56,2.47-.48,5.65-.88,9.6-1.17,2.8-.21,5.3-.3,7.54-.3,5.11,0,8.77.5,11.06,1.22,1.14.36,1.93.78,2.38,1.15.22.18.36.35.43.48.07.13.09.22.09.32,0,.1-.02.22-.12.39-.16.3-.56.72-1.22,1.14-.99.64-2.54,1.28-4.56,1.78-2.02.51-4.53.89-7.45,1.06-.98.06-1.94.1-2.88.13l.03,1,1,.07-1-.07Z"/><path d="m55.26,118.41c.96-.03,1.95-.07,2.95-.13,4.65-.28,8.36-1.06,11.01-2.13,1.33-.54,2.41-1.15,3.23-1.89.41-.37.76-.78,1.02-1.26.26-.47.43-1.02.43-1.6,0-.54-.15-1.07-.41-1.53-.46-.81-1.17-1.39-2.04-1.88-1.32-.73-3.08-1.26-5.39-1.65-2.31-.38-5.16-.6-8.62-.6-2.3,0-4.87.1-7.72.31-6.12.45-10.49,1.17-13.45,2.07-1.48.45-2.62.94-3.49,1.55-.44.31-.82.65-1.12,1.09-.3.43-.5.98-.5,1.56,0,.67.27,1.27.61,1.72.62.8,1.47,1.32,2.52,1.81,1.58.72,3.69,1.29,6.28,1.74,2.59.44,5.67.74,9.15.84l.08-3c-5.1-.14-9.29-.74-12.09-1.53-1.4-.39-2.45-.84-3.04-1.23-.3-.19-.47-.36-.52-.44l-.03-.04h0l-.3.13h.32l-.02-.13-.3.13h.32-.37l.35.12.02-.12h-.37l.35.12-.16-.05.15.07v-.02s-.15-.05-.15-.05l.15.07.03-.04c.09-.13.49-.45,1.2-.77,1.07-.5,2.82-1.02,5.23-1.47,2.42-.45,5.52-.85,9.34-1.13,2.79-.21,5.28-.3,7.5-.3,5.08,0,8.7.5,10.91,1.2,1.1.34,1.84.74,2.21,1.05.19.15.28.28.31.34l.03.07s0,.04-.06.15c-.1.19-.43.57-1.05.96-.92.59-2.43,1.22-4.41,1.72-1.99.5-4.46.88-7.35,1.05-.98.06-1.93.1-2.87.13l.09,3h0Z"/><path class="cls-5" d="m56.08,103.64c1.26-.04,2.55-.1,3.86-.17,25.74-1.53,28.12-15.13-10.98-12.24-34.53,2.55-25.83,11.71-.08,12.43l-.56-6.42h8.21l-.45,6.4Z"/><path d="m56.08,103.64l.03,1c1.27-.04,2.57-.1,3.89-.18,6.09-.36,10.91-1.39,14.29-2.75,1.69-.69,3.02-1.45,3.99-2.32.48-.44.87-.9,1.15-1.41.28-.51.45-1.07.45-1.64,0-.54-.15-1.07-.42-1.55-.47-.84-1.27-1.52-2.32-2.11-1.59-.88-3.83-1.58-6.82-2.08-2.99-.5-6.72-.78-11.27-.78-3.02,0-6.4.13-10.16.4-8.07.6-13.81,1.55-17.62,2.7-1.9.58-3.33,1.2-4.35,1.92-.51.36-.92.75-1.23,1.19-.31.44-.49.97-.49,1.51,0,.63.25,1.21.61,1.69.65.84,1.65,1.49,2.96,2.09,1.98.9,4.7,1.65,8.09,2.23,3.38.58,7.42.97,11.99,1.09l1.12.03-.57-6.45h6.05l-.45,6.43,1.11-.03-.03-1,1,.07.52-7.47h-10.38l.66,7.5,1-.09.03-1c-6.83-.19-12.44-.99-16.27-2.07-1.91-.54-3.38-1.15-4.29-1.75-.46-.29-.77-.58-.94-.81-.17-.23-.2-.38-.21-.48,0-.09.02-.2.15-.39.21-.32.79-.81,1.78-1.29,1.48-.73,3.85-1.46,7.15-2.09,3.3-.63,7.52-1.17,12.76-1.56,3.71-.27,7.05-.4,10.01-.4,6.8,0,11.68.66,14.76,1.63,1.54.48,2.63,1.05,3.26,1.58.32.26.52.51.64.73.12.22.16.4.16.58,0,.19-.05.41-.2.68-.25.46-.82,1.05-1.72,1.63-1.35.87-3.44,1.73-6.14,2.4-2.71.68-6.04,1.19-9.93,1.42-1.3.08-2.58.14-3.83.17l.03,1,1,.07-1-.07Z"/><path d="m56.13,105.14c1.27-.04,2.57-.1,3.9-.18,6.13-.37,10.99-1.39,14.44-2.79,1.73-.7,3.11-1.49,4.14-2.41.51-.46.94-.97,1.26-1.54.31-.57.51-1.21.51-1.88,0-.63-.17-1.25-.48-1.79-.54-.96-1.41-1.68-2.52-2.3-1.67-.92-3.96-1.63-6.98-2.13-3.02-.5-6.78-.79-11.35-.79-3.04,0-6.43.13-10.2.41-8.09.6-13.86,1.55-17.72,2.72-1.94.59-3.4,1.22-4.49,1.99-.54.38-1,.81-1.36,1.32-.35.51-.58,1.14-.58,1.79,0,.76.3,1.45.71,1.99.74.95,1.8,1.62,3.16,2.25,2.04.92,4.8,1.68,8.21,2.26,3.41.58,7.47.97,12.06,1.1l.08-3c-6.8-.19-12.37-.98-16.14-2.05-1.88-.53-3.31-1.13-4.16-1.69-.42-.27-.69-.53-.82-.69l-.1-.16v-.02s-.02,0-.02,0h.02s0,0,0,0h-.02s.02,0,.02,0h-.06s.06,0,.06,0h0s-.06,0-.06,0h.06s-.05,0-.05,0h.05s0,0,0,0h-.05.05s.02-.03.02-.03c.03-.06.13-.21.34-.39.37-.33,1.1-.77,2.16-1.19,1.6-.64,3.95-1.28,7.07-1.84,3.13-.56,7.04-1.03,11.78-1.38,3.7-.27,7.02-.4,9.98-.4,6.76,0,11.61.66,14.61,1.61,1.5.47,2.53,1.02,3.09,1.49.28.23.44.44.53.59.08.15.1.24.1.33,0,.1-.02.23-.13.43-.19.36-.69.9-1.55,1.45-1.29.83-3.33,1.67-6,2.34-2.67.67-5.98,1.18-9.84,1.41-1.3.08-2.57.13-3.82.17l.09,3h0Z"/><path d="m32.58,59.86c-1.6.9-2.6,1.96-3.2,3.07-.45.83-.68,1.67-.84,2.44-.24,1.17-.37,2.22-.77,3.15-.4.93-1.04,1.82-2.5,2.75-1.57,1-2.73,1.35-3.56,1.35-.51,0-.91-.12-1.31-.34-.59-.33-1.18-.94-1.76-1.79-.58-.85-1.15-1.92-1.78-3.07-.77-1.41-1.1-2.62-1.1-3.62,0-.94.27-1.71.83-2.46.56-.74,1.45-1.45,2.7-2.08.66-.33,1.15-.42,1.62-.43.57,0,1.16.17,1.9.39.74.22,1.63.47,2.71.47,1.6,0,3.52-.56,6.03-2.22l-1.1-1.67c-2.31,1.53-3.8,1.89-4.92,1.89-.77,0-1.43-.18-2.15-.39-.72-.21-1.51-.47-2.46-.47-.77,0-1.62.19-2.52.64-1.43.73-2.58,1.6-3.39,2.66-.81,1.06-1.24,2.32-1.24,3.67,0,1.44.47,2.96,1.34,4.57.83,1.53,1.6,3.01,2.59,4.18.5.59,1.06,1.1,1.73,1.48.67.38,1.44.59,2.28.59,1.38,0,2.88-.55,4.63-1.66,1.55-.98,2.51-2.1,3.07-3.23.43-.85.64-1.69.8-2.47.23-1.17.37-2.2.78-3.08.41-.89,1.07-1.72,2.57-2.58l-.99-1.74h0Z"/><path d="m32.25,59.18c-1.5.91-2.74,1.49-3.71,2.22-.97.71-1.68,1.64-1.89,3.03-.16.99-.67,2.18-1.38,3.08-.35.45-.75.83-1.17,1.08-.42.26-.85.4-1.29.4-.38,0-.78-.1-1.21-.35-.31-.18-.52-.42-.66-.73-.14-.3-.21-.67-.21-1.07,0-.8.29-1.72.74-2.4.22-.34.48-.62.74-.8.26-.18.5-.27.72-.27.24,0,.49.09.79.38.18.17.27.41.27.62,0,.18-.06.33-.17.44-.11.11-.3.21-.66.21-.58,0-1.59-.31-3-1.3-.59-.41-.99-.81-1.23-1.15-.24-.35-.32-.63-.32-.85,0-.35.18-.65.62-.92.43-.27,1.1-.45,1.88-.44.84,0,1.81.2,2.77.68.46.23.95.33,1.44.33.99,0,1.99-.38,3.09-.88,1.1-.5,2.29-1.14,3.64-1.74l-.41-.91c-1.38.62-2.59,1.27-3.64,1.75-1.05.48-1.95.79-2.68.79-.36,0-.68-.07-1-.22-1.09-.54-2.21-.78-3.21-.78-.93,0-1.76.2-2.4.59-.64.38-1.1,1.01-1.1,1.78,0,.47.18.96.5,1.43.33.47.81.93,1.47,1.4,1.51,1.05,2.66,1.48,3.57,1.48.56,0,1.03-.18,1.36-.49.32-.32.47-.74.47-1.15,0-.49-.2-.97-.57-1.34-.44-.43-.97-.66-1.49-.66-.48,0-.92.18-1.3.46-.57.41-1.03,1.03-1.36,1.74-.33.71-.53,1.5-.53,2.28,0,.52.09,1.03.31,1.5.22.47.57.88,1.06,1.16.57.33,1.15.49,1.71.49.66,0,1.27-.21,1.81-.55.82-.5,1.48-1.28,2-2.15.51-.86.87-1.82,1.01-2.71.2-1.15.66-1.75,1.51-2.39.85-.63,2.09-1.23,3.63-2.16l-.52-.86h0Z"/><path class="cls-6" d="m57.53,82.39s28.7-40.51,30.66-58.25C90.14,6.41,70.81,1.79,50.59,2.15,30.37,2.5,15.12,7.31,15.83,25.05c.71,17.74,14.54,35.27,30.92,57.35h10.78Z"/><path d="m57.53,82.39l1.22.87s7.2-10.17,14.66-22.57c3.73-6.2,7.52-12.96,10.52-19.32,1.5-3.18,2.8-6.26,3.8-9.14,1-2.88,1.69-5.54,1.95-7.92.1-.89.15-1.74.15-2.58,0-4.07-1.17-7.56-3.26-10.36-1.56-2.1-3.62-3.82-6-5.21-3.58-2.08-7.92-3.45-12.67-4.31-4.75-.86-9.93-1.21-15.2-1.21-.71,0-1.42,0-2.13.02-9.99.18-18.87,1.4-25.48,4.88-3.3,1.74-6.03,4.08-7.9,7.14-1.88,3.06-2.88,6.79-2.88,11.21,0,.4,0,.82.03,1.23.37,9.25,4.14,18.29,9.8,27.76,5.66,9.47,13.24,19.4,21.42,30.43l.45.61,12.31-.02.45-.63-1.22-.87v-1.5s-10.78.01-10.78.01v1.5s1.21-.89,1.21-.89c-8.2-11.05-15.73-20.93-21.25-30.18-5.53-9.26-9.04-17.85-9.37-26.34-.02-.38-.02-.75-.02-1.11,0-3.97.88-7.1,2.43-9.64,1.17-1.9,2.73-3.48,4.68-4.82,2.91-2,6.7-3.41,11.16-4.33,4.45-.92,9.55-1.35,15.04-1.45.69-.01,1.39-.02,2.08-.02,9.12,0,17.87,1.11,24.13,3.97,3.13,1.43,5.63,3.26,7.33,5.56,1.7,2.3,2.66,5.05,2.67,8.57,0,.72-.04,1.47-.13,2.25-.22,2.05-.86,4.53-1.81,7.27-3.32,9.59-10.48,22.23-16.8,32.39-3.16,5.08-6.11,9.56-8.27,12.76-1.08,1.6-1.96,2.88-2.57,3.77-.31.44-.54.78-.7,1.01-.16.23-.24.35-.24.35l1.22.87v-1.5s0,1.5,0,1.5Z"/><polygon class="cls-4" points="84.07 41.88 78.7 52.23 72.25 54.17 80.85 35.62 84.07 41.88"/><polygon points="84.07 41.88 83.18 41.42 78.01 51.4 74.09 52.57 80.9 37.9 83.18 42.34 84.07 41.88 83.18 41.42 84.07 41.88 84.96 41.43 80.81 33.35 70.41 55.77 79.4 53.07 85.2 41.88 84.96 41.43 84.07 41.88"/><path class="cls-6" d="m80.8,74.79c-1.32,0-2.78-.25-4.32-.73-4.67-1.47-8.74-5.65-12.11-12.43-2.09-4.2-2.61-7.53-2.78-8.63-.02-.1-.03-.18-.04-.22l-.12-.6.47-.41,2.04-1.63.36,1.4c.04.08.11.21.2.39.56,1.08,1.87,3.6,3.36,6.8,2,4.28,5.34,9.69,9.93,11.13,1.12.35,2.13.53,2.99.53,1.63,0,2.71-.6,3.4-1.9.59-1.1.88-2.63.85-4.39-.38.05-.77.08-1.15.08-.1,0-.21,0-.31,0-3.03-.11-5.52-1.69-6.33-4.03-.49-1.41-.76-4.27,3.02-7.5.73-.63,1.59-.96,2.48-.96s1.78.33,2.56.97c1,.81,1.93,2.19,2.65,3.94.78-2.13.77-3.85-.05-5.11-1.84-2.83-7.43-3.54-9.44-3.57l-.99-.02.05-4.4h1c.98.03,9.64.29,13.07,5.58.21.33.4.66.55,1,1.19,2.53,1.03,5.56-.45,9-.55,1.27-1.33,2.34-2.34,3.17.33,3.2-.12,6.14-1.28,8.32-.84,1.58-2.91,4.22-7.28,4.22Zm1.97-18.49c-1.15,1.09-1.52,1.97-1.37,2.4.24.52,1.13,1.04,2.33,1.08h.14c.12,0,.29,0,.5-.03-.48-1.69-1.11-2.89-1.6-3.46Z"/><path d="m78.52,44.51c.37,0,9.02.15,12.25,5.11.18.28.35.58.49.88,1.06,2.26.91,5.01-.47,8.18-.6,1.39-1.48,2.41-2.48,3.12.38,2.9.14,5.96-1.11,8.3-.82,1.54-2.65,3.69-6.4,3.69-1.15,0-2.48-.2-4.02-.69-5.3-1.67-9.08-7.01-11.52-11.92-2.32-4.66-2.65-8.28-2.74-8.64l.83-.67c.02.08,1.67,3.13,3.6,7.27,2.21,4.74,5.7,10.14,10.54,11.66,1.23.39,2.33.58,3.29.58,1.99,0,3.42-.81,4.29-2.43.89-1.67,1.1-3.89.9-6.07-.71.2-1.42.28-2.09.28-.09,0-.18,0-.27,0-2.61-.09-4.75-1.41-5.42-3.36-.41-1.17-.6-3.57,2.72-6.42.56-.48,1.19-.72,1.82-.72s1.32.25,1.94.75c1.25,1,2.38,3.13,3.07,5.65.31-.37.59-.81.83-1.35,1.21-2.81,1.27-5.09.17-6.79-2.52-3.88-10.18-4.02-10.26-4.03l.03-2.4m5.36,16.27c.39,0,1.03-.05,1.73-.28-.54-2.41-1.49-4.46-2.43-5.21-.2-.16-.33-.22-.43-.22s-.18.06-.27.14c-1.64,1.4-2.37,2.79-2.02,3.8l.06.15c.42.9,1.7,1.55,3.18,1.6h.17m-7.34-18.29l-.02,2-.03,2.4-.02,2,2,.02c1.72.03,7.02.67,8.61,3.11.29.46.45,1,.46,1.64-.5-.74-1.04-1.34-1.6-1.8-.97-.78-2.07-1.19-3.19-1.19s-2.21.41-3.13,1.2c-4.39,3.76-3.77,7.26-3.31,8.6.95,2.73,3.79,4.58,7.24,4.7.11,0,.23,0,.35,0h.13c-.08,1.13-.31,2.11-.71,2.84-.51.96-1.27,1.37-2.52,1.37-.76,0-1.67-.16-2.69-.49-4.25-1.34-7.42-6.5-9.33-10.6-1.5-3.23-2.82-5.76-3.38-6.84-.06-.12-.11-.21-.15-.29l-.72-2.78-2.41,1.93-.83.67-1.01.81.31,1.2.03.16c.18,1.13.71,4.59,2.87,8.92,3.5,7.03,7.77,11.38,12.71,12.94,1.64.52,3.2.78,4.62.78,4.89,0,7.21-2.98,8.16-4.75,1.2-2.24,1.7-5.18,1.44-8.38.93-.87,1.67-1.94,2.21-3.18,1.61-3.72,1.75-7.02.44-9.82-.18-.38-.39-.76-.62-1.12-3.74-5.75-12.87-6.02-13.9-6.03l-2-.02Zm5.87,15.89c.04-.1.11-.24.24-.43.1.2.2.43.31.69-.26-.08-.44-.18-.54-.26Z"/><polygon points="85.6 60.51 85.98 62.9 84.44 64.81 83.62 59.21 85.6 60.51"/><polygon points="88.31 61.8 87.75 59.08 87.82 54.89 89.97 62.41 88.31 61.8"/><path class="cls-3" d="m84.07,41.88c-4.16-.39-9.15,6.86-5.37,10.35l-6.45,1.94,8.6-18.55,3.22,6.26Z"/><path d="m84.07,41.88l.1-1c-.14-.01-.28-.02-.43-.02-.97,0-1.91.3-2.77.78-1.28.72-2.41,1.84-3.24,3.14-.83,1.3-1.37,2.79-1.37,4.31,0,1.39.5,2.81,1.66,3.88l.68-.73-.29-.96-4.32,1.3,6.8-14.67,2.28,4.44.89-.46.1-1-.1,1,.89-.46-3.22-6.26-1.8.04-8.6,18.55,1.19,1.38,6.45-1.94.39-1.69c-.73-.68-1.01-1.46-1.02-2.41-.01-1.35.71-2.99,1.8-4.22.54-.62,1.16-1.13,1.79-1.48.63-.35,1.25-.53,1.79-.53h.24s.98-1.44.98-1.44l-.89.46Z"/><g class="cls-8"><polygon class="cls-4" points="84.07 41.88 78.7 52.23 72.25 54.17 80.85 35.62 84.07 41.88"/><polygon points="84.07 41.88 83.18 41.42 78.01 51.4 74.09 52.57 80.9 37.9 83.18 42.34 84.07 41.88 83.18 41.42 84.07 41.88 84.96 41.43 80.81 33.35 70.41 55.77 79.4 53.07 85.2 41.88 84.96 41.43 84.07 41.88"/><path class="cls-6" d="m80.8,74.79c-1.32,0-2.78-.25-4.32-.73-4.67-1.47-8.74-5.65-12.11-12.43-2.09-4.2-2.61-7.53-2.78-8.63-.02-.1-.03-.18-.04-.22l-.12-.6.47-.41,2.04-1.63.36,1.4c.04.08.11.21.2.39.56,1.08,1.87,3.6,3.36,6.8,2,4.28,5.34,9.69,9.93,11.13,1.12.35,2.13.53,2.99.53,1.63,0,2.71-.6,3.4-1.9.59-1.1.88-2.63.85-4.39-.38.05-.77.08-1.15.08-.1,0-.21,0-.31,0-3.03-.11-5.52-1.69-6.33-4.03-.49-1.41-.76-4.27,3.02-7.5.73-.63,1.59-.96,2.48-.96s1.78.33,2.56.97c1,.81,1.93,2.19,2.65,3.94.78-2.13.77-3.85-.05-5.11-1.84-2.83-7.43-3.54-9.44-3.57l-.99-.02.05-4.4h1c.98.03,9.64.29,13.07,5.58.21.33.4.66.55,1,1.19,2.53,1.03,5.56-.45,9-.55,1.27-1.33,2.34-2.34,3.17.33,3.2-.12,6.14-1.28,8.32-.84,1.58-2.91,4.22-7.28,4.22Zm1.97-18.49c-1.15,1.09-1.52,1.97-1.37,2.4.24.52,1.13,1.04,2.33,1.08h.14c.12,0,.29,0,.5-.03-.48-1.69-1.11-2.89-1.6-3.46Z"/><path d="m78.52,44.51c.37,0,9.02.15,12.25,5.11.18.28.35.58.49.88,1.06,2.26.91,5.01-.47,8.18-.6,1.39-1.48,2.41-2.48,3.12.38,2.9.14,5.96-1.11,8.3-.82,1.54-2.65,3.69-6.4,3.69-1.15,0-2.48-.2-4.02-.69-5.3-1.67-9.08-7.01-11.52-11.92-2.32-4.66-2.65-8.28-2.74-8.64l.83-.67c.02.08,1.67,3.13,3.6,7.27,2.21,4.74,5.7,10.14,10.54,11.66,1.23.39,2.33.58,3.29.58,1.99,0,3.42-.81,4.29-2.43.89-1.67,1.1-3.89.9-6.07-.71.2-1.42.28-2.09.28-.09,0-.18,0-.27,0-2.61-.09-4.75-1.41-5.42-3.36-.41-1.17-.6-3.57,2.72-6.42.56-.48,1.19-.72,1.82-.72s1.32.25,1.94.75c1.25,1,2.38,3.13,3.07,5.65.31-.37.59-.81.83-1.35,1.21-2.81,1.27-5.09.17-6.79-2.52-3.88-10.18-4.02-10.26-4.03l.03-2.4m5.36,16.27c.39,0,1.03-.05,1.73-.28-.54-2.41-1.49-4.46-2.43-5.21-.2-.16-.33-.22-.43-.22s-.18.06-.27.14c-1.64,1.4-2.37,2.79-2.02,3.8l.06.15c.42.9,1.7,1.55,3.18,1.6h.17m-7.34-18.29l-.02,2-.03,2.4-.02,2,2,.02c1.72.03,7.02.67,8.61,3.11.29.46.45,1,.46,1.64-.5-.74-1.04-1.34-1.6-1.8-.97-.78-2.07-1.19-3.19-1.19s-2.21.41-3.13,1.2c-4.39,3.76-3.77,7.26-3.31,8.6.95,2.73,3.79,4.58,7.24,4.7.11,0,.23,0,.35,0h.13c-.08,1.13-.31,2.11-.71,2.84-.51.96-1.27,1.37-2.52,1.37-.76,0-1.67-.16-2.69-.49-4.25-1.34-7.42-6.5-9.33-10.6-1.5-3.23-2.82-5.76-3.38-6.84-.06-.12-.11-.21-.15-.29l-.72-2.78-2.41,1.93-.83.67-1.01.81.31,1.2.03.16c.18,1.13.71,4.59,2.87,8.92,3.5,7.03,7.77,11.38,12.71,12.94,1.64.52,3.2.78,4.62.78,4.89,0,7.21-2.98,8.16-4.75,1.2-2.24,1.7-5.18,1.44-8.38.93-.87,1.67-1.94,2.21-3.18,1.61-3.72,1.75-7.02.44-9.82-.18-.38-.39-.76-.62-1.12-3.74-5.75-12.87-6.02-13.9-6.03l-2-.02Zm5.87,15.89c.04-.1.11-.24.24-.43.1.2.2.43.31.69-.26-.08-.44-.18-.54-.26Z"/><polygon points="85.6 60.51 85.98 62.9 84.44 64.81 83.62 59.21 85.6 60.51"/><polygon points="88.31 61.8 87.75 59.08 87.82 54.89 89.97 62.41 88.31 61.8"/><path class="cls-3" d="m84.07,41.88c-4.16-.39-9.15,6.86-5.37,10.35l-6.45,1.94,8.6-18.55,3.22,6.26Z"/><path d="m84.07,41.88l.1-1c-.14-.01-.28-.02-.43-.02-.97,0-1.91.3-2.77.78-1.28.72-2.41,1.84-3.24,3.14-.83,1.3-1.37,2.79-1.37,4.31,0,1.39.5,2.81,1.66,3.88l.68-.73-.29-.96-4.32,1.3,6.8-14.67,2.28,4.44.89-.46.1-1-.1,1,.89-.46-3.22-6.26-1.8.04-8.6,18.55,1.19,1.38,6.45-1.94.39-1.69c-.73-.68-1.01-1.46-1.02-2.41-.01-1.35.71-2.99,1.8-4.22.54-.62,1.16-1.13,1.79-1.48.63-.35,1.25-.53,1.79-.53h.24s.98-1.44.98-1.44l-.89.46Z"/><path class="cls-6" d="m57.53,82.39s28.7-40.51,30.66-58.25C90.14,6.41,70.81,1.79,50.59,2.15,30.37,2.5,15.12,7.31,15.83,25.05c.71,17.74,14.54,35.27,30.92,57.35h10.78Z"/><path d="m57.53,82.39l1.22.87s7.2-10.17,14.66-22.57c3.73-6.2,7.52-12.96,10.52-19.32,1.5-3.18,2.8-6.26,3.8-9.14,1-2.88,1.69-5.54,1.95-7.92.1-.89.15-1.74.15-2.58,0-4.07-1.17-7.56-3.26-10.36-1.56-2.1-3.62-3.82-6-5.21-3.58-2.08-7.92-3.45-12.67-4.31-4.75-.86-9.93-1.21-15.2-1.21-.71,0-1.42,0-2.13.02-9.99.18-18.87,1.4-25.48,4.88-3.3,1.74-6.03,4.08-7.9,7.14-1.88,3.06-2.88,6.79-2.88,11.21,0,.4,0,.82.03,1.23.37,9.25,4.14,18.29,9.8,27.76,5.66,9.47,13.24,19.4,21.42,30.43l.45.61,12.31-.02.45-.63-1.22-.87v-1.5s-10.78.01-10.78.01v1.5s1.21-.89,1.21-.89c-8.2-11.05-15.73-20.93-21.25-30.18-5.53-9.26-9.04-17.85-9.37-26.34-.02-.38-.02-.75-.02-1.11,0-3.97.88-7.1,2.43-9.64,1.17-1.9,2.73-3.48,4.68-4.82,2.91-2,6.7-3.41,11.16-4.33,4.45-.92,9.55-1.35,15.04-1.45.69-.01,1.39-.02,2.08-.02,9.12,0,17.87,1.11,24.13,3.97,3.13,1.43,5.63,3.26,7.33,5.56,1.7,2.3,2.66,5.05,2.67,8.57,0,.72-.04,1.47-.13,2.25-.22,2.05-.86,4.53-1.81,7.27-3.32,9.59-10.48,22.23-16.8,32.39-3.16,5.08-6.11,9.56-8.27,12.76-1.08,1.6-1.96,2.88-2.57,3.77-.31.44-.54.78-.7,1.01-.16.23-.24.35-.24.35l1.22.87v-1.5s0,1.5,0,1.5Z"/></g><line class="cls-3" x1="72.25" y1="59.52" x2="31.94" y2="62.05"/><polyline points="72.19 58.53 31.87 61.05 32 63.04 72.31 60.52"/><line class="cls-3" x1="41.19" y1="62.01" x2="48.99" y2="82.4"/><polyline points="40.25 62.37 48.06 82.76 49.92 82.04 42.12 61.65"/><line class="cls-3" x1="64.61" y1="59.82" x2="58.86" y2="80.19"/><polyline points="63.65 59.55 57.9 79.91 59.82 80.46 65.58 60.09"/><line class="cls-3" x1="51.38" y1="60.79" x2="54.49" y2="81.25"/><polyline points="50.39 60.94 53.5 81.4 55.48 81.1 52.37 60.63"/><polygon class="cls-7" points="34.89 56.56 23.41 32.7 36.98 26.18 48.02 52.78 34.89 56.56"/><polygon points="34.89 56.56 35.79 56.13 24.75 33.17 36.46 27.54 46.67 52.13 34.61 55.6 34.89 56.56 35.79 56.13 34.89 56.56 35.17 57.52 49.37 53.44 37.5 24.82 22.08 32.23 34.36 57.76 35.17 57.52 34.89 56.56"/><line class="cls-7" x1="26" y1="38.08" x2="39.35" y2="31.9"/><polyline points="26.42 38.98 39.77 32.81 38.93 30.99 25.58 37.17"/><line class="cls-7" x1="28.72" y1="43.73" x2="42.72" y2="40.02"/><polyline points="28.97 44.69 42.98 40.99 42.47 39.05 28.46 42.76"/><line class="cls-7" x1="45.09" y1="45.25" x2="32.68" y2="51.96"/><polyline points="44.61 44.37 32.2 51.08 33.15 52.84 45.56 46.13"/><line class="cls-7" x1="41.19" y1="54.75" x2="31.29" y2="28.91"/><polyline points="42.12 54.39 32.23 28.55 30.36 29.27 40.25 55.11"/></g></g></g></svg>