<?xml version="1.0" encoding="UTF-8"?><svg id="Livello_2" xmlns="http://www.w3.org/2000/svg" viewBox="0 0 52.98 71.01"><defs><style>.cls-1{fill:#ffe000;}.cls-2,.cls-3,.cls-4,.cls-5,.cls-6{stroke-linejoin:bevel;}.cls-2,.cls-3,.cls-4,.cls-5,.cls-7{stroke-width:3px;}.cls-2,.cls-3,.cls-6{fill:none;}.cls-2,.cls-4,.cls-6,.cls-7{stroke:#000;}.cls-3{stroke:#ffe000;}.cls-4{fill:#60a228;}.cls-5{fill:#b7b7cb;stroke:#5c5c66;}.cls-8{opacity:.55;}.cls-6{stroke-width:2px;}.cls-7{fill:#fa64ff;stroke-miterlimit:10;}</style></defs><g id="HUD_objects"><g id="HUDparts" class="cls-8"><g><polygon class="cls-4" points="8.01 17.48 .15 65.84 37.16 69.52 39.05 60.37 51.09 54.6 52.88 20.45 8.01 17.48"/><polyline class="cls-3" points="15.84 44.91 22 52.88 21.08 60.83"/><polyline class="cls-3" points="10.52 47.07 15.84 54.2 15.04 60.5"/><polyline class="cls-3" points="26.52 30.32 45.35 32.48 44.89 40.37"/><polyline class="cls-3" points="41.75 59.07 38.15 53.4 38.72 46.7"/><polyline class="cls-3" points="45.55 57.25 42.7 52.87 42.97 47.07"/><line class="cls-3" x1="34.14" y1="46.24" x2="31.62" y2="68.97"/><line class="cls-3" x1="29.55" y1="26.52" x2="52.28" y2="29.04"/><polygon class="cls-2" points="8.01 17.48 .15 65.84 37.16 69.52 39.05 60.37 51.09 54.6 52.88 20.45 8.01 17.48"/><polygon class="cls-5" points="27.5 48.43 45.91 49.06 46.11 39.7 29.57 38.61 27.5 48.43"/><circle class="cls-1" cx="15.02" cy="61.85" r="2.27"/><circle class="cls-1" cx="20.88" cy="62.44" r="2.27"/></g><g><polygon class="cls-7" points="5.32 67.15 3.29 30.29 30.96 3.51 31.29 42.02 5.32 67.15"/><polygon class="cls-2" points="5.32 67.15 3.29 30.29 30.96 3.51 31.29 42.02 5.32 67.15"/><polygon class="cls-6" points="5.32 67.15 9.52 38.43 30.96 3.51 23.59 42.97 5.32 67.15"/><polyline class="cls-6" points="3.29 30.29 9.52 38.43 23.59 42.97 31.29 42.02"/></g></g></g></svg>