<?xml version="1.0" encoding="UTF-8"?><svg id="Livello_2" xmlns="http://www.w3.org/2000/svg" viewBox="0 0 92.36 92.22"><defs><style>.cls-1,.cls-2{fill:#b7b7cb;}.cls-3{fill:#5c5c66;}.cls-2{stroke:#5c5c66;stroke-miterlimit:10;stroke-width:3px;}</style></defs><g id="HUD_objects"><g id="HUDrestartHover"><polygon class="cls-1" points="83.08 81.3 1.29 78.28 0 0 79.55 1.11 83.08 81.3"/><polygon class="cls-2" points="74.41 72.83 9.68 70.43 8.66 8.48 71.62 9.36 74.41 72.83"/><polygon class="cls-3" points="92.36 90.01 45.46 92.22 43.68 63.4 92.36 67.39 92.36 90.01"/><path class="cls-3" d="m36.61,27.02l-.89-2.43s20.51-7.67,25.28,9.32c5.72,20.38-15.32,26.89-23.43,23.79-5.95-2.27-11-7.03-9.21-15.8l-7.25,2.22,10.62-13.08,6.59,15.54-6.85-4.35s1.36,10.81,11.58,9.86,14.81-12.47,13.48-17.81c-1.18-4.72-4.63-9.36-19.92-7.25Z"/></g></g></svg>