<?xml version="1.0" encoding="UTF-8"?><svg id="Livello_2" xmlns="http://www.w3.org/2000/svg" viewBox="0 0 274 28.38"><defs><style>.cls-1{fill:#93ff3e;}</style></defs><g id="HUD_objects"><g id="HUDtimerPlay"><g id="HUDtimerRewind"><g><path class="cls-1" d="m248.04,27.59c0,.43.35.79.79.79h5.26c.43,0,.79-.35.79-.79v-2.87c0-.62.5-1.13,1.13-1.13h5.23c.43,0,.79-.36.79-.79v-2.87c0-.62.5-1.13,1.13-1.13h10.05c.43,0,.79-.35.79-.79v-2.87c0-.43-.35-.79-.79-.79h-24.05c-.61,0-1.11.5-1.11,1.11v9.25h0s0,0,0,0v2.87Z"/><path class="cls-1" d="m249.15,14.02h24.05c.43,0,.79-.35.79-.79v-2.87c0-.43-.35-.79-.79-.79h-10.05c-.62,0-1.13-.5-1.13-1.13v-2.87c0-.43-.35-.79-.79-.79h-5.23c-.62,0-1.13-.51-1.13-1.13V.79c0-.43-.35-.79-.79-.79h-5.26c-.43,0-.79.35-.79.79v12.12c0,.61.5,1.11,1.11,1.11Z"/></g><g><path class="cls-1" d="m186.03,27.59c0,.43.35.79.79.79h5.26c.43,0,.79-.35.79-.79v-2.87c0-.62.5-1.13,1.13-1.13h5.23c.43,0,.79-.36.79-.79v-2.87c0-.62.5-1.13,1.13-1.13h10.05c.43,0,.79-.35.79-.79v-2.87c0-.43-.35-.79-.79-.79h-24.05c-.61,0-1.11.5-1.11,1.11v9.25h0s0,0,0,0v2.87Z"/><path class="cls-1" d="m187.14,14.02h24.05c.43,0,.79-.35.79-.79v-2.87c0-.43-.35-.79-.79-.79h-10.05c-.62,0-1.13-.5-1.13-1.13v-2.87c0-.43-.35-.79-.79-.79h-5.23c-.62,0-1.13-.51-1.13-1.13V.79c0-.43-.35-.79-.79-.79h-5.26c-.43,0-.79.35-.79.79v12.12c0,.61.5,1.11,1.11,1.11Z"/></g><g><path class="cls-1" d="m124.02,27.59c0,.43.35.79.79.79h5.26c.43,0,.79-.35.79-.79v-2.87c0-.62.5-1.13,1.13-1.13h5.23c.43,0,.79-.36.79-.79v-2.87c0-.62.5-1.13,1.13-1.13h10.05c.43,0,.79-.35.79-.79v-2.87c0-.43-.35-.79-.79-.79h-24.05c-.61,0-1.11.5-1.11,1.11v9.25h0s0,0,0,0v2.87Z"/><path class="cls-1" d="m125.13,14.02h24.05c.43,0,.79-.35.79-.79v-2.87c0-.43-.35-.79-.79-.79h-10.05c-.62,0-1.13-.5-1.13-1.13v-2.87c0-.43-.35-.79-.79-.79h-5.23c-.62,0-1.13-.51-1.13-1.13V.79c0-.43-.35-.79-.79-.79h-5.26c-.43,0-.79.35-.79.79v12.12c0,.61.5,1.11,1.11,1.11Z"/></g><g><path class="cls-1" d="m62.01,27.59c0,.43.35.79.79.79h5.26c.43,0,.79-.35.79-.79v-2.87c0-.62.5-1.13,1.13-1.13h5.23c.43,0,.79-.36.79-.79v-2.87c0-.62.5-1.13,1.13-1.13h10.05c.43,0,.79-.35.79-.79v-2.87c0-.43-.35-.79-.79-.79h-24.05c-.61,0-1.11.5-1.11,1.11v9.25h0s0,0,0,0v2.87Z"/><path class="cls-1" d="m63.12,14.02h24.05c.43,0,.79-.35.79-.79v-2.87c0-.43-.35-.79-.79-.79h-10.05c-.62,0-1.13-.5-1.13-1.13v-2.87c0-.43-.35-.79-.79-.79h-5.23c-.62,0-1.13-.51-1.13-1.13V.79c0-.43-.35-.79-.79-.79h-5.26c-.43,0-.79.35-.79.79v12.12c0,.61.5,1.11,1.11,1.11Z"/></g><g><path class="cls-1" d="m0,27.59c0,.43.35.79.79.79h5.26c.43,0,.79-.35.79-.79v-2.87c0-.62.5-1.13,1.13-1.13h5.23c.43,0,.79-.36.79-.79v-2.87c0-.62.5-1.13,1.13-1.13h10.05c.43,0,.79-.35.79-.79v-2.87c0-.43-.35-.79-.79-.79H1.11c-.61,0-1.11.5-1.11,1.11v9.25h0s0,0,0,0v2.87Z"/><path class="cls-1" d="m1.11,14.02h24.05c.43,0,.79-.35.79-.79v-2.87c0-.43-.35-.79-.79-.79h-10.05c-.62,0-1.13-.5-1.13-1.13v-2.87c0-.43-.35-.79-.79-.79h-5.23c-.62,0-1.13-.51-1.13-1.13V.79c0-.43-.35-.79-.79-.79H.79c-.43,0-.79.35-.79.79v12.12c0,.61.5,1.11,1.11,1.11Z"/></g></g></g></g></svg>