<?xml version="1.0" encoding="UTF-8"?><svg id="Livello_2" xmlns="http://www.w3.org/2000/svg" viewBox="0 0 54.44 55.76"><defs><style>.cls-1{fill:none;}.cls-2{fill:#6f77ea;stroke:#000;stroke-miterlimit:10;stroke-width:3px;}</style></defs><g id="HUD_objects"><g id="HUDtimerDoorR"><path class="cls-1" d="m.07,53.21l53.33,2.55S61.86-.86,29.49,0C-2.87.88.07,53.21.07,53.21Z"/><path class="cls-2" d="m29.47,1.61l-1.39,51.41h0l23.93,1.14S59.98.79,29.47,1.61Zm10.41,9l-6.15-.3,6.15.3Zm4.77,7.47l-11.08-.54,11.08.54Zm2.13,7.33l-13.59-.66,13.59.66Zm1.38,7.27l-15.73-.77,15.73.77Zm-16.5,13.64l16.5.81-16.5-.81Zm.46-7.2l16.5.81-16.5-.81Z"/></g></g></svg>