<?xml version="1.0" encoding="UTF-8"?><svg id="Livello_2" xmlns="http://www.w3.org/2000/svg" viewBox="0 0 106.66 42.71"><defs><style>.cls-1{fill:#b7b7cb;stroke:#000;stroke-miterlimit:10;}</style></defs><g id="HUD_objects"><g id="HUDtimerSpring"><path class="cls-1" d="m.53,42.2C.26,25.4,1.87,13.1,10.65,7.62l.12-.06c3.42-1.54,6.75-1.65,9.65-.44,2.48-2.86,5.85-4.98,10.21-5.53,3.51-.23,6.25.35,8.36,1.34,3.01-1.92,8.12-3.47,16.35-1.55l.16.05c2.83,1.17,5.13,2.4,6.98,3.65,3.46-1.4,8.06-1.79,14.07.27,4.35,1.86,7.33,4.81,9.24,8.15,2.14-.23,4.32-.03,6.36.63,4.53,1.46,10.62,5.79,13.92,18.16l-1.93.52c-3.07-11.49-8.54-15.46-12.6-16.77-1.63-.53-3.25-.7-4.79-.61,2.33,5.37,2.21,11.38.73,15.52-1.47,4.62-4.66,8.12-8.51,9.33-2.66.83-5.23.44-7.25-1.1-1.57-1.09-2.52-3.44-2.57-6.41-.08-4.41,1.91-11.12,7.76-15.52,2.01-1.65,4.35-2.79,6.79-3.37-1.71-2.73-4.26-5.11-7.86-6.65-4.74-1.62-8.48-1.56-11.4-.69,6.15,5.1,5.59,10.33,4.37,13.45-1.14,2.92-3.56,5.84-6.65,8.02-2.21,1.56-5.19,2.98-7.07,2.44-1.31-.08-2.39-.97-3.06-2.52-1.9-4.44-.26-13.46,4.78-18.88.96-1.04,2.15-2.07,3.6-2.93-1.6-.98-3.47-1.92-5.59-2.8-5.62-1.3-10.34-1.02-13.82.78,1.44,1.03,2.49,2.24,3.24,3.38,3.7,5.61,3.36,13.97.9,18.82-1.09,2.14-2.54,3.36-4.09,3.43-1.04.11-2.29-.45-3.55-1.63-2.62-2.47-5.14-7.56-4.86-13.35.14-4.13,1.78-7.86,4.54-10.41-1.83-.65-3.95-.9-6.36-.74-2.67.33-5.86,1.87-8.51,4.55,1.66,1.11,3.14,2.71,4.37,4.78,3.97,6.72,4.42,17.24-.91,21.35-1.29,1.35-3,1.76-4.7,1.12-2.91-1.1-5.94-5.56-6.09-11.97-.27-4.39,1.03-10.16,4.18-14.68-2.01-.71-4.49-.73-7.51.62C6.68,12.48,2.15,18.66,2.53,42.17l-2,.03ZM84.67,15.69c-2.61.54-4.9,1.76-6.56,3.12-5.28,3.97-7.06,9.97-6.99,13.91.04,2.29.7,4.1,1.75,4.84,1.52,1.17,3.45,1.45,5.47.81,3.23-1.02,5.93-4.03,7.22-8.07,1.4-3.9,1.46-9.63-.89-14.61Zm-63.69-6.06c-2.6,3.29-4.37,7.88-4.01,13.7.13,5.5,2.57,9.34,4.8,10.18.96.37,1.83.14,2.58-.68l.13-.12c4.04-3.05,4.27-12.36.47-18.79-.83-1.4-2.12-3.12-3.97-4.3Zm41.29-2.26c-1.67.83-2.99,1.93-4.01,3.03-4.83,5.2-5.84,13.39-4.41,16.73.37.87.84,1.31,1.41,1.32h.17s.16.06.16.06c1.74.65,9.09-3.49,11.33-9.26,1.69-4.34.09-8.37-4.65-11.88Zm-23.12-2.11c-2.75,2.17-4.39,5.65-4.53,9.56-.25,5.14,2.02,9.72,4.23,11.81.92.87,1.63,1.13,2.02,1.09.85-.04,1.72-.89,2.46-2.34,2.16-4.24,2.47-11.88-.79-16.81-.92-1.39-2.05-2.49-3.4-3.3Z"/><path class="cls-1" d="m20.42,7.12c-.89.96-1.26,1.62-1.26,1.62"/><path class="cls-1" d="m22.31,8.14c-.64.72-1.32,1.5-1.32,1.5"/><path class="cls-1" d="m38.99,2.93c-.78.6-1.81,1.4-1.81,1.4"/><path class="cls-1" d="m40.98,4.09c-.5.19-1.82,1.17-1.82,1.17"/><path class="cls-1" d="m62.47,5.08c-1,.43-2.07,1.03-2.07,1.03"/><path class="cls-1" d="m64.41,6.53c-.84.31-2.14.84-2.14.84"/><path class="cls-1" d="m85.77,13.5c-.92.13-2.09.36-2.09.36"/><path class="cls-1" d="m86.73,15.42c-.58.02-2.05.27-2.05.27"/></g></g></svg>