<?xml version="1.0" encoding="UTF-8"?><svg id="Livello_2" xmlns="http://www.w3.org/2000/svg" viewBox="0 0 64.58 75.12"><defs><style>.cls-1{fill:#fff;}.cls-2{fill:#ffe000;}.cls-2,.cls-3,.cls-4,.cls-5,.cls-6{stroke-miterlimit:10;}.cls-2,.cls-3,.cls-4,.cls-5,.cls-6,.cls-7{stroke-width:2px;}.cls-2,.cls-3,.cls-5,.cls-6,.cls-7{stroke:#000;}.cls-3,.cls-4{fill:#ff4842;}.cls-4{stroke:#a22a27;}.cls-5{fill:#5c5c66;}.cls-6,.cls-7{fill:none;}.cls-7{stroke-linejoin:bevel;}</style></defs><g id="HUD_objects"><g id="HUDtimerDuck"><path class="cls-2" d="m48.13,44.2s9.65,8.64,7.1,19.51c-2.55,10.87-24.03,11.74-32.52,9.27-8.49-2.46-17.51-9.71-20.22-20.06s-1.2-12.44.47-12.61,17.03,9.1,24.46,8.18c7.42-.91,6.62-1.84,6.62-1.84,0,0-21.8-14.52-12.19-24.58,9.61-10.07,25.99-10.05,30.18-2.45s-1.86,17.81-1.86,17.81c0,0,11.8-4.92,13.19-2.19s-3.89,8.49-15.23,8.97Z"/><ellipse cx="43.26" cy="35.01" rx="2.23" ry="3.5" transform="translate(-12.19 30.26) rotate(-34.09)"/><ellipse class="cls-1" cx="43.35" cy="32.58" rx=".91" ry=".5" transform="translate(-5.97 10.03) rotate(-12.36)"/><ellipse cx="48.58" cy="30.53" rx="1.71" ry="2.69" transform="translate(-3.12 5.65) rotate(-6.46)"/><ellipse class="cls-1" cx="49.31" cy="28.56" rx=".91" ry=".5" transform="translate(-7.67 29.27) rotate(-30.79)"/><path class="cls-2" d="m35.47,53.66c2.68,3.7.59,10.75-10.01,7.57-10.61-3.18-14.56-14.44-10.72-16.09,3.83-1.64,17.33,3.82,20.73,8.52Z"/><g><polygon class="cls-5" points="23.19 23.13 39.82 15.78 37.34 12.21 22.15 19.1 23.19 23.13"/><g><polygon class="cls-3" points="25.53 19.11 19.08 8.23 29.81 1.48 35.34 15.11 25.53 19.11"/><ellipse class="cls-4" cx="28.75" cy="9.65" rx="1.92" ry="2.59" transform="translate(-1.56 8.71) rotate(-16.77)"/><path class="cls-4" d="m29.53,17.42c-2.55-4.18-3.36-6.32-1.66-7.29s3.93,6.37,3.93,6.37l-2.26.92Z"/><ellipse class="cls-4" cx="25.71" cy="11.28" rx="1.92" ry="2.59" transform="translate(-2.16 7.9) rotate(-16.77)"/><polygon class="cls-6" points="25.53 19.11 19.08 8.23 29.81 1.48 35.34 15.11 25.53 19.11"/></g></g><path class="cls-7" d="m26.8,21.54c-3.93,8.62.37,21.4,23.09,24.53"/></g></g></svg>