<?xml version="1.0" encoding="UTF-8"?><svg id="Livello_2" xmlns="http://www.w3.org/2000/svg" viewBox="0 0 54.4 55.76"><defs><style>.cls-1{fill:none;}.cls-2{fill:#6f77ea;stroke:#000;stroke-miterlimit:10;stroke-width:3px;}</style></defs><g id="HUD_objects"><g id="HUDtimerDoorL"><path class="cls-1" d="m.07,53.21l53.33,2.55S61.86-.86,29.49,0C-2.87.88.07,53.21.07,53.21Z"/><path class="cls-2" d="m29.36,1.61C-1.15,2.43,1.63,51.76,1.63,51.76l26.34,1.26h0L29.36,1.61ZM6.31,44.71l16.73.95-16.73-.95Zm.31-7.21l16.73.95-16.73-.95Zm1.24-7.16l15.95.91-15.95-.91Zm2.18-7.08l13.78.79-13.78-.79Zm2.94-7.06l11.23.64-11.23-.64Zm5.61-6.92l6.24.36-6.24-.36Z"/></g></g></svg>