<?xml version="1.0" encoding="UTF-8"?><svg id="Livello_2" xmlns="http://www.w3.org/2000/svg" viewBox="0 0 300.34 28.38"><defs><style>.cls-1{fill:#93ff3e;}</style></defs><g id="HUD_objects"><g id="HUDtimerRewind"><g><path class="cls-1" d="m25.16,0h-5.26c-.43,0-.79.35-.79.79v2.87c0,.62-.5,1.13-1.13,1.13h-5.23c-.43,0-.79.36-.79.79v2.87c0,.62-.5,1.13-1.13,1.13H.79c-.43,0-.79.35-.79.79v2.87c0,.43.35.79.79.79h24.05c.61,0,1.11-.5,1.11-1.11V3.66h0s0,0,0,0V.79c0-.43-.35-.79-.79-.79Z"/><path class="cls-1" d="m24.84,14.36H.79c-.43,0-.79.35-.79.79v2.87c0,.43.35.79.79.79h10.05c.62,0,1.13.5,1.13,1.13v2.87c0,.43.35.79.79.79h5.23c.62,0,1.13.51,1.13,1.13v2.87c0,.43.35.79.79.79h5.26c.43,0,.79-.35.79-.79v-12.12c0-.61-.5-1.11-1.11-1.11Z"/><path class="cls-1" d="m52.3.79c0-.43-.35-.79-.79-.79h-5.26c-.43,0-.79.35-.79.79v2.87c0,.62-.5,1.13-1.13,1.13h-5.23c-.43,0-.79.36-.79.79v2.87c0,.62-.5,1.13-1.13,1.13h-10.05c-.43,0-.79.35-.79.79v2.87c0,.43.35.79.79.79h24.05c.61,0,1.11-.5,1.11-1.11V3.66h0s0,0,0,0V.79Z"/><path class="cls-1" d="m51.19,14.36h-24.05c-.43,0-.79.35-.79.79v2.87c0,.43.35.79.79.79h10.05c.62,0,1.13.5,1.13,1.13v2.87c0,.43.35.79.79.79h5.23c.62,0,1.13.51,1.13,1.13v2.87c0,.43.35.79.79.79h5.26c.43,0,.79-.35.79-.79v-12.12c0-.61-.5-1.11-1.11-1.11Z"/></g><g><path class="cls-1" d="m87.17,0h-5.26c-.43,0-.79.35-.79.79v2.87c0,.62-.5,1.13-1.13,1.13h-5.23c-.43,0-.79.36-.79.79v2.87c0,.62-.5,1.13-1.13,1.13h-10.05c-.43,0-.79.35-.79.79v2.87c0,.43.35.79.79.79h24.05c.61,0,1.11-.5,1.11-1.11V3.66h0s0,0,0,0V.79c0-.43-.35-.79-.79-.79Z"/><path class="cls-1" d="m86.85,14.36h-24.05c-.43,0-.79.35-.79.79v2.87c0,.43.35.79.79.79h10.05c.62,0,1.13.5,1.13,1.13v2.87c0,.43.35.79.79.79h5.23c.62,0,1.13.51,1.13,1.13v2.87c0,.43.35.79.79.79h5.26c.43,0,.79-.35.79-.79v-12.12c0-.61-.5-1.11-1.11-1.11Z"/><path class="cls-1" d="m114.31.79c0-.43-.35-.79-.79-.79h-5.26c-.43,0-.79.35-.79.79v2.87c0,.62-.5,1.13-1.13,1.13h-5.23c-.43,0-.79.36-.79.79v2.87c0,.62-.5,1.13-1.13,1.13h-10.05c-.43,0-.79.35-.79.79v2.87c0,.43.35.79.79.79h24.05c.61,0,1.11-.5,1.11-1.11V3.66h0s0,0,0,0V.79Z"/><path class="cls-1" d="m113.2,14.36h-24.05c-.43,0-.79.35-.79.79v2.87c0,.43.35.79.79.79h10.05c.62,0,1.13.5,1.13,1.13v2.87c0,.43.35.79.79.79h5.23c.62,0,1.13.51,1.13,1.13v2.87c0,.43.35.79.79.79h5.26c.43,0,.79-.35.79-.79v-12.12c0-.61-.5-1.11-1.11-1.11Z"/></g><g><path class="cls-1" d="m149.18,0h-5.26c-.43,0-.79.35-.79.79v2.87c0,.62-.5,1.13-1.13,1.13h-5.23c-.43,0-.79.36-.79.79v2.87c0,.62-.5,1.13-1.13,1.13h-10.05c-.43,0-.79.35-.79.79v2.87c0,.43.35.79.79.79h24.05c.61,0,1.11-.5,1.11-1.11V3.66h0s0,0,0,0V.79c0-.43-.35-.79-.79-.79Z"/><path class="cls-1" d="m148.87,14.36h-24.05c-.43,0-.79.35-.79.79v2.87c0,.43.35.79.79.79h10.05c.62,0,1.13.5,1.13,1.13v2.87c0,.43.35.79.79.79h5.23c.62,0,1.13.51,1.13,1.13v2.87c0,.43.35.79.79.79h5.26c.43,0,.79-.35.79-.79v-12.12c0-.61-.5-1.11-1.11-1.11Z"/><path class="cls-1" d="m176.32.79c0-.43-.35-.79-.79-.79h-5.26c-.43,0-.79.35-.79.79v2.87c0,.62-.5,1.13-1.13,1.13h-5.23c-.43,0-.79.36-.79.79v2.87c0,.62-.5,1.13-1.13,1.13h-10.05c-.43,0-.79.35-.79.79v2.87c0,.43.35.79.79.79h24.05c.61,0,1.11-.5,1.11-1.11V3.66h0s0,0,0,0V.79Z"/><path class="cls-1" d="m175.21,14.36h-24.05c-.43,0-.79.35-.79.79v2.87c0,.43.35.79.79.79h10.05c.62,0,1.13.5,1.13,1.13v2.87c0,.43.35.79.79.79h5.23c.62,0,1.13.51,1.13,1.13v2.87c0,.43.35.79.79.79h5.26c.43,0,.79-.35.79-.79v-12.12c0-.61-.5-1.11-1.11-1.11Z"/></g><g><path class="cls-1" d="m211.2,0h-5.26c-.43,0-.79.35-.79.79v2.87c0,.62-.5,1.13-1.13,1.13h-5.23c-.43,0-.79.36-.79.79v2.87c0,.62-.5,1.13-1.13,1.13h-10.05c-.43,0-.79.35-.79.79v2.87c0,.43.35.79.79.79h24.05c.61,0,1.11-.5,1.11-1.11V3.66h0s0,0,0,0V.79c0-.43-.35-.79-.79-.79Z"/><path class="cls-1" d="m210.88,14.36h-24.05c-.43,0-.79.35-.79.79v2.87c0,.43.35.79.79.79h10.05c.62,0,1.13.5,1.13,1.13v2.87c0,.43.35.79.79.79h5.23c.62,0,1.13.51,1.13,1.13v2.87c0,.43.35.79.79.79h5.26c.43,0,.79-.35.79-.79v-12.12c0-.61-.5-1.11-1.11-1.11Z"/><path class="cls-1" d="m238.33.79c0-.43-.35-.79-.79-.79h-5.26c-.43,0-.79.35-.79.79v2.87c0,.62-.5,1.13-1.13,1.13h-5.23c-.43,0-.79.36-.79.79v2.87c0,.62-.5,1.13-1.13,1.13h-10.05c-.43,0-.79.35-.79.79v2.87c0,.43.35.79.79.79h24.05c.61,0,1.11-.5,1.11-1.11V3.66h0s0,0,0,0V.79Z"/><path class="cls-1" d="m237.22,14.36h-24.05c-.43,0-.79.35-.79.79v2.87c0,.43.35.79.79.79h10.05c.62,0,1.13.5,1.13,1.13v2.87c0,.43.35.79.79.79h5.23c.62,0,1.13.51,1.13,1.13v2.87c0,.43.35.79.79.79h5.26c.43,0,.79-.35.79-.79v-12.12c0-.61-.5-1.11-1.11-1.11Z"/></g><g><path class="cls-1" d="m273.21,0h-5.26c-.43,0-.79.35-.79.79v2.87c0,.62-.5,1.13-1.13,1.13h-5.23c-.43,0-.79.36-.79.79v2.87c0,.62-.5,1.13-1.13,1.13h-10.05c-.43,0-.79.35-.79.79v2.87c0,.43.35.79.79.79h24.05c.61,0,1.11-.5,1.11-1.11V3.66h0s0,0,0,0V.79c0-.43-.35-.79-.79-.79Z"/><path class="cls-1" d="m272.89,14.36h-24.05c-.43,0-.79.35-.79.79v2.87c0,.43.35.79.79.79h10.05c.62,0,1.13.5,1.13,1.13v2.87c0,.43.35.79.79.79h5.23c.62,0,1.13.51,1.13,1.13v2.87c0,.43.35.79.79.79h5.26c.43,0,.79-.35.79-.79v-12.12c0-.61-.5-1.11-1.11-1.11Z"/><path class="cls-1" d="m300.34.79c0-.43-.35-.79-.79-.79h-5.26c-.43,0-.79.35-.79.79v2.87c0,.62-.5,1.13-1.13,1.13h-5.23c-.43,0-.79.36-.79.79v2.87c0,.62-.5,1.13-1.13,1.13h-10.05c-.43,0-.79.35-.79.79v2.87c0,.43.35.79.79.79h24.05c.61,0,1.11-.5,1.11-1.11V3.66h0s0,0,0,0V.79Z"/><path class="cls-1" d="m299.23,14.36h-24.05c-.43,0-.79.35-.79.79v2.87c0,.43.35.79.79.79h10.05c.62,0,1.13.5,1.13,1.13v2.87c0,.43.35.79.79.79h5.23c.62,0,1.13.51,1.13,1.13v2.87c0,.43.35.79.79.79h5.26c.43,0,.79-.35.79-.79v-12.12c0-.61-.5-1.11-1.11-1.11Z"/></g></g></g></svg>