<?xml version="1.0" encoding="UTF-8"?><svg id="Livello_2" xmlns="http://www.w3.org/2000/svg" viewBox="0 0 481.19 114.22"><defs><style>.cls-1{fill:none;}.cls-2,.cls-3{fill:#424249;}.cls-4,.cls-5{fill:#898998;}.cls-3{font-family:Monotalic-Regular, Monotalic;font-size:40px;}.cls-5{stroke:#424249;stroke-miterlimit:10;stroke-width:3px;}</style></defs><g id="PAUSE_objects"><g id="pauseRestartClick"><rect class="cls-1" width="481.19" height="114.22"/><g><path class="cls-4" d="m15.51,14.6l442.64,1.11,3.53,80.2-444.88-3.03-1.29-78.28m-7.12-7.02l.12,7.13,1.29,78.28.11,6.84,6.84.05,444.88,3.03,7.36.05-.32-7.36-3.53-80.2-.29-6.68-6.68-.02L15.53,7.6l-7.13-.02h0Z"/><polygon class="cls-5" points="461.68 95.9 16.8 92.88 15.51 14.6 458.15 15.71 461.68 95.9"/><path class="cls-2" d="m52.21,41.63l-.89-2.43s20.51-7.67,25.28,9.32c5.72,20.38-15.32,26.89-23.43,23.79-5.95-2.27-11-7.03-9.21-15.8l-7.25,2.22,10.62-13.08,6.59,15.54-6.85-4.35s1.36,10.81,11.58,9.86,14.81-12.47,13.48-17.81c-1.18-4.72-4.63-9.36-19.92-7.25Z"/><text class="cls-3" transform="translate(186.76 69.75)"><tspan x="0" y="0">restart</tspan></text></g></g></g></svg>