<?xml version="1.0" encoding="UTF-8"?><svg id="Livello_2" xmlns="http://www.w3.org/2000/svg" viewBox="0 0 481.19 114.22"><defs><style>.cls-1{fill:none;}.cls-2,.cls-3{fill:#444fd2;}.cls-4,.cls-5{fill:#808de9;}.cls-3{font-family:Monotalic-Regular, Monotalic;font-size:40px;}.cls-5{stroke:#444fd2;stroke-miterlimit:10;stroke-width:3px;}</style></defs><g id="PAUSE_objects"><g id="pauseMMenuClick"><rect class="cls-1" width="481.19" height="114.22"/><g><path class="cls-4" d="m458.63,15.62l-1.18,80.75-434.96-.17L15.03,19.09l443.6-3.47m7.1-7.06l-7.16.06L14.97,12.09l-7.65.06.74,7.61,7.46,77.12.61,6.32h6.35s434.96.17,434.96.17h6.9s.1-6.9.1-6.9l1.18-80.75.1-7.16h0Z"/><polygon class="cls-5" points="457.45 96.38 22.48 96.2 15.03 19.09 458.63 15.62 457.45 96.38"/><g><polygon class="cls-2" points="71.92 72.45 43.03 71.03 43.03 65.68 71.92 66.58 71.92 72.45"/><polygon class="cls-2" points="71.77 60.89 43.78 60.89 42.96 54.49 71.92 55.02 71.77 60.89"/><polygon class="cls-2" points="72.3 48.88 43.03 49.25 43.33 42.41 72.15 43.15 72.3 48.88"/></g><text class="cls-3" transform="translate(163.23 69.66)"><tspan x="0" y="0">main menu</tspan></text></g></g></g></svg>