<?xml version="1.0" encoding="UTF-8"?><svg id="Livello_2" xmlns="http://www.w3.org/2000/svg" viewBox="0 0 481.19 114.22"><defs><style>.cls-1{fill:none;}.cls-2,.cls-3{fill:#b7b7cb;}.cls-4,.cls-5{fill:#5c5c66;}.cls-5{font-family:Monotalic-Regular, Monotalic;font-size:40px;}.cls-3{stroke:#5c5c66;stroke-miterlimit:10;stroke-width:3px;}</style></defs><g id="PAUSE_objects"><g id="pauseResumeHover"><rect class="cls-1" width="481.19" height="114.22"/><g><path class="cls-2" d="m15.03,13.85l450.02,3.32-2.89,75.34-444.66,3.14L15.03,13.85m-7.22-7.05l.22,7.26,2.47,81.8.21,6.84,6.84-.05,444.66-3.14,6.69-.05.26-6.68,2.89-75.34.28-7.21-7.22-.05L15.08,6.85l-7.27-.05h0Z"/><polygon class="cls-3" points="462.16 92.51 17.5 95.65 15.03 13.85 465.05 17.17 462.16 92.51"/><polygon class="cls-4" points="45.6 70.75 42.96 39.71 72.3 55.23 45.6 70.75"/><text class="cls-5" transform="translate(199.23 69.75)"><tspan x="0" y="0">resume</tspan></text></g></g></g></svg>