<?xml version="1.0" encoding="UTF-8"?><svg id="Livello_2" xmlns="http://www.w3.org/2000/svg" viewBox="0 0 481.19 114.22"><defs><style>.cls-1{fill:none;}.cls-2,.cls-3{fill:#444fd2;}.cls-4,.cls-5{fill:#808de9;}.cls-3{font-family:Monotalic-Regular, Monotalic;font-size:40px;}.cls-5{stroke:#444fd2;stroke-miterlimit:10;stroke-width:3px;}</style></defs><g id="PAUSE_objects"><g id="pauseOptionsClick"><rect class="cls-1" width="481.19" height="114.22"/><g><path class="cls-4" d="m15.03,17.6l447.13,2.66-3.53,75.01H17.5l-2.47-77.67m-7.23-7.04l.23,7.27,2.47,77.67.22,6.78h454.59l.31-6.67,3.53-75.01.34-7.29-7.29-.04L15.07,10.6l-7.27-.04h0Z"/><polygon class="cls-5" points="458.63 95.27 17.5 95.27 15.03 17.6 462.16 20.26 458.63 95.27"/><path class="cls-2" d="m51.32,44.82c-.76.52-1.49,1.14-2.18,1.83l-4.14-2.39-4.1,6.22,4.08,2.6c-.48,1.27-.83,2.61-1,3.98l-4.49.72,1.49,7.76,4.18-.99c.69,1.29,1.62,2.42,2.75,3.37l-2.15,3.48,5.45,3.1,2.63-3.64h0c1.7.42,3.53.59,5.42.5h0l.53,4.79,6.51-2.09-1.43-3.91c.79-.42,1.9-1.12,3.04-2.28h0l3.2,2.17,3.75-4.93-3.75-2.43h0c.43-1.19.72-2.45.88-3.99.03-.29.05-.58.06-.86l3.71-.72-.9-6.92-4.33,1.34h0c-.82-1.53-1.91-2.92-3.18-4.12l3.4-4.62-7.31-3.81-1.62,4.83c-1.24-.51-2.47-.84-3.63-.96l-.82-4.47-7.95,1.02m14.01,18.32c-.39,3.72-3.19,4.65-3.19,4.65-3.72,1.05-7.43-.7-7.75-3.95-.33-3.36,2.29-6.52,4.73-6.86,2.44-.35,6.6,2.44,6.21,6.17Z"/><text class="cls-3" transform="translate(187.23 69.75)"><tspan x="0" y="0">options</tspan></text></g></g></g></svg>