<?xml version="1.0" encoding="UTF-8"?><svg id="Livello_2" xmlns="http://www.w3.org/2000/svg" viewBox="0 0 481.19 114.22"><defs><style>.cls-1{fill:none;}.cls-2{fill:#444fd2;}.cls-3{fill:#808de9;}</style></defs><g id="PAUSE_objects"><g id="pauseMMenuClick"><rect class="cls-1" width="481.19" height="114.22"/><g><path class="cls-3" d="m458.63,15.62l-1.18,80.75-434.96-.17L15.03,19.09l443.6-3.47m7.1-7.06l-7.16.06L14.97,12.09l-7.65.06.74,7.61,7.46,77.12.61,6.32h6.35s434.96.17,434.96.17h6.9s.1-6.9.1-6.9l1.18-80.75.1-7.16h0Z"/><g><polygon class="cls-3" points="457.45 96.38 22.48 96.2 15.03 19.09 458.63 15.62 457.45 96.38"/><path class="cls-2" d="m458.93,97.88h-1.48s-436.33-.17-436.33-.17L13.38,17.6l446.77-3.49-1.23,83.77Zm-435.08-3.17l432.12.17,1.14-77.74L16.68,20.57l7.17,74.13Z"/></g><g><polygon class="cls-2" points="71.92 72.45 43.03 71.03 43.03 65.68 71.92 66.58 71.92 72.45"/><polygon class="cls-2" points="71.77 60.89 43.78 60.89 42.96 54.49 71.92 55.02 71.77 60.89"/><polygon class="cls-2" points="72.3 48.88 43.03 49.25 43.33 42.41 72.15 43.15 72.3 48.88"/></g><g><path class="cls-2" d="m184.89,50.94c.68,1.07,1.02,2.61,1.02,4.64v14.08h-3.76v-13.68c0-1.17-.15-2.03-.46-2.56s-.93-.8-1.86-.8c-1.39,0-2.29.71-2.72,2.12v14.92h-3.76v-13.68c0-1.12-.15-1.96-.44-2.52-.29-.56-.92-.84-1.88-.84-1.36,0-2.27.65-2.72,1.96v15.08h-3.76v-20h2.44l1,2.6h.08c.27-1.09.77-1.85,1.5-2.28.73-.43,1.65-.64,2.74-.64,1.23,0,2.19.25,2.9.74.71.49,1.21,1.22,1.5,2.18h.08c.27-1.09.77-1.85,1.5-2.28.73-.43,1.67-.64,2.82-.64,1.84,0,3.1.53,3.78,1.6Z"/><path class="cls-2" d="m209.99,66.42v3.24c-.64.21-1.35.32-2.12.32-2.37,0-3.8-1.32-4.28-3.96h-.12c-.64,2.64-2.78,3.96-6.4,3.96-2.32,0-4.17-.59-5.54-1.76-1.37-1.17-2.06-2.79-2.06-4.84,0-1.79.67-3.22,2.02-4.32,1.35-1.09,3.29-1.64,5.82-1.64,2.16,0,4.17.19,6.04.56h.08v-.24c0-1.17-.17-2.11-.5-2.82s-.95-1.24-1.86-1.6c-.91-.36-2.2-.54-3.88-.54-1.28,0-2.58.14-3.9.42-1.32.28-2.31.55-2.98.82l-.04-3.56c.77-.29,1.82-.55,3.14-.78s2.66-.34,4.02-.34c3.6,0,6.15.71,7.66,2.14,1.51,1.43,2.26,3.5,2.26,6.22v6.72c0,.67.11,1.19.32,1.56s.63.56,1.24.56c.24,0,.6-.04,1.08-.12Zm-8.9-.62c1.05-.49,1.83-1.21,2.34-2.14v-3.16h-5.68c-2.91,0-4.36.97-4.36,2.92,0,.88.33,1.62,1,2.22.67.6,1.65.9,2.96.9,1.44,0,2.69-.25,3.74-.74Z"/><path class="cls-2" d="m233.95,66.26v3.2c-.29.11-.73.22-1.32.34-.59.12-1.2.18-1.84.18-2.51,0-4.51-.68-6.02-2.04s-2.57-3.2-3.18-5.52c-1.01,1.71-2.65,4.12-4.92,7.24h-4.6l1.84-2.44c2.11-2.77,3.67-4.95,4.7-6.52,1.03-1.57,1.79-3.13,2.3-4.68v-6.36h3.92v6.92c0,6.64,2.11,9.96,6.32,9.96,1.17,0,2.11-.09,2.8-.28Zm-13.52-20.96c-.59-.45-.88-1.11-.88-1.96s.29-1.51.88-1.98,1.4-.7,2.44-.7,1.82.23,2.42.7c.6.47.9,1.13.9,1.98s-.3,1.51-.9,1.96c-.6.46-1.41.68-2.42.68s-1.85-.23-2.44-.68Z"/><path class="cls-2" d="m258.15,66.42v3.24c-.59.21-1.29.32-2.12.32-1.52,0-2.64-.47-3.36-1.42-.72-.95-1.08-2.23-1.08-3.86v-7.72c0-1.23-.27-2.23-.8-3.02-.53-.79-1.65-1.18-3.36-1.18-2.35,0-3.87,1.01-4.56,3.04v13.84h-3.92v-20h2.44l1.12,3.48h.2c.29-1.28.92-2.23,1.88-2.86.96-.62,2.31-.94,4.04-.94,2.56,0,4.35.65,5.36,1.94,1.01,1.29,1.52,3.03,1.52,5.22v7.92c0,.72.11,1.25.32,1.6.21.35.61.52,1.2.52.27,0,.64-.04,1.12-.12Z"/><path class="cls-2" d="m304.89,50.94c.68,1.07,1.02,2.61,1.02,4.64v14.08h-3.76v-13.68c0-1.17-.15-2.03-.46-2.56s-.93-.8-1.86-.8c-1.39,0-2.29.71-2.72,2.12v14.92h-3.76v-13.68c0-1.12-.15-1.96-.44-2.52-.29-.56-.92-.84-1.88-.84-1.36,0-2.27.65-2.72,1.96v15.08h-3.76v-20h2.44l1,2.6h.08c.27-1.09.77-1.85,1.5-2.28.73-.43,1.65-.64,2.74-.64,1.23,0,2.19.25,2.9.74.71.49,1.21,1.22,1.5,2.18h.08c.27-1.09.77-1.85,1.5-2.28.73-.43,1.67-.64,2.82-.64,1.84,0,3.1.53,3.78,1.6Z"/><path class="cls-2" d="m328.99,61.26h-15.48c.24,1.84.94,3.18,2.1,4.02s2.87,1.26,5.14,1.26c2.56,0,4.88-.36,6.96-1.08v3.44c-.72.27-1.7.51-2.94.74-1.24.22-2.61.34-4.1.34-3.76,0-6.56-.93-8.4-2.78s-2.76-4.37-2.76-7.54c0-2.24.44-4.13,1.32-5.68s2.09-2.71,3.64-3.48c1.54-.77,3.32-1.16,5.32-1.16,2.88,0,5.13.81,6.76,2.42,1.62,1.61,2.44,4.02,2.44,7.22v2.28Zm-3.68-3.08c0-3.6-1.84-5.4-5.52-5.4-1.79,0-3.23.41-4.32,1.22-1.09.81-1.75,2.21-1.96,4.18h11.8Z"/><path class="cls-2" d="m354.15,66.42v3.24c-.59.21-1.29.32-2.12.32-1.52,0-2.64-.47-3.36-1.42-.72-.95-1.08-2.23-1.08-3.86v-7.72c0-1.23-.27-2.23-.8-3.02-.53-.79-1.65-1.18-3.36-1.18-2.35,0-3.87,1.01-4.56,3.04v13.84h-3.92v-20h2.44l1.12,3.48h.2c.29-1.28.92-2.23,1.88-2.86.96-.62,2.31-.94,4.04-.94,2.56,0,4.35.65,5.36,1.94,1.01,1.29,1.52,3.03,1.52,5.22v7.92c0,.72.11,1.25.32,1.6.21.35.61.52,1.2.52.27,0,.64-.04,1.12-.12Z"/><path class="cls-2" d="m378.19,66.42v3.24c-.69.21-1.41.32-2.16.32-2.29,0-3.71-1.28-4.24-3.84h-.12c-.21,1.23-.77,2.17-1.68,2.84-.91.67-2.15,1-3.72,1-2.32,0-4.11-.69-5.38-2.08-1.27-1.39-1.9-3.4-1.9-6.04v-8.76h-2.84v-3.44h6.76v11.52c0,1.79.29,3.13.86,4.02.57.89,1.69,1.34,3.34,1.34,1.09,0,2.03-.29,2.8-.88s1.35-1.43,1.72-2.52v-13.48h3.92v14.76c0,.72.11,1.25.32,1.6.21.35.61.52,1.2.52.35,0,.72-.04,1.12-.12Z"/></g></g></g></g></svg>