<?xml version="1.0" encoding="UTF-8"?><svg id="Livello_2" xmlns="http://www.w3.org/2000/svg" viewBox="0 0 481.19 114.22"><defs><style>.cls-1{fill:none;}.cls-2{fill:#444fd2;}.cls-3{fill:#808de9;}</style></defs><g id="PAUSE_objects"><g id="pauseLevelSelClick"><rect class="cls-1" width="481.19" height="114.22"/><g><path class="cls-3" d="m454.22,13.21l2,83.08-439.95-.39,3.66-76.48,434.3-6.21m6.83-7.1l-6.93.1L19.82,12.42l-6.58.09-.31,6.57-3.66,76.48-.35,7.33h7.34s439.95.39,439.95.39h7.18s-.17-7.17-.17-7.17l-2-83.08-.17-6.93h0Z"/><g><polygon class="cls-3" points="456.21 96.29 16.26 95.9 19.92 19.42 454.22 13.21 456.21 96.29"/><path class="cls-2" d="m457.75,97.79h-1.54s-441.52-.39-441.52-.39l3.8-79.46,1.41-.02,435.78-6.23,2.07,86.1Zm-439.91-3.39l436.84.38-1.92-80.05L21.35,20.9l-3.52,73.51Z"/></g><polygon class="cls-2" points="55.58 66.03 40.49 77.15 49.04 61.38 36.61 49.73 51.89 54.01 59.88 38.35 60.44 55.89 76.18 53.35 62.82 63.18 72.3 76.11 55.58 66.03"/><g><path class="cls-2" d="m148.68,66.47v3.32c-.56.19-1.41.28-2.56.28-2,0-3.87-.5-5.62-1.5-1.75-1-3.27-2.41-4.58-4.22-1.81,2.27-3.28,4.07-4.4,5.4h-4.56c3.09-3.49,5.47-6.33,7.12-8.52-1.71-3.55-2.56-7.67-2.56-12.36,0-3.36.55-5.79,1.66-7.28,1.11-1.49,2.59-2.24,4.46-2.24s3.42.69,4.5,2.08c1.08,1.39,1.62,3.4,1.62,6.04,0,2.19-.37,4.27-1.12,6.24-.75,1.97-2.17,4.43-4.28,7.36,1.07,1.79,2.33,3.16,3.8,4.12,1.47.96,3,1.44,4.6,1.44.59,0,1.23-.05,1.92-.16Zm-11.92-8.88c.93-1.41,1.63-2.67,2.08-3.76.45-1.09.75-2.11.88-3.06.13-.95.2-2.07.2-3.38,0-1.73-.21-2.93-.62-3.6-.41-.67-.97-1-1.66-1s-1.27.48-1.66,1.44c-.39.96-.58,2.63-.58,5,0,2.99.45,5.77,1.36,8.36Z"/><path class="cls-2" d="m171.76,61.35h-15.48c.24,1.84.94,3.18,2.1,4.02s2.87,1.26,5.14,1.26c2.56,0,4.88-.36,6.96-1.08v3.44c-.72.27-1.7.51-2.94.74-1.24.23-2.61.34-4.1.34-3.76,0-6.56-.93-8.4-2.78s-2.76-4.37-2.76-7.54c0-2.24.44-4.13,1.32-5.68.88-1.55,2.09-2.71,3.64-3.48,1.55-.77,3.32-1.16,5.32-1.16,2.88,0,5.13.81,6.76,2.42,1.63,1.61,2.44,4.02,2.44,7.22v2.28Zm-3.68-3.08c0-3.6-1.84-5.4-5.52-5.4-1.79,0-3.23.41-4.32,1.22-1.09.81-1.75,2.21-1.96,4.18h11.8Z"/><path class="cls-2" d="m196.76,49.75l-7,20h-6.28l-5.52-16.56h-3.56v-3.44h6.48l5.52,16.6h.48l5.8-16.6h4.08Z"/><path class="cls-2" d="m219.76,61.35h-15.48c.24,1.84.94,3.18,2.1,4.02s2.87,1.26,5.14,1.26c2.56,0,4.88-.36,6.96-1.08v3.44c-.72.27-1.7.51-2.94.74-1.24.23-2.61.34-4.1.34-3.76,0-6.56-.93-8.4-2.78s-2.76-4.37-2.76-7.54c0-2.24.44-4.13,1.32-5.68.88-1.55,2.09-2.71,3.64-3.48,1.55-.77,3.32-1.16,5.32-1.16,2.88,0,5.13.81,6.76,2.42,1.63,1.61,2.44,4.02,2.44,7.22v2.28Zm-3.68-3.08c0-3.6-1.84-5.4-5.52-5.4-1.79,0-3.23.41-4.32,1.22-1.09.81-1.75,2.21-1.96,4.18h11.8Z"/><path class="cls-2" d="m244.68,66.47v3.32c-.56.19-1.41.28-2.56.28-2,0-3.87-.5-5.62-1.5-1.75-1-3.27-2.41-4.58-4.22-1.81,2.27-3.28,4.07-4.4,5.4h-4.56c3.09-3.49,5.47-6.33,7.12-8.52-1.71-3.55-2.56-7.67-2.56-12.36,0-3.36.55-5.79,1.66-7.28,1.11-1.49,2.59-2.24,4.46-2.24s3.42.69,4.5,2.08c1.08,1.39,1.62,3.4,1.62,6.04,0,2.19-.37,4.27-1.12,6.24-.75,1.97-2.17,4.43-4.28,7.36,1.07,1.79,2.33,3.16,3.8,4.12,1.47.96,3,1.44,4.6,1.44.59,0,1.23-.05,1.92-.16Zm-11.92-8.88c.93-1.41,1.63-2.67,2.08-3.76.45-1.09.75-2.11.88-3.06.13-.95.2-2.07.2-3.38,0-1.73-.21-2.93-.62-3.6-.41-.67-.97-1-1.66-1s-1.27.48-1.66,1.44c-.39.96-.58,2.63-.58,5,0,2.99.45,5.77,1.36,8.36Z"/><path class="cls-2" d="m274.86,51.13c1.72-1.13,4.13-1.7,7.22-1.7,1.52,0,2.97.13,4.34.38,1.37.25,2.42.51,3.14.78v3.44c-.77-.29-1.82-.56-3.14-.8-1.32-.24-2.74-.36-4.26-.36-3.97,0-5.96,1.03-5.96,3.08,0,.77.36,1.31,1.08,1.6.72.29,1.72.48,3,.56l4.04.2c2.45.16,4.31.65,5.56,1.46,1.25.81,1.88,2.07,1.88,3.78,0,2.16-.87,3.79-2.62,4.88-1.75,1.09-4.27,1.64-7.58,1.64-1.76,0-3.39-.16-4.88-.48s-2.6-.64-3.32-.96v-3.44c.8.35,1.92.67,3.36.98,1.44.31,3.03.46,4.76.46,4.24,0,6.36-1.03,6.36-3.08,0-.77-.34-1.3-1.02-1.58-.68-.28-1.71-.47-3.1-.58l-3.96-.2c-2.45-.16-4.31-.65-5.58-1.46s-1.9-2.07-1.9-3.78c0-2.08.86-3.69,2.58-4.82Z"/><path class="cls-2" d="m315.76,61.35h-15.48c.24,1.84.94,3.18,2.1,4.02s2.87,1.26,5.14,1.26c2.56,0,4.88-.36,6.96-1.08v3.44c-.72.27-1.7.51-2.94.74-1.24.23-2.61.34-4.1.34-3.76,0-6.56-.93-8.4-2.78s-2.76-4.37-2.76-7.54c0-2.24.44-4.13,1.32-5.68.88-1.55,2.09-2.71,3.64-3.48,1.55-.77,3.32-1.16,5.32-1.16,2.88,0,5.13.81,6.76,2.42,1.63,1.61,2.44,4.02,2.44,7.22v2.28Zm-3.68-3.08c0-3.6-1.84-5.4-5.52-5.4-1.79,0-3.23.41-4.32,1.22-1.09.81-1.75,2.21-1.96,4.18h11.8Z"/><path class="cls-2" d="m340.68,66.47v3.32c-.56.19-1.41.28-2.56.28-2,0-3.87-.5-5.62-1.5-1.75-1-3.27-2.41-4.58-4.22-1.81,2.27-3.28,4.07-4.4,5.4h-4.56c3.09-3.49,5.47-6.33,7.12-8.52-1.71-3.55-2.56-7.67-2.56-12.36,0-3.36.55-5.79,1.66-7.28,1.11-1.49,2.59-2.24,4.46-2.24s3.42.69,4.5,2.08c1.08,1.39,1.62,3.4,1.62,6.04,0,2.19-.37,4.27-1.12,6.24-.75,1.97-2.17,4.43-4.28,7.36,1.07,1.79,2.33,3.16,3.8,4.12,1.47.96,3,1.44,4.6,1.44.59,0,1.23-.05,1.92-.16Zm-11.92-8.88c.93-1.41,1.63-2.67,2.08-3.76.45-1.09.75-2.11.88-3.06.13-.95.2-2.07.2-3.38,0-1.73-.21-2.93-.62-3.6-.41-.67-.97-1-1.66-1s-1.27.48-1.66,1.44c-.39.96-.58,2.63-.58,5,0,2.99.45,5.77,1.36,8.36Z"/><path class="cls-2" d="m363.76,61.35h-15.48c.24,1.84.94,3.18,2.1,4.02s2.87,1.26,5.14,1.26c2.56,0,4.88-.36,6.96-1.08v3.44c-.72.27-1.7.51-2.94.74-1.24.23-2.61.34-4.1.34-3.76,0-6.56-.93-8.4-2.78s-2.76-4.37-2.76-7.54c0-2.24.44-4.13,1.32-5.68.88-1.55,2.09-2.71,3.64-3.48,1.55-.77,3.32-1.16,5.32-1.16,2.88,0,5.13.81,6.76,2.42,1.63,1.61,2.44,4.02,2.44,7.22v2.28Zm-3.68-3.08c0-3.6-1.84-5.4-5.52-5.4-1.79,0-3.23.41-4.32,1.22-1.09.81-1.75,2.21-1.96,4.18h11.8Z"/><path class="cls-2" d="m370.3,54.23c.95-1.55,2.25-2.73,3.92-3.56,1.67-.83,3.57-1.24,5.7-1.24,1.55,0,2.88.17,4,.5,1.12.33,1.97.7,2.56,1.1v4.04c-1.95-1.47-4.12-2.2-6.52-2.2-2.08,0-3.79.57-5.14,1.7-1.35,1.13-2.02,2.86-2.02,5.18s.66,3.98,1.98,5.14c1.32,1.16,3.14,1.74,5.46,1.74,1.44,0,2.8-.26,4.08-.78,1.28-.52,2.37-1.14,3.28-1.86v3.88c-.69.53-1.7,1.03-3.02,1.5-1.32.47-2.82.7-4.5.7-2.43,0-4.48-.46-6.16-1.38-1.68-.92-2.94-2.16-3.78-3.72-.84-1.56-1.26-3.3-1.26-5.22,0-2.13.47-3.97,1.42-5.52Z"/><path class="cls-2" d="m400.84,53.19v7.08c0,1.52.16,2.73.48,3.64.32.91.9,1.59,1.74,2.04.84.45,2.02.68,3.54.68s3.19-.17,5-.52l-.04,3.28c-.43.13-1.17.28-2.24.44-1.07.16-2.01.24-2.84.24-1.89,0-3.53-.25-4.92-.76-1.39-.51-2.51-1.48-3.36-2.92-.85-1.44-1.28-3.48-1.28-6.12v-7.08h-5.72v-3.44h5.72v-5.28h3.92v5.28h11.28v3.44h-11.28Z"/></g></g></g></g></svg>