<?xml version="1.0" encoding="UTF-8"?><svg id="Livello_2" xmlns="http://www.w3.org/2000/svg" viewBox="0 0 481.19 114.22"><defs><style>.cls-1{fill:none;}.cls-2,.cls-3{fill:#444fd2;}.cls-4,.cls-5{fill:#808de9;}.cls-3{font-family:Monotalic-Regular, Monotalic;font-size:40px;}.cls-5{stroke:#444fd2;stroke-miterlimit:10;stroke-width:3px;}</style></defs><g id="PAUSE_objects"><g id="pauseLevelSelClick"><rect class="cls-1" width="481.19" height="114.22"/><g><path class="cls-4" d="m454.22,13.21l2,83.08-439.95-.39,3.66-76.48,434.3-6.21m6.83-7.1l-6.93.1L19.82,12.42l-6.58.09-.31,6.57-3.66,76.48-.35,7.33h7.34s439.95.39,439.95.39h7.18s-.17-7.17-.17-7.17l-2-83.08-.17-6.93h0Z"/><polygon class="cls-5" points="456.21 96.29 16.26 95.9 19.92 19.42 454.22 13.21 456.21 96.29"/><polygon class="cls-2" points="55.58 66.03 40.49 77.15 49.04 61.38 36.61 49.73 51.89 54.01 59.88 38.35 60.44 55.89 76.18 53.35 62.82 63.18 72.3 76.11 55.58 66.03"/><text class="cls-3" transform="translate(126 69.75)"><tspan x="0" y="0">level select</tspan></text></g></g></g></svg>