<?xml version="1.0" encoding="UTF-8"?><svg id="Livello_2" xmlns="http://www.w3.org/2000/svg" viewBox="0 0 481.19 114.22"><defs><style>.cls-1{fill:none;}.cls-2{fill:#444fd2;}.cls-3{fill:#808de9;}</style></defs><g id="PAUSE_objects"><g id="pauseOptionsClick"><rect class="cls-1" width="481.19" height="114.22"/><g><path class="cls-3" d="m15.03,17.6l447.13,2.66-3.53,75.01H17.5l-2.47-77.67m-7.23-7.04l.23,7.27,2.47,77.67.22,6.78h454.59l.31-6.67,3.53-75.01.34-7.29-7.29-.04L15.07,10.6l-7.27-.04h0Z"/><g><polygon class="cls-3" points="458.63 95.27 17.5 95.27 15.03 17.6 462.16 20.26 458.63 95.27"/><path class="cls-2" d="m460.06,96.77H16.04l-2.56-80.68h1.56s448.7,2.68,448.7,2.68l-3.67,78Zm-441.11-3h438.25l3.39-72.02L16.58,19.11l2.37,74.66Z"/></g><path class="cls-2" d="m51.32,44.82c-.76.52-1.49,1.14-2.18,1.83l-4.14-2.39-4.1,6.22,4.08,2.6c-.48,1.27-.83,2.61-1,3.98l-4.49.72,1.49,7.76,4.18-.99c.69,1.29,1.62,2.42,2.75,3.37l-2.15,3.48,5.45,3.1,2.63-3.64h0c1.7.42,3.53.59,5.42.5h0l.53,4.79,6.51-2.09-1.43-3.91c.79-.42,1.9-1.12,3.04-2.28h0l3.2,2.17,3.75-4.93-3.75-2.43h0c.43-1.19.72-2.45.88-3.99.03-.29.05-.58.06-.86l3.71-.72-.9-6.92-4.33,1.34h0c-.82-1.53-1.91-2.92-3.18-4.12l3.4-4.62-7.31-3.81-1.62,4.83c-1.24-.51-2.47-.84-3.63-.96l-.82-4.47-7.95,1.02m14.01,18.32c-.39,3.72-3.19,4.65-3.19,4.65-3.72,1.05-7.43-.7-7.75-3.95-.33-3.36,2.29-6.52,4.73-6.86,2.44-.35,6.6,2.44,6.21,6.17Z"/><g><path class="cls-2" d="m194.11,68.77c-1.47-.87-2.6-2.08-3.4-3.64-.8-1.56-1.2-3.35-1.2-5.38s.4-3.82,1.2-5.38c.8-1.56,1.93-2.77,3.4-3.64,1.47-.87,3.17-1.3,5.12-1.3s3.66.43,5.14,1.3c1.48.87,2.62,2.08,3.42,3.64.8,1.56,1.2,3.35,1.2,5.38s-.4,3.82-1.2,5.38c-.8,1.56-1.94,2.77-3.42,3.64-1.48.87-3.19,1.3-5.14,1.3s-3.65-.43-5.12-1.3Zm9.5-4.02c.97-1.25,1.46-2.92,1.46-5s-.49-3.75-1.46-5c-.97-1.25-2.43-1.88-4.38-1.88s-3.4.63-4.36,1.88c-.96,1.25-1.44,2.92-1.44,5s.48,3.71,1.44,4.98c.96,1.27,2.41,1.9,4.36,1.9s3.41-.63,4.38-1.88Z"/><path class="cls-2" d="m230.79,52.19c1.47,1.84,2.2,4.28,2.2,7.32,0,2.16-.37,4.04-1.12,5.64-.75,1.6-1.77,2.82-3.06,3.66-1.29.84-2.74,1.26-4.34,1.26-1.44,0-2.68-.27-3.72-.82s-1.8-1.58-2.28-3.1h-.2l.6,4.16v7.84h-3.92v-28.4h2.44l1.12,3.48h.2c.35-1.33,1.03-2.3,2.04-2.9s2.33-.9,3.96-.9c2.59,0,4.61.92,6.08,2.76Zm-3.14,12.56c.95-1.25,1.42-2.99,1.42-5.2,0-2.08-.47-3.71-1.4-4.9s-2.23-1.78-3.88-1.78c-2.51,0-4.15,1.08-4.92,3.24v7.16c.51,1.15,1.2,1.99,2.08,2.54.88.55,1.85.82,2.92.82,1.57,0,2.83-.63,3.78-1.88Z"/><path class="cls-2" d="m246.07,53.19v7.08c0,1.52.16,2.73.48,3.64.32.91.9,1.59,1.74,2.04.84.45,2.02.68,3.54.68s3.19-.17,5-.52l-.04,3.28c-.43.13-1.17.28-2.24.44-1.07.16-2.01.24-2.84.24-1.89,0-3.54-.25-4.92-.76-1.39-.51-2.51-1.48-3.36-2.92-.85-1.44-1.28-3.48-1.28-6.12v-7.08h-5.72v-3.44h5.72v-5.28h3.92v5.28h11.28v3.44h-11.28Z"/><path class="cls-2" d="m281.95,66.35v3.2c-.29.11-.73.22-1.32.34-.59.12-1.2.18-1.84.18-2.51,0-4.51-.68-6.02-2.04-1.51-1.36-2.57-3.2-3.18-5.52-1.01,1.71-2.65,4.12-4.92,7.24h-4.6l1.84-2.44c2.11-2.77,3.67-4.95,4.7-6.52,1.03-1.57,1.79-3.13,2.3-4.68v-6.36h3.92v6.92c0,6.64,2.11,9.96,6.32,9.96,1.17,0,2.11-.09,2.8-.28Zm-13.52-20.96c-.59-.45-.88-1.11-.88-1.96s.29-1.51.88-1.98,1.4-.7,2.44-.7,1.82.23,2.42.7c.6.47.9,1.13.9,1.98s-.3,1.51-.9,1.96c-.6.45-1.41.68-2.42.68s-1.85-.23-2.44-.68Z"/><path class="cls-2" d="m290.11,68.77c-1.47-.87-2.6-2.08-3.4-3.64-.8-1.56-1.2-3.35-1.2-5.38s.4-3.82,1.2-5.38c.8-1.56,1.93-2.77,3.4-3.64,1.47-.87,3.17-1.3,5.12-1.3s3.66.43,5.14,1.3c1.48.87,2.62,2.08,3.42,3.64.8,1.56,1.2,3.35,1.2,5.38s-.4,3.82-1.2,5.38c-.8,1.56-1.94,2.77-3.42,3.64-1.48.87-3.19,1.3-5.14,1.3s-3.65-.43-5.12-1.3Zm9.5-4.02c.97-1.25,1.46-2.92,1.46-5s-.49-3.75-1.46-5c-.97-1.25-2.43-1.88-4.38-1.88s-3.4.63-4.36,1.88c-.96,1.25-1.44,2.92-1.44,5s.48,3.71,1.44,4.98c.96,1.27,2.41,1.9,4.36,1.9s3.41-.63,4.38-1.88Z"/><path class="cls-2" d="m330.15,66.51v3.24c-.59.21-1.29.32-2.12.32-1.52,0-2.64-.47-3.36-1.42s-1.08-2.23-1.08-3.86v-7.72c0-1.23-.27-2.23-.8-3.02-.53-.79-1.65-1.18-3.36-1.18-2.35,0-3.87,1.01-4.56,3.04v13.84h-3.92v-20h2.44l1.12,3.48h.2c.29-1.28.92-2.23,1.88-2.86.96-.63,2.31-.94,4.04-.94,2.56,0,4.35.65,5.36,1.94,1.01,1.29,1.52,3.03,1.52,5.22v7.92c0,.72.11,1.25.32,1.6s.61.52,1.2.52c.27,0,.64-.04,1.12-.12Z"/><path class="cls-2" d="m336.09,51.13c1.72-1.13,4.13-1.7,7.22-1.7,1.52,0,2.96.13,4.34.38,1.37.25,2.42.51,3.14.78v3.44c-.77-.29-1.82-.56-3.14-.8-1.32-.24-2.74-.36-4.26-.36-3.97,0-5.96,1.03-5.96,3.08,0,.77.36,1.31,1.08,1.6.72.29,1.72.48,3,.56l4.04.2c2.45.16,4.3.65,5.56,1.46,1.25.81,1.88,2.07,1.88,3.78,0,2.16-.87,3.79-2.62,4.88-1.75,1.09-4.27,1.64-7.58,1.64-1.76,0-3.39-.16-4.88-.48-1.49-.32-2.6-.64-3.32-.96v-3.44c.8.35,1.92.67,3.36.98,1.44.31,3.03.46,4.76.46,4.24,0,6.36-1.03,6.36-3.08,0-.77-.34-1.3-1.02-1.58-.68-.28-1.71-.47-3.1-.58l-3.96-.2c-2.45-.16-4.31-.65-5.58-1.46-1.27-.81-1.9-2.07-1.9-3.78,0-2.08.86-3.69,2.58-4.82Z"/></g></g></g></g></svg>