<?xml version="1.0" encoding="UTF-8"?><svg id="Livello_2" xmlns="http://www.w3.org/2000/svg" viewBox="0 0 481.19 114.22"><defs><style>.cls-1{fill:none;}.cls-2,.cls-3{fill:#9da7f3;}.cls-4,.cls-5{fill:#6f77ea;}.cls-3{font-family:Monotalic-Regular, Monotalic;font-size:40px;}.cls-5{stroke:#9da7f3;stroke-miterlimit:10;stroke-width:3px;}</style></defs><g id="PAUSE_objects"><g id="pauseControlsHover"><rect class="cls-1" width="481.19" height="114.22"/><g><path class="cls-4" d="m463.51,14.47l-5.36,81.3L20.68,87.7,15.51,14.47h448m7.48-7H8l.53,7.49,5.17,73.22.45,6.39,6.4.12,437.48,8.08,6.68.12.44-6.66,5.36-81.3.49-7.46h0Z"/><polygon class="cls-5" points="458.15 95.78 20.68 87.7 15.51 14.47 463.51 14.47 458.15 95.78"/><path class="cls-2" d="m69.87,40.09c-1.77-1.35-2.61-2.05-2.61-2.05-.44.19-.88.36-1.31.53l-.54-.53s-3.53,1.32-8.05,1.48c-4.52.16-8.96-1.48-8.96-1.48l-.45.43c-.57-.25-.87-.43-.87-.43-8.14,4.29-7.9,19.41-7.38,23.61.52,4.2,2.09,4.14,3.52,4.02s5.63-6.42,5.63-6.42c0,0,9.67,5.5,16.61-.12,0,0,3.85,5.97,5.94,6.57s3.24-1.16,3.39-4.43c.14-3.27-.42-17.78-4.91-21.2Zm-4.64,2.53c.43-.15.97.28,1.21.97s.08,1.36-.34,1.51c-.43.15-.97-.28-1.21-.97-.24-.68-.08-1.36.34-1.51Zm0,3.33c.43-.15.97.28,1.21.97.24.68.08,1.36-.34,1.51-.43.15-.97-.28-1.21-.97-.24-.68-.08-1.36.34-1.51Zm-21.08.28c-.44-1.72.76-3.2,2.13-3.26s3.33,2.47,1.64,3.91c-1.33,1.14-3.33,1.08-3.77-.65Zm5.62,9.87c-2.45.39-3.81-1.56-3.77-2.77.04-1.2,1.56-4.53,4.69-2.53,3.13,2.01.6,5.05-.92,5.29Zm12.03-8.45c-.63,2.35-3.77,3.95-6.5,2.85s-3.37-4.43-2.29-5.91c1.08-1.48,2.89-3.29,5.13-2.53,2.25.76,4.29,3.19,3.65,5.59Zm5.37,7.13c-1.86,1.61-3.69,0-3.89-1.97s2.37-2.7,3.01-2.31,3.01,2.43.88,4.28Zm1.64-4.87c-.43.15-.97-.28-1.21-.97-.24-.68-.08-1.36.34-1.51.43-.15.97.28,1.21.97.24.68.08,1.36-.34,1.51Zm0-3.3c-.43.15-.97-.28-1.21-.97-.24-.68-.08-1.36.34-1.51.43-.15.97.28,1.21.97.24.68.08,1.36-.34,1.51Z"/><text class="cls-3" transform="translate(174.76 62.88)"><tspan x="0" y="0">controls</tspan></text></g></g></g></svg>