<?xml version="1.0" encoding="UTF-8"?><svg id="Livello_2" xmlns="http://www.w3.org/2000/svg" viewBox="0 0 481.19 114.22"><defs><style>.cls-1{fill:none;}.cls-2{fill:#424249;}.cls-3{fill:#898998;}</style></defs><g id="PAUSE_objects"><g id="pauseRestartClick"><rect class="cls-1" width="481.19" height="114.22"/><g><path class="cls-3" d="m15.51,14.6l442.64,1.11,3.53,80.2-444.88-3.03-1.29-78.28m-7.12-7.02l.12,7.13,1.29,78.28.11,6.84,6.84.05,444.88,3.03,7.36.05-.32-7.36-3.53-80.2-.29-6.68-6.68-.02L15.53,7.6l-7.13-.02h0Z"/><g><polygon class="cls-3" points="461.68 95.9 16.8 92.88 15.51 14.6 458.15 15.71 461.68 95.9"/><path class="cls-2" d="m463.25,97.41l-447.93-3.05-1.34-81.27,445.6,1.12,3.66,83.2Zm-444.98-6.03l441.84,3.01-3.4-77.19-439.68-1.1,1.24,75.28Z"/></g><path class="cls-2" d="m52.21,41.63l-.89-2.43s20.51-7.67,25.28,9.32c5.72,20.38-15.32,26.89-23.43,23.79-5.95-2.27-11-7.03-9.21-15.8l-7.25,2.22,10.62-13.08,6.59,15.54-6.85-4.35s1.36,10.81,11.58,9.86,14.81-12.47,13.48-17.81c-1.18-4.72-4.63-9.36-19.92-7.25Z"/><g><path class="cls-2" d="m210.16,66.43v3.36c-.45.19-1.13.28-2.04.28-1.6,0-3.01-.37-4.22-1.12-1.21-.75-2.15-1.79-2.82-3.12-.67-1.33-1-2.85-1-4.56,0-2.8.91-5.44,2.72-7.92v-.12h-7.6c-.29,2.91-.68,5.56-1.16,7.96-.48,2.4-1.12,5.25-1.92,8.56h-4.52c1.01-2.96,1.9-6.07,2.66-9.32s1.25-6.01,1.46-8.28c-.56-.35-1-.81-1.32-1.4-.32-.59-.48-1.23-.48-1.92,0-.99.34-1.79,1.02-2.4.68-.61,1.65-.92,2.9-.92.53,0,1.11.07,1.72.2,0,1.36-.04,2.71-.12,4.04h11.84v3.48c-.93.67-1.71,1.67-2.32,3-.61,1.33-.92,2.81-.92,4.44,0,1.97.46,3.45,1.38,4.42s2.07,1.46,3.46,1.46c.45,0,.88-.04,1.28-.12Z"/><path class="cls-2" d="m232.51,61.35h-15.48c.24,1.84.94,3.18,2.1,4.02s2.87,1.26,5.14,1.26c2.56,0,4.88-.36,6.96-1.08v3.44c-.72.27-1.7.51-2.94.74-1.24.22-2.61.34-4.1.34-3.76,0-6.56-.93-8.4-2.78s-2.76-4.37-2.76-7.54c0-2.24.44-4.13,1.32-5.68.88-1.55,2.09-2.71,3.64-3.48,1.55-.77,3.32-1.16,5.32-1.16,2.88,0,5.13.81,6.76,2.42,1.63,1.61,2.44,4.02,2.44,7.22v2.28Zm-3.68-3.08c0-3.6-1.84-5.4-5.52-5.4-1.79,0-3.23.41-4.32,1.22-1.09.81-1.75,2.21-1.96,4.18h11.8Z"/><path class="cls-2" d="m239.62,51.13c1.72-1.13,4.13-1.7,7.22-1.7,1.52,0,2.97.13,4.34.38,1.37.25,2.42.52,3.14.78v3.44c-.77-.29-1.82-.56-3.14-.8-1.32-.24-2.74-.36-4.26-.36-3.97,0-5.96,1.03-5.96,3.08,0,.77.36,1.31,1.08,1.6.72.29,1.72.48,3,.56l4.04.2c2.45.16,4.31.65,5.56,1.46,1.25.81,1.88,2.07,1.88,3.78,0,2.16-.87,3.79-2.62,4.88-1.75,1.09-4.27,1.64-7.58,1.64-1.76,0-3.39-.16-4.88-.48s-2.6-.64-3.32-.96v-3.44c.8.35,1.92.67,3.36.98,1.44.31,3.03.46,4.76.46,4.24,0,6.36-1.03,6.36-3.08,0-.77-.34-1.3-1.02-1.58-.68-.28-1.71-.47-3.1-.58l-3.96-.2c-2.45-.16-4.31-.65-5.58-1.46-1.27-.81-1.9-2.07-1.9-3.78,0-2.08.86-3.69,2.58-4.82Z"/><path class="cls-2" d="m269.59,53.19v7.08c0,1.52.16,2.73.48,3.64.32.91.9,1.59,1.74,2.04.84.45,2.02.68,3.54.68s3.19-.17,5-.52l-.04,3.28c-.43.13-1.17.28-2.24.44-1.07.16-2.01.24-2.84.24-1.89,0-3.53-.25-4.92-.76-1.39-.51-2.51-1.48-3.36-2.92-.85-1.44-1.28-3.48-1.28-6.12v-7.08h-5.72v-3.44h5.72v-5.28h3.92v5.28h11.28v3.44h-11.28Z"/><path class="cls-2" d="m305.51,66.51v3.24c-.64.21-1.35.32-2.12.32-2.37,0-3.8-1.32-4.28-3.96h-.12c-.64,2.64-2.77,3.96-6.4,3.96-2.32,0-4.17-.59-5.54-1.76-1.37-1.17-2.06-2.79-2.06-4.84,0-1.79.67-3.22,2.02-4.32s3.29-1.64,5.82-1.64c2.16,0,4.17.19,6.04.56h.08v-.24c0-1.17-.17-2.11-.5-2.82-.33-.71-.95-1.24-1.86-1.6-.91-.36-2.2-.54-3.88-.54-1.28,0-2.58.14-3.9.42-1.32.28-2.31.55-2.98.82l-.04-3.56c.77-.29,1.82-.55,3.14-.78,1.32-.23,2.66-.34,4.02-.34,3.6,0,6.15.71,7.66,2.14,1.51,1.43,2.26,3.5,2.26,6.22v6.72c0,.67.11,1.19.32,1.56.21.37.63.56,1.24.56.24,0,.6-.04,1.08-.12Zm-8.9-.62c1.05-.49,1.83-1.21,2.34-2.14v-3.16h-5.68c-2.91,0-4.36.97-4.36,2.92,0,.88.33,1.62,1,2.22.67.6,1.65.9,2.96.9,1.44,0,2.69-.25,3.74-.74Z"/><path class="cls-2" d="m330.16,66.43v3.36c-.45.19-1.13.28-2.04.28-1.6,0-3.01-.37-4.22-1.12-1.21-.75-2.15-1.79-2.82-3.12-.67-1.33-1-2.85-1-4.56,0-2.8.91-5.44,2.72-7.92v-.12h-7.6c-.29,2.91-.68,5.56-1.16,7.96-.48,2.4-1.12,5.25-1.92,8.56h-4.52c1.01-2.96,1.9-6.07,2.66-9.32s1.25-6.01,1.46-8.28c-.56-.35-1-.81-1.32-1.4-.32-.59-.48-1.23-.48-1.92,0-.99.34-1.79,1.02-2.4.68-.61,1.65-.92,2.9-.92.53,0,1.11.07,1.72.2,0,1.36-.04,2.71-.12,4.04h11.84v3.48c-.93.67-1.71,1.67-2.32,3-.61,1.33-.92,2.81-.92,4.44,0,1.97.46,3.45,1.38,4.42s2.07,1.46,3.46,1.46c.45,0,.88-.04,1.28-.12Z"/><path class="cls-2" d="m341.59,53.19v7.08c0,1.52.16,2.73.48,3.64.32.91.9,1.59,1.74,2.04.84.45,2.02.68,3.54.68s3.19-.17,5-.52l-.04,3.28c-.43.13-1.17.28-2.24.44-1.07.16-2.01.24-2.84.24-1.89,0-3.53-.25-4.92-.76-1.39-.51-2.51-1.48-3.36-2.92-.85-1.44-1.28-3.48-1.28-6.12v-7.08h-5.72v-3.44h5.72v-5.28h3.92v5.28h11.28v3.44h-11.28Z"/></g></g></g></g></svg>