<?xml version="1.0" encoding="UTF-8"?><svg id="Livello_2" xmlns="http://www.w3.org/2000/svg" viewBox="0 0 121.88 198.9"><defs><style>.cls-1{fill:none;}.cls-2{fill:#68d1e7;}.cls-3{fill:#fff;}.cls-4{fill:#ffbc61;}.cls-5{fill:#ffd1a5;}.cls-6{fill:#8c6239;}.cls-7{fill:#adeaff;}.cls-8{fill:#4d96ca;}.cls-9{opacity:.13;}</style></defs><g id="export"><g id="yougIdle"><g id="shadow"><path d="M67.35,110.21h-8.95l-1.52-12.29-2.84-24.77c-.22,.04-.43,.07-.65,.1-1.44,.16-2.86-.03-3.99-.54-1.37-.62-2.23-1.69-2.37-2.92-.26-2.32,2.12-4.42,5.43-4.8,.27-.03,.54-.05,.8-.05l-2.31-25.49,23.81-5.62,23.49-6.2-11.08,7.77c.32,8.63,.42,34.63-8.19,58.8l-.34,.96-10.32,.4-.96,14.67Zm-6.3-3h3.48l.95-14.56,10.99-.42c8.37-24.21,7.98-50.09,7.65-57.53v-.25s-8.65,2.28-8.65,2.28l-21.31,5.04,2.42,26.76-2.02-.47c-.54-.12-1.16-.15-1.78-.08-1.91,.22-2.82,1.19-2.78,1.48,.01,.1,.19,.32,.63,.52,.64,.29,1.52,.4,2.41,.29,.59-.07,1.16-.22,1.64-.45l1.89-.88,3.28,28.63,1.19,9.64Z"/><path d="M67.83,100.11c1.95,3.19,3.76,6.45,5.56,9.7,2.96,6.82,9.74,23.65,12.71,30.74,0,0,.54,1.3,.54,1.3,0,0-1.27,.62-1.27,.62-1.14,.55-5.72,2.79-6.77,3.3,0,0-.53-1.66-.53-1.66l-6.18-19.47c-.83-2.88-2.41-6.87-2.9-9.79-.67-3.36-1.3-6.73-1.85-10.13,1.84,3.88,3.73,7.74,5.32,11.7,.44,1.63,1.77,5.63,2.29,7.31,0,0,6.18,19.47,6.18,19.47l-2.09-.89,5.21-2.54s-.73,1.92-.73,1.92c-2.94-7.22-9.86-23.76-12.61-30.79-1.01-3.58-2.02-7.16-2.88-10.81h0Z"/><path d="M81.88,156.98c-.4,0-.76-.12-1.1-.35-.61-.41-.89-1.08-.84-1.86-.59,.13-1.13,.15-1.59,.01-.55-.16-.99-.53-1.24-1.04-.16-.33-.26-.71-.15-1.18-1.43,.06-1.95-.36-2.24-1.09-.27-.68-.2-1.42,.19-2.08,.69-1.15,2.41-1.96,3.99-2.46l-5.27-4.81,11.81-2.69,.56,.95c.47,.81,4.53,8.03,1.43,12.05-2.38,3.08-4.15,4.55-5.55,4.55Zm-1.99-13.21l4.47,4.08,1.15-.3c-.25-1.65-.99-3.47-1.59-4.7l-4.03,.92Z"/><path d="M54.37,168.23l-.29-2.99,25.99-2.51c-.26-35.43-14.6-64.02-14.75-64.31l2.67-1.36c.15,.3,15.19,30.26,15.08,67.04v1.36s-28.7,2.78-28.7,2.78Z"/><path d="M86.09,197.3l-20.38-3.07-.79-14.17-1.13,14.78-23.66,2.31,15.55-10.82c-.67-3.88-3.09-19.08-3.43-38.55l-.02-1.39,22.66-2.13,.12,1.52c1.64,21.61,.03,37.09-.4,40.66l11.49,10.85Zm-30.82-48.18c.49,21.55,3.49,37.45,3.52,37.61l.18,.96-7.71,5.37,9.72-.95,2.66-34.92,2.99,.03,1.92,34.41,8.5,1.28-5.65-5.34,.11-.77c.02-.16,2.22-15.85,.59-39.26l-16.85,1.58Z"/><path d="M44.98,170.3l.04-1.68c.88-34.08,11.81-70.95,11.92-71.32l.93-3.1,4.09,6.26v.46s-1.31,68.02-1.31,68.02l-15.67,1.35Zm13.95-68.98c-2.57,9.4-9.88,38.28-10.85,65.71l9.63-.83,1.24-64.86v-.02Z"/><path d="M58.56,99.13c-.7,4-1.31,8.26-2.36,12.17-2.63,7.82-8.8,26.96-11.47,35.07,0,0-1.43-1.97-1.43-1.97h5.8l-1.44,1.09,4.11-14.45c1.17-4.93,3.46-9.45,5.55-14.04-.29,2.52-.62,5.03-1,7.53-.26,2.52-.94,4.92-1.67,7.34,0,0-4.11,14.45-4.11,14.45l-.31,1.09c-2.1-.01-6.92,0-9,0,0,0,.64-1.97,.64-1.97,2.67-8.22,8.88-27.11,11.41-35.09,1.46-3.78,3.47-7.58,5.27-11.22h0Z"/><path d="M39.26,158.31c-.98,0-1.62-.35-1.98-1.05-.36-.69-.26-1.46,.25-2.16-.79-.16-1.36-.42-1.72-.76-.41-.39-.62-.91-.6-1.45,.01-.37,.1-.75,.42-1.11-1.3-.62-1.56-1.24-1.47-2.02,.08-.73,.49-1.35,1.15-1.74,1.26-.76,3.41-.58,5.14-.22l-1.4-7.5,11.69,4.64-.14,1.15c-.06,.48-.42,3.06-1.5,5.59l.29-.02-.36,.19c-.86,1.95-2.15,3.84-4.07,4.71-2.59,1.17-4.43,1.75-5.69,1.75Zm4.83-7.3l1.78,.42c.78-1.48,1.28-3.29,1.55-4.59l-4.43-1.76,1.1,5.93Z"/></g><g><g><path class="cls-5" d="M85.53,32.82l-32.97,7.79,2.35,25.99c-.68-.16-1.47-.21-2.29-.11-2.43,.28-4.27,1.68-4.1,3.14,.17,1.46,2.27,2.42,4.7,2.14,.78-.09,1.49-.29,2.11-.58l3.05,26.56,1.35,10.97h6.22l.95-14.61,10.66-.41c10.33-28.99,7.97-60.87,7.97-60.87Z"/><path d="M66.51,109.31h-7.31l-1.42-11.5-2.96-25.79c-.49,.16-1,.27-1.53,.33-1.28,.15-2.53-.02-3.52-.47-1.09-.5-1.75-1.28-1.85-2.2-.21-1.81,1.83-3.49,4.63-3.8,.57-.07,1.14-.07,1.69,0l-2.33-25.73,34.16-8.07,.05,.7c.02,.32,2.25,32.34-8,61.12l-.14,.38-10.53,.4-.95,14.63Zm-6.25-1.2h5.12l.95-14.59,10.79-.41c9.18-26.07,8.1-54.72,7.84-59.54l-31.77,7.51,2.38,26.29-.81-.19c-.64-.15-1.36-.19-2.09-.1-2.03,.23-3.7,1.39-3.58,2.48,.07,.66,.76,1.06,1.15,1.24,.79,.36,1.82,.49,2.89,.37,.68-.08,1.35-.26,1.92-.53l.75-.35,3.14,27.39,1.29,10.44Z"/></g><g><path d="M53.97,43.35l3.04,4.7-2.22,6.58-.82-11.28Zm3.71-2.85l29.74-7.85-11.42,8.01-18.32-.16Z"/><path d="M84.32,34.09l-8.51,5.97-13.66-.12,22.17-5.85m-29.58,11.55l1.61,2.49-1.18,3.49-.44-5.98m35.77-14.42l-37.31,9.84,22.98,.2,14.33-10.05h0Zm-37.31,9.84l1.21,16.57,3.27-9.67-4.47-6.9h0Z"/></g><g><g><polygon points="50.46 61.83 56.82 61.83 50.78 63.57 50.46 61.83"/><path d="M52.58,62.43l-1.33,.39-.07-.39h1.4m8.47-1.2h-11.32l.57,3.11,10.75-3.11h0Z"/></g><g><polyline class="cls-2" points="81.58 72.09 75.18 72.92 74.25 49.93 80.81 49.54"/><polygon class="cls-8" points="74.61 73.6 73.62 49.36 80.78 48.94 80.85 50.14 74.87 50.49 75.76 72.24 81.5 71.5 81.65 72.69 74.61 73.6"/></g><g><ellipse class="cls-7" cx="81.2" cy="60.82" rx="5.38" ry="11.28" transform="translate(-2.01 2.79) rotate(-1.94)"/><path class="cls-8" d="M81.49,72.7c-1.64,0-3.18-1.24-4.36-3.5-1.13-2.17-1.81-5.08-1.91-8.18-.11-3.1,.38-6.04,1.35-8.29,1.04-2.39,2.54-3.73,4.22-3.79,1.69-.03,3.27,1.18,4.47,3.5,1.13,2.17,1.81,5.08,1.91,8.18h0c.11,3.1-.38,6.04-1.35,8.29-1.04,2.39-2.54,3.74-4.22,3.79-.04,0-.07,0-.11,0Zm-.59-22.56s-.04,0-.06,0c-1.17,.04-2.33,1.16-3.16,3.07-.91,2.08-1.35,4.84-1.25,7.77s.73,5.65,1.78,7.67c.96,1.85,2.18,2.93,3.36,2.85,1.17-.04,2.33-1.16,3.16-3.07,.91-2.08,1.35-4.84,1.25-7.77h0c-.1-2.92-.73-5.65-1.78-7.67-.94-1.82-2.14-2.85-3.29-2.85Z"/></g><g><polyline class="cls-5" points="74.92 60.78 75.83 78.75 70.19 78.7 73.4 86.98 67.83 86.98"/><polygon points="74.27 87.58 67.83 87.58 67.83 86.38 72.52 86.38 69.31 78.09 75.2 78.15 74.32 60.81 75.52 60.75 76.46 79.36 71.07 79.31 74.27 87.58"/></g><g><polyline class="cls-2" points="69.08 72.49 61.91 72.61 62.81 48.55 69.85 49.19"/><polygon class="cls-8" points="61.29 73.22 62.23 47.89 69.9 48.59 69.79 49.79 63.38 49.2 62.53 72 69.07 71.89 69.09 73.09 61.29 73.22"/></g><g><ellipse class="cls-7" cx="69.46" cy="60.84" rx="11.65" ry="5.56" transform="translate(6.36 128.26) rotate(-88.11)"/><path class="cls-8" d="M69.17,73.09s-.07,0-.11,0c-3.45-.11-5.97-5.58-5.75-12.45,.11-3.2,.8-6.2,1.97-8.44,1.23-2.38,2.87-3.65,4.59-3.61,3.45,.11,5.97,5.58,5.75,12.45-.11,3.2-.8,6.2-1.97,8.44-1.21,2.33-2.79,3.61-4.48,3.61Zm.59-23.3c-1.2,0-2.44,1.07-3.42,2.96-1.08,2.09-1.73,4.9-1.83,7.93-.2,5.99,1.9,11.12,4.59,11.21,1.21,.08,2.49-1.04,3.49-2.96,1.08-2.09,1.73-4.9,1.83-7.93h0c.2-5.99-1.9-11.12-4.59-11.21-.02,0-.04,0-.07,0Z"/></g></g><g><polygon points="64.57 46.67 65.19 45.35 72.59 48.97 72.57 49.16 64.57 46.67"/><path d="M65.48,46.16l.91,.45-.98-.31,.07-.14m-.57-1.61l-1.17,2.49,9.35,2.91,.15-1.33-8.33-4.08h0Z"/></g><g><polygon points="77.39 48.99 83.75 43.86 84.07 45.11 77.49 49.26 77.39 48.99"/><polygon points="84.1 42.8 76.67 48.8 77.19 50.15 84.75 45.38 84.1 42.8 84.1 42.8"/></g></g><g><polyline class="cls-3" points="67.83 100.11 84.71 141.13 79.5 143.67 67.14 104.74"/><path d="M67.83,100.11c5.88,11.68,12.51,29.11,17.65,41.31,0,0-.51,.25-.51,.25l-5.21,2.54-.62,.3s-.21-.66-.21-.66c-3.58-11.47-9.07-27.57-11.79-39.11,2.42,6.25,4.83,12.85,6.75,19.28,0,0,6.18,19.47,6.18,19.47l-.83-.36,5.21-2.54-.29,.77c-4.89-12.13-12.33-28.97-16.33-41.25h0Z"/></g><g><path class="cls-2" d="M84.71,141.13s4.11,7.04,1.54,10.38c-4.38,5.67-5.47,4.05-4.47,2.38,.7-1.17,1.34-2.17,1.34-2.17,0,0-4.11,2.49-4.65,1.38-.34-.69,2.59-2.83,2.59-2.83,0,0-4.71,1.23-4.94,.65-.61-1.54,3.92-2.96,5.9-3.18l-5.25-4.8,7.94-1.81Z"/><path d="M81.88,156.06c-.22,0-.42-.06-.59-.18-.6-.41-.61-1.33-.02-2.31,.06-.1,.12-.19,.17-.29-1.02,.46-2.14,.84-2.83,.63-.31-.09-.55-.29-.68-.56-.1-.21-.35-.72,.83-1.93-2.85,.55-3.05,.06-3.19-.28-.17-.42-.12-.86,.13-1.28,.75-1.26,3.32-2.1,5.03-2.49l-5.2-4.75,9.49-2.16,.22,.38c.18,.3,4.29,7.43,1.49,11.05-2.15,2.78-3.77,4.18-4.85,4.18Zm3.14-6.19l-1.39,2.17s-.63,.99-1.33,2.15c-.16,.26-.23,.48-.25,.62,.38-.14,1.5-.78,3.73-3.68,1.98-2.56-.59-7.86-1.37-9.32l-6.38,1.46,5.38,4.91-1.31,.15c-1.72,.19-4.8,1.2-5.37,2.14,0,0,0,0,0,0,.75-.01,2.63-.38,4.19-.79l3.07-.8-2.56,1.87c-1.03,.75-2.01,1.65-2.3,2.09,.52-.03,2.2-.73,3.69-1.64l2.21-1.33Z"/></g><g><path class="cls-3" d="M66.66,97.74s15.02,29.52,14.92,66.35l-27.35,2.64"/><path d="M54.29,167.33l-.12-1.2,26.81-2.59c-.04-36.01-14.7-65.24-14.85-65.53l1.07-.54c.15,.3,15.09,30.07,14.98,66.63v.54s-27.89,2.7-27.89,2.7Z"/></g><g><path class="cls-3" d="M53.74,147.76l19.76-1.86s-.49-22.21-7.63-45.53l.79-2.63-2.62,8.67-5.67-8.67s-3.58,16.78-4.15,22.23c-.74,7.09-.49,27.79-.49,27.79Z"/><path d="M53.15,148.41v-.65c-.01-.21-.25-20.82,.49-27.86,.56-5.42,4.01-21.6,4.16-22.29l.3-1.41,5.75,8.8,2.25-7.44,1.15,.35-.74,2.45c7.03,23.07,7.6,45.3,7.6,45.52v.56s-20.95,1.97-20.95,1.97Zm5.52-49.14c-.87,4.16-3.38,16.32-3.84,20.75-.65,6.27-.53,23.5-.49,27.07l18.55-1.74c-.13-3.48-1.11-22.66-7.01-42.9l-1.62,5.37-5.58-8.54Z"/></g><g><g><path class="cls-6" d="M73.5,145.9c1.87,24.73-.49,41.11-.49,41.11l8.57,8.09-14.44-2.17-1.99-35.63-2.76,36.17-16.69,1.63,11.62-8.09s-3.18-16.59-3.58-39.25l19.76-1.86Z"/><path d="M83.38,195.98l-16.82-2.53-1.51-27.04-2.11,27.62-19.48,1.9,13.19-9.18c-.47-2.63-3.16-18.4-3.52-38.97v-.56s20.91-1.97,20.91-1.97l.05,.61c1.72,22.67-.14,38.54-.45,40.93l9.74,9.2Zm-29.03-47.68c.43,22.06,3.53,38.43,3.56,38.6l.07,.38-10.06,7,13.9-1.36,2.72-35.67h1.2s1.96,35.15,1.96,35.15l12.07,1.82-7.4-6.99,.04-.31c.02-.16,2.29-16.34,.53-40.37l-18.59,1.75Z"/></g><g><g><polygon class="cls-4" points="57.85 149.26 61.9 148.82 62.02 151.1 57.91 151.54 57.85 149.26"/><path d="M57.55,151.96l-.09-3.03,4.79-.52,.16,3.03-4.87,.52Zm.68-2.36l.04,1.52,3.35-.36-.08-1.53-3.32,.36Z"/></g><g><polygon class="cls-4" points="64.44 148.59 68.14 148.38 68.47 150.67 64.56 151.1 64.44 148.59"/><path d="M64.21,151.52l-.17-3.29,4.42-.24,.43,3-4.68,.53Zm.62-2.58l.09,1.75,3.12-.35-.22-1.56-2.99,.16Z"/></g><g><polygon class="cls-4" points="70.66 148.08 74.53 147.88 74.64 150.16 70.9 150.6 70.66 148.08"/><path d="M70.56,151.02l-.3-3.29,4.63-.24,.16,3.01-4.48,.53Zm.51-2.58l.16,1.75,3.02-.35-.08-1.56-3.1,.16Z"/></g><g><polygon class="cls-4" points="52.28 149.71 56.14 149.51 56.26 151.79 52.51 152.23 52.28 149.71"/><path d="M52.18,152.65l-.3-3.29,4.63-.24,.16,3.01-4.48,.53Zm.51-2.58l.16,1.75,3.02-.35-.08-1.55-3.1,.16Z"/></g></g><g><polygon points="57.43 187.67 62.13 189.01 61.83 192.92 47.92 194.28 57.43 187.67"/><path d="M57.54,188.32l3.96,1.13-.22,2.92-11.12,1.09,7.38-5.14m-.22-1.31l-11.62,8.09,16.69-1.63,.37-4.9-5.44-1.56h0Z"/></g><g><polygon points="67.71 192.41 67.51 188.93 72.83 187.67 79.77 194.22 67.71 192.41"/><path d="M72.66,188.33l5.31,5.02-9.69-1.46-.14-2.49,4.51-1.07m.35-1.32l-6.12,1.45,.25,4.46,14.44,2.17-8.57-8.09h0Z"/></g></g><g><path d="M63.16,117.24l1.64-1.93,3.09,3.6-.98,9.21-3.75-10.87Zm.17-5.47l.98-1.63,1.6,2.01-1.12,1.32-1.46-1.7Z"/><path d="M64.38,111.18l.75,.95-.35,.41-.72-.84,.31-.52m.42,5.05l2.47,2.87-.67,6.27-2.76-8,.96-1.13m-.56-7.15l-1.65,2.74,2.2,2.56,1.89-2.23-2.45-3.07h0Zm.55,5.3l-2.31,2.72,4.74,13.74,1.29-12.14-3.72-4.33h0Z"/></g><g><path class="cls-3" d="M58.38,97.74s-10.97,36.65-11.86,70.93l12.65-1.09,1.27-66.67-2.07-3.17Z"/><path d="M45.9,169.32l.02-.67c.88-33.96,11.77-70.72,11.88-71.08l.37-1.24,2.88,4.41-1.29,67.4-13.86,1.19Zm12.69-70.16c-1.89,6.67-10.56,38.77-11.45,68.85l11.44-.98,1.26-65.95-1.25-1.92Z"/></g><g><polyline class="cls-3" points="58.56 99.13 43.31 145.9 49.1 145.9 57.32 116.99"/><path d="M58.56,99.13c-3.31,13.57-10.44,33.46-14.68,46.96,0,0-.57-.79-.57-.79h5.8l-.58,.44,4.11-14.45c1.08-4.23,3.24-10.11,4.69-14.29-1.62,8.42-5.25,20.74-7.64,29.07,0,0-.12,.44-.12,.44h-.45c-.48,0-6.35,0-6.62,0,0,0,.26-.79,.26-.79,4.55-13.47,10.47-33.6,15.82-46.58h0Z"/></g><g><path class="cls-2" d="M49.1,145.9s-.94,7.55-4.78,9.29c-6.53,2.96-6.48,1.15-4.81,.14,1.17-.71,2.84-1.61,2.84-1.61,0,0-5.7,.46-5.65-.78,.03-.77,3.62-1.28,3.62-1.28,0,0-4.74-1.12-4.67-1.74,.18-1.65,4.85-.78,6.7-.05l-1.34-7.19,8.09,3.21Z"/><path d="M39.28,157.41c-.76,0-1.06-.28-1.21-.57-.33-.62,.12-1.42,1.13-2.03,.22-.13,.45-.27,.68-.4-1.39-.02-2.89-.17-3.46-.72-.22-.21-.34-.48-.32-.77,0-.23,.03-.8,1.63-1.32-2.78-.85-2.73-1.37-2.68-1.74,.05-.45,.3-.82,.71-1.07,1.31-.78,4.13-.27,5.81,.21l-1.35-7.26,9.53,3.79-.06,.46c-.04,.32-1.03,7.91-5.12,9.76-2.8,1.27-4.38,1.67-5.29,1.67Zm5.89-4.51l-2.53,1.36s-1.67,.9-2.82,1.59c-.21,.13-.37,.26-.48,.37,.52-.02,1.82-.24,4.73-1.56,2.97-1.35,4.09-6.75,4.36-8.36l-6.63-2.63,1.34,7.19-1.01-.4c-1.61-.64-4.8-1.19-5.75-.62h0c.67,.34,2.5,.89,4.07,1.27l3.09,.73-3.14,.45c-1.16,.17-2.34,.46-2.88,.71,.75,.24,2.77,.32,4.78,.16l2.86-.23Z"/></g><g class="cls-9"><rect class="cls-1" width="121.88" height="198.9"/></g></g></g></svg>