<?xml version="1.0" encoding="UTF-8"?><svg id="Livello_2" xmlns="http://www.w3.org/2000/svg" viewBox="0 0 121.88 198.9"><defs><style>.cls-1{fill:none;}.cls-2{fill:#68d1e7;}.cls-3{fill:#fff;}.cls-4{fill:#ffbc61;}.cls-5{fill:#ffd1a5;}.cls-6{fill:#8c6239;}.cls-7{fill:#adeaff;}.cls-8{fill:#4d96ca;}.cls-9{opacity:.13;}</style></defs><g id="export"><g id="youngJumpFall"><g><g><polygon points="65.59 87.91 62.83 86.72 90.25 22.89 89.34 22 64.15 78.52 61.41 77.3 88.36 16.83 93.81 22.2 65.59 87.91"/><g><path d="M93.26,30.38l-13.64-7.42,5.55-4.48c-.54-1.92-1.42-3.03-2.35-4.19-.59-.75-1.21-1.52-1.74-2.5-1.06-1.96-.39-3.36,.51-3.96,.16-.11,.33-.19,.51-.26-.24-.89-.21-1.73,.39-2.42,.51-.59,1.15-.95,1.84-1.04,.12-.45,.4-.85,.89-1.16,.68-.42,1.45-.53,2.21-.32,.75,.21,1.45,.72,2.13,1.56,.25-.13,.52-.21,.81-.25,1.42-.16,2.82,.88,3.84,2.86,.53,1.02,.82,1.92,1.01,2.78,.71-.3,1.48-.27,2.14,.11,1.4,.81,1.93,2.95,1.96,4.54,.06,2.86-3.57,6.73-4.96,8.11l-1.11,8.01Zm-8.26-7.91l5.88,3.2,.66-4.75,.38-.36c.63-.6,1.28-1.29,1.88-1.98l-.82-4.01c-.19-.95-.3-1.76-.39-2.48-.19-1.44-.32-2.49-1.04-3.89-.07-.13-.14-.25-.2-.36l1.83,9.51-4.8-9.41c-.38-.74-.71-1.26-.97-1.62l-2.12,1.17c.2,.4,.51,.96,.99,1.74l-2.27,1.6c.35,.55,.75,1.06,1.17,1.59,1.17,1.48,2.5,3.15,3.15,6.33l.18,.89-3.5,2.82Zm11.19-9.25c-.06,.4-.14,.89-.3,1.46l-.52,1.83c.59-.9,.96-1.69,.95-2.19,0-.41-.06-.78-.14-1.09Zm-5.04-6.54h0s0,0,0,0Z"/><g><path d="M85.38,19.35c-.5-2.48-1.5-3.73-2.55-5.06-.59-.75-1.21-1.52-1.74-2.5-1.05-1.94-.43-3.42,.64-4.03,1.53-.87,3.72,.03,4.88,2l-2.39,1.4c.3,.43,.62,.84,.96,1.26,1.17,1.48,2.5,3.15,3.15,6.33l-2.94,.59Z"/><path d="M85.77,14.48c-.07-.5-1-2-1.62-2.99-1.61-2.58-3-4.81-1.67-6.34,.99-1.13,2.05-1.17,2.6-1.09,1.14,.17,2.15,1.09,2.84,2.6l-2.49,1.13c.37,.69,.89,1.52,1.26,2.11,1.02,1.63,1.89,3.04,2.04,4.18l-2.97,.39Z"/><path d="M93.26,30.38l-13.64-7.42,8.18-6.6,1.88,2.34-4.68,3.78,5.88,3.2,.66-4.75,.38-.36c2.14-2.04,4.44-5,4.41-6.25,0-.4-.06-.77-.14-1.09-.15,1.01-.42,2.5-1.76,4.54l-2.5-1.65c1.04-1.58,1.2-2.63,1.32-3.47,.14-.95,.31-2.14,1.74-2.93,.77-.43,1.64-.43,2.38,0,1.4,.81,1.93,2.95,1.96,4.54,.06,2.86-3.57,6.73-4.96,8.11l-1.11,8.01Z"/><path d="M87.83,14.05c-.14-1.13-1.05-2.95-1.86-4.56-1.44-2.87-2.68-5.34-.75-6.53,.69-.42,1.45-.53,2.21-.31,1.3,.37,2.46,1.65,3.66,4.02l-2.54,1.28c.03,.07,.07,.14,.1,.2,.96,1.92,1.96,3.91,2.16,5.55l-2.98,.36Z"/><path d="M92.98,14.57c-.06-.27-.1-.54-.15-.79l-2.75-.17c.05-.88-.49-2.25-.98-3.47-.63-1.58-1.17-2.94-.88-4.12,.29-1.17,1.09-1.94,2.15-2.06,1.42-.16,2.82,.88,3.84,2.86,.96,1.87,1.15,3.33,1.35,4.88,.09,.7,.18,1.43,.35,2.27l-2.94,.6Zm-1.37-6.25c.1,.25,.19,.5,.28,.72,.09,.23,.19,.47,.28,.71-.13-.46-.31-.92-.56-1.43Z"/></g></g><path d="M55.25,91.67l-2.24-13.27-4.39-27.22c-.22,.05-.43,.09-.65,.13-3.29,.5-6.16-1.01-6.55-3.45-.16-.97,.1-1.94,.73-2.82,.93-1.27,2.54-2.17,4.44-2.46,.26-.04,.53-.07,.79-.08l-3.87-27.86,23.5-6.86L89.53,.48l-10.04,8.35c.85,9.32,2.57,37.89-4.59,64.7l-.28,1.03-10.33,.74-.06,16.1-8.98,.26Zm-4.3-44.89l5.01,31.13,1.81,10.68,3.47-.1,.06-15.99,10.97-.78c6.93-26.83,4.94-55.24,4.16-63.39l-.04-.45-8.51,2.75-21.05,6.15,4.07,29.27-2.11-.47c-.53-.12-1.14-.13-1.74-.04-1.29,.2-2.12,.78-2.47,1.27-.11,.15-.23,.37-.2,.58,.09,.56,1.38,1.23,3.13,.96,.57-.09,1.12-.27,1.58-.52l1.87-1.03Z"/><path d="M54.75,155.38l-.4-2.97,25.86-3.51c-2.41-38.91-18.58-69.97-18.75-70.28l2.65-1.4c.17,.32,17.03,32.67,19.17,72.9l.07,1.38-28.6,3.88Z"/><path d="M73.04,198.54l-15.67-11.92-.09-.61c-.04-.28-4.11-28.21-5.88-52.81l-.1-1.41,22.57-3,.19,1.5c3.13,24.99,2.31,42.55,2.17,45.04l7.51,22.52-16.09-14.93-1.88-17.57-.36,12.57,7.63,20.61Zm-12.88-13.56l6.48,4.93-4.25-11.48,1.02-35.25,2.99-.12,4.11,38.43,6.67,6.19-3.99-11.96,.02-.3c.01-.18,1.15-17.52-1.95-43.27l-16.77,2.23c1.66,22.12,5.07,46.46,5.66,50.57Z"/><path d="M45.5,157.92l-.05-1.64c-1.2-37.34,7.49-78.04,7.57-78.45l.75-3.47,4.47,6.72,2.87,74.91-15.6,1.93Zm9.74-75.92c-2.01,10.46-7.58,42.41-6.85,72.54l9.6-1.19-2.73-71.31-.03-.04Z"/><path d="M56.17,81.78c-4.59-5.7-7.12-13.11-10.15-19.61-4.85-11.16-9.72-22.55-13.99-33.93,0,0,.57,.64,.57,.64,0,0-7-3.9-7-3.9,0,0,1.86-1.67,1.86-1.67l27.51,65.55-2.44,1.02L25.03,24.34l-1.48-3.53c2.33,1.3,8.3,4.62,10.71,5.97,5.3,11.11,10.16,22.69,14.87,34.08,2.56,6.7,6.13,13.66,7.04,20.93h0Z"/><g><path d="M26.24,39.1l-.39-8.29c-5.51-4.97-4.57-11.26-4.14-13.11,.26-1.11,1.06-3.61,3.06-4.08,.5-1.52,1.32-2.86,2.64-3.16,.69-.16,1.22-.1,1.62,.05,.79-.77,1.77-1.21,2.89-1.22,1.17-.01,1.76,.5,2.06,.94,.36,.54,.43,1.12,.32,1.78,.58,.02,1.24,.18,1.97,.6,.54,.31,.9,.79,1.02,1.35,.23,1.06-.42,1.95-1.16,2.97-.6,.82-1.33,1.84-1.77,3.08,1.33-.43,2.89-.67,4.1-.03,1.07,.56,1.35,1.31,1.4,1.84,.11,1.3-.93,2.09-2.14,3.01-.64,.49-1.39,1.06-1.98,1.71l6.17,4.49-15.65,8.07Zm-1.27-21.77c-.12,.28-.24,.63-.34,1.05-.35,1.48-1.11,6.62,3.64,10.56l.51,.42,.23,4.93,7.18-3.7-4.47-3.25,.6-1.15c.76-1.45,1.99-2.52,3.04-3.34-.69,.21-1.46,.55-2.13,.95l-2.18,1.29-.08-2.54c-.11-3.46,1.67-5.92,2.73-7.38,0,0,0,0,.01-.02-.48,.32-.95,1.08-1.22,1.75l-2.81-1.05c.18-.51,.37-1,.56-1.45l-2.36-.49c-.3,.66-.65,1.84-.83,3.58l-2.07-.17Zm5.79-4.19c-.17,.29-.3,.63-.39,.93,.08-.2,.16-.39,.24-.58,.05-.11,.1-.23,.15-.35Z"/><path d="M30.75,22.45c-.11-3.46,1.67-5.92,2.73-7.38,0,0,0,0,0-.01-.53,.36-1.03,1.23-1.23,1.79l-2.82-1.01c.11-.3,1.09-2.92,3.25-3.71,.76-.28,1.95-.44,3.37,.38,.54,.31,.9,.79,1.02,1.35,.23,1.06-.42,1.95-1.16,2.97-.95,1.31-2.24,3.1-2.17,5.53l-3,.09Z"/><path d="M28.61,23.01c-.55-3.14,.38-6.1,1.27-8.34l-2.85-.36c.21-1.75,1.47-5.08,4.69-5.13,1.15-.02,1.76,.5,2.06,.94,.78,1.15,.2,2.52-.59,4.42-.9,2.13-2.12,5.04-1.61,7.96l-2.96,.52Zm1.9-9.87c-.14,.25-.24,.51-.32,.75,.07-.18,.15-.35,.22-.52,.03-.08,.06-.15,.1-.24Z"/><path d="M26.16,23.28c-.21-1.33-.2-2.67-.07-3.94h-2.36c0-3.05,.73-8.37,3.47-8.99,1.23-.28,1.97,.13,2.37,.53,1.06,1.05,.69,2.67,.2,4.91-.46,2.05-1.03,4.61-.64,7.02l-2.96,.47Z"/><path d="M26.03,38.99l-.39-8.29c-5.51-4.97-4.57-11.26-4.14-13.11,.28-1.19,1.18-3.97,3.5-4.15,.47-.03,.94,.14,1.28,.47,.71,.7,.65,1.72,.53,3.75-.1,1.67-.24,3.97,.22,5.29l-2.42,.83c.51,1.67,1.53,3.45,3.45,5.04l.51,.42,.23,4.93,7.18-3.7-4.47-3.26,.6-1.15c.83-1.59,2.25-2.73,3.35-3.58-.16,.03-.34,.08-.53,.14-.81,.27-2.82,1.18-4.09,3.84l-2.7-1.3c1.25-2.6,3.38-4.57,5.85-5.39,1.6-.53,3.15-.51,4.26,.07,1.07,.56,1.35,1.31,1.4,1.84,.11,1.3-.93,2.09-2.14,3.01-.64,.49-1.39,1.06-1.98,1.71l6.17,4.49-15.65,8.07Z"/></g></g><g><polyline class="cls-3" points="62.78 77.91 88.85 19.41 92.03 22.54 64.21 87.31"/><polygon points="64.67 87.51 63.75 87.12 91.43 22.66 89.01 20.27 63.24 78.11 62.33 77.7 88.68 18.55 92.62 22.43 64.67 87.51"/></g><g><path class="cls-2" d="M95.71,11.03c-1.14,.63-.78,1.54-1.26,3.24-.57-2.78-.32-4.35-1.57-6.76-1.24-2.42-2.83-2.6-3.2-1.13-.06,.24-.04,.54,.02,.87-.99-1.95-2.35-3.84-3.7-3.01-.5,.31-.24,1.28,.32,2.53-.76-1.13-1.83-1.63-2.7-.62-.53,.61,.35,2.21,1.38,3.88-1.46-1.82-3.89-1.33-2.6,1.05,1.39,2.57,3.58,3.72,4.45,7.98l-4.54,3.66,9.76,5.31,.88-6.37s4.93-4.68,4.88-7.36c-.04-1.79-.84-3.95-2.12-3.25Z"/><g><path d="M86.26,19.17c-.54-2.69-1.61-4.03-2.73-5.45-.57-.72-1.16-1.46-1.65-2.37-.81-1.5-.38-2.43,.29-2.81,.97-.55,2.67,0,3.66,1.67l-1.04,.61c-.68-1.16-1.69-1.42-2.03-1.23-.21,.12-.14,.61,.17,1.2,.44,.82,.98,1.49,1.54,2.2,1.16,1.47,2.37,2.98,2.97,5.95l-1.18,.24Z"/><path d="M86.66,14.37c-.09-.7-.97-2.1-1.74-3.34-1.42-2.28-2.65-4.24-1.75-5.28,.67-.77,1.34-.86,1.79-.79,.83,.12,1.59,.86,2.15,2.09l-1.09,.5c-.44-.96-.92-1.35-1.23-1.4-.22-.03-.46,.1-.71,.39-.26,.45,1.17,2.75,1.86,3.85,.92,1.48,1.79,2.87,1.92,3.82l-1.19,.16Z"/><path d="M92.55,28.97l-11.31-6.15,7.13-5.75,.75,.93-5.73,4.62,8.21,4.47,.79-5.72,.15-.15c1.32-1.25,4.73-4.94,4.69-6.92-.03-1.35-.5-2.52-.92-2.76-.07-.04-.15-.07-.31,.02-.49,.27-.55,.53-.68,1.39-.14,.94-.34,2.35-1.65,4.33l-1-.66c1.16-1.75,1.33-2.96,1.46-3.84,.13-.87,.25-1.7,1.29-2.27,.5-.27,1.03-.28,1.49-.01,1,.58,1.48,2.32,1.51,3.78,.05,2.68-3.96,6.74-4.91,7.67l-.97,7.03Z"/><path d="M88.73,13.94c-.15-1.28-1.11-3.18-1.95-4.86-1.34-2.67-2.31-4.6-1.09-5.36,.47-.29,.98-.36,1.5-.22,1.03,.29,2.04,1.45,3.1,3.56l-1.07,.54c-1.16-2.31-1.98-2.83-2.36-2.94-.19-.06-.36-.03-.54,.08-.17,.41,.86,2.45,1.53,3.79,.93,1.85,1.89,3.77,2.07,5.26l-1.19,.14Z"/><path d="M93.86,14.39c-.19-.92-.29-1.72-.38-2.42-.19-1.48-.34-2.64-1.13-4.19-.69-1.34-1.4-1.75-1.73-1.74-.21,.03-.31,.31-.35,.48-.13,.53,.36,1.76,.79,2.84,.56,1.42,1.2,3.03,1.12,4.38l-1.2-.07c.07-1.08-.52-2.55-1.04-3.86-.57-1.43-1.06-2.67-.84-3.58,.2-.8,.7-1.31,1.38-1.38,1.02-.11,2.11,.77,2.94,2.38,.89,1.73,1.06,3.05,1.26,4.58,.09,.72,.19,1.46,.37,2.33l-1.18,.24Z"/></g></g><g><g><path class="cls-5" d="M77.71,6.2L45.16,15.7l3.95,28.41c-.7-.16-1.48-.18-2.3-.06-2.42,.37-4.17,1.97-3.92,3.56,.26,1.59,2.42,2.58,4.84,2.21,.77-.12,1.48-.36,2.07-.69l4.68,29.02,2.03,11.98,6.23-.18,.06-16.04,10.65-.76c8.57-32.07,4.26-66.95,4.26-66.95Z"/><path d="M56,90.75l-2.11-12.5-4.55-28.24c-.48,.19-.99,.33-1.52,.41-2.79,.43-5.22-.76-5.53-2.71-.12-.73,.08-1.47,.57-2.14,.78-1.07,2.21-1.85,3.85-2.1,.57-.09,1.14-.11,1.69-.06l-3.91-28.13L78.22,5.42l.09,.7c.04,.35,4.22,35.36-4.28,67.17l-.11,.41-10.53,.75-.06,16.07-7.33,.21Zm-5.74-42.56l4.81,29.86,1.94,11.46,5.12-.15,.06-16.02,10.78-.77c7.64-29,4.75-60.53,4.22-65.6l-31.37,9.16,3.99,28.75-.84-.19c-.65-.14-1.36-.16-2.08-.05-1.32,.21-2.47,.81-3.06,1.63-.21,.29-.44,.74-.36,1.25,.2,1.25,2.11,2.03,4.16,1.71,.68-.11,1.32-.32,1.88-.63l.75-.41Z"/></g><g><path d="M46.74,18.65l3.35,5.08-1.83,7.31-1.52-12.39ZM79.83,5.83l-11.19,9.31-18.76,.37,29.94-9.68Z"/><path d="M77.05,7.35l-8.63,7.19-14.48,.28,23.11-7.47m-29.41,13.76l1.8,2.73-.98,3.92-.81-6.65M82.6,4.3l-36.77,11.88,23.03-.45,13.74-11.43h0Zm-36.77,11.88l2.22,18.13,2.68-10.69-4.9-7.44h0Z"/></g><g><g><polygon points="44.34 38.96 51.1 38.77 44.79 40.98 44.34 38.96"/><path d="M47.27,39.48l-2.03,.71-.15-.65,2.18-.06m7.67-1.42l-11.33,.33,.76,3.39,10.58-3.72h0Z"/></g><g><polyline class="cls-2" points="76.15 49.36 69.8 50.45 67.46 25.28 74.01 24.66"/><polygon class="cls-8" points="69.26 51.15 66.8 24.74 73.95 24.07 74.07 25.26 68.11 25.83 70.34 49.75 76.05 48.77 76.26 49.95 69.26 51.15"/></g><g><ellipse class="cls-7" cx="75.08" cy="37.01" rx="5.38" ry="12.4" transform="translate(-3.06 7) rotate(-5.23)"/><path class="cls-8" d="M76,49.97c-3.27,0-6.27-5.43-6.89-12.55-.44-5.07,.5-9.78,2.39-11.99,.73-.85,1.56-1.31,2.47-1.37,3.35-.21,6.45,5.29,7.08,12.54,.44,5.07-.5,9.78-2.39,11.99-.73,.85-1.56,1.31-2.47,1.37-.07,0-.13,0-.2,0Zm-1.84-24.71s-.08,0-.11,0c-.58,.04-1.13,.36-1.64,.95-1.69,1.98-2.52,6.33-2.11,11.1,.61,7.04,3.49,11.61,5.81,11.45,.58-.04,1.13-.36,1.63-.95,1.69-1.98,2.52-6.33,2.11-11.1h0c-.6-6.92-3.4-11.45-5.69-11.45Z"/></g><g><polyline class="cls-5" points="68.8 37.15 70.8 56.83 65.15 56.94 68.87 65.92 63.29 66.08"/><polygon points="63.31 66.68 63.27 65.48 67.98 65.34 64.26 56.35 70.14 56.24 68.2 37.21 69.39 37.09 71.46 57.41 66.04 57.52 69.76 66.49 63.31 66.68"/></g><g><polyline class="cls-2" points="63.66 50.16 56.49 50.51 55.91 24.11 63.01 24.61"/><polygon class="cls-8" points="55.9 51.14 55.3 23.46 63.05 24.01 62.96 25.21 56.53 24.75 57.07 49.88 63.63 49.56 63.69 50.76 55.9 51.14"/></g><g><ellipse class="cls-7" cx="63.33" cy="37.38" rx="5.57" ry="12.78" transform="translate(-1.2 2.12) rotate(-1.9)"/><path class="cls-8" d="M63.68,50.76h-.02c-3.45-.02-6.3-5.91-6.49-13.4-.13-5.24,1.13-10,3.22-12.13,.79-.8,1.69-1.22,2.61-1.22h.02c3.45,.02,6.3,5.91,6.49,13.4h0c.13,5.24-1.13,10-3.22,12.13-.79,.8-1.69,1.22-2.61,1.22Zm-.69-25.55c-.6,0-1.19,.29-1.75,.86-1.87,1.91-3,6.33-2.88,11.26,.19,7.3,2.89,12.21,5.3,12.23h.01c.6,0,1.19-.29,1.75-.86,1.87-1.91,3-6.33,2.88-11.26h0c-.19-7.3-2.89-12.21-5.3-12.23h-.01Z"/></g></g><g><polygon points="57.54 22.03 58.1 20.49 65.75 24.25 65.73 24.54 57.54 22.03"/><path d="M58.44,21.32l1.95,.96-2.07-.63,.12-.33m-.67-1.67l-1.02,2.77,9.54,2.92,.07-1.46-8.59-4.23h0Z"/></g><g><polygon points="70.52 24.13 76.59 18.3 77.01 19.76 70.68 24.5 70.52 24.13"/><path d="M76.29,19.42l.03,.11-.64,.48,.61-.58m.6-2.24l-7.08,6.79,.61,1.47,7.28-5.45-.81-2.81h0Z"/></g></g><g><path class="cls-3" d="M62.78,77.91s16.85,31.91,19,72.28l-27.23,3.7"/><path d="M54.63,154.48l-.16-1.19,26.68-3.62c-2.24-39.51-18.73-71.17-18.9-71.48l1.06-.56c.17,.32,16.94,32.49,19.07,72.53l.03,.55-27.78,3.77Z"/></g><g><path class="cls-3" d="M52.9,133.1l19.68-2.61s-1.85-24.33-10.43-49.68l.63-2.9-2.09,9.58-6.2-9.34s-2.56,18.5-2.79,24.48c-.31,7.79,1.21,30.47,1.21,30.47Z"/><path d="M52.34,133.78l-.04-.64c-.02-.23-1.51-22.8-1.21-30.53,.23-5.95,2.7-23.79,2.8-24.54l.22-1.57,6.3,9.48,1.79-8.2,1.17,.26-.6,2.74c8.46,25.07,10.38,49.42,10.4,49.67l.04,.57-20.87,2.77Zm2.52-53.98c-.62,4.6-2.38,17.98-2.58,22.85-.27,6.94,.92,26.03,1.17,29.77l18.47-2.45c-.33-3.68-2.47-24.77-9.66-46.89l-1.3,5.93-6.11-9.2Z"/></g><g><g><path class="cls-6" d="M72.57,130.49c3.39,27.05,2.14,45.06,2.14,45.06l5.75,17.23-11.38-10.56-4.17-38.99-1.01,34.95,5.94,16.04-11.08-8.42s-4.08-27.87-5.86-52.69l19.68-2.61Z"/><path d="M71.12,195.95l-12.92-9.82-.04-.24c-.04-.28-4.11-28.18-5.87-52.74l-.04-.56,20.84-2.77,.08,.6c3.21,25.65,2.25,43.42,2.15,45.05l6.45,19.35-13.27-12.31-3.25-30.42-.75,26,6.62,17.87Zm-11.8-10.48l9.24,7.03-5.27-14.21,1.02-35.07,1.2-.05,4.15,38.77,9.5,8.81-5.04-15.12v-.12c.02-.18,1.19-18-2.06-44.34l-18.52,2.46c1.69,23.16,5.38,49.07,5.78,51.85Z"/></g><g><g><polygon class="cls-4" points="57.1 134.63 61.14 134.03 61.4 136.53 57.31 137.13 57.1 134.63"/><path d="M56.96,137.55l-.26-3.24,4.77-.71,.34,3.24-4.84,.71Zm.54-2.6l.14,1.74,3.34-.49-.18-1.75-3.3,.49Z"/></g><g><polygon class="cls-4" points="63.66 133.7 67.36 133.37 67.83 135.86 63.94 136.45 63.66 133.7"/><path d="M63.61,136.89l-.36-3.53,4.42-.4,.6,3.21-4.66,.71Zm.46-2.85l.2,1.99,3.11-.48-.33-1.78-2.98,.27Z"/></g><g><polygon class="cls-4" points="69.87 132.96 73.72 132.63 73.98 135.13 70.26 135.72 69.87 132.96"/><path d="M69.94,136.15l-.49-3.52,4.62-.4,.33,3.22-4.46,.71Zm.36-2.84l.28,1.98,3-.48-.18-1.78-3.09,.27Z"/></g><g><polygon class="cls-4" points="51.56 135.29 55.41 134.95 55.67 137.45 51.94 138.04 51.56 135.29"/><path d="M51.62,138.47l-.49-3.52,4.62-.4,.33,3.22-4.46,.71Zm.36-2.84l.28,1.98,3-.48-.18-1.78-3.09,.27Z"/></g></g><g><polygon points="59.33 185.47 59.01 182.82 63.62 179.17 68.56 192.49 59.33 185.47"/><path d="M63.34,180.15l3.93,10.62-7.39-5.62-.24-2.07,3.7-2.93m.55-1.97l-5.52,4.38,.38,3.24,11.08,8.42-5.94-16.04h0Z"/></g><g><polygon points="69.65 181.93 69.41 179.67 74.39 176.47 79.15 190.74 69.65 181.93"/><path d="M74.06,177.39l3.77,11.32-7.62-7.07-.18-1.67,4.02-2.58m.65-1.84l-5.94,3.82,.31,2.85,11.38,10.56-5.75-17.23h0Z"/></g></g><g><path d="M60.45,99.34l1.52-2.16,3.33,3.87-.42,10.15-4.44-11.85Zm-.17-5.97l.89-1.85,1.76,2.2-1.06,1.5-1.6-1.86Z"/><path d="M61.3,92.64l.89,1.11-.36,.51-.84-.97,.31-.64m.72,5.51l2.68,3.11-.29,6.95-3.29-8.78,.9-1.28m-.97-7.74l-1.48,3.05,2.36,2.74,1.76-2.5-2.64-3.29h0Zm.88,5.79l-2.15,3.05,5.59,14.92,.55-13.35-3.99-4.63h0Z"/></g><g><path class="cls-3" d="M54.48,78.15s-8.75,40.49-7.54,78.08l12.61-1.56-2.8-73.11-2.27-3.41Z"/><path d="M46.36,156.91l-.02-.66c-1.2-37.23,7.47-77.82,7.55-78.23l.3-1.39,3.15,4.74,2.83,73.83-13.81,1.71Zm8.42-77.23c-1.49,7.42-8.21,42.88-7.26,75.88l11.41-1.41-2.77-72.39-1.38-2.07Z"/></g><g><polyline class="cls-3" points="56.17 81.78 33.25 27.73 26.25 23.83 53.76 89.38"/><path d="M56.17,81.78c-4.11-7.42-8.58-18.91-12.06-26.77-3.37-7.97-8.12-19.17-11.32-27.09,0,0,.22,.24,.22,.24l-7-3.9s.7-.63,.7-.63l27.51,65.55s-.92,.39-.92,.39L25.79,24.02l-.56-1.34c.61,.33,7.44,4.16,8.26,4.6,0,0,.15,.08,.15,.08l.07,.16c1.98,4.48,3.93,8.96,5.86,13.46,2.88,6.72,8.61,20.29,11.41,27.05,1.9,4.51,3.76,9.03,5.19,13.74h0Z"/></g><g><path class="cls-2" d="M33.65,26.89c1.64-3.14,6.36-4.41,4.12-5.58-1.74-.91-5.3,1.2-5.3,1.2-.16-5.16,4.61-7.71,3.05-8.61-2.71-1.57-4.21,1.9-4.42,2.46,1.17-3.3,2.79-5.61,.85-5.58-2.12,.03-2.88,2.27-3.12,3.3,.29-1.56,.22-2.46-1.08-2.17-1.08,.25-1.91,2.63-2.19,5.43,.08-1.35,.11-2.33-.23-2.3-1.15,.09-1.86,1.76-2.15,2.99-.7,2.99-.53,8.18,4.14,12.06l.31,6.6,11.41-5.88-5.39-3.93Z"/><path d="M31.65,22.42c-.1-3.15,1.5-5.36,2.56-6.83,.34-.47,.8-1.11,.8-1.32-.59-.29-1.11-.37-1.6-.19-1.06,.39-1.8,1.9-2,2.45l-1.13-.4c.04-.1,.91-2.51,2.72-3.17,.84-.31,1.71-.2,2.6,.32,.4,.23,.54,.54,.59,.76,.14,.67-.34,1.33-1.01,2.26-1.02,1.41-2.42,3.35-2.33,6.09l-1.2,.04Z"/><path d="M29.49,22.85c-.62-3.52,.8-6.9,1.74-9.13,.38-.9,.89-2.12,.79-2.43-.01,0-.08-.02-.25-.02h-.03c-2.2,.04-2.63,3.26-2.64,3.29l-1.19-.15c.18-1.48,1.21-4.3,3.81-4.34,.61-.03,1.05,.17,1.3,.55,.51,.75,.04,1.87-.68,3.56-.94,2.23-2.22,5.28-1.67,8.46l-1.18,.21Z"/><path d="M27.05,23.13c-.45-2.81,.2-5.69,.67-7.8,.25-1.14,.6-2.7,.37-2.96h0s-.1-.04-.42,.03c-.73,.17-1.83,3.02-1.83,6.95h-1.2c0-3.01,.74-7.65,2.77-8.12,.67-.15,1.19-.05,1.53,.29,.7,.7,.41,2.04-.05,4.08-.47,2.13-1.06,4.77-.65,7.35l-1.18,.19Z"/><path d="M26.86,37.55l-.34-7.27c-5.45-4.68-4.55-10.73-4.14-12.48,.18-.78,.91-3.32,2.69-3.46,.22-.01,.43,.06,.59,.22,.41,.4,.38,1.18,.27,3.06-.1,1.75-.25,4.14,.26,5.64l-1.14,.39c-.59-1.72-.44-4.15-.33-6.1,.04-.65,.08-1.41,.07-1.87-.55,.37-1.02,1.42-1.24,2.39-.38,1.61-1.2,7.19,3.94,11.46l.2,.17,.28,5.93,9.72-5.01-5.02-3.66,.24-.46c.79-1.52,2.19-2.59,3.32-3.45,.51-.39,1.21-.92,1.31-1.17-.03,0-.1-.07-.26-.15-.59-.31-1.6-.28-2.63,.06-1.93,.64-3.62,2.21-4.62,4.31l-1.08-.52c1.14-2.38,3.08-4.18,5.32-4.93,1.37-.46,2.67-.45,3.56,.01,.21,.11,.86,.45,.91,1.12,.07,.8-.71,1.4-1.79,2.22-.91,.69-2.01,1.54-2.72,2.61l5.74,4.18-13.11,6.75Z"/></g></g><g class="cls-9"><rect class="cls-1" width="121.88" height="198.9"/></g></g></g></svg>