<?xml version="1.0" encoding="UTF-8"?><svg id="Livello_2" xmlns="http://www.w3.org/2000/svg" viewBox="0 0 121.88 198.9"><defs><style>.cls-1{fill:none;}.cls-2{fill:#68d1e7;}.cls-3{fill:#fff;}.cls-4{fill:#ffbc61;}.cls-5{fill:#ffd1a5;}.cls-6{fill:#8c6239;}.cls-7{fill:#adeaff;}.cls-8{fill:#4d96ca;}.cls-9{opacity:.13;}</style></defs><g id="export"><g id="youngRun1"><g><polygon points="68.45 106.83 67.57 103.97 106.6 91.89 105.44 90.25 66.99 100.25 66.24 97.35 106.69 86.82 111.43 93.54 68.45 106.83"/><path d="M67.27,110.21h-8.95l-1.52-12.29-2.84-24.77c-.22,.04-.43,.07-.65,.1-1.44,.16-2.86-.03-3.99-.54-1.37-.62-2.23-1.69-2.37-2.92-.26-2.32,2.12-4.42,5.43-4.8,.27-.03,.54-.05,.8-.05l-2.31-25.49,23.81-5.62,23.49-6.2-11.08,7.77c.32,8.63,.42,34.63-8.19,58.8l-.34,.96-10.32,.4-.96,14.67Zm-6.3-3h3.48l.95-14.56,10.99-.42c8.37-24.21,7.98-50.09,7.65-57.53v-.25s-8.65,2.28-8.65,2.28l-21.31,5.04,2.42,26.76-2.02-.47c-.54-.13-1.16-.15-1.78-.08-1.91,.22-2.82,1.19-2.78,1.48,.01,.1,.19,.32,.63,.52,.64,.29,1.52,.4,2.41,.29,.59-.07,1.16-.22,1.64-.45l1.89-.88,3.28,28.63,1.19,9.64Z"/><path d="M54.3,168.23l-.29-2.99,25.99-2.51c-.26-35.43-14.6-64.02-14.75-64.31l2.67-1.36c.15,.3,15.19,30.26,15.08,67.04v1.36s-28.71,2.77-28.71,2.77Z"/><path d="M103,185.26l-35.56-27.31c-1.14,1.75-3.26,4.93-5.69,8.14-5.1,6.75-8.98,10.35-11.85,11.01l-.58,.13-23.04-13.41-16.62,.62,17.45-12.18,18.62,9.31,6.92-15.22,21.22-1.99,.47,.37c13.33,10.44,25.47,24.76,28.09,27.92l19.13-1.94-18.56,14.55Zm-36.34-31.7l36.32,27.9,8.58-6.73-10.44,1.06-.51-.63c-.13-.16-13.13-16.21-27.65-27.71l-18.3,1.72-7.48,16.47-19.81-9.9-7.62,5.32,7.29-.27,22.71,13.22c4.09-1.67,11.89-12.38,16.04-19.04l.87-1.41Z"/><path d="M44.9,170.3l.04-1.68c.88-34.08,11.81-70.95,11.92-71.32l.93-3.1,4.09,6.26v.46s-1.31,68.02-1.31,68.02l-15.67,1.35Zm13.95-68.98c-2.57,9.4-9.88,38.28-10.85,65.71l9.63-.83,1.24-64.86v-.02Z"/><polygon points="57.14 106.81 10.54 96.49 15.08 89.57 58.9 97.22 58.38 100.17 16.51 92.86 15.43 94.5 57.79 103.88 57.14 106.81"/><g><path d="M13.88,105.12l-3.77-7.39c-7.07-2.26-8.8-8.38-9.17-10.25-.22-1.12-.52-3.73,1.11-4.98-.17-1.6,.02-3.15,1.1-3.97,.56-.42,1.07-.59,1.5-.62,.4-1.03,1.12-1.83,2.13-2.31,1.05-.5,1.81-.27,2.26,.01,.55,.34,.85,.84,1.03,1.49,.54-.22,1.21-.34,2.04-.26,.62,.06,1.14,.35,1.48,.82,.64,.87,.42,1.94,.17,3.18-.2,1-.45,2.22-.34,3.54,1.03-.94,2.36-1.79,3.72-1.72,1.21,.07,1.77,.63,2.03,1.1,.64,1.13,.01,2.29-.71,3.63-.38,.71-.83,1.54-1.1,2.38l7.47,1.55-10.94,13.8ZM3.76,85.81c0,.3,.04,.67,.12,1.09,.29,1.49,1.72,6.49,7.67,8.12l.64,.17,2.24,4.4,5.02-6.33-5.42-1.12,.07-1.29c.09-1.63,.78-3.12,1.4-4.3-.54,.48-1.1,1.1-1.56,1.75l-1.46,2.07-1.12-2.27c-1.52-3.1-.92-6.08-.55-7.85,0,0,0-.01,0-.02-.3,.49-.43,1.37-.39,2.09l-2.99,.21c-.05-.54-.07-1.06-.09-1.55l-2.35,.53c0,.73,.17,1.95,.72,3.6l-1.95,.7Zm3.55-6.16c-.03,.33,0,.67,.03,.95,0-.21-.01-.42-.02-.62,0-.11,0-.22,0-.33Z"/><path d="M11.14,88.09c-1.52-3.1-.92-6.08-.55-7.85,0,0,0-.01,0-.02-.33,.54-.43,1.54-.39,2.13l-2.99,.24c-.03-.31-.21-3.11,1.43-4.72,.57-.56,1.6-1.2,3.23-1.04,.62,.06,1.14,.35,1.48,.82,.64,.87,.42,1.94,.17,3.19-.32,1.58-.76,3.75,.31,5.93l-2.69,1.32Z"/><path d="M9.41,89.48c-1.79-2.64-2.17-5.72-2.28-8.13l-2.74,.86c-.53-1.68-.75-5.23,2.16-6.61,1.05-.5,1.81-.27,2.26,.01,1.19,.73,1.22,2.21,1.28,4.27,.06,2.31,.14,5.47,1.81,7.91l-2.48,1.69Zm-2.33-9.78c-.02,.29,0,.58,.02,.83,0-.2-.01-.38-.02-.57,0-.08,0-.17,0-.26Z"/><path d="M7.29,90.73c-.74-1.13-1.28-2.35-1.69-3.56l-2.15,.97c-1.25-2.78-2.78-7.93-.54-9.62,1.01-.76,1.85-.69,2.38-.49,1.4,.52,1.73,2.15,2.2,4.39,.43,2.06,.96,4.62,2.31,6.66l-2.5,1.65Z"/><path d="M13.65,105.11l-3.77-7.39c-7.07-2.26-8.8-8.38-9.17-10.25-.24-1.2-.57-4.11,1.48-5.22,.42-.23,.92-.26,1.37-.1,.94,.35,1.3,1.3,2.03,3.2,.6,1.57,1.42,3.71,2.38,4.73l-1.87,1.75c1.15,1.31,2.82,2.52,5.22,3.18l.64,.17,2.24,4.4,5.02-6.33-5.42-1.12,.07-1.29c.1-1.8,.92-3.42,1.58-4.65-.14,.1-.28,.22-.42,.35-.62,.58-2.08,2.24-2.15,5.19l-3-.07c.07-2.89,1.2-5.55,3.11-7.32,1.24-1.14,2.67-1.75,3.91-1.69,1.21,.07,1.77,.63,2.03,1.1,.64,1.13,.01,2.29-.71,3.63-.38,.71-.83,1.53-1.1,2.38l7.47,1.55-10.94,13.8Z"/></g><g><path d="M108.61,100.9l-10.05-11.84,6.79-2.18c.19-1.98-.23-3.33-.68-4.75-.28-.91-.58-1.86-.72-2.96-.29-2.22,.84-3.27,1.9-3.51,.19-.04,.38-.08,.57-.06,.09-.92,.43-1.69,1.23-2.12,.69-.37,1.42-.47,2.09-.3,.28-.37,.68-.65,1.25-.76,.79-.15,1.54,.03,2.17,.5,.62,.46,1.09,1.19,1.43,2.23,.28-.03,.56-.01,.85,.06,1.38,.36,2.31,1.83,2.55,4.05,.12,1.14,.07,2.09-.06,2.96,.76-.02,1.47,.28,1.95,.88,1.01,1.26,.74,3.45,.2,4.94-.97,2.69-5.75,4.99-7.55,5.78l-3.92,7.08Zm-4.85-10.35l4.33,5.1,2.32-4.19,.49-.2c.81-.33,1.66-.74,2.47-1.17l.68-4.03c.16-.96,.36-1.75,.53-2.46,.35-1.41,.6-2.44,.43-4.01-.02-.15-.04-.28-.06-.41l-1.72,9.55-1.09-10.53c-.09-.83-.2-1.43-.32-1.86l-2.4,.33c.04,.44,.13,1.08,.3,1.98l-2.7,.67c.13,.64,.32,1.26,.52,1.91,.56,1.8,1.2,3.84,.65,7.04l-.15,.9-4.28,1.37Zm13.77-4.59c-.2,.35-.45,.78-.8,1.25l-1.14,1.52c.87-.62,1.51-1.23,1.68-1.7,.14-.38,.22-.75,.27-1.07Zm.54-.73h0Zm-2.88-7.19s0,0,0,0h0Z"/><g><path d="M108.19,88.28l-2.96-.5c.42-2.49-.05-4.02-.56-5.64-.28-.91-.58-1.86-.72-2.96-.28-2.19,.83-3.35,2.05-3.52,1.74-.25,3.46,1.37,3.83,3.62l-2.73,.45c.12,.51,.28,1.01,.44,1.53,.56,1.8,1.2,3.84,.65,7.04Z"/><path d="M110.27,84.08l-2.92-.71c.12-.49-.21-2.22-.43-3.37-.57-2.99-1.07-5.56,.73-6.52,1.33-.7,2.33-.35,2.82-.08,1.01,.57,1.62,1.79,1.71,3.45l-2.73,.16c.1,.78,.28,1.73,.41,2.42,.36,1.89,.67,3.51,.4,4.64Z"/><path d="M108.61,100.9l-10.05-11.84,10.01-3.21,.92,2.86-5.73,1.83,4.33,5.1,2.32-4.19,.49-.2c2.73-1.13,5.94-3.07,6.37-4.24,.14-.38,.22-.74,.27-1.06-.51,.89-1.29,2.19-3.28,3.6l-1.74-2.44c1.54-1.1,2.06-2.02,2.48-2.76,.47-.84,1.06-1.88,2.68-2.1,.87-.12,1.68,.19,2.22,.85,1.01,1.26,.74,3.45,.2,4.94-.97,2.69-5.75,4.99-7.55,5.78l-3.92,7.08Z"/><path d="M112.34,84.46l-2.91-.74c.28-1.1,.08-3.13-.09-4.93-.31-3.19-.58-5.95,1.65-6.36,.8-.14,1.55,.03,2.18,.5,1.08,.81,1.7,2.42,1.97,5.06l-2.83,.28c0,.08,.01,.15,.02,.22,.21,2.14,.42,4.35,.01,5.96Z"/><path d="M117,86.56l-2.96-.5c.05-.28,.1-.54,.15-.79l-2.51-1.15c.37-.8,.35-2.28,.34-3.59-.02-1.7-.03-3.16,.67-4.16,.69-.99,1.72-1.42,2.74-1.15,1.38,.36,2.31,1.83,2.55,4.05,.23,2.1-.13,3.53-.5,5.04-.17,.69-.34,1.4-.49,2.25Zm-1.98-6.83c0,.27,0,.54,0,.77,0,.25,0,.51,0,.77,.04-.47,.04-.97,0-1.54Z"/></g></g></g><g><polyline class="cls-3" points="66.61 98.8 106.06 88.54 109.02 92.71 68.01 105.4"/><polygon points="68.19 105.97 67.83 104.83 108.05 92.39 105.81 89.22 66.76 99.38 66.46 98.22 106.32 87.85 109.98 93.04 68.19 105.97"/></g><g><g><path class="cls-5" d="M85.45,32.82l-32.97,7.79,2.35,25.99c-.68-.16-1.47-.21-2.29-.11-2.43,.28-4.27,1.68-4.1,3.14,.17,1.46,2.27,2.42,4.7,2.14,.78-.09,1.49-.29,2.11-.58l3.05,26.56,1.35,10.97h6.22l.95-14.61,10.66-.41c10.33-28.99,7.97-60.87,7.97-60.87Z"/><path d="M66.43,109.31h-7.31l-1.42-11.5-2.96-25.79c-.49,.16-1,.27-1.53,.33-1.28,.14-2.53-.02-3.52-.47-1.09-.5-1.74-1.28-1.85-2.2-.21-1.81,1.83-3.49,4.63-3.8,.57-.07,1.14-.07,1.69,0l-2.33-25.73,34.16-8.07,.05,.7c.02,.32,2.25,32.34-8,61.12l-.14,.38-10.53,.4-.95,14.63Zm-6.25-1.2h5.12l.95-14.59,10.79-.41c9.18-26.07,8.1-54.72,7.84-59.54l-31.77,7.5,2.38,26.3-.81-.19c-.64-.15-1.36-.19-2.08-.1-2.03,.23-3.7,1.39-3.58,2.48,.07,.66,.76,1.06,1.15,1.24,.79,.36,1.81,.49,2.89,.37,.68-.08,1.35-.26,1.92-.53l.75-.35,3.14,27.39,1.29,10.44Z"/></g><g><path d="M53.89,43.35l3.04,4.7-2.22,6.58-.82-11.28Zm3.71-2.85l29.74-7.85-11.42,8.01-18.32-.16Z"/><path d="M84.24,34.09l-8.51,5.97-13.66-.12,22.17-5.85m-29.58,11.55l1.61,2.49-1.18,3.49-.44-5.98m35.77-14.42l-37.31,9.84,22.98,.2,14.33-10.05h0Zm-37.31,9.84l1.21,16.57,3.27-9.67-4.47-6.9h0Z"/></g><g><g><polygon points="50.38 61.83 56.74 61.83 50.7 63.57 50.38 61.83"/><path d="M52.5,62.43l-1.33,.39-.07-.39h1.4m8.47-1.2h-11.32l.57,3.11,10.75-3.11h0Z"/></g><g><polyline class="cls-2" points="81.5 72.09 75.11 72.92 74.17 49.93 80.74 49.54"/><polygon class="cls-8" points="74.53 73.6 73.55 49.36 80.7 48.94 80.77 50.14 74.79 50.49 75.68 72.24 81.42 71.5 81.58 72.69 74.53 73.6"/></g><g><ellipse class="cls-7" cx="81.12" cy="60.82" rx="5.38" ry="11.28" transform="translate(-2.01 2.78) rotate(-1.94)"/><path class="cls-8" d="M81.41,72.7c-3.3,0-6.05-5.09-6.27-11.68-.23-6.66,2.22-11.97,5.57-12.08,1.71-.04,3.27,1.18,4.47,3.5,1.13,2.17,1.81,5.08,1.91,8.18,.23,6.66-2.22,11.97-5.57,12.08-.04,0-.07,0-.11,0Zm-.59-22.56s-.04,0-.06,0c-2.59,.09-4.61,5.05-4.41,10.84,.2,5.79,2.58,10.58,5.14,10.52,2.59-.09,4.61-5.05,4.41-10.84-.1-2.92-.73-5.65-1.78-7.67-.94-1.82-2.14-2.85-3.3-2.85Z"/></g><g><polyline class="cls-5" points="74.85 60.78 75.75 78.75 70.11 78.7 73.32 86.98 67.75 86.98"/><polygon points="74.2 87.58 67.75 87.58 67.75 86.38 72.44 86.38 69.23 78.09 75.12 78.15 74.25 60.81 75.44 60.75 76.38 79.36 70.99 79.31 74.2 87.58"/></g><g><polyline class="cls-2" points="69 72.49 61.83 72.61 62.73 48.55 69.77 49.19"/><polygon class="cls-8" points="61.21 73.22 62.16 47.89 69.83 48.59 69.72 49.79 63.31 49.2 62.46 72 68.99 71.89 69.01 73.09 61.21 73.22"/></g><g><ellipse class="cls-7" cx="69.39" cy="60.84" rx="11.65" ry="5.56" transform="translate(6.29 128.18) rotate(-88.11)"/><path class="cls-8" d="M69.09,73.09s-.07,0-.11,0c-3.45-.11-5.97-5.58-5.75-12.45,.11-3.2,.8-6.2,1.97-8.44,1.23-2.38,2.85-3.65,4.59-3.61,3.45,.11,5.97,5.58,5.75,12.45h0c-.11,3.2-.8,6.2-1.97,8.44-1.21,2.33-2.79,3.61-4.48,3.61Zm.59-23.3c-1.2,0-2.44,1.07-3.42,2.96-1.08,2.09-1.73,4.9-1.83,7.93-.2,5.99,1.9,11.12,4.59,11.21,1.21,.08,2.49-1.04,3.49-2.96,1.08-2.09,1.73-4.9,1.83-7.93,.2-5.99-1.9-11.12-4.59-11.21-.02,0-.04,0-.07,0Z"/></g></g><g><polygon points="64.5 46.67 65.11 45.35 72.52 48.97 72.5 49.16 64.5 46.67"/><path d="M65.4,46.16l.91,.45-.98-.31,.07-.14m-.57-1.61l-1.17,2.49,9.35,2.91,.15-1.33-8.33-4.08h0Z"/></g><g><polygon points="77.31 48.99 83.67 43.86 83.99 45.11 77.41 49.26 77.31 48.99"/><polygon points="84.03 42.8 76.59 48.8 77.12 50.15 84.68 45.38 84.03 42.8 84.03 42.8"/></g></g><g><path class="cls-3" d="M66.58,97.74s15.02,29.52,14.92,66.35l-27.35,2.64"/><path d="M54.21,167.33l-.12-1.2,26.81-2.59c-.04-36.01-14.7-65.24-14.85-65.54l1.07-.54c.15,.3,15.09,30.07,14.98,66.63v.54s-27.89,2.7-27.89,2.7Z"/></g><g><path class="cls-3" d="M53.66,147.76l19.76-1.86s-.49-22.21-7.63-45.53l.79-2.63-2.62,8.67-5.67-8.67s-3.58,16.78-4.15,22.23c-.74,7.09-.49,27.79-.49,27.79Z"/><path d="M53.07,148.41v-.65c-.01-.21-.25-20.82,.49-27.86,.56-5.42,4.01-21.6,4.16-22.29l.3-1.41,5.75,8.8,2.25-7.44,1.15,.35-.74,2.45c7.03,23.07,7.6,45.3,7.6,45.52v.56s-20.95,1.97-20.95,1.97Zm5.52-49.14c-.87,4.16-3.38,16.32-3.84,20.75-.65,6.27-.53,23.5-.49,27.07l18.55-1.74c-.13-3.48-1.11-22.66-7.01-42.9l-1.62,5.37-5.58-8.54Z"/></g><g><g><path class="cls-6" d="M73.42,145.9c15.03,11.76,28.36,28.31,28.36,28.31l14.78-1.5-13.57,10.64-35.93-27.6s-11.51,18.51-17.49,19.87l-22.91-13.33-11.95,.45,12.54-8.75,19.22,9.61,7.2-15.85,19.76-1.86Z"/><path d="M103,184.12l-35.78-27.48c-2.02,3.18-11.89,18.3-17.52,19.58l-.23,.05-22.96-13.36-13.82,.52,14.5-10.12,18.98,9.49,7.09-15.59,20.34-1.91,.19,.15c13.9,10.88,26.5,26.02,28.25,28.16l16.52-1.67-15.56,12.21Zm-36.1-29.24l36.09,27.72,11.57-9.08-13.04,1.32-.2-.25c-.13-.16-13.35-16.49-28.08-28.07l-19.17,1.8-7.31,16.1-19.46-9.72-10.57,7.38,10.09-.38,22.85,13.3c5.74-1.7,16.78-19.37,16.89-19.55l.35-.56Z"/></g><g><g><polygon class="cls-4" points="60.6 148.7 64.66 148.25 64.78 150.53 60.67 150.97 60.6 148.7"/><path d="M60.31,151.39l-.09-3.03,4.79-.52,.16,3.03-4.87,.52Zm.68-2.36l.04,1.52,3.35-.36-.08-1.53-3.32,.36Z"/></g><g><polygon class="cls-4" points="67.19 148.02 70.9 147.82 71.23 150.1 67.32 150.54 67.19 148.02"/><path d="M66.97,150.96l-.17-3.29,4.42-.24,.43,3-4.68,.53Zm.62-2.58l.09,1.75,3.12-.35-.22-1.56-2.99,.16Z"/></g><g><polygon class="cls-4" points="73.42 147.52 77.28 147.31 77.4 149.59 73.65 150.03 73.42 147.52"/><path d="M73.32,150.45l-.3-3.29,4.63-.24,.16,3.01-4.48,.53Zm.51-2.58l.16,1.75,3.02-.35-.08-1.55-3.1,.16Z"/></g><g><polygon class="cls-4" points="55.04 149.15 58.9 148.94 59.02 151.22 55.27 151.66 55.04 149.15"/><path d="M54.93,152.08l-.3-3.29,4.63-.24,.16,3.01-4.48,.53Zm.51-2.58l.16,1.75,3.02-.35-.08-1.56-3.1,.16Z"/></g></g></g><g><path d="M63.08,117.24l1.64-1.93,3.09,3.6-.98,9.21-3.75-10.87Zm.17-5.47l.98-1.63,1.6,2.01-1.12,1.32-1.46-1.7Z"/><path d="M64.3,111.18l.75,.95-.35,.41-.72-.84,.31-.52m.42,5.05l2.47,2.87-.67,6.27-2.76-8,.96-1.13m-.56-7.15l-1.65,2.74,2.2,2.56,1.89-2.23-2.45-3.07h0Zm.55,5.3l-2.31,2.72,4.74,13.74,1.29-12.14-3.72-4.33h0Z"/></g><g><path class="cls-3" d="M58.3,97.74s-10.97,36.65-11.86,70.93l12.65-1.09,1.27-66.67-2.07-3.17Z"/><path d="M45.82,169.32l.02-.67c.88-33.96,11.77-70.72,11.88-71.08l.37-1.24,2.88,4.41-1.29,67.4-13.86,1.19Zm12.69-70.16c-1.89,6.67-10.56,38.77-11.45,68.85l11.44-.98,1.26-65.95-1.25-1.92Z"/></g><g><polyline class="cls-3" points="58.64 98.7 15.79 91.22 12.98 95.49 57.47 105.34"/><polygon points="57.34 105.93 12.01 95.89 15.51 90.56 15.9 90.63 58.74 98.1 58.54 99.29 16.08 91.88 13.96 95.1 57.6 104.76 57.34 105.93"/></g><g><path class="cls-2" d="M15.6,90.94c.2-3.53,3.98-6.64,1.45-6.78-1.96-.11-4.34,3.28-4.34,3.28-2.27-4.64,1.03-8.92-.76-9.1-3.12-.32-3.05,3.47-3.02,4.06-.3-3.49,.23-6.26-1.52-5.43-1.92,.91-1.69,3.25-1.49,4.29-.38-1.54-.82-2.33-1.87-1.53-.88,.67-.65,3.18,.24,5.85-.48-1.26-.86-2.17-1.16-2-1.01,.55-.97,2.37-.73,3.61,.59,3.01,2.88,7.67,8.74,9.28l3,5.89,7.98-10.06-6.53-1.36Z"/><path d="M11.95,87.7c-1.39-2.83-.84-5.51-.48-7.28,.12-.57,.27-1.35,.19-1.53-.66-.03-1.16,.12-1.54,.49-.81,.79-.86,2.47-.81,3.05l-1.2,.1c0-.11-.2-2.66,1.17-4.01,.64-.62,1.48-.89,2.5-.79,.46,.05,.72,.27,.85,.45,.4,.55,.24,1.36,.01,2.47-.35,1.71-.83,4.05,.38,6.51l-1.08,.53Z"/><path d="M10.16,88.98c-2.01-2.96-2.11-6.62-2.17-9.04-.03-.97-.06-2.3-.28-2.54,0,0-.09,.02-.27,.1-2,.94-1.06,4.05-1.05,4.08l-1.15,.36c-.45-1.43-.67-4.42,1.68-5.52,.55-.26,1.02-.27,1.41-.04,.77,.47,.8,1.69,.85,3.53,.06,2.42,.15,5.73,1.96,8.4l-.99,.68Z"/><path d="M8.04,90.24c-1.56-2.37-2.17-5.27-2.61-7.38-.24-1.14-.56-2.71-.88-2.85,0,0-.11,0-.37,.2-.6,.45-.43,3.51,1.19,7.08l-1.09,.49c-1.24-2.74-2.48-7.28-.82-8.53,.55-.42,1.06-.54,1.52-.37,.93,.35,1.21,1.69,1.64,3.73,.44,2.13,1,4.79,2.44,6.97l-1,.66Z"/><path d="M13.81,103.45l-3.31-6.48c-6.9-2.02-8.57-7.9-8.92-9.67-.15-.78-.54-3.41,1.03-4.26,.19-.1,.42-.12,.62-.04,.54,.2,.83,.92,1.5,2.68,.62,1.64,1.48,3.88,2.56,5.03l-.88,.82c-1.24-1.32-2.11-3.6-2.81-5.42-.23-.61-.51-1.32-.71-1.73-.35,.57-.34,1.71-.15,2.7,.32,1.62,1.87,7.05,8.31,8.82l.26,.07,2.7,5.29,6.79-8.57-6.08-1.26,.03-.52c.1-1.71,.93-3.26,1.6-4.51,.31-.57,.72-1.33,.72-1.6-.02,0-.12-.02-.3-.03-.68-.03-1.57,.4-2.37,1.14-1.5,1.38-2.38,3.51-2.44,5.83l-1.2-.03c.06-2.64,1.09-5.08,2.82-6.68,1.06-.98,2.23-1.52,3.25-1.45,.24,.01,.96,.05,1.29,.64,.39,.7-.07,1.57-.72,2.76-.54,1.01-1.2,2.23-1.41,3.5l6.95,1.44-9.16,11.56Z"/></g><g><path class="cls-2" d="M117.87,83.74c-1.29,.17-1.28,1.15-2.34,2.57,.47-2.8,1.26-4.17,.97-6.87-.29-2.7-1.7-3.45-2.58-2.2-.14,.2-.23,.49-.29,.82-.23-2.18-.81-4.43-2.37-4.15-.58,.11-.68,1.11-.61,2.47-.31-1.33-1.12-2.18-2.3-1.56-.72,.38-.47,2.18-.11,4.12-.7-2.23-3.15-2.65-2.8,.05,.37,2.9,2,4.76,1.27,9.05l-5.55,1.78,7.19,8.47,3.12-5.63s6.29-2.59,7.21-5.11c.61-1.68,.64-3.99-.8-3.8Z"/><g><path d="M107.3,88.13l-1.18-.2c.46-2.7-.05-4.33-.59-6.06-.27-.88-.56-1.78-.69-2.81-.22-1.69,.52-2.41,1.29-2.52,1.1-.17,2.5,.96,2.81,2.87l-1.18,.19c-.22-1.32-1.08-1.95-1.45-1.88-.24,.04-.36,.52-.27,1.18,.12,.92,.37,1.74,.64,2.6,.56,1.79,1.13,3.63,.62,6.62Z"/><path d="M109.39,83.87l-1.17-.28c.17-.68-.15-2.31-.42-3.75-.5-2.64-.94-4.91,.27-5.55,.9-.48,1.56-.31,1.96-.09,.73,.41,1.18,1.38,1.26,2.72l-1.2,.07c-.06-1.05-.37-1.59-.65-1.75-.2-.11-.46-.07-.81,.11-.4,.33,.1,2.99,.35,4.26,.33,1.71,.64,3.32,.41,4.26Z"/><path d="M108.46,99.33l-8.34-9.82,8.73-2.8,.37,1.14-7.01,2.25,6.05,7.12,2.8-5.05,.19-.08c1.68-.69,6.19-2.9,6.87-4.76,.46-1.27,.44-2.53,.14-2.91-.05-.06-.11-.12-.3-.09-.56,.08-.71,.3-1.13,1.05-.46,.83-1.17,2.07-3.09,3.44l-.7-.98c1.71-1.21,2.31-2.28,2.74-3.05,.43-.77,.84-1.49,2.02-1.65,.57-.07,1.06,.11,1.4,.53,.73,.9,.55,2.69,.05,4.07-.91,2.52-6.12,4.86-7.35,5.38l-3.44,6.21Z"/><path d="M111.47,84.24l-1.16-.29c.32-1.25,.11-3.37-.07-5.24-.29-2.98-.5-5.13,.92-5.39,.54-.1,1.05,.02,1.47,.34,.85,.64,1.38,2.09,1.61,4.43l-1.19,.12c-.25-2.57-.82-3.35-1.14-3.59-.16-.12-.32-.16-.54-.12-.3,.33-.08,2.59,.06,4.09,.2,2.06,.41,4.19,.04,5.65Z"/><path d="M116.12,86.41l-1.18-.2c.16-.92,.35-1.71,.52-2.4,.36-1.45,.64-2.59,.45-4.32-.16-1.5-.68-2.17-.99-2.25-.21-.05-.4,.18-.5,.32-.31,.45-.3,1.77-.29,2.94,.01,1.53,.03,3.26-.53,4.48l-1.09-.5c.45-.98,.44-2.57,.42-3.97-.02-1.54-.03-2.88,.5-3.64,.47-.67,1.12-.96,1.78-.8,.98,.25,1.69,1.48,1.88,3.28,.21,1.94-.11,3.23-.48,4.73-.17,.7-.35,1.43-.5,2.31Z"/></g></g><polygon points="26.66 162.3 30.01 155.54 27.24 154 14.71 162.75 26.66 162.3"/><polygon points="101.78 174.21 99.95 181.02 102.99 183.36 116.56 172.72 101.78 174.21"/><g class="cls-9"><rect class="cls-1" width="121.88" height="198.9"/></g></g></g></svg>