<?xml version="1.0" encoding="UTF-8"?><svg id="Livello_2" xmlns="http://www.w3.org/2000/svg" viewBox="0 0 121.88 198.9"><defs><style>.cls-1{fill:none;}.cls-2{fill:#68d1e7;}.cls-3{fill:#fff;}.cls-4{fill:#ffbc61;}.cls-5{fill:#ffd1a5;}.cls-6{fill:#8c6239;}.cls-7{fill:#adeaff;}.cls-8{fill:#4d96ca;}.cls-9{opacity:.13;}</style></defs><g id="export"><g id="youngJump"><g><path d="M75.71,89.82l-8.81-1.78,.82-13.43,1.89-27.51c-.22,0-.44,0-.67-.02-3.31-.25-5.77-2.38-5.6-4.85,.07-.98,.54-1.87,1.36-2.58,1.19-1.03,2.97-1.54,4.88-1.39,.26,.02,.53,.05,.79,.1l2.54-28.02,24.44-1.36,23.6-1.99-11.67,5.86c-1.29,9.27-6.08,37.49-19.12,61.97l-.5,.94-10.23-1.62-3.71,15.67Zm-5.65-4.2l3.4,.69,3.68-15.55,10.86,1.72c12.82-24.56,17.32-52.69,18.41-60.8l.06-.45-8.91,.75-21.9,1.22-2.67,29.43-1.95-.94c-.5-.24-1.08-.39-1.69-.43-1.3-.1-2.24,.28-2.69,.67-.14,.12-.31,.31-.32,.52-.04,.57,1.07,1.51,2.83,1.65,.58,.04,1.15,0,1.65-.15l2.05-.58-2.17,31.45-.66,10.81Z"/><path d="M78.05,79.14c.89,1.92,1.6,3.87,2.32,5.82,.24,2.01,.54,4.02,.8,6.02l1.64,12.04c.54,3.96,1.94,14.22,2.46,18.06-.18,2.07-.34,4.14-.67,6.22-.87-1.93-1.58-3.87-2.31-5.82-.52-3.79-1.92-14.13-2.46-18.06,0,0-1.64-12.04-1.64-12.04-.28-2.01-.53-4.02-.83-6.02,.17-2.07,.34-4.13,.68-6.23h0Z"/><path d="M83.58,145.22c-1.07,0-1.93-.73-2.56-2.19-.11,.15-.22,.28-.34,.4-.6,.58-1.45,.7-2.17,.3-1.85-1.01-2.23-5.27-1.01-11.4,.88-4.41,1.14-6.4,1.14-6.42l.16-1.24,12.68-.66-4.77,8.45c1.1,2.52,2.56,8.15,1.78,10.38-.31,.89-.88,1.26-1.31,1.42-.41,.15-.85,.13-1.26-.05-.14-.06-.3-.14-.51-.34-.1,.28-.23,.5-.38,.67-.33,.4-.79,.63-1.28,.67-.06,0-.12,0-.17,0Zm-2.15-17.68c-.17,1.06-.48,2.81-.99,5.38-.39,1.97-.57,3.54-.63,4.78,.03-.17,.07-.33,.09-.49l1.69-9.5-.02-.17h-.15Zm.64-.03l1.55,4.32,2.56-4.53-4.1,.21Z"/><path d="M80.73,152.67l-28.74-2.69,.28-2.99,25.98,2.44c6.47-38.48-2.25-72.36-2.34-72.7l2.9-.76c.09,.35,9.19,35.67,2.16,75.35l-.24,1.36Z"/><path d="M70.6,197.93l-12.29-18.19,2.15-17.54-3.2,12.16,2.77,21.8-12.56-15.16,.05-.61c.02-.28,2.38-28.41,6.24-52.76l.22-1.39,22.67,2.19-.16,1.5c-2.61,25.05-7.39,41.97-8.09,44.36l2.21,23.63Zm-9.18-18.94l5.1,7.54-1.17-12.55,.09-.28c.05-.17,5.09-16.81,7.9-42.58l-16.84-1.63c-3.4,21.92-5.58,46.4-5.94,50.54l5.2,6.27-1.54-12.14,8.98-34.1,2.94,.56-4.7,38.36Z"/><path d="M58.03,152.01l-15.64-1.65,.32-1.61c7.29-36.64,24.97-74.32,25.15-74.69l1.52-3.21,2.83,7.56-14.17,73.61Zm-12.05-4.29l9.62,1.02,13.49-70.08-.02-.04c-4.33,9.73-16.99,39.59-23.1,69.1Z"/><path d="M69.14,76.24c-1.18,4.24-2.3,8.77-3.82,12.89-3.58,8.21-12.06,28.34-15.71,36.85,0,0-1.19-2.08-1.19-2.08,0,0,5.75,.73,5.75,.73,0,0-1.59,.95-1.59,.95,1.11-2.94,6.35-16.42,7.29-19.09,1.79-3.7,3.81-7.3,5.82-10.9-.59,2.69-1.22,5.37-1.9,8.03-.56,2.69-1.53,5.23-2.56,7.78,0,0-5.86,15.27-5.86,15.27,0,0-.42,1.1-.42,1.1-2.07-.27-6.84-.86-8.89-1.13,0,0,.78-1.82,.78-1.82,3.67-8.64,12.15-28.49,15.65-36.88,1.91-3.95,4.39-7.9,6.63-11.69h0Z"/><path d="M48.17,142.7c-.78,0-1.46-.47-1.74-1.23-.07-.19-.13-.4-.17-.62-.53,.46-1.07,.81-1.61,.95-.62,.16-1.25,.07-1.77-.25-.57-.35-1-.88-.9-2.01-.27,.09-.45,.08-.6,.08-.46,0-.87-.19-1.18-.52-.32-.34-.67-.96-.54-1.93,.3-2.37,3.82-6.62,5.8-8.37l-.87-10,11.16,6.62-.34,1.13s-.58,1.93-1.58,6.31c-1.38,6.02-3.45,9.7-5.54,9.84-.04,0-.09,0-.13,0Zm3.85-15.91l-2.32,9.3c-.06,.22-.11,.45-.16,.68,.45-1.13,.93-2.63,1.38-4.59,.6-2.6,1.04-4.35,1.31-5.37l-.17-.1-.04,.07Zm-3.92-2.42l.46,5.27,3.13-3.14-3.59-2.13Z"/></g><g><g><g><path class="cls-5" d="M108.14,9.88l-33.86,1.88-2.59,28.57c-.64-.31-1.4-.52-2.23-.58-2.44-.18-4.51,.97-4.62,2.58-.11,1.61,1.78,3.06,4.22,3.25,.78,.06,1.52-.02,2.18-.21l-2.02,29.32-.74,12.13,6.11,1.23,3.69-15.61,10.55,1.67c15.61-29.3,19.32-64.24,19.32-64.24Z"/><path d="M75.04,88.76l-7.19-1.45,.77-12.65,1.97-28.54c-.51,.07-1.04,.09-1.57,.05-2.81-.21-4.91-1.92-4.77-3.89,.05-.74,.41-1.41,1.05-1.96,1-.86,2.57-1.3,4.22-1.18,.57,.04,1.13,.15,1.66,.32l2.56-28.28,35.08-1.95-.07,.7c-.04,.35-3.89,35.4-19.38,64.46l-.2,.38-10.42-1.65-3.7,15.64Zm-5.93-2.42l5.02,1.01,3.69-15.59,10.68,1.69c14.01-26.5,18.34-57.88,18.96-62.94l-32.63,1.81-2.62,28.91-.78-.37c-.6-.29-1.29-.47-2.01-.52-1.34-.11-2.59,.23-3.35,.89-.27,.23-.6,.62-.63,1.14-.09,1.26,1.59,2.45,3.66,2.61,.68,.05,1.36-.01,1.97-.18l.82-.23-2.08,30.18-.71,11.6Z"/></g><g><path d="M75.15,14.98l2.11,5.71-3.44,6.7,1.33-12.41Zm3.78-2.35l31.36-2.64-13,6.53-18.35-3.89Z"/><path d="M107.24,10.85l-10.04,5.04-14.17-3,24.21-2.04m-31.76,6.74l1.13,3.06-1.85,3.6,.71-6.66m37.86-8.46l-38.5,3.24,22.54,4.78,15.97-8.02h0Zm-38.5,3.24l-1.94,18.16,5.03-9.81-3.09-8.35h0Z"/></g><g><g><polygon points="68.22 34.23 74.84 35.57 68.2 36.3 68.22 34.23"/><path d="M68.81,34.97l2.14,.43-2.14,.24v-.67m-1.18-1.46l-.03,3.47,11.14-1.23-11.11-2.24h0Z"/></g><g><polyline class="cls-2" points="96.85 51.57 90.41 51.19 93.83 26.14 100.35 27.02"/><polygon class="cls-8" points="96.81 52.17 89.73 51.75 93.32 25.47 100.44 26.43 100.27 27.62 94.34 26.82 91.1 50.63 96.88 50.97 96.81 52.17"/></g><g><ellipse class="cls-7" cx="98.6" cy="39.3" rx="12.4" ry="5.38" transform="translate(46.19 131.6) rotate(-82.14)"/><path class="cls-8" d="M97.24,52.2c-.16,0-.33-.01-.49-.04-3.31-.54-5.09-6.61-4.06-13.82,.72-5.04,2.7-9.41,5.05-11.14,.9-.66,1.81-.92,2.71-.77,3.31,.54,5.09,6.61,4.06,13.82-.72,5.04-2.7,9.41-5.05,11.14-.74,.54-1.48,.81-2.22,.81Zm2.73-24.6c-.49,0-1,.19-1.52,.58-2.1,1.54-3.89,5.6-4.57,10.34-1,6.99,.78,12.09,3.07,12.46,.57,.09,1.18-.09,1.81-.56,2.1-1.54,3.89-5.6,4.57-10.34,1-6.99-.78-12.09-3.07-12.46-.09-.02-.19-.02-.29-.02Z"/></g><g><polyline class="cls-5" points="92.45 38.01 89.95 57.63 84.42 56.45 86 66.04 80.53 64.93"/><polygon points="86.74 66.8 80.41 65.52 80.65 64.35 85.27 65.28 83.68 55.68 89.43 56.9 91.85 37.93 93.04 38.09 90.46 58.35 85.15 57.22 86.74 66.8"/></g><g><polyline class="cls-2" points="84.5 49.51 77.43 48.23 82.86 22.38 89.65 24.48"/><polygon class="cls-8" points="84.39 50.1 76.72 48.71 82.4 21.61 89.83 23.9 89.47 25.05 83.31 23.15 78.15 47.75 84.6 48.92 84.39 50.1"/></g><g><ellipse class="cls-7" cx="87.07" cy="37" rx="12.78" ry="5.57" transform="translate(33.88 115.23) rotate(-78.81)"/><path class="cls-8" d="M85.07,50.18c-.24,0-.48-.03-.71-.08-3.36-.8-4.8-7.18-3.29-14.52,1.06-5.13,3.37-9.49,5.88-11.09,.95-.61,1.93-.82,2.84-.6,3.36,.8,4.8,7.18,3.29,14.52-1.06,5.13-3.37,9.49-5.88,11.09-.71,.45-1.43,.68-2.13,.68Zm4-25.17c-.46,0-.96,.17-1.48,.49-2.26,1.43-4.36,5.48-5.35,10.32-1.47,7.15,.05,12.55,2.4,13.12,.59,.14,1.23,0,1.92-.44,2.26-1.43,4.36-5.48,5.35-10.32h0c1.47-7.15-.05-12.55-2.4-13.12-.14-.03-.29-.05-.44-.05Z"/></g></g><g><polygon points="84.91 20.73 85.81 19.35 92.4 24.75 92.32 25.03 84.91 20.73"/><path d="M85.95,20.24l1.68,1.37-1.87-1.08,.19-.29m-.27-1.77l-1.62,2.47,8.63,5,.4-1.41-7.41-6.06h0Z"/></g><g><polygon points="97.08 25.71 104.31 21.41 104.39 22.93 97.15 26.11 97.08 25.71"/><path d="M103.76,22.44v.11s-.72,.32-.72,.32l.72-.43m1.1-2.05l-8.44,5.01,.26,1.57,8.33-3.66-.15-2.92h0Z"/></g></g><g><polyline class="cls-3" points="78.05 79.14 84.61 127.31 78.94 128.7 76.27 83.91"/><path d="M78.05,79.14c2.9,14,5.16,34.29,7.22,48.62,0,0-.52,.13-.52,.13l-5.67,1.39s-.7,.17-.7,.17l-.04-.72-1.33-22.39c-.55-7.36-.71-15.07-.73-22.43,.85,7.3,1.6,14.99,1.93,22.36,0,0,1.33,22.39,1.33,22.39,0,0-.74-.55-.74-.55l5.67-1.39-.45,.66c-1.83-14.22-5.03-34.14-5.96-48.25h0Z"/></g><g><path class="cls-2" d="M80.13,126.1s-.25,1.99-1.16,6.52c-1.54,7.71-.07,10.44,.67,9.73,1.07-1.03,1.75-4.88,1.75-4.88,0,0,.55,6.37,2.26,6.25,1.09-.08,.48-6.03,.48-6.03,0,0,1.93,5.4,2.53,5.18,1.57-.59-.54-8.63-1.65-10.45l3.82-6.77-8.7,.45Z"/><path d="M83.6,144.32c-1.26,0-1.97-1.87-2.38-3.77-.3,.9-.7,1.77-1.17,2.23-.31,.3-.74,.36-1.12,.16-1.18-.64-1.81-4.12-.55-10.43,.89-4.45,1.15-6.46,1.15-6.48l.06-.5,10.29-.54-4.2,7.43c1,2.01,2.67,8.03,1.94,10.13-.19,.56-.53,.78-.77,.88-.18,.07-.38,.06-.57-.03-.36-.17-.82-.88-1.39-2.13-.03,1.17-.17,2.24-.56,2.69-.22,.27-.48,.34-.66,.35-.03,0-.06,0-.09,0Zm-2.01-11.43l.39,4.52c.26,2.97,1,5.36,1.5,5.67,.26-.63,.29-2.96,.04-5.34l-.5-4.92,1.67,4.65c.61,1.71,1.42,3.67,1.9,4.49,.35-1.56-1.03-7.49-2.1-9.25l-.18-.3,3.46-6.12-7.11,.37c-.13,.84-.44,2.78-1.09,6.06-1.09,5.48-.59,8.25-.17,8.98,.61-.86,1.18-3.06,1.41-4.36l.79-4.47Z"/></g><g><path class="cls-3" d="M77.36,76.34s9.19,34.9,2.13,74.71l-27.36-2.57"/><path d="M79.98,151.7l-27.91-2.62,.11-1.2,26.81,2.51c6.77-39-2.13-73.56-2.22-73.91l1.16-.3c.09,.35,9.14,35.48,2.14,74.96l-.1,.54Z"/></g><g><path class="cls-3" d="M55.23,127.86l19.76,1.91s3.71-24.12,1.1-50.75l1.28-2.68-4.21,8.86-3.93-10.5s-6.68,17.43-8.27,23.21c-2.06,7.52-5.72,29.95-5.72,29.95Z"/><path d="M75.49,130.42l-20.96-2.03,.1-.63c.04-.22,3.69-22.55,5.74-30.01,1.58-5.74,8.01-22.56,8.29-23.27l.57-1.48,3.99,10.66,3.6-7.58,1.08,.52-1.2,2.53c2.56,26.34-1.08,50.49-1.12,50.73l-.09,.56Zm-19.57-3.1l18.55,1.79c.51-3.66,3.2-24.69,1.21-47.86l-2.6,5.48-3.87-10.34c-1.65,4.34-6.4,16.97-7.68,21.67-1.84,6.7-5,25.56-5.61,29.26Z"/></g><g><g><path class="cls-6" d="M74.99,129.77c-2.83,27.11-8.12,44.37-8.12,44.37l1.69,18.09-8.7-12.86,4.77-38.92-8.9,33.81,2.16,16.97-8.88-10.72s2.34-28.07,6.22-52.65l19.76,1.91Z"/><path d="M69.37,194.51l-10.13-14.99,3.72-30.37-6.62,25.15,2.4,18.9-10.35-12.49,.02-.24c.02-.28,2.38-28.37,6.23-52.7l.09-.56,20.92,2.02-.06,.6c-2.68,25.71-7.64,42.81-8.11,44.37l1.9,20.31Zm-8.89-15.29l7.26,10.74-1.49-15.87,.03-.11c.05-.17,5.23-17.26,8.03-43.66l-18.59-1.8c-3.6,22.94-5.87,49.02-6.11,51.81l7.41,8.94-1.91-15.04,.03-.11,8.9-33.81,1.18,.23-4.74,38.7Z"/></g><g><g><polygon class="cls-4" points="58.98 130.31 63.04 130.63 62.73 133.12 58.61 132.78 58.98 130.31"/><path d="M63.06,133.53l-4.88-.41,.48-3.21,4.81,.38-.41,3.24Zm-4.02-1.09l3.36,.28,.22-1.74-3.33-.27-.26,1.73Z"/></g><g><polygon class="cls-4" points="65.58 130.88 69.26 131.4 69.15 133.93 65.23 133.63 65.58 130.88"/><path d="M69.5,134.33l-4.7-.36,.45-3.52,4.39,.61-.14,3.26Zm-3.85-1.05l3.14,.24,.08-1.81-2.97-.42-.25,1.98Z"/></g><g><polygon class="cls-4" points="71.79 131.57 75.62 132.12 75.31 134.61 71.54 134.34 71.79 131.57"/><path d="M75.64,135.01l-4.5-.32,.32-3.54,4.59,.65-.4,3.21Zm-3.69-1.01l3.03,.21,.22-1.77-3.07-.44-.18,2Z"/></g><g><polygon class="cls-4" points="53.43 129.69 57.26 130.23 56.95 132.72 53.18 132.46 53.43 129.69"/><path d="M57.27,133.12l-4.5-.32,.32-3.54,4.59,.65-.4,3.21Zm-3.69-1.01l3.03,.21,.22-1.77-3.08-.44-.18,2Z"/></g></g><g><polygon points="49.63 180.33 49.92 177.67 55.24 175.16 57.03 189.26 49.63 180.33"/><path d="M54.75,176.05l1.43,11.23-5.92-7.14,.23-2.07,4.26-2.02m.98-1.79l-6.36,3.01-.36,3.24,8.88,10.72-2.16-16.97h0Z"/></g><g><polygon points="60.49 179.22 60.76 176.96 66.34 174.97 67.74 189.95 60.49 179.22"/><path d="M65.81,175.79l1.11,11.88-5.82-8.61,.2-1.67,4.5-1.61m1.05-1.65l-6.65,2.37-.35,2.85,8.69,12.86-1.69-18.09h0Z"/></g></g><g><path d="M70.23,96.69l1.97-1.76,2.37,4.52-2.71,9.79-1.64-12.55Zm1.19-5.85l1.29-1.59,1.22,2.54-1.37,1.22-1.14-2.17Z"/><path d="M72.58,90.36l.61,1.28-.46,.41-.6-1.14,.44-.55m-.54,5.53l1.9,3.63-1.85,6.71-1.21-9.3,1.16-1.04m.8-7.76l-2.13,2.64,1.68,3.2,2.28-2.04-1.82-3.8h0Zm-.46,5.84l-2.78,2.49,2.06,15.8,3.56-12.87-2.84-5.42h0Z"/></g><g><path class="cls-3" d="M69.22,74.7s-17.69,37.46-25.03,74.35l12.63,1.33,13.83-71.84-1.43-3.84Z"/><path d="M57.31,151.03l-13.83-1.46,.13-.64c7.27-36.54,24.9-74.11,25.08-74.48l.61-1.29,1.99,5.33-13.97,72.55Zm-12.4-2.52l11.43,1.21,13.7-71.14-.87-2.33c-3.13,6.88-17.71,39.9-24.26,72.26Z"/></g><g><polyline class="cls-3" points="69.14 76.24 48.23 125.39 53.99 126.12 65.71 95.59"/><path d="M69.14,76.24c-4.94,14.34-14.48,35.19-20.35,49.39,0,0-.48-.83-.48-.83l5.75,.73-.64,.38,5.86-15.27c1.55-4.41,4.51-10.73,6.42-15.05-1.49,4.51-3.49,11.15-5.3,15.48,0,0-5.86,15.27-5.86,15.27l-.17,.44s-.47-.06-.47-.06c-.44-.04-6.32-.81-6.54-.83,6.32-14.44,14.69-35.76,21.77-49.65h0Z"/></g><g><path class="cls-2" d="M53.99,126.12s-.58,1.91-1.61,6.41c-1.75,7.66-4.17,9.42-4.55,8.42-.54-1.43,.41-5.22,.41-5.22,0,0-3.08,5.46-4.57,4.55-.95-.59,2.02-5.65,2.02-5.65,0,0-3.93,3.94-4.37,3.45-1.18-1.27,3.99-7.5,5.72-8.61l-.69-7.89,7.63,4.53Z"/><path d="M48.17,141.8c-.41,0-.75-.24-.9-.64-.24-.65-.23-1.65-.13-2.63-.82,1.1-1.82,2.17-2.71,2.4-.39,.1-.76,.05-1.07-.14-.28-.17-.98-.61,.19-3.34-1.01,.85-1.72,1.28-2.13,1.28h-.01c-.21,0-.4-.09-.53-.23-.27-.3-.38-.7-.31-1.21,.27-2.14,4.04-6.7,5.85-8.1l-.76-8.71,9.04,5.37-.14,.45s-.59,1.95-1.6,6.37c-1.41,6.19-3.39,9.05-4.72,9.14-.02,0-.05,0-.07,0Zm1.73-10.23l-1.08,4.3c-.32,1.29-.71,3.58-.49,4.63,.59-.43,2.16-2.4,3.46-8.12,.75-3.29,1.26-5.19,1.49-5.99l-6.23-3.7,.62,7.09-.31,.2c-1.86,1.19-5.35,5.86-5.62,7.35,.76-.51,2.28-1.88,3.52-3.13l3.31-3.32-2.37,4.05c-1.19,2.03-2.13,4.19-2.13,4.84,.01,0,.03,0,.05,0,.92-.24,2.65-2.68,3.59-4.33l2.18-3.86Z"/></g></g><g class="cls-9"><rect class="cls-1" width="121.88" height="198.9"/></g></g></g></svg>