<?xml version="1.0" encoding="UTF-8"?><svg id="Livello_2" xmlns="http://www.w3.org/2000/svg" xmlns:xlink="http://www.w3.org/1999/xlink" viewBox="0 0 160.65 326.92"><defs><style>.cls-1,.cls-2,.cls-3{fill:none;}.cls-4{clip-path:url(#clippath);}.cls-5{fill:#444fd3;}.cls-6,.cls-7{fill:#6f77eb;}.cls-7{stroke-linejoin:bevel;stroke-width:3px;}.cls-7,.cls-8,.cls-2,.cls-3{stroke:#000;}.cls-8{fill:#fff099;opacity:.28;}.cls-8,.cls-2{stroke-width:2px;}.cls-8,.cls-2,.cls-3{stroke-miterlimit:10;}.cls-9{filter:url(#outer-glow-1);}</style><clipPath id="clippath"><rect class="cls-1" width="160.65" height="326.92"/></clipPath><filter id="outer-glow-1" filterUnits="userSpaceOnUse"><feOffset dx="0" dy="0"/><feGaussianBlur result="blur" stdDeviation="10"/><feFlood flood-color="#ff9000" flood-opacity=".6"/><feComposite in2="blur" operator="in"/><feComposite in="SourceGraphic"/></filter></defs><g id="lifts"><g class="cls-4"><g><g><polygon class="cls-6" points="27.79 304.21 26.29 302.71 27.26 74.05 28.73 72.56 130.06 70.57 131.59 72.05 134.37 302.7 132.87 304.21 27.79 304.21"/><path d="M130.09,72.07l2.78,230.65H27.79l.98-228.65,101.33-1.99m-.06-3l-101.33,1.99-2.94,2.99-.98,228.65,3,3.01h105.08l3-3.04-2.78-230.65-3.06-2.96h0Z"/></g><g><path class="cls-5" d="M27.33,73.62c.09-.3,9.55-29.66,47.86-29.66s55.99,27.02,56.17,27.29l-1.23,2.32-101.33,1.99-1.46-1.94Z"/><path d="M75.19,45.46c37.65,0,54.91,26.61,54.91,26.61l-101.33,1.99s8.78-28.6,46.42-28.6m0-3c-20.5,0-32.79,8.27-39.49,15.22-7.31,7.58-9.71,15.18-9.8,15.5l2.93,3.88,101.33-1.99,2.46-4.63c-.19-.29-4.72-7.19-14.07-14.08-8.59-6.34-23.09-13.89-43.35-13.89h0Z"/></g><g><polygon class="cls-6" points="28.58 107.48 27.12 105.98 27.26 74.05 28.73 72.56 130.06 70.57 131.59 72.05 132.14 109.29 130.59 110.81 28.58 107.48"/><path d="M130.09,72.07l.54,37.24-102.01-3.33,.14-31.92,101.33-1.99m-.06-3l-101.33,1.99-2.94,2.99-.14,31.92,2.9,3.01,102.01,3.33,3.1-3.04-.54-37.24-3.06-2.96h0Z"/></g><g class="cls-9"><path class="cls-8" d="M79.99,61.61c.12-16.89,6.87-12.57,6.59-21.82-.59-19.63-24.14-13.06-22.74,2.65,1.1,12.36,7.92,1.66,8.72,18.73l7.43,.44Z"/><path class="cls-2" d="M79.99,61.61c.12-16.89,6.87-12.57,6.59-21.82-.59-19.63-24.14-13.06-22.74,2.65,1.1,12.36,7.92,1.66,8.72,18.73l7.43,.44Z"/><path class="cls-3" d="M75.2,62.05c-2.58-11.38-5.59-17.29-4.21-21.44,2.29-6.92,9.95,5.61,6.03,8.26-3.51,2.37-1.91-17.6,3.52-7.17,3.43,6.59-3.23,6.8-2.64,20.35"/></g></g><polyline class="cls-7" points="77.6 109.31 76.09 182.13 86.59 191.3 84.7 224.44 77.38 230.85 76.09 304.55"/></g></g></svg>