<?xml version="1.0" encoding="UTF-8"?><svg id="Livello_2" xmlns="http://www.w3.org/2000/svg" xmlns:xlink="http://www.w3.org/1999/xlink" viewBox="0 0 162.12 326.92"><defs><style>.cls-1,.cls-2,.cls-3,.cls-4,.cls-5{fill:none;}.cls-2,.cls-6,.cls-7,.cls-8,.cls-9,.cls-3,.cls-10,.cls-11,.cls-12,.cls-4{stroke:#000;}.cls-2,.cls-10,.cls-11,.cls-12,.cls-4,.cls-5{stroke-linejoin:bevel;}.cls-13{clip-path:url(#clippath);}.cls-14,.cls-9{fill:#fb64ff;}.cls-15,.cls-11{fill:#11225e;}.cls-16{fill:#444fd3;}.cls-17,.cls-8{fill:#6f77eb;}.cls-6{fill:#fff099;}.cls-6,.cls-7,.cls-8,.cls-9,.cls-3{stroke-miterlimit:10;}.cls-6,.cls-7,.cls-8,.cls-9,.cls-10,.cls-11,.cls-12,.cls-4,.cls-5{stroke-width:2px;}.cls-7{fill:#ff4842;}.cls-18{clip-path:url(#clippath-1);}.cls-19{opacity:.4;}.cls-10{fill:#183086;}.cls-12{fill:#a32a27;}.cls-5{stroke:#183086;}.cls-20{fill:url(#Sfumatura_senza_nome_37-5);}.cls-21{fill:url(#Sfumatura_senza_nome_37-4);}.cls-22{fill:url(#Sfumatura_senza_nome_37-3);}.cls-23{fill:url(#Sfumatura_senza_nome_37-2);}.cls-24{fill:url(#Sfumatura_senza_nome_37);}.cls-25{filter:url(#outer-glow-1);}.cls-26{filter:url(#outer-glow-2);}</style><clipPath id="clippath"><rect class="cls-1" x="1.47" width="160.65" height="326.92"/></clipPath><clipPath id="clippath-1"><polygon class="cls-1" points="44.51 230.35 66.77 260.62 102.69 222.37 103.69 134.08 44.51 182.13 44.51 230.35"/></clipPath><linearGradient id="Sfumatura_senza_nome_37" x1="-5097.7" y1="-1368.67" x2="-5097.7" y2="-1408.8" gradientTransform="translate(-39.81 -2096.14) rotate(-130.06) scale(.36 1)" gradientUnits="userSpaceOnUse"><stop offset=".14" stop-color="#fff" stop-opacity="0"/><stop offset=".28" stop-color="#fff" stop-opacity=".01"/><stop offset=".39" stop-color="#fff" stop-opacity=".05"/><stop offset=".5" stop-color="#fff" stop-opacity=".12"/><stop offset=".59" stop-color="#fff" stop-opacity=".21"/><stop offset=".69" stop-color="#fff" stop-opacity=".33"/><stop offset=".77" stop-color="#fff" stop-opacity=".48"/><stop offset=".86" stop-color="#fff" stop-opacity=".65"/><stop offset=".94" stop-color="#fff" stop-opacity=".85"/><stop offset="1" stop-color="#fff"/></linearGradient><linearGradient id="Sfumatura_senza_nome_37-2" x1="1816.1" y1="-1233.39" x2="1816.1" y2="-1282.14" gradientTransform="translate(392.22 -1189.58) rotate(166.94) scale(.36 1)" xlink:href="#Sfumatura_senza_nome_37"/><linearGradient id="Sfumatura_senza_nome_37-3" x1="4557.49" y1="1136.85" x2="4557.49" y2="1094.88" gradientTransform="translate(1439.09 -1189.3) rotate(100.94) scale(.36 1)" xlink:href="#Sfumatura_senza_nome_37"/><linearGradient id="Sfumatura_senza_nome_37-4" x1="-2816.72" y1="3479.64" x2="-2816.72" y2="3427.67" gradientTransform="translate(1724.17 -2377.81) rotate(13.94) scale(.36 .85)" xlink:href="#Sfumatura_senza_nome_37"/><linearGradient id="Sfumatura_senza_nome_37-5" x1="-8379.61" y1="1295.03" x2="-8379.61" y2="1247.97" gradientTransform="translate(813.61 -2898.7) rotate(-56.06) scale(.36 .88)" xlink:href="#Sfumatura_senza_nome_37"/><filter id="outer-glow-1" filterUnits="userSpaceOnUse"><feOffset dx="0" dy="0"/><feGaussianBlur result="blur" stdDeviation="6"/><feFlood flood-color="#fb64ff" flood-opacity=".9"/><feComposite in2="blur" operator="in"/><feComposite in="SourceGraphic"/></filter><filter id="outer-glow-2" filterUnits="userSpaceOnUse"><feOffset dx="0" dy="0"/><feGaussianBlur result="blur-2" stdDeviation="10"/><feFlood flood-color="#ff9000" flood-opacity=".6"/><feComposite in2="blur-2" operator="in"/><feComposite in="SourceGraphic"/></filter></defs><g id="lifts"><g class="cls-13"><g><g><polygon class="cls-15" points="29.25 304.22 27.75 302.71 28.73 74.05 30.2 72.56 131.53 70.57 133.06 72.05 135.84 302.7 134.34 304.22 29.25 304.22"/><path d="M131.56,72.07l2.78,230.65H29.25l.98-228.65,101.33-1.99m-.06-3l-101.33,1.99-2.94,2.99-.98,228.65,3,3.01h105.08l3-3.04-2.78-230.65-3.06-2.96h0Z"/></g><g><path class="cls-16" d="M28.8,73.62c.09-.3,9.55-29.66,47.86-29.66s55.99,27.02,56.17,27.29l-1.23,2.32-101.33,1.99-1.46-1.94Z"/><path d="M76.65,45.46c37.65,0,54.91,26.61,54.91,26.61l-101.33,1.99s8.78-28.6,46.42-28.6m0-3c-20.5,0-32.79,8.27-39.49,15.22-7.31,7.58-9.71,15.18-9.8,15.5l2.93,3.88,101.33-1.99,2.46-4.63c-.19-.29-4.72-7.19-14.07-14.08-8.59-6.34-23.09-13.89-43.35-13.89h0Z"/></g><g><g><path class="cls-16" d="M29.25,304.22l-1.46-1.83c.07-.3,7.19-29.63,50.54-29.79h.35c22.34,0,36.63,7.97,44.68,14.66,8.77,7.29,12.19,14.53,12.33,14.83l-1.36,2.13H29.25Z"/><path d="M78.68,274.1c42.39,0,55.65,28.62,55.65,28.62H29.25s6.43-28.46,49.09-28.62c.11,0,.23,0,.34,0m0-3h-.35c-12.74,.05-30.48,2.73-42.68,15.28-7.44,7.65-9.25,15.36-9.32,15.68l2.93,3.66h105.08l2.72-4.26c-.15-.32-3.7-7.85-12.74-15.36-8.24-6.84-22.85-15-45.64-15h0Z"/></g><ellipse class="cls-5" cx="79.67" cy="289.9" rx="34.25" ry="7.19" transform="translate(-9.77 2.87) rotate(-1.94)"/></g><g><g><polygon class="cls-12" points="113.71 216.5 122.85 214.56 124.01 234.31 116.37 233.18 113.71 216.5"/><path class="cls-7" d="M116.37,233.18c-5.53,1.23-6.98-16.25-2.66-16.69,4.32-.44,8.65,15.36,2.66,16.69Z"/></g><g><polygon class="cls-12" points="113.97 191.28 123.17 189.65 123.65 208.12 116.49 208.11 113.97 191.28"/><path class="cls-7" d="M114.38,191.35c5.57-1.05,6.44,16.47,2.11,16.77s-8.13-15.63-2.11-16.77Z"/></g><g><g><polygon class="cls-11" points="44.51 230.35 70.76 225.42 72.12 178.47 44.51 182.13 44.51 230.35"/><polygon class="cls-10" points="70.76 225.42 64.72 222.37 66.7 179.19 72.12 178.47 70.76 225.42"/><polygon class="cls-10" points="44.51 230.35 70.76 225.42 64.72 222.37 44.51 224.44 44.51 230.35"/><g class="cls-19"><g class="cls-18"><g><circle class="cls-1" cx="54.4" cy="204.95" r="54.4"/><g><polygon class="cls-24" points="54.4 204.95 94.14 189.87 76.08 168.39 54.4 204.95"/><polygon class="cls-23" points="54.4 204.95 51.11 158.7 26.81 161.31 54.4 204.95"/><polygon class="cls-22" points="54.4 204.95 16.03 182.29 13.2 206.26 54.4 204.95"/><polygon class="cls-21" points="54.4 204.95 22.76 242.54 49.59 244.78 54.4 204.95"/><polygon class="cls-20" points="54.4 204.95 79.5 238.39 100.96 210.28 54.4 204.95"/></g></g></g></g><g class="cls-25"><g><polygon class="cls-9" points="56.18 219.69 47.98 204.34 54.49 187.39 62.29 203.79 56.18 219.69"/><polygon class="cls-4" points="56.18 219.69 47.98 204.34 54.49 187.39 62.29 203.79 56.18 219.69"/><polygon class="cls-2" points="56.18 219.69 52.27 206.58 54.49 187.39 59.19 205.73 56.18 219.69"/><polyline class="cls-2" points="47.98 204.34 52.27 206.58 59.19 205.73 62.29 203.79"/></g></g><path class="cls-8" d="M49.46,226.24l1.27-6.27s2.74,1.91,6.24,1.5c3.49-.42,4.16-1.91,4.16-1.91l1.96,4.75-13.62,1.94Z"/><path class="cls-8" d="M48.25,181.63l1.82,6.47s1.64-2.17,6.21-2.47c2.33-.15,4.46,2.47,4.46,2.47l1.29-8.29-13.78,1.83Z"/><polygon class="cls-10" points="44.51 230.35 36.68 230.85 36.68 176.86 44.51 182.13 44.51 230.35"/><polygon class="cls-10" points="36.68 177.26 65.25 173.65 72.12 178.47 44.51 182.13 36.68 177.26"/></g><g><polygon class="cls-14" points="50.46 177.5 50.46 150.54 41.77 146.7 41.77 126.27 72.04 122.71 74.77 84.87 79.76 85.22 76.73 127.19 46.77 130.72 46.77 143.44 55.46 147.28 55.46 177.5 50.46 177.5"/><path d="M75.7,85.94l2.99,.21-2.9,40.14-30.02,3.54v14.26l8.69,3.84v28.56h-3v-26.61l-8.69-3.84v-18.88l30.21-3.56,2.72-37.67m-1.85-2.14l-.14,1.99-2.6,36.02-28.57,3.36-1.77,.21v21.96l1.19,.53,7.5,3.32v27.31h7v-31.87l-1.19-.53-7.5-3.32v-11.18l28.26-3.33,1.64-.19,.12-1.65,2.9-40.14,.14-2-2-.14-2.99-.21-1.99-.14h0Z"/></g></g></g><g><polygon class="cls-17" points="30.04 107.48 28.59 105.98 28.73 74.05 30.2 72.56 131.53 70.57 133.06 72.05 133.6 109.29 132.06 110.81 30.04 107.48"/><path d="M131.56,72.07l.54,37.24-102.01-3.33,.14-31.92,101.33-1.99m-.06-3l-101.33,1.99-2.94,2.99-.14,31.92,2.9,3.01,102.01,3.33,3.1-3.04-.54-37.24-3.06-2.96h0Z"/></g><g class="cls-26"><path class="cls-6" d="M81.46,61.61c.12-16.89,6.87-12.57,6.59-21.82-.59-19.63-24.14-13.06-22.74,2.65,1.1,12.36,7.92,1.66,8.72,18.73l7.43,.44Z"/><path class="cls-3" d="M76.67,62.05c-2.58-11.38-5.59-17.29-4.21-21.44,2.29-6.92,9.95,5.61,6.03,8.26-3.51,2.37-1.91-17.6,3.52-7.17,3.43,6.59-3.23,6.8-2.64,20.35"/></g></g></g></g></svg>