<?xml version="1.0" encoding="UTF-8"?><svg id="Livello_2" xmlns="http://www.w3.org/2000/svg" xmlns:xlink="http://www.w3.org/1999/xlink" viewBox="0 0 160.65 3249.4"><defs><style>.cls-1{fill:none;}.cls-2{clip-path:url(#clippath);}.cls-3,.cls-4{fill:#11225e;}.cls-5{fill:url(#Sfumatura_senza_nome_146);opacity:.28;}.cls-5,.cls-4{stroke:#11225e;stroke-miterlimit:10;}.cls-4{stroke-width:3px;}</style><clipPath id="clippath"><rect class="cls-1" y="3" width="160.65" height="3246.4"/></clipPath><linearGradient id="Sfumatura_senza_nome_146" x1="79.5" y1="3" x2="79.5" y2="2996.53" gradientUnits="userSpaceOnUse"><stop offset="0" stop-color="#2b195e" stop-opacity="0"/><stop offset=".33" stop-color="#2b195e" stop-opacity=".4"/><stop offset=".44" stop-color="#221353" stop-opacity=".52"/><stop offset="1" stop-color="#000028"/></linearGradient></defs><g id="lifts"><g class="cls-2"><g><g><g><polygon class="cls-3" points="20.37 2816.89 138.48 2809.73 138.48 2834.89 20.37 2845.89 20.37 2816.89"/><path class="cls-3" d="M136.98,2811.32v22.2l-115.11,10.73v-25.94l115.11-6.98m3-3.19l-3.18,.19-115.11,6.98-2.82,.17v32.05l3.28-.31,115.11-10.73,2.72-.25v-28.12h0Z"/></g><g><polygon class="cls-3" points="23.86 2559.57 22.55 2537.18 134.37 2535.89 134.37 2560.2 23.86 2559.57"/><path class="cls-3" d="M132.87,2537.41v21.28l-107.59-.61-1.13-19.42,108.73-1.26m3-3.03l-3.03,.04-108.73,1.26-3.14,.04,.18,3.14,1.13,19.42,.16,2.81,2.81,.02,107.59,.61,3.02,.02v-27.33h0Z"/></g><g><polygon class="cls-3" points="22.64 2276.87 22.64 2251.02 134.37 2257.09 134.37 2279.1 22.64 2276.87"/><path class="cls-3" d="M24.14,2252.61l108.73,5.91v19.05l-108.73-2.17v-22.79m-3-3.17v28.9l2.94,.06,108.73,2.17,3.06,.06v-24.95l-2.84-.15-108.73-5.91-3.16-.17h0Z"/></g><g><polygon class="cls-3" points="23.51 1972.77 127.89 1976.24 125.37 1997.73 24.56 2002.03 23.51 1972.77"/><path class="cls-3" d="M25.07,1974.33l101.14,3.35-2.18,18.6-98.02,4.18-.94-26.14m-3.11-3.1l.12,3.21,.94,26.14,.11,3.02,3.02-.13,98.02-4.18,2.55-.11,.3-2.54,2.18-18.6,.38-3.24-3.26-.11-101.14-3.35-3.21-.11h0Z"/></g><g><polygon class="cls-3" points="23.07 1724.19 23.07 1695.19 124.17 1699.6 124.17 1724.74 23.07 1724.19"/><path class="cls-3" d="M24.57,1696.76l98.1,4.28v22.2l-98.1-.54v-25.94m-3-3.13v32.06l2.98,.02,98.1,.54,3.02,.02v-28.08l-2.87-.13-98.1-4.28-3.13-.14h0Z"/></g><g><polygon class="cls-3" points="23.26 1416.49 119.37 1414.39 115.57 1438.07 28.42 1444 23.26 1416.49"/><path class="cls-3" d="M117.6,1415.92l-3.32,20.73-84.63,5.76-4.59-24.47,92.54-2.03m3.53-3.08l-3.6,.08-92.54,2.03-3.53,.08,.65,3.47,4.59,24.47,.49,2.62,2.66-.18,84.63-5.76,2.38-.16,.38-2.36,3.32-20.73,.57-3.55h0Z"/></g><g><polygon class="cls-3" points="24.45 1163.82 27.7 1140.93 117.25 1137.67 116.87 1164.32 24.45 1163.82"/><path class="cls-3" d="M115.73,1139.22l-.33,23.59-89.22-.48,2.83-19.95,86.72-3.16m3.04-3.11l-3.15,.11-86.72,3.16-2.51,.09-.35,2.49-2.83,19.95-.48,3.4,3.44,.02,89.22,.48,2.97,.02,.04-2.97,.33-23.59,.04-3.16h0Z"/></g><g><polygon class="cls-3" points="30.27 858.9 111.75 857.85 111.75 882.98 30.27 887.92 30.27 858.9"/><path class="cls-3" d="M110.25,859.37v22.2l-78.48,4.76v-25.94l78.48-1.02m3-3.04l-3.04,.04-78.48,1.02-2.96,.04v32.09l3.18-.19,78.48-4.76,2.82-.17v-28.06h0Z"/></g><g><polygon class="cls-3" points="31.67 600.72 30.17 575.37 109.88 580.37 111.41 601.83 31.67 600.72"/><path class="cls-3" d="M31.77,576.97l76.71,4.81,1.32,18.52-76.71-1.07-1.32-22.26m-3.2-3.21l.2,3.38,1.32,22.26,.17,2.78,2.79,.04,76.71,1.07,3.27,.05-.23-3.26-1.32-18.52-.19-2.62-2.62-.16-76.71-4.81-3.38-.21h0Z"/></g><g><polygon class="cls-3" points="27.79 309.37 107.99 301.78 104.75 327.15 31 327.29 27.79 309.37"/><path class="cls-3" d="M106.26,303.45l-2.83,22.2-71.17,.14-2.7-15.08,76.71-7.26m3.45-3.34l-3.73,.35-76.71,7.26-3.24,.31,.57,3.21,2.7,15.08,.44,2.48h2.52s71.17-.14,71.17-.14h2.64s.33-2.62,.33-2.62l2.83-22.2,.48-3.72h0Z"/></g><g><polygon class="cls-3" points="31.64 29.12 103.37 26.64 103.33 44.59 31.6 50.98 31.64 29.12"/><path class="cls-3" d="M101.86,28.19l-.03,15.03-68.73,6.12,.03-18.77,68.73-2.38m3.01-3.11l-3.11,.11-68.73,2.38-2.89,.1v2.89s-.04,18.77-.04,18.77v3.28s3.27-.29,3.27-.29l68.73-6.12,2.73-.24v-2.74s.04-15.03,.04-15.03v-3.11h0Z"/></g></g><g><polyline class="cls-5" points="28.67 2996.53 41.53 3 94.09 3 130.33 2994.54"/><path class="cls-3" d="M94.09,3l38.78,3222.19H27.79L41.53,3h52.56m0-3H41.53l-3,2.99-13.74,3222.19,3,3.01h105.08l3-3.04L97.09,2.96l-3-2.96h0Z"/></g><line class="cls-4" x1="28.67" y1="2996.53" x2="130.33" y2="2994.54"/></g></g></g></svg>