<?xml version="1.0" encoding="UTF-8"?><svg id="Livello_2" xmlns="http://www.w3.org/2000/svg" viewBox="0 0 273.3 140.47"><defs><style>.cls-1{fill:none;}.cls-1,.cls-2{stroke:#000;stroke-miterlimit:10;stroke-width:3px;}.cls-2{fill:#e1e1f1;}</style></defs><g id="HUD_objects"><g id="HUDtimerFrame"><g><polygon class="cls-2" points="74.12 78.18 64.32 78.18 62.91 1.5 75.53 1.5 74.12 78.18"/><polygon class="cls-2" points="206.23 88.77 196.42 88.77 195.01 12.09 207.63 12.09 206.23 88.77"/></g><path class="cls-1" d="m180.92,127.71c-56.26,2.92-112.19,4.06-167.4,0-2.97-14.43-2.34-29.71,2.11-44.08,55.53-3.33,107.72-3.73,163-.24,3.34,14.86,5.22,30.03,2.28,44.32Z"/><path class="cls-2" d="m266.39,72.33l-13.17.33c-5.19-4.63-12.45-8.13-22.59-9.35-14.37-1.73-23.25,2.86-28.71,9.75l-196.47,1.51-3.86,62.68,270.08,1.72-5.29-66.63Zm-85.47,55.38c-56.26,2.92-112.19,4.06-167.4,0-2.97-14.43-2.34-29.71,2.11-44.08,55.53-3.33,107.72-3.73,163-.24,3.34,14.86,5.22,30.03,2.28,44.32Zm67.81,2.12l-50.27-2.4s-2.77-49.33,27.73-50.15c30.51-.82,22.53,52.55,22.53,52.55Z"/></g></g></svg>