<?xml version="1.0" encoding="UTF-8"?><svg id="Livello_2" xmlns="http://www.w3.org/2000/svg" viewBox="0 0 481.19 114.22"><defs><style>.cls-1{fill:none;}.cls-2{fill:#424249;}.cls-3{fill:#898998;}</style></defs><g id="BUTTON_objects"><g id="buttonNextClick"><g><path class="cls-3" d="m461.68,15.71l-1.45,79.21-444.21,1.25,1-78.61,444.65-1.85m7.13-7.03l-7.16.03L17,10.57l-6.88.03-.09,6.88-1,78.61-.09,7.11,7.11-.02,444.21-1.25,6.85-.02.12-6.85,1.45-79.21.13-7.16h0Z"/><g><polygon class="cls-3" points="460.24 94.92 16.03 96.17 17.03 17.57 461.68 15.71 460.24 94.92"/><path class="cls-2" d="m14.51,97.68l1.04-81.61h1.48s446.18-1.87,446.18-1.87l-1.5,82.21h-1.47s-445.73,1.26-445.73,1.26Zm4-78.62l-.96,75.61,441.21-1.24,1.39-76.21-441.64,1.84Z"/></g><polygon class="cls-2" points="41.07 70.27 39.49 40.23 59.01 57.75 41.07 70.27"/><polygon class="cls-2" points="54.88 71.27 55.96 40.23 70.83 55.75 54.88 71.27"/><g><path class="cls-2" d="m244,66.98v3.24c-.59.21-1.29.32-2.12.32-1.52,0-2.64-.47-3.36-1.42-.72-.95-1.08-2.23-1.08-3.86v-7.72c0-1.23-.27-2.23-.8-3.02-.53-.79-1.65-1.18-3.36-1.18-2.35,0-3.87,1.01-4.56,3.04v13.84h-3.92v-20h2.44l1.12,3.48h.2c.29-1.28.92-2.23,1.88-2.86.96-.63,2.3-.94,4.04-.94,2.56,0,4.35.65,5.36,1.94,1.01,1.29,1.52,3.03,1.52,5.22v7.92c0,.72.11,1.25.32,1.6.21.35.61.52,1.2.52.27,0,.64-.04,1.12-.12Z"/><path class="cls-2" d="m266.84,61.82h-15.48c.24,1.84.94,3.18,2.1,4.02s2.87,1.26,5.14,1.26c2.56,0,4.88-.36,6.96-1.08v3.44c-.72.27-1.7.51-2.94.74-1.24.23-2.61.34-4.1.34-3.76,0-6.56-.93-8.4-2.78s-2.76-4.37-2.76-7.54c0-2.24.44-4.13,1.32-5.68.88-1.55,2.09-2.71,3.64-3.48s3.32-1.16,5.32-1.16c2.88,0,5.13.81,6.76,2.42,1.63,1.61,2.44,4.02,2.44,7.22v2.28Zm-3.68-3.08c0-3.6-1.84-5.4-5.52-5.4-1.79,0-3.23.41-4.32,1.22-1.09.81-1.75,2.21-1.96,4.18h11.8Z"/><path class="cls-2" d="m287.48,70.22l-6.64-7.76-6.44,7.76h-4.72l8.88-10.4-8.2-9.6h5l6.04,7.04,5.76-7.04h4.64l-8.16,9.64,8.88,10.36h-5.04Z"/><path class="cls-2" d="m303.92,53.67v7.08c0,1.52.16,2.73.48,3.64s.9,1.59,1.74,2.04,2.02.68,3.54.68,3.19-.17,5-.52l-.04,3.28c-.43.13-1.17.28-2.24.44s-2.01.24-2.84.24c-1.89,0-3.53-.25-4.92-.76-1.39-.51-2.51-1.48-3.36-2.92-.85-1.44-1.28-3.48-1.28-6.12v-7.08h-5.72v-3.44h5.72v-5.28h3.92v5.28h11.28v3.44h-11.28Z"/></g></g><rect class="cls-1" width="481.19" height="114.22"/></g></g></svg>