<?xml version="1.0" encoding="UTF-8"?><svg id="Livello_2" xmlns="http://www.w3.org/2000/svg" viewBox="0 0 481.19 114.22"><defs><style>.cls-1{fill:none;}.cls-2{fill:#9da7f3;}.cls-3{fill:#6f77ea;}</style></defs><g id="BUTTON_objects"><g id="buttonControlsHover"><rect class="cls-1" width="481.19" height="114.22"/><g><path class="cls-3" d="m463.51,14.47l-5.36,81.3L20.68,87.7,15.51,14.47h448m7.48-7H8l.53,7.49,5.17,73.22.45,6.39,6.4.12,437.48,8.08,6.68.12.44-6.66,5.36-81.3.49-7.46h0Z"/><g><polygon class="cls-3" points="458.15 95.78 20.68 87.7 15.51 14.47 463.51 14.47 458.15 95.78"/><path class="cls-2" d="m459.55,97.3L19.28,89.17,13.9,12.97h451.21l-5.56,84.33ZM22.07,86.22l434.67,8.03,5.16-78.28H17.12l4.96,70.25Z"/></g><path class="cls-2" d="m69.87,40.09c-1.77-1.35-2.61-2.05-2.61-2.05-.44.19-.88.36-1.31.53l-.54-.53s-3.53,1.32-8.05,1.48c-4.52.16-8.96-1.48-8.96-1.48l-.45.43c-.57-.25-.87-.43-.87-.43-8.14,4.29-7.9,19.41-7.38,23.61.52,4.2,2.09,4.14,3.52,4.02s5.63-6.42,5.63-6.42c0,0,9.67,5.5,16.61-.12,0,0,3.85,5.97,5.94,6.57s3.24-1.16,3.39-4.43c.14-3.27-.42-17.78-4.91-21.2Zm-4.64,2.53c.43-.15.97.28,1.21.97s.08,1.36-.34,1.51c-.43.15-.97-.28-1.21-.97-.24-.68-.08-1.36.34-1.51Zm0,3.33c.43-.15.97.28,1.21.97.24.68.08,1.36-.34,1.51-.43.15-.97-.28-1.21-.97-.24-.68-.08-1.36.34-1.51Zm-21.08.28c-.44-1.72.76-3.2,2.13-3.26s3.33,2.47,1.64,3.91c-1.33,1.14-3.33,1.08-3.77-.65Zm5.62,9.87c-2.45.39-3.81-1.56-3.77-2.77.04-1.2,1.56-4.53,4.69-2.53,3.13,2.01.6,5.05-.92,5.29Zm12.03-8.45c-.63,2.35-3.77,3.95-6.5,2.85s-3.37-4.43-2.29-5.91c1.08-1.48,2.89-3.29,5.13-2.53,2.25.76,4.29,3.19,3.65,5.59Zm5.37,7.13c-1.86,1.61-3.69,0-3.89-1.97s2.37-2.7,3.01-2.31,3.01,2.43.88,4.28Zm1.64-4.87c-.43.15-.97-.28-1.21-.97-.24-.68-.08-1.36.34-1.51.43-.15.97.28,1.21.97.24.68.08,1.36-.34,1.51Zm0-3.3c-.43.15-.97-.28-1.21-.97-.24-.68-.08-1.36.34-1.51.43-.15.97.28,1.21.97.24.68.08,1.36-.34,1.51Z"/><g><path class="cls-2" d="m179.06,47.36c.95-1.55,2.25-2.73,3.92-3.56,1.67-.83,3.57-1.24,5.7-1.24,1.55,0,2.88.17,4,.5,1.12.33,1.97.7,2.56,1.1v4.04c-1.95-1.47-4.12-2.2-6.52-2.2-2.08,0-3.79.57-5.14,1.7-1.35,1.13-2.02,2.86-2.02,5.18s.66,3.98,1.98,5.14c1.32,1.16,3.14,1.74,5.46,1.74,1.44,0,2.8-.26,4.08-.78,1.28-.52,2.37-1.14,3.28-1.86v3.88c-.69.53-1.7,1.03-3.02,1.5-1.32.47-2.82.7-4.5.7-2.43,0-4.48-.46-6.16-1.38-1.68-.92-2.94-2.16-3.78-3.72-.84-1.56-1.26-3.3-1.26-5.22,0-2.13.47-3.97,1.42-5.52Z"/><path class="cls-2" d="m205.64,61.9c-1.47-.87-2.6-2.08-3.4-3.64-.8-1.56-1.2-3.35-1.2-5.38s.4-3.82,1.2-5.38c.8-1.56,1.93-2.77,3.4-3.64,1.47-.87,3.17-1.3,5.12-1.3s3.66.43,5.14,1.3c1.48.87,2.62,2.08,3.42,3.64.8,1.56,1.2,3.35,1.2,5.38s-.4,3.82-1.2,5.38c-.8,1.56-1.94,2.77-3.42,3.64-1.48.87-3.19,1.3-5.14,1.3s-3.65-.43-5.12-1.3Zm9.5-4.02c.97-1.25,1.46-2.92,1.46-5s-.49-3.75-1.46-5c-.97-1.25-2.43-1.88-4.38-1.88s-3.4.63-4.36,1.88c-.96,1.25-1.44,2.92-1.44,5s.48,3.71,1.44,4.98,2.41,1.9,4.36,1.9,3.41-.63,4.38-1.88Z"/><path class="cls-2" d="m245.68,59.64v3.24c-.59.21-1.29.32-2.12.32-1.52,0-2.64-.47-3.36-1.42-.72-.95-1.08-2.23-1.08-3.86v-7.72c0-1.23-.27-2.23-.8-3.02-.53-.79-1.65-1.18-3.36-1.18-2.35,0-3.87,1.01-4.56,3.04v13.84h-3.92v-20h2.44l1.12,3.48h.2c.29-1.28.92-2.23,1.88-2.86.96-.63,2.31-.94,4.04-.94,2.56,0,4.35.65,5.36,1.94,1.01,1.29,1.52,3.03,1.52,5.22v7.92c0,.72.11,1.25.32,1.6.21.35.61.52,1.2.52.27,0,.64-.04,1.12-.12Z"/><path class="cls-2" d="m257.6,46.32v7.08c0,1.52.16,2.73.48,3.64.32.91.9,1.59,1.74,2.04.84.45,2.02.68,3.54.68s3.19-.17,5-.52l-.04,3.28c-.43.13-1.17.28-2.24.44-1.07.16-2.01.24-2.84.24-1.89,0-3.53-.25-4.92-.76-1.39-.51-2.51-1.48-3.36-2.92-.85-1.44-1.28-3.48-1.28-6.12v-7.08h-5.72v-3.44h5.72v-5.28h3.92v5.28h11.28v3.44h-11.28Z"/><path class="cls-2" d="m294.16,59.56v3.36c-.45.19-1.13.28-2.04.28-1.6,0-3.01-.37-4.22-1.12-1.21-.75-2.15-1.79-2.82-3.12-.67-1.33-1-2.85-1-4.56,0-2.8.91-5.44,2.72-7.92v-.12h-7.6c-.29,2.91-.68,5.56-1.16,7.96-.48,2.4-1.12,5.25-1.92,8.56h-4.52c1.01-2.96,1.9-6.07,2.66-9.32.76-3.25,1.25-6.01,1.46-8.28-.56-.35-1-.81-1.32-1.4-.32-.59-.48-1.23-.48-1.92,0-.99.34-1.79,1.02-2.4.68-.61,1.65-.92,2.9-.92.53,0,1.11.07,1.72.2,0,1.36-.04,2.71-.12,4.04h11.84v3.48c-.93.67-1.71,1.67-2.32,3-.61,1.33-.92,2.81-.92,4.44,0,1.97.46,3.45,1.38,4.42.92.97,2.07,1.46,3.46,1.46.45,0,.88-.04,1.28-.12Z"/><path class="cls-2" d="m301.64,61.9c-1.47-.87-2.6-2.08-3.4-3.64-.8-1.56-1.2-3.35-1.2-5.38s.4-3.82,1.2-5.38c.8-1.56,1.93-2.77,3.4-3.64,1.47-.87,3.17-1.3,5.12-1.3s3.66.43,5.14,1.3c1.48.87,2.62,2.08,3.42,3.64.8,1.56,1.2,3.35,1.2,5.38s-.4,3.82-1.2,5.38c-.8,1.56-1.94,2.77-3.42,3.64-1.48.87-3.19,1.3-5.14,1.3s-3.65-.43-5.12-1.3Zm9.5-4.02c.97-1.25,1.46-2.92,1.46-5s-.49-3.75-1.46-5c-.97-1.25-2.43-1.88-4.38-1.88s-3.4.63-4.36,1.88c-.96,1.25-1.44,2.92-1.44,5s.48,3.71,1.44,4.98,2.41,1.9,4.36,1.9,3.41-.63,4.38-1.88Z"/><path class="cls-2" d="m341.43,59.6v3.32c-.56.19-1.41.28-2.56.28-2,0-3.87-.5-5.62-1.5-1.75-1-3.27-2.41-4.58-4.22-1.81,2.27-3.28,4.07-4.4,5.4h-4.56c3.09-3.49,5.47-6.33,7.12-8.52-1.71-3.55-2.56-7.67-2.56-12.36,0-3.36.55-5.79,1.66-7.28,1.11-1.49,2.59-2.24,4.46-2.24s3.42.69,4.5,2.08c1.08,1.39,1.62,3.4,1.62,6.04,0,2.19-.37,4.27-1.12,6.24-.75,1.97-2.17,4.43-4.28,7.36,1.07,1.79,2.33,3.16,3.8,4.12,1.47.96,3,1.44,4.6,1.44.59,0,1.23-.05,1.92-.16Zm-11.92-8.88c.93-1.41,1.63-2.67,2.08-3.76.45-1.09.75-2.11.88-3.06.13-.95.2-2.07.2-3.38,0-1.73-.21-2.93-.62-3.6-.41-.67-.97-1-1.66-1s-1.27.48-1.66,1.44c-.39.96-.58,2.63-.58,5,0,2.99.45,5.77,1.36,8.36Z"/><path class="cls-2" d="m347.62,44.26c1.72-1.13,4.13-1.7,7.22-1.7,1.52,0,2.97.13,4.34.38,1.37.25,2.42.51,3.14.78v3.44c-.77-.29-1.82-.56-3.14-.8-1.32-.24-2.74-.36-4.26-.36-3.97,0-5.96,1.03-5.96,3.08,0,.77.36,1.31,1.08,1.6.72.29,1.72.48,3,.56l4.04.2c2.45.16,4.31.65,5.56,1.46,1.25.81,1.88,2.07,1.88,3.78,0,2.16-.87,3.79-2.62,4.88-1.75,1.09-4.27,1.64-7.58,1.64-1.76,0-3.39-.16-4.88-.48s-2.6-.64-3.32-.96v-3.44c.8.35,1.92.67,3.36.98,1.44.31,3.03.46,4.76.46,4.24,0,6.36-1.03,6.36-3.08,0-.77-.34-1.3-1.02-1.58-.68-.28-1.71-.47-3.1-.58l-3.96-.2c-2.45-.16-4.31-.65-5.58-1.46s-1.9-2.07-1.9-3.78c0-2.08.86-3.69,2.58-4.82Z"/></g></g></g></g></svg>