<?xml version="1.0" encoding="UTF-8"?><svg id="Livello_2" xmlns="http://www.w3.org/2000/svg" viewBox="0 0 481.19 114.22"><defs><style>.cls-1{fill:none;}.cls-2{fill:#444fd2;}.cls-3{fill:#6f77ea;}</style></defs><g id="BUTTON_objects"><g id="buttonGraphicsSetClick"><path class="cls-3" d="m459.85,15.29l-3.42,81.94-431.29.56-1.97-79.74,436.68-2.77m7.3-7.05l-7.34.05L23.13,11.06l-7.13.05.18,7.13,1.97,79.74.17,6.84h6.84s431.29-.57,431.29-.57h6.71s.28-6.71.28-6.71l3.42-81.94.31-7.34h0Z"/><g><polygon class="cls-3" points="456.43 97.23 25.09 98.93 23.12 19.19 459.85 15.29 456.43 97.23"/><path class="cls-2" d="m23.63,100.44l-2.05-82.73,439.84-3.94-3.54,84.95h-1.43s-432.81,1.71-432.81,1.71Zm1.03-79.76l1.9,76.75,428.44-1.69,3.29-78.94L24.65,20.68Z"/></g><g><path class="cls-2" d="m138.05,51.83v19.76c0,3.01-.87,5.26-2.6,6.74s-4.08,2.22-7.04,2.22c-1.07,0-2.2-.1-3.4-.3s-2.23-.47-3.08-.82l-.04-3.6c2.19.85,4.29,1.28,6.32,1.28,3.95,0,5.92-1.84,5.92-5.52v-.52l.32-2.84h-.2c-.27,1.41-.85,2.42-1.74,3.02-.89.6-2.13.9-3.7.9-1.71,0-3.23-.43-4.56-1.3-1.33-.87-2.37-2.07-3.1-3.62s-1.1-3.31-1.1-5.28c0-2.11.39-3.95,1.18-5.52s1.87-2.79,3.24-3.64c1.37-.85,2.93-1.28,4.66-1.28,1.6,0,2.85.33,3.74.98s1.43,1.59,1.62,2.82h.16l1.04-3.48h2.36Zm-5.7,16.22c.76-.44,1.35-1.15,1.78-2.14v-8.12c-.4-.99-.99-1.71-1.76-2.16-.77-.45-1.65-.68-2.64-.68-1.76,0-3.16.62-4.2,1.86-1.04,1.24-1.56,2.94-1.56,5.1s.47,3.73,1.42,4.96c.95,1.23,2.27,1.84,3.98,1.84,1.23,0,2.22-.22,2.98-.66Z"/><path class="cls-2" d="m165.17,68.5v3.36c-.45.19-1.13.28-2.04.28-1.6,0-3.01-.37-4.22-1.12-1.21-.75-2.15-1.79-2.82-3.12-.67-1.33-1-2.85-1-4.56,0-2.8.91-5.44,2.72-7.92v-.12h-7.6c-.29,2.91-.68,5.56-1.16,7.96-.48,2.4-1.12,5.25-1.92,8.56h-4.52c1.01-2.96,1.9-6.07,2.66-9.32.76-3.25,1.25-6.01,1.46-8.28-.56-.35-1-.81-1.32-1.4-.32-.59-.48-1.23-.48-1.92,0-.99.34-1.79,1.02-2.4.68-.61,1.65-.92,2.9-.92.53,0,1.11.07,1.72.2,0,1.36-.04,2.71-.12,4.04h11.84v3.48c-.93.67-1.71,1.67-2.32,3-.61,1.33-.92,2.81-.92,4.44,0,1.97.46,3.45,1.38,4.42.92.97,2.07,1.46,3.46,1.46.45,0,.88-.04,1.28-.12Z"/><path class="cls-2" d="m188.53,68.59v3.24c-.64.21-1.35.32-2.12.32-2.37,0-3.8-1.32-4.28-3.96h-.12c-.64,2.64-2.77,3.96-6.4,3.96-2.32,0-4.17-.59-5.54-1.76-1.37-1.17-2.06-2.79-2.06-4.84,0-1.79.67-3.23,2.02-4.32s3.29-1.64,5.82-1.64c2.16,0,4.17.19,6.04.56h.08v-.24c0-1.17-.17-2.11-.5-2.82-.33-.71-.95-1.24-1.86-1.6-.91-.36-2.2-.54-3.88-.54-1.28,0-2.58.14-3.9.42-1.32.28-2.31.55-2.98.82l-.04-3.56c.77-.29,1.82-.55,3.14-.78,1.32-.23,2.66-.34,4.02-.34,3.6,0,6.15.71,7.66,2.14,1.51,1.43,2.26,3.5,2.26,6.22v6.72c0,.67.11,1.19.32,1.56.21.37.63.56,1.24.56.24,0,.6-.04,1.08-.12Zm-8.9-.62c1.05-.49,1.83-1.21,2.34-2.14v-3.16h-5.68c-2.91,0-4.36.97-4.36,2.92,0,.88.33,1.62,1,2.22.67.6,1.65.9,2.96.9,1.44,0,2.69-.25,3.74-.74Z"/><path class="cls-2" d="m209.33,54.27c1.47,1.84,2.2,4.28,2.2,7.32,0,2.16-.37,4.04-1.12,5.64-.75,1.6-1.77,2.82-3.06,3.66-1.29.84-2.74,1.26-4.34,1.26-1.44,0-2.68-.27-3.72-.82-1.04-.55-1.8-1.58-2.28-3.1h-.2l.6,4.16v7.84h-3.92v-28.4h2.44l1.12,3.48h.2c.35-1.33,1.03-2.3,2.04-2.9s2.33-.9,3.96-.9c2.59,0,4.61.92,6.08,2.76Zm-3.14,12.56c.95-1.25,1.42-2.99,1.42-5.2,0-2.08-.47-3.71-1.4-4.9-.93-1.19-2.23-1.78-3.88-1.78-2.51,0-4.15,1.08-4.92,3.24v7.16c.51,1.15,1.2,1.99,2.08,2.54.88.55,1.85.82,2.92.82,1.57,0,2.83-.63,3.78-1.88Z"/><path class="cls-2" d="m236.69,68.59v3.24c-.59.21-1.29.32-2.12.32-1.52,0-2.64-.47-3.36-1.42-.72-.95-1.08-2.23-1.08-3.86v-7.72c0-1.23-.27-2.23-.8-3.02-.53-.79-1.65-1.18-3.36-1.18-1.07,0-1.99.25-2.78.74-.79.49-1.38,1.25-1.78,2.26v13.88h-3.92v-30h3.92v9.6l-.28,4.04h.16c.35-1.31.99-2.29,1.92-2.96.93-.67,2.25-1,3.96-1,2.61,0,4.41.66,5.4,1.98s1.48,3.05,1.48,5.18v7.92c0,.72.11,1.25.32,1.6.21.35.61.52,1.2.52.19,0,.56-.04,1.12-.12Z"/><path class="cls-2" d="m260.49,68.42v3.2c-.29.11-.73.22-1.32.34-.59.12-1.2.18-1.84.18-2.51,0-4.51-.68-6.02-2.04-1.51-1.36-2.57-3.2-3.18-5.52-1.01,1.71-2.65,4.12-4.92,7.24h-4.6l1.84-2.44c2.11-2.77,3.67-4.95,4.7-6.52s1.79-3.13,2.3-4.68v-6.36h3.92v6.92c0,6.64,2.11,9.96,6.32,9.96,1.17,0,2.11-.09,2.8-.28Zm-13.52-20.96c-.59-.45-.88-1.11-.88-1.96s.29-1.51.88-1.98c.59-.47,1.4-.7,2.44-.7s1.82.23,2.42.7c.6.47.9,1.13.9,1.98s-.3,1.51-.9,1.96c-.6.45-1.41.68-2.42.68s-1.85-.23-2.44-.68Z"/><path class="cls-2" d="m266.07,56.31c.95-1.55,2.25-2.73,3.92-3.56,1.67-.83,3.57-1.24,5.7-1.24,1.55,0,2.88.17,4,.5,1.12.33,1.97.7,2.56,1.1v4.04c-1.95-1.47-4.12-2.2-6.52-2.2-2.08,0-3.79.57-5.14,1.7-1.35,1.13-2.02,2.86-2.02,5.18s.66,3.98,1.98,5.14c1.32,1.16,3.14,1.74,5.46,1.74,1.44,0,2.8-.26,4.08-.78,1.28-.52,2.37-1.14,3.28-1.86v3.88c-.69.53-1.7,1.03-3.02,1.5-1.32.47-2.82.7-4.5.7-2.43,0-4.48-.46-6.16-1.38-1.68-.92-2.94-2.16-3.78-3.72-.84-1.56-1.26-3.3-1.26-5.22,0-2.13.47-3.97,1.42-5.52Z"/><path class="cls-2" d="m290.63,53.21c1.72-1.13,4.13-1.7,7.22-1.7,1.52,0,2.97.13,4.34.38,1.37.25,2.42.51,3.14.78v3.44c-.77-.29-1.82-.56-3.14-.8-1.32-.24-2.74-.36-4.26-.36-3.97,0-5.96,1.03-5.96,3.08,0,.77.36,1.31,1.08,1.6.72.29,1.72.48,3,.56l4.04.2c2.45.16,4.31.65,5.56,1.46,1.25.81,1.88,2.07,1.88,3.78,0,2.16-.87,3.79-2.62,4.88-1.75,1.09-4.27,1.64-7.58,1.64-1.76,0-3.39-.16-4.88-.48s-2.6-.64-3.32-.96v-3.44c.8.35,1.92.67,3.36.98,1.44.31,3.03.46,4.76.46,4.24,0,6.36-1.03,6.36-3.08,0-.77-.34-1.3-1.02-1.58-.68-.28-1.71-.47-3.1-.58l-3.96-.2c-2.45-.16-4.31-.65-5.58-1.46s-1.9-2.07-1.9-3.78c0-2.08.86-3.69,2.58-4.82Z"/><path class="cls-2" d="m338.63,53.21c1.72-1.13,4.13-1.7,7.22-1.7,1.52,0,2.97.13,4.34.38,1.37.25,2.42.51,3.14.78v3.44c-.77-.29-1.82-.56-3.14-.8-1.32-.24-2.74-.36-4.26-.36-3.97,0-5.96,1.03-5.96,3.08,0,.77.36,1.31,1.08,1.6.72.29,1.72.48,3,.56l4.04.2c2.45.16,4.31.65,5.56,1.46,1.25.81,1.88,2.07,1.88,3.78,0,2.16-.87,3.79-2.62,4.88-1.75,1.09-4.27,1.64-7.58,1.64-1.76,0-3.39-.16-4.88-.48s-2.6-.64-3.32-.96v-3.44c.8.35,1.92.67,3.36.98,1.44.31,3.03.46,4.76.46,4.24,0,6.36-1.03,6.36-3.08,0-.77-.34-1.3-1.02-1.58-.68-.28-1.71-.47-3.1-.58l-3.96-.2c-2.45-.16-4.31-.65-5.58-1.46s-1.9-2.07-1.9-3.78c0-2.08.86-3.69,2.58-4.82Z"/><path class="cls-2" d="m379.53,63.42h-15.48c.24,1.84.94,3.18,2.1,4.02s2.87,1.26,5.14,1.26c2.56,0,4.88-.36,6.96-1.08v3.44c-.72.27-1.7.51-2.94.74-1.24.23-2.61.34-4.1.34-3.76,0-6.56-.93-8.4-2.78s-2.76-4.37-2.76-7.54c0-2.24.44-4.13,1.32-5.68.88-1.55,2.09-2.71,3.64-3.48,1.55-.77,3.32-1.16,5.32-1.16,2.88,0,5.13.81,6.76,2.42,1.63,1.61,2.44,4.02,2.44,7.22v2.28Zm-3.68-3.08c0-3.6-1.84-5.4-5.52-5.4-1.79,0-3.23.41-4.32,1.22-1.09.81-1.75,2.21-1.96,4.18h11.8Z"/><path class="cls-2" d="m392.61,55.27v7.08c0,1.52.16,2.73.48,3.64.32.91.9,1.59,1.74,2.04.84.45,2.02.68,3.54.68s3.19-.17,5-.52l-.04,3.28c-.43.13-1.17.28-2.24.44-1.07.16-2.01.24-2.84.24-1.89,0-3.53-.25-4.92-.76-1.39-.51-2.51-1.48-3.36-2.92-.85-1.44-1.28-3.48-1.28-6.12v-7.08h-5.72v-3.44h5.72v-5.28h3.92v5.28h11.28v3.44h-11.28Z"/><path class="cls-2" d="m415.35,71.46c-.6-.45-.9-1.11-.9-1.96s.29-1.55.88-2c.59-.45,1.4-.68,2.44-.68s1.86.23,2.46.68c.6.45.9,1.12.9,2s-.31,1.51-.92,1.96c-.61.45-1.43.68-2.44.68s-1.82-.23-2.42-.68Z"/></g><g><polygon class="cls-2" points="43.26 53.25 60.49 58.07 57.74 38.09 43.26 53.25"/><ellipse class="cls-2" cx="74.11" cy="54.78" rx="8.84" ry="10.84" transform="translate(-17.46 44.39) rotate(-30)"/><polygon class="cls-2" points="52.02 61.01 65.67 62.54 65.67 75.78 50.95 75.78 52.02 61.01"/></g><rect class="cls-1" width="481.19" height="114.22"/></g></g></svg>