<?xml version="1.0" encoding="UTF-8"?><svg id="Livello_2" xmlns="http://www.w3.org/2000/svg" viewBox="0 0 481.19 114.22"><defs><style>.cls-1{fill:none;}.cls-2{fill:#444fd2;}.cls-3{fill:#6f77ea;}</style></defs><g id="BUTTON_objects"><g id="buttonFeedbackClick"><path class="cls-3" d="m21.63,17.55l437.51,3.96-3.33,72.72-433.18,3.78-1-80.46m-7.09-7.06l.09,7.15,1,80.46.09,6.97,6.97-.06,433.18-3.78,6.63-.06.3-6.62,3.33-72.72.33-7.25-7.26-.07L21.69,10.55l-7.15-.06h0Z"/><g><polygon class="cls-3" points="455.8 94.24 22.62 98.01 21.63 17.55 459.14 21.51 455.8 94.24"/><path class="cls-2" d="m21.14,99.52l-1.03-83.49h1.53s439.07,3.99,439.07,3.99l-3.47,75.7h-1.42s-434.68,3.8-434.68,3.8Zm2-80.46l.96,77.43,430.27-3.75,3.2-69.75L23.14,19.07Z"/></g><g><path class="cls-2" d="m182.03,55.55v.04c3.28,1.6,5.65,3.82,7.12,6.66,1.47,2.84,2.2,5.74,2.2,8.7s-.61,5.08-1.84,6.68c-1.23,1.6-2.96,2.4-5.2,2.4-2.11,0-3.71-.88-4.82-2.64-1.11-1.76-1.66-4.77-1.66-9.04,0-3.23.17-7.05.52-11.48-1.79-.69-3.71-1.13-5.76-1.32v-3.44h6.24c.4-3.76.95-7.69,1.64-11.8,1.38.08,2.34.41,2.86.98.52.57.78,1.31.78,2.22,0,.85-.15,1.94-.46,3.26s-.79,3.06-1.46,5.22v.12h11.84v3.44h-12Zm4.18,8.76c-.87-2.16-2.3-3.99-4.3-5.48-.11,4.48-.16,7.65-.16,9.52,0,3.04.21,5.17.62,6.4.41,1.23,1.07,1.84,1.98,1.84,2.11,0,3.16-1.88,3.16-5.64,0-2.27-.43-4.48-1.3-6.64Z"/><path class="cls-2" d="m217.15,63.71h-15.48c.24,1.84.94,3.18,2.1,4.02s2.87,1.26,5.14,1.26c2.56,0,4.88-.36,6.96-1.08v3.44c-.72.27-1.7.51-2.94.74-1.24.23-2.61.34-4.1.34-3.76,0-6.56-.93-8.4-2.78s-2.76-4.37-2.76-7.54c0-2.24.44-4.13,1.32-5.68s2.09-2.71,3.64-3.48c1.54-.77,3.32-1.16,5.32-1.16,2.88,0,5.13.81,6.76,2.42,1.62,1.61,2.44,4.02,2.44,7.22v2.28Zm-3.68-3.08c0-3.6-1.84-5.4-5.52-5.4-1.79,0-3.23.41-4.32,1.22-1.09.81-1.75,2.21-1.96,4.18h11.8Z"/><path class="cls-2" d="m241.15,63.71h-15.48c.24,1.84.94,3.18,2.1,4.02s2.87,1.26,5.14,1.26c2.56,0,4.88-.36,6.96-1.08v3.44c-.72.27-1.7.51-2.94.74-1.24.23-2.61.34-4.1.34-3.76,0-6.56-.93-8.4-2.78s-2.76-4.37-2.76-7.54c0-2.24.44-4.13,1.32-5.68s2.09-2.71,3.64-3.48c1.54-.77,3.32-1.16,5.32-1.16,2.88,0,5.13.81,6.76,2.42,1.62,1.61,2.44,4.02,2.44,7.22v2.28Zm-3.68-3.08c0-3.6-1.84-5.4-5.52-5.4-1.79,0-3.23.41-4.32,1.22-1.09.81-1.75,2.21-1.96,4.18h11.8Z"/><path class="cls-2" d="m266.31,68.87v3.24c-.64.21-1.32.32-2.04.32-2.35,0-3.76-1.19-4.24-3.56h-.2c-.4,2.37-2.11,3.56-5.12,3.56-1.84,0-3.45-.43-4.82-1.28-1.38-.85-2.42-2.05-3.14-3.6s-1.08-3.32-1.08-5.32c0-2.11.39-3.95,1.18-5.52.79-1.57,1.87-2.79,3.24-3.64s2.93-1.28,4.66-1.28c1.6,0,2.79.31,3.56.92.77.61,1.29,1.51,1.56,2.68h.16l-.24-3.88v-9.4h3.92v24.76c0,.72.11,1.25.32,1.6.21.35.61.52,1.2.52.4,0,.76-.04,1.08-.12Zm-6.52-2.76v-8.32c-.88-1.71-2.38-2.56-4.48-2.56-1.76,0-3.15.62-4.18,1.86-1.03,1.24-1.54,2.94-1.54,5.1s.48,3.77,1.44,4.98c.96,1.21,2.32,1.82,4.08,1.82,2.13,0,3.69-.96,4.68-2.88Z"/><path class="cls-2" d="m286.97,54.55c1.45,1.84,2.18,4.28,2.18,7.32,0,2.16-.37,4.04-1.12,5.64-.75,1.6-1.76,2.82-3.04,3.66-1.28.84-2.72,1.26-4.32,1.26-1.49,0-2.77-.28-3.82-.84-1.05-.56-1.75-1.56-2.1-3h-.24l-.88,3.52h-2.52v-30h3.92v9.4l-.28,4.04h.16c.43-1.39,1.13-2.36,2.1-2.92.97-.56,2.26-.84,3.86-.84,2.61,0,4.64.92,6.1,2.76Zm-3.16,12.56c.95-1.25,1.42-2.99,1.42-5.2,0-2.08-.47-3.71-1.4-4.9s-2.21-1.78-3.84-1.78c-1.17,0-2.19.25-3.04.74s-1.49,1.21-1.92,2.14v7.48c.93,2.27,2.6,3.4,5,3.4,1.57,0,2.83-.63,3.78-1.88Z"/><path class="cls-2" d="m314.15,68.87v3.24c-.64.21-1.35.32-2.12.32-2.37,0-3.8-1.32-4.28-3.96h-.12c-.64,2.64-2.78,3.96-6.4,3.96-2.32,0-4.17-.59-5.54-1.76-1.37-1.17-2.06-2.79-2.06-4.84,0-1.79.67-3.23,2.02-4.32,1.35-1.09,3.29-1.64,5.82-1.64,2.16,0,4.17.19,6.04.56h.08v-.24c0-1.17-.17-2.11-.5-2.82-.33-.71-.95-1.24-1.86-1.6-.91-.36-2.2-.54-3.88-.54-1.28,0-2.58.14-3.9.42-1.32.28-2.31.55-2.98.82l-.04-3.56c.77-.29,1.82-.55,3.14-.78,1.32-.23,2.66-.34,4.02-.34,3.6,0,6.15.71,7.66,2.14s2.26,3.5,2.26,6.22v6.72c0,.67.11,1.19.32,1.56s.63.56,1.24.56c.24,0,.6-.04,1.08-.12Zm-8.9-.62c1.05-.49,1.83-1.21,2.34-2.14v-3.16h-5.68c-2.91,0-4.36.97-4.36,2.92,0,.88.33,1.62,1,2.22.67.6,1.65.9,2.96.9,1.44,0,2.69-.25,3.74-.74Z"/><path class="cls-2" d="m319.69,56.59c.95-1.55,2.25-2.73,3.92-3.56,1.67-.83,3.57-1.24,5.7-1.24,1.54,0,2.88.17,4,.5,1.12.33,1.97.7,2.56,1.1v4.04c-1.95-1.47-4.12-2.2-6.52-2.2-2.08,0-3.79.57-5.14,1.7-1.35,1.13-2.02,2.86-2.02,5.18s.66,3.98,1.98,5.14c1.32,1.16,3.14,1.74,5.46,1.74,1.44,0,2.8-.26,4.08-.78,1.28-.52,2.37-1.14,3.28-1.86v3.88c-.69.53-1.7,1.03-3.02,1.5-1.32.47-2.82.7-4.5.7-2.43,0-4.48-.46-6.16-1.38-1.68-.92-2.94-2.16-3.78-3.72-.84-1.56-1.26-3.3-1.26-5.22,0-2.13.47-3.97,1.42-5.52Z"/><path class="cls-2" d="m348.67,63.75h-1.64v8.36h-3.92v-30h3.92v18.2h1.48l8.16-8.2h5.04l-9.64,9.6,11.12,10.4h-5.56l-8.96-8.36Z"/></g><rect class="cls-1" width="481.19" height="114.22"/><g><polygon class="cls-2" points="55.95 66.8 52.79 33.6 62.81 33.6 62.81 65.02 55.95 66.8"/><ellipse class="cls-2" cx="60.17" cy="76.75" rx="5.58" ry="4.67" transform="translate(-37.26 72.38) rotate(-49.34)"/></g></g></g></svg>