<?xml version="1.0" encoding="UTF-8"?><svg id="Livello_2" xmlns="http://www.w3.org/2000/svg" viewBox="0 0 481.19 114.22"><defs><style>.cls-1{fill:none;}.cls-2{fill:#9da7f3;}.cls-3{fill:#444fd2;}</style></defs><g id="BUTTON_objects"><g id="buttonAudioSet"><path class="cls-3" d="m26.7,16.14l428.35,5.68,1.38,76.26-431.32-3.56,1.58-78.38m-6.86-7.09l-.14,6.95-1.58,78.38-.14,7.08,7.08.06,431.32,3.56,7.19.06-.13-7.19-1.38-76.26-.12-6.78-6.78-.09L26.79,9.14l-6.95-.09h0Z"/><g><polygon class="cls-3" points="456.43 98.08 25.06 95.66 26.64 17.28 455.05 21.82 456.43 98.08"/><path class="cls-2" d="m457.96,99.59l-434.43-2.44,1.64-81.39,431.35,4.58,1.44,79.26Zm-431.37-5.42l428.31,2.41-1.33-73.27L28.11,18.79l-1.52,75.38Z"/></g><g><path class="cls-2" d="m175.79,69.43v3.24c-.64.21-1.35.32-2.12.32-2.37,0-3.8-1.32-4.28-3.96h-.12c-.64,2.64-2.77,3.96-6.4,3.96-2.32,0-4.17-.59-5.54-1.76-1.37-1.17-2.06-2.79-2.06-4.84,0-1.79.67-3.23,2.02-4.32s3.29-1.64,5.82-1.64c2.16,0,4.17.19,6.04.56h.08v-.24c0-1.17-.17-2.11-.5-2.82-.33-.71-.95-1.24-1.86-1.6s-2.2-.54-3.88-.54c-1.28,0-2.58.14-3.9.42-1.32.28-2.31.55-2.98.82l-.04-3.56c.77-.29,1.82-.55,3.14-.78,1.32-.22,2.66-.34,4.02-.34,3.6,0,6.15.71,7.66,2.14,1.51,1.43,2.26,3.5,2.26,6.22v6.72c0,.67.11,1.19.32,1.56.21.37.63.56,1.24.56.24,0,.6-.04,1.08-.12Zm-8.9-.62c1.05-.49,1.83-1.21,2.34-2.14v-3.16h-5.68c-2.91,0-4.36.97-4.36,2.92,0,.88.33,1.62,1,2.22.67.6,1.65.9,2.96.9,1.44,0,2.69-.25,3.74-.74Z"/><path class="cls-2" d="m199.99,69.43v3.24c-.69.21-1.41.32-2.16.32-2.29,0-3.71-1.28-4.24-3.84h-.12c-.21,1.23-.77,2.17-1.68,2.84-.91.67-2.15,1-3.72,1-2.32,0-4.11-.69-5.38-2.08-1.27-1.39-1.9-3.4-1.9-6.04v-8.76h-2.84v-3.44h6.76v11.52c0,1.79.29,3.13.86,4.02.57.89,1.69,1.34,3.34,1.34,1.09,0,2.03-.29,2.8-.88.77-.59,1.35-1.43,1.72-2.52v-13.48h3.92v14.76c0,.72.11,1.25.32,1.6.21.35.61.52,1.2.52.35,0,.72-.04,1.12-.12Z"/><path class="cls-2" d="m223.95,69.43v3.24c-.64.21-1.32.32-2.04.32-2.35,0-3.76-1.19-4.24-3.56h-.2c-.4,2.38-2.11,3.56-5.12,3.56-1.84,0-3.45-.43-4.82-1.28-1.37-.85-2.42-2.05-3.14-3.6-.72-1.55-1.08-3.32-1.08-5.32,0-2.11.39-3.95,1.18-5.52s1.87-2.79,3.24-3.64c1.37-.85,2.93-1.28,4.66-1.28,1.6,0,2.79.31,3.56.92.77.62,1.29,1.51,1.56,2.68h.16l-.24-3.88v-9.4h3.92v24.76c0,.72.11,1.25.32,1.6.21.35.61.52,1.2.52.4,0,.76-.04,1.08-.12Zm-6.52-2.76v-8.32c-.88-1.71-2.37-2.56-4.48-2.56-1.76,0-3.15.62-4.18,1.86-1.03,1.24-1.54,2.94-1.54,5.1s.48,3.77,1.44,4.98,2.32,1.82,4.08,1.82c2.13,0,3.69-.96,4.68-2.88Z"/><path class="cls-2" d="m247.75,69.27v3.2c-.29.11-.73.22-1.32.34-.59.12-1.2.18-1.84.18-2.51,0-4.51-.68-6.02-2.04-1.51-1.36-2.57-3.2-3.18-5.52-1.01,1.71-2.65,4.12-4.92,7.24h-4.6l1.84-2.44c2.11-2.77,3.67-4.95,4.7-6.52,1.03-1.57,1.79-3.13,2.3-4.68v-6.36h3.92v6.92c0,6.64,2.11,9.96,6.32,9.96,1.17,0,2.11-.09,2.8-.28Zm-13.52-20.96c-.59-.45-.88-1.11-.88-1.96s.29-1.51.88-1.98c.59-.47,1.4-.7,2.44-.7s1.82.23,2.42.7c.6.47.9,1.13.9,1.98s-.3,1.51-.9,1.96c-.6.45-1.41.68-2.42.68s-1.85-.23-2.44-.68Z"/><path class="cls-2" d="m255.91,71.69c-1.47-.87-2.6-2.08-3.4-3.64-.8-1.56-1.2-3.35-1.2-5.38s.4-3.82,1.2-5.38c.8-1.56,1.93-2.77,3.4-3.64s3.17-1.3,5.12-1.3,3.66.43,5.14,1.3c1.48.87,2.62,2.08,3.42,3.64.8,1.56,1.2,3.35,1.2,5.38s-.4,3.82-1.2,5.38c-.8,1.56-1.94,2.77-3.42,3.64-1.48.87-3.19,1.3-5.14,1.3s-3.65-.43-5.12-1.3Zm9.5-4.02c.97-1.25,1.46-2.92,1.46-5s-.49-3.75-1.46-5c-.97-1.25-2.43-1.88-4.38-1.88s-3.4.63-4.36,1.88c-.96,1.25-1.44,2.92-1.44,5s.48,3.71,1.44,4.98c.96,1.27,2.41,1.9,4.36,1.9s3.41-.63,4.38-1.88Z"/><path class="cls-2" d="m301.89,54.06c1.72-1.13,4.13-1.7,7.22-1.7,1.52,0,2.97.13,4.34.38,1.37.25,2.42.51,3.14.78v3.44c-.77-.29-1.82-.56-3.14-.8s-2.74-.36-4.26-.36c-3.97,0-5.96,1.03-5.96,3.08,0,.77.36,1.31,1.08,1.6.72.29,1.72.48,3,.56l4.04.2c2.45.16,4.31.65,5.56,1.46,1.25.81,1.88,2.07,1.88,3.78,0,2.16-.87,3.79-2.62,4.88-1.75,1.09-4.27,1.64-7.58,1.64-1.76,0-3.39-.16-4.88-.48s-2.6-.64-3.32-.96v-3.44c.8.35,1.92.67,3.36.98,1.44.31,3.03.46,4.76.46,4.24,0,6.36-1.03,6.36-3.08,0-.77-.34-1.3-1.02-1.58-.68-.28-1.71-.47-3.1-.58l-3.96-.2c-2.45-.16-4.31-.65-5.58-1.46-1.27-.81-1.9-2.07-1.9-3.78,0-2.08.86-3.69,2.58-4.82Z"/><path class="cls-2" d="m342.79,64.27h-15.48c.24,1.84.94,3.18,2.1,4.02s2.87,1.26,5.14,1.26c2.56,0,4.88-.36,6.96-1.08v3.44c-.72.27-1.7.51-2.94.74s-2.61.34-4.1.34c-3.76,0-6.56-.93-8.4-2.78s-2.76-4.37-2.76-7.54c0-2.24.44-4.13,1.32-5.68.88-1.55,2.09-2.71,3.64-3.48,1.55-.77,3.32-1.16,5.32-1.16,2.88,0,5.13.81,6.76,2.42,1.63,1.62,2.44,4.02,2.44,7.22v2.28Zm-3.68-3.08c0-3.6-1.84-5.4-5.52-5.4-1.79,0-3.23.41-4.32,1.22-1.09.81-1.75,2.21-1.96,4.18h11.8Z"/><path class="cls-2" d="m355.87,56.12v7.08c0,1.52.16,2.73.48,3.64.32.91.9,1.59,1.74,2.04.84.45,2.02.68,3.54.68s3.19-.17,5-.52l-.04,3.28c-.43.13-1.17.28-2.24.44-1.07.16-2.01.24-2.84.24-1.89,0-3.53-.25-4.92-.76s-2.51-1.48-3.36-2.92c-.85-1.44-1.28-3.48-1.28-6.12v-7.08h-5.72v-3.44h5.72v-5.28h3.92v5.28h11.28v3.44h-11.28Z"/><path class="cls-2" d="m378.61,72.32c-.6-.45-.9-1.11-.9-1.96s.29-1.54.88-2c.59-.45,1.4-.68,2.44-.68s1.86.23,2.46.68c.6.46.9,1.12.9,2s-.31,1.51-.92,1.96c-.61.45-1.43.68-2.44.68s-1.82-.23-2.42-.68Z"/></g><polygon class="cls-2" points="77.33 51.67 72.99 51.06 73.88 40.13 55.48 50.68 43.84 50.74 44.45 60.82 53.76 61.65 52.76 73.91 59.67 74.09 58.89 63.28 71.51 69.24 72.23 60.37 77.33 59.97 77.33 51.67"/><rect class="cls-1" width="481.19" height="114.22"/></g></g></svg>