<?xml version="1.0" encoding="UTF-8"?><svg id="Livello_2" xmlns="http://www.w3.org/2000/svg" viewBox="0 0 481.19 114.22"><defs><style>.cls-1{fill:none;}.cls-2{fill:#444fd2;}.cls-3{fill:#6f77ea;}</style></defs><g id="BUTTON_objects"><g id="buttonGalleryClick"><g id="buttonGallery"><path class="cls-3" d="m459.67,15.49l-3.42,81.94-431.32-3.56-1.95-75.61,436.68-2.77m7.3-7.05l-7.34.05L22.95,11.26l-7.14.05.18,7.13,1.95,75.61.17,6.76,6.77.06,431.32,3.56,6.77.06.28-6.76,3.42-81.94.31-7.34h0Z"/><g><polygon class="cls-3" points="456.25 97.43 24.88 95.01 22.94 19.39 459.67 15.49 456.25 97.43"/><path class="cls-2" d="m457.69,98.94h-1.45s-432.83-2.44-432.83-2.44l-2.02-78.59,439.84-3.94-3.54,84.97Zm-431.35-5.42l428.47,2.41,3.29-78.92L24.48,20.88l1.87,72.63Z"/></g><g><path class="cls-2" d="m209.86,52.02v19.76c0,3.01-.87,5.26-2.6,6.74s-4.08,2.22-7.04,2.22c-1.07,0-2.2-.1-3.4-.3s-2.23-.47-3.08-.82l-.04-3.6c2.19.85,4.29,1.28,6.32,1.28,3.95,0,5.92-1.84,5.92-5.52v-.52l.32-2.84h-.2c-.27,1.41-.85,2.42-1.74,3.02-.89.6-2.13.9-3.7.9-1.71,0-3.23-.43-4.56-1.3-1.33-.87-2.37-2.07-3.1-3.62s-1.1-3.31-1.1-5.28c0-2.11.39-3.95,1.18-5.52s1.87-2.79,3.24-3.64c1.37-.85,2.93-1.28,4.66-1.28,1.6,0,2.85.33,3.74.98s1.43,1.59,1.62,2.82h.16l1.04-3.48h2.36Zm-5.7,16.22c.76-.44,1.35-1.15,1.78-2.14v-8.12c-.4-.99-.99-1.71-1.76-2.16-.77-.45-1.65-.68-2.64-.68-1.76,0-3.16.62-4.2,1.86-1.04,1.24-1.56,2.94-1.56,5.1s.47,3.73,1.42,4.96c.95,1.23,2.27,1.84,3.98,1.84,1.23,0,2.22-.22,2.98-.66Z"/><path class="cls-2" d="m236.34,68.78v3.24c-.64.21-1.35.32-2.12.32-2.37,0-3.8-1.32-4.28-3.96h-.12c-.64,2.64-2.77,3.96-6.4,3.96-2.32,0-4.17-.59-5.54-1.76-1.37-1.17-2.06-2.79-2.06-4.84,0-1.79.67-3.23,2.02-4.32s3.29-1.64,5.82-1.64c2.16,0,4.17.19,6.04.56h.08v-.24c0-1.17-.17-2.11-.5-2.82-.33-.71-.95-1.24-1.86-1.6-.91-.36-2.2-.54-3.88-.54-1.28,0-2.58.14-3.9.42-1.32.28-2.31.55-2.98.82l-.04-3.56c.77-.29,1.82-.55,3.14-.78,1.32-.23,2.66-.34,4.02-.34,3.6,0,6.15.71,7.66,2.14,1.51,1.43,2.26,3.5,2.26,6.22v6.72c0,.67.11,1.19.32,1.56.21.37.63.56,1.24.56.24,0,.6-.04,1.08-.12Zm-8.9-.62c1.05-.49,1.83-1.21,2.34-2.14v-3.16h-5.68c-2.91,0-4.36.97-4.36,2.92,0,.88.33,1.62,1,2.22.67.6,1.65.9,2.96.9,1.44,0,2.69-.25,3.74-.74Z"/><path class="cls-2" d="m260.26,68.74v3.32c-.56.19-1.41.28-2.56.28-2,0-3.87-.5-5.62-1.5-1.75-1-3.27-2.41-4.58-4.22-1.81,2.27-3.28,4.07-4.4,5.4h-4.56c3.09-3.49,5.47-6.33,7.12-8.52-1.71-3.55-2.56-7.67-2.56-12.36,0-3.36.55-5.79,1.66-7.28,1.11-1.49,2.59-2.24,4.46-2.24s3.42.69,4.5,2.08c1.08,1.39,1.62,3.4,1.62,6.04,0,2.19-.37,4.27-1.12,6.24-.75,1.97-2.17,4.43-4.28,7.36,1.07,1.79,2.33,3.16,3.8,4.12,1.47.96,3,1.44,4.6,1.44.59,0,1.23-.05,1.92-.16Zm-11.92-8.88c.93-1.41,1.63-2.67,2.08-3.76.45-1.09.75-2.11.88-3.06.13-.95.2-2.07.2-3.38,0-1.73-.21-2.93-.62-3.6-.41-.67-.97-1-1.66-1s-1.27.48-1.66,1.44c-.39.96-.58,2.63-.58,5,0,2.99.45,5.77,1.36,8.36Z"/><path class="cls-2" d="m284.26,68.74v3.32c-.56.19-1.41.28-2.56.28-2,0-3.87-.5-5.62-1.5-1.75-1-3.27-2.41-4.58-4.22-1.81,2.27-3.28,4.07-4.4,5.4h-4.56c3.09-3.49,5.47-6.33,7.12-8.52-1.71-3.55-2.56-7.67-2.56-12.36,0-3.36.55-5.79,1.66-7.28,1.11-1.49,2.59-2.24,4.46-2.24s3.42.69,4.5,2.08c1.08,1.39,1.62,3.4,1.62,6.04,0,2.19-.37,4.27-1.12,6.24-.75,1.97-2.17,4.43-4.28,7.36,1.07,1.79,2.33,3.16,3.8,4.12,1.47.96,3,1.44,4.6,1.44.59,0,1.23-.05,1.92-.16Zm-11.92-8.88c.93-1.41,1.63-2.67,2.08-3.76.45-1.09.75-2.11.88-3.06.13-.95.2-2.07.2-3.38,0-1.73-.21-2.93-.62-3.6-.41-.67-.97-1-1.66-1s-1.27.48-1.66,1.44c-.39.96-.58,2.63-.58,5,0,2.99.45,5.77,1.36,8.36Z"/><path class="cls-2" d="m307.34,63.62h-15.48c.24,1.84.94,3.18,2.1,4.02s2.87,1.26,5.14,1.26c2.56,0,4.88-.36,6.96-1.08v3.44c-.72.27-1.7.51-2.94.74-1.24.23-2.61.34-4.1.34-3.76,0-6.56-.93-8.4-2.78s-2.76-4.37-2.76-7.54c0-2.24.44-4.13,1.32-5.68.88-1.55,2.09-2.71,3.64-3.48,1.55-.77,3.32-1.16,5.32-1.16,2.88,0,5.13.81,6.76,2.42,1.63,1.61,2.44,4.02,2.44,7.22v2.28Zm-3.68-3.08c0-3.6-1.84-5.4-5.52-5.4-1.79,0-3.23.41-4.32,1.22-1.09.81-1.75,2.21-1.96,4.18h11.8Z"/><path class="cls-2" d="m332.98,68.7v3.36c-.45.19-1.13.28-2.04.28-1.6,0-3.01-.37-4.22-1.12-1.21-.75-2.15-1.79-2.82-3.12-.67-1.33-1-2.85-1-4.56,0-2.8.91-5.44,2.72-7.92v-.12h-7.6c-.29,2.91-.68,5.56-1.16,7.96-.48,2.4-1.12,5.25-1.92,8.56h-4.52c1.01-2.96,1.9-6.07,2.66-9.32.76-3.25,1.25-6.01,1.46-8.28-.56-.35-1-.81-1.32-1.4-.32-.59-.48-1.23-.48-1.92,0-.99.34-1.79,1.02-2.4.68-.61,1.65-.92,2.9-.92.53,0,1.11.07,1.72.2,0,1.36-.04,2.71-.12,4.04h11.84v3.48c-.93.67-1.71,1.67-2.32,3-.61,1.33-.92,2.81-.92,4.44,0,1.97.46,3.45,1.38,4.42.92.97,2.07,1.46,3.46,1.46.45,0,.88-.04,1.28-.12Z"/><path class="cls-2" d="m357.02,52.02l-7.08,19.16c-.85,2.4-1.66,4.27-2.42,5.6-.76,1.33-1.65,2.33-2.68,2.98-1.03.65-2.33.98-3.9.98-1.25,0-2.57-.19-3.96-.56l-.04-3.48c.59.19,1.21.33,1.88.44.67.11,1.27.16,1.8.16.83,0,1.51-.15,2.04-.46.53-.31,1.02-.83,1.46-1.58.44-.75.93-1.83,1.46-3.24h-2.04l-5.84-16.56h-3.52v-3.44h6.44l5.76,16.52h.48l6-16.52h4.16Z"/></g><g><path class="cls-2" d="m67.77,59.19c.93-2.52.12-5.14-1.82-5.86s-4.27.74-5.2,3.25c-.93,2.52-.12,5.14,1.82,5.86s4.27-.74,5.2-3.25Z"/><path class="cls-2" d="m49.54,38.22v11.64c2.27-2.4,6.1-2.34,8.61.87,0,0-3.06-9.1,5.32-9.19s5.96,9.1,5.96,9.1c4.04-4,9.52-1.64,9.84,3.73.3,4.98-4.14,7.17-7.03,6.24,2.02.93,7.78,4.27,2.11,10.46-6.76,7.39-10.21-4.86-10.21-4.86,0,0-.03,5.87-4.88,6.21s-7.83-4.08-7.32-7.06c.51-2.98,4.59-4.93,4.59-4.93,0,0-4.39,1.8-6.99-.22v15.78l32.99.82.82-39.42-33.82.82Z"/></g></g><rect class="cls-1" width="481.19" height="114.22"/></g></g></svg>