<?xml version="1.0" encoding="UTF-8"?><svg id="Livello_2" xmlns="http://www.w3.org/2000/svg" viewBox="0 0 481.19 114.22"><defs><style>.cls-1{fill:none;}.cls-2{fill:#ff6863;}.cls-3{fill:#c72a26;}</style></defs><g id="BUTTON_objects"><g id="buttonQuitClick"><path class="cls-2" d="m21.63,21.56l432.64.29,5.97,77.14-444.21-.64,5.6-76.79m-6.51-7l-.47,6.5-5.6,76.79-.55,7.5h7.52s444.21.65,444.21.65h7.57s-.58-7.54-.58-7.54l-5.97-77.14-.5-6.46h-6.47s-432.64-.3-432.64-.3h-6.51Z"/><g><polygon class="cls-2" points="460.24 98.99 16.03 98.35 21.63 21.56 454.26 21.85 460.24 98.99"/><path class="cls-3" d="m461.86,100.49h-1.62s-445.82-.64-445.82-.64l5.81-79.79,435.42.29,6.21,80.14Zm-444.21-3.64l440.97.63-5.74-74.13-429.85-.29-5.38,73.79Z"/></g><g><path class="cls-3" d="m238.95,54.33v28.4h-3.92v-8.36l.4-3.64h-.2c-.35,1.49-.97,2.52-1.86,3.08-.89.56-2.12.84-3.66.84-1.71,0-3.23-.43-4.56-1.3s-2.37-2.07-3.1-3.62c-.73-1.55-1.1-3.31-1.1-5.28,0-2.11.39-3.95,1.18-5.52.79-1.57,1.86-2.79,3.22-3.64,1.36-.85,2.88-1.28,4.56-1.28,3.2,0,4.99,1.27,5.36,3.8h.16l1-3.48h2.52Zm-5.7,16.24c.73-.43,1.33-1.08,1.78-1.96v-8.12c-.4-1.12-.98-1.91-1.74-2.36-.76-.45-1.69-.68-2.78-.68-1.71,0-3.07.62-4.1,1.86-1.03,1.24-1.54,2.94-1.54,5.1s.48,3.77,1.44,4.98c.96,1.21,2.31,1.82,4.04,1.82,1.2,0,2.17-.21,2.9-.64Z"/><path class="cls-3" d="m265.63,71.09v3.24c-.69.21-1.41.32-2.16.32-2.29,0-3.71-1.28-4.24-3.84h-.12c-.21,1.23-.78,2.17-1.68,2.84-.91.67-2.15,1-3.72,1-2.32,0-4.12-.69-5.38-2.08s-1.9-3.4-1.9-6.04v-8.76h-2.84v-3.44h6.76v11.52c0,1.79.29,3.13.86,4.02.57.89,1.69,1.34,3.34,1.34,1.09,0,2.03-.29,2.8-.88s1.35-1.43,1.72-2.52v-13.48h3.92v14.76c0,.72.11,1.25.32,1.6.21.35.61.52,1.2.52.35,0,.72-.04,1.12-.12Z"/><path class="cls-3" d="m289.39,70.93v3.2c-.29.11-.73.22-1.32.34-.59.12-1.2.18-1.84.18-2.51,0-4.51-.68-6.02-2.04-1.51-1.36-2.57-3.2-3.18-5.52-1.01,1.71-2.65,4.12-4.92,7.24h-4.6l1.84-2.44c2.11-2.77,3.67-4.95,4.7-6.52,1.03-1.57,1.79-3.13,2.3-4.68v-6.36h3.92v6.92c0,6.64,2.11,9.96,6.32,9.96,1.17,0,2.11-.09,2.8-.28Zm-13.52-20.96c-.59-.45-.88-1.11-.88-1.96s.29-1.51.88-1.98c.59-.47,1.4-.7,2.44-.7s1.82.23,2.42.7.9,1.13.9,1.98-.3,1.51-.9,1.96c-.6.46-1.41.68-2.42.68s-1.85-.23-2.44-.68Z"/><path class="cls-3" d="m301.51,57.77v7.08c0,1.52.16,2.73.48,3.64s.9,1.59,1.74,2.04,2.02.68,3.54.68,3.19-.17,5-.52l-.04,3.28c-.43.13-1.17.28-2.24.44s-2.01.24-2.84.24c-1.89,0-3.53-.25-4.92-.76-1.39-.51-2.51-1.48-3.36-2.92-.85-1.44-1.28-3.48-1.28-6.12v-7.08h-5.72v-3.44h5.72v-5.28h3.92v5.28h11.28v3.44h-11.28Z"/></g><rect class="cls-1" width="481.19" height="114.22"/><g><polygon class="cls-3" points="42.08 77.25 75.34 39.84 79.08 41.68 47.07 82.08 42.08 77.25"/><polygon class="cls-3" points="44.46 45.28 77.45 78.31 83.54 72.77 48.94 41.89 44.46 45.28"/></g></g></g></svg>