<?xml version="1.0" encoding="UTF-8"?><svg id="Livello_2" xmlns="http://www.w3.org/2000/svg" viewBox="0 0 481.19 114.22"><defs><style>.cls-1{fill:none;}.cls-2{fill:#b7b7cb;}.cls-3{fill:#5c5c66;}</style></defs><g id="BUTTON_objects"><g id="buttonResumeHover"><rect class="cls-1" width="481.19" height="114.22"/><g><path class="cls-2" d="m15.03,13.85l450.02,3.32-2.89,75.34-444.66,3.14L15.03,13.85m-7.22-7.05l.22,7.26,2.47,81.8.21,6.84,6.84-.05,444.66-3.14,6.69-.05.26-6.68,2.89-75.34.28-7.21-7.22-.05L15.08,6.85l-7.27-.05h0Z"/><g><polygon class="cls-2" points="462.16 92.51 17.5 95.65 15.03 13.85 465.05 17.17 462.16 92.51"/><path class="cls-3" d="m16.04,97.16L13.48,12.34h1.56s451.57,3.35,451.57,3.35l-3.01,78.32h-1.43s-446.13,3.16-446.13,3.16Zm.53-81.8l2.38,78.78,441.76-3.12,2.78-72.36L16.57,15.36Z"/></g><polygon class="cls-3" points="45.6 70.75 42.96 39.71 72.3 55.23 45.6 70.75"/><g><path class="cls-3" d="m222.63,66.43v3.36c-.45.19-1.13.28-2.04.28-1.6,0-3.01-.37-4.22-1.12-1.21-.75-2.15-1.79-2.82-3.12-.67-1.33-1-2.85-1-4.56,0-2.8.91-5.44,2.72-7.92v-.12h-7.6c-.29,2.91-.68,5.56-1.16,7.96-.48,2.4-1.12,5.25-1.92,8.56h-4.52c1.01-2.96,1.9-6.07,2.66-9.32.76-3.25,1.25-6.01,1.46-8.28-.56-.35-1-.81-1.32-1.4-.32-.59-.48-1.23-.48-1.92,0-.99.34-1.79,1.02-2.4.68-.61,1.65-.92,2.9-.92.53,0,1.11.07,1.72.2,0,1.36-.04,2.71-.12,4.04h11.84v3.48c-.93.67-1.71,1.67-2.32,3-.61,1.33-.92,2.81-.92,4.44,0,1.97.46,3.45,1.38,4.42.92.97,2.07,1.46,3.46,1.46.45,0,.88-.04,1.28-.12Z"/><path class="cls-3" d="m244.99,61.35h-15.48c.24,1.84.94,3.18,2.1,4.02s2.87,1.26,5.14,1.26c2.56,0,4.88-.36,6.96-1.08v3.44c-.72.27-1.7.51-2.94.74-1.24.23-2.61.34-4.1.34-3.76,0-6.56-.93-8.4-2.78s-2.76-4.37-2.76-7.54c0-2.24.44-4.13,1.32-5.68.88-1.55,2.09-2.71,3.64-3.48,1.55-.77,3.32-1.16,5.32-1.16,2.88,0,5.13.81,6.76,2.42,1.63,1.61,2.44,4.02,2.44,7.22v2.28Zm-3.68-3.08c0-3.6-1.84-5.4-5.52-5.4-1.79,0-3.23.41-4.32,1.22-1.09.81-1.75,2.21-1.96,4.18h11.8Z"/><path class="cls-3" d="m252.09,51.13c1.72-1.13,4.13-1.7,7.22-1.7,1.52,0,2.97.13,4.34.38,1.37.25,2.42.51,3.14.78v3.44c-.77-.29-1.82-.56-3.14-.8-1.32-.24-2.74-.36-4.26-.36-3.97,0-5.96,1.03-5.96,3.08,0,.77.36,1.31,1.08,1.6.72.29,1.72.48,3,.56l4.04.2c2.45.16,4.31.65,5.56,1.46,1.25.81,1.88,2.07,1.88,3.78,0,2.16-.87,3.79-2.62,4.88-1.75,1.09-4.27,1.64-7.58,1.64-1.76,0-3.39-.16-4.88-.48s-2.6-.64-3.32-.96v-3.44c.8.35,1.92.67,3.36.98,1.44.31,3.03.46,4.76.46,4.24,0,6.36-1.03,6.36-3.08,0-.77-.34-1.3-1.02-1.58-.68-.28-1.71-.47-3.1-.58l-3.96-.2c-2.45-.16-4.31-.65-5.58-1.46s-1.9-2.07-1.9-3.78c0-2.08.86-3.69,2.58-4.82Z"/><path class="cls-3" d="m294.19,66.51v3.24c-.69.21-1.41.32-2.16.32-2.29,0-3.71-1.28-4.24-3.84h-.12c-.21,1.23-.77,2.17-1.68,2.84s-2.15,1-3.72,1c-2.32,0-4.11-.69-5.38-2.08-1.27-1.39-1.9-3.4-1.9-6.04v-8.76h-2.84v-3.44h6.76v11.52c0,1.79.29,3.13.86,4.02.57.89,1.69,1.34,3.34,1.34,1.09,0,2.03-.29,2.8-.88.77-.59,1.35-1.43,1.72-2.52v-13.48h3.92v14.76c0,.72.11,1.25.32,1.6s.61.52,1.2.52c.35,0,.72-.04,1.12-.12Z"/><path class="cls-3" d="m316.89,51.03c.68,1.07,1.02,2.61,1.02,4.64v14.08h-3.76v-13.68c0-1.17-.15-2.03-.46-2.56-.31-.53-.93-.8-1.86-.8-1.39,0-2.29.71-2.72,2.12v14.92h-3.76v-13.68c0-1.12-.15-1.96-.44-2.52-.29-.56-.92-.84-1.88-.84-1.36,0-2.27.65-2.72,1.96v15.08h-3.76v-20h2.44l1,2.6h.08c.27-1.09.77-1.85,1.5-2.28s1.65-.64,2.74-.64c1.23,0,2.19.25,2.9.74.71.49,1.21,1.22,1.5,2.18h.08c.27-1.09.77-1.85,1.5-2.28s1.67-.64,2.82-.64c1.84,0,3.1.53,3.78,1.6Z"/><path class="cls-3" d="m340.99,61.35h-15.48c.24,1.84.94,3.18,2.1,4.02s2.87,1.26,5.14,1.26c2.56,0,4.88-.36,6.96-1.08v3.44c-.72.27-1.7.51-2.94.74-1.24.23-2.61.34-4.1.34-3.76,0-6.56-.93-8.4-2.78s-2.76-4.37-2.76-7.54c0-2.24.44-4.13,1.32-5.68.88-1.55,2.09-2.71,3.64-3.48,1.55-.77,3.32-1.16,5.32-1.16,2.88,0,5.13.81,6.76,2.42,1.63,1.61,2.44,4.02,2.44,7.22v2.28Zm-3.68-3.08c0-3.6-1.84-5.4-5.52-5.4-1.79,0-3.23.41-4.32,1.22-1.09.81-1.75,2.21-1.96,4.18h11.8Z"/></g></g></g></g></svg>