<?xml version="1.0" encoding="UTF-8"?><svg id="Livello_2" xmlns="http://www.w3.org/2000/svg" viewBox="0 0 261.18 77.37"><defs><style>.cls-1,.cls-2{fill:#b7b7cb;}.cls-3{fill:#5c5c66;}.cls-2{stroke:#5c5c66;stroke-miterlimit:10;stroke-width:3px;}</style></defs><g id="BUTTON_objects"><g id="buttonSendHover"><polygon class="cls-1" points="259.05 77.37 4.71 74.65 0 .51 261.18 0 259.05 77.37"/><polygon class="cls-2" points="251.52 69.92 11.87 66.99 7.63 8.17 253.25 7.04 251.52 69.92"/><g><path class="cls-3" d="m87.6,34.12c1.72-1.13,4.13-1.7,7.22-1.7,1.52,0,2.97.13,4.34.38,1.37.25,2.42.51,3.14.78v3.44c-.77-.29-1.82-.56-3.14-.8-1.32-.24-2.74-.36-4.26-.36-3.97,0-5.96,1.03-5.96,3.08,0,.77.36,1.31,1.08,1.6.72.29,1.72.48,3,.56l4.04.2c2.45.16,4.31.65,5.56,1.46,1.25.81,1.88,2.07,1.88,3.78,0,2.16-.87,3.79-2.62,4.88-1.75,1.09-4.27,1.64-7.58,1.64-1.76,0-3.39-.16-4.88-.48s-2.6-.64-3.32-.96v-3.44c.8.35,1.92.67,3.36.98,1.44.31,3.03.46,4.76.46,4.24,0,6.36-1.03,6.36-3.08,0-.77-.34-1.3-1.02-1.58-.68-.28-1.71-.47-3.1-.58l-3.96-.2c-2.45-.16-4.31-.65-5.58-1.46s-1.9-2.07-1.9-3.78c0-2.08.86-3.69,2.58-4.82Z"/><path class="cls-3" d="m128.5,44.34h-15.48c.24,1.84.94,3.18,2.1,4.02s2.87,1.26,5.14,1.26c2.56,0,4.88-.36,6.96-1.08v3.44c-.72.27-1.7.51-2.94.74-1.24.23-2.61.34-4.1.34-3.76,0-6.56-.93-8.4-2.78s-2.76-4.37-2.76-7.54c0-2.24.44-4.13,1.32-5.68.88-1.55,2.09-2.71,3.64-3.48,1.55-.77,3.32-1.16,5.32-1.16,2.88,0,5.13.81,6.76,2.42,1.63,1.61,2.44,4.02,2.44,7.22v2.28Zm-3.68-3.08c0-3.6-1.84-5.4-5.52-5.4-1.79,0-3.23.41-4.32,1.22-1.09.81-1.75,2.21-1.96,4.18h11.8Z"/><path class="cls-3" d="m153.66,49.5v3.24c-.59.21-1.29.32-2.12.32-1.52,0-2.64-.47-3.36-1.42-.72-.95-1.08-2.23-1.08-3.86v-7.72c0-1.23-.27-2.23-.8-3.02-.53-.79-1.65-1.18-3.36-1.18-2.35,0-3.87,1.01-4.56,3.04v13.84h-3.92v-20h2.44l1.12,3.48h.2c.29-1.28.92-2.23,1.88-2.86.96-.63,2.31-.94,4.04-.94,2.56,0,4.35.65,5.36,1.94,1.01,1.29,1.52,3.03,1.52,5.22v7.92c0,.72.11,1.25.32,1.6.21.35.61.52,1.2.52.27,0,.64-.04,1.12-.12Z"/><path class="cls-3" d="m177.66,49.5v3.24c-.64.21-1.32.32-2.04.32-2.35,0-3.76-1.19-4.24-3.56h-.2c-.4,2.37-2.11,3.56-5.12,3.56-1.84,0-3.45-.43-4.82-1.28-1.37-.85-2.42-2.05-3.14-3.6-.72-1.55-1.08-3.32-1.08-5.32,0-2.11.39-3.95,1.18-5.52s1.87-2.79,3.24-3.64c1.37-.85,2.93-1.28,4.66-1.28,1.6,0,2.79.31,3.56.92.77.61,1.29,1.51,1.56,2.68h.16l-.24-3.88v-9.4h3.92v24.76c0,.72.11,1.25.32,1.6s.61.52,1.2.52c.4,0,.76-.04,1.08-.12Zm-6.52-2.76v-8.32c-.88-1.71-2.37-2.56-4.48-2.56-1.76,0-3.15.62-4.18,1.86-1.03,1.24-1.54,2.94-1.54,5.1s.48,3.77,1.44,4.98c.96,1.21,2.32,1.82,4.08,1.82,2.13,0,3.69-.96,4.68-2.88Z"/></g></g></g></svg>