<?xml version="1.0" encoding="UTF-8"?><svg id="Livello_2" xmlns="http://www.w3.org/2000/svg" viewBox="0 0 62.38 122.01"><defs><style>.cls-1{fill:#ff1d25;}.cls-1,.cls-2,.cls-3,.cls-4{stroke:#000;stroke-miterlimit:10;stroke-width:3px;}.cls-2{fill:#c41421;}.cls-3{fill:#e4e9ea;}.cls-4{fill:#b3c9ce;}</style></defs><g id="Livello_1-2"><g><polygon class="cls-4" points="13.07 120.51 20.4 37.16 38.26 37.16 41.92 120.51 13.07 120.51"/><path class="cls-4" d="M2.78,15.18c-.7,22.9,19.9,29.31,29.52,29.31s27.02-10.99,26.1-25.65L2.78,15.18Z"/><path class="cls-3" d="M2.78,15.18S12.86,31.77,27.49,31.77s30.91-12.93,30.91-12.93L2.78,15.18Z"/><polygon class="cls-2" points="13.07 20.16 13.07 7.95 43.53 6.74 43.53 22.3 13.07 20.16"/><path class="cls-1" d="M13.38,7.49C16.44,2.69,25.83,.92,34.18,1.66s11.15,4.52,8.24,6.95-13.45,4.63-18.17,4.42-12.88-2.39-10.88-5.53Z"/></g></g></svg>