<?xml version="1.0" encoding="UTF-8"?><svg id="Livello_2" xmlns="http://www.w3.org/2000/svg" xmlns:xlink="http://www.w3.org/1999/xlink" viewBox="0 0 215.29 90.3"><defs><style>.cls-1{fill:#ff0;}.cls-1,.cls-2,.cls-3{stroke:#000;stroke-miterlimit:10;stroke-width:3px;}.cls-4{stroke:#1d1d1b;stroke-width:7.2px;}.cls-2{fill:url(#_6_lpi_60_);}.cls-3{fill:#ddb800;}.cls-5{fill:none;}</style><pattern id="_6_lpi_60_" x="0" y="0" width="72" height="72" patternTransform="translate(20594.11 -7090.04) rotate(-45) scale(2.7)" patternUnits="userSpaceOnUse" viewBox="0 0 72 72"><g><rect class="cls-5" width="72" height="72"/><g><line class="cls-4" x1="71.75" y1="66" x2="144.25" y2="66"/><line class="cls-4" x1="71.75" y1="42" x2="144.25" y2="42"/><line class="cls-4" x1="71.75" y1="18" x2="144.25" y2="18"/><line class="cls-4" x1="71.75" y1="54" x2="144.25" y2="54"/><line class="cls-4" x1="71.75" y1="30" x2="144.25" y2="30"/><line class="cls-4" x1="71.75" y1="6" x2="144.25" y2="6"/></g><g><line class="cls-4" x1="-.25" y1="66" x2="72.25" y2="66"/><line class="cls-4" x1="-.25" y1="42" x2="72.25" y2="42"/><line class="cls-4" x1="-.25" y1="18" x2="72.25" y2="18"/><line class="cls-4" x1="-.25" y1="54" x2="72.25" y2="54"/><line class="cls-4" x1="-.25" y1="30" x2="72.25" y2="30"/><line class="cls-4" x1="-.25" y1="6" x2="72.25" y2="6"/></g><g><line class="cls-4" x1="-72.25" y1="66" x2=".25" y2="66"/><line class="cls-4" x1="-72.25" y1="42" x2=".25" y2="42"/><line class="cls-4" x1="-72.25" y1="18" x2=".25" y2="18"/><line class="cls-4" x1="-72.25" y1="54" x2=".25" y2="54"/><line class="cls-4" x1="-72.25" y1="30" x2=".25" y2="30"/><line class="cls-4" x1="-72.25" y1="6" x2=".25" y2="6"/></g></g></pattern></defs><g id="Livello_1-2"><g><path class="cls-1" d="M101.94,64.92c1.04,11.26,.26,21.9,6.23,21.9s4.41-21.9,4.41-21.9h-10.64Z"/><polygon class="cls-1" points="212.04 41.59 2.66 41.59 26.88 1.53 181.78 6.1 212.04 41.59"/><polygon class="cls-3" points="2.66 41.59 212.04 41.59 205.04 67.77 15.89 67.77 2.66 41.59"/><polygon class="cls-2" points="2.66 41.59 212.04 41.59 205.04 67.77 15.89 67.77 2.66 41.59"/><path class="cls-1" d="M97.36,81.11s-20.76,15.46-22.31,2.54,22.31-2.54,22.31-2.54Z"/><path class="cls-1" d="M117.53,83.56s20.76-15.46,22.31-2.54-22.31,2.54-22.31,2.54Z"/></g></g></svg>